<?xml version="1.0" standalone="no"?>
 <!DOCTYPE svg PUBLIC "-//W3C//DTD SVG 1.1//EN" 
 "http://www.w3.org/Graphics/SVG/1.1/DTD/svg11.dtd"> 
<svg xmlns="http://www.w3.org/2000/svg" version="1.1" 
    width="29.7002cm" height="21.0007cm" viewBox="0 0 116930 82680 ">
<title>SVG Picture created as SW48A2-F.Cu.svg date 2017/03/15 15:00:30 </title>
  <desc>Picture generated by PCBNEW </desc>
<g style="fill:#000000; fill-opacity:1;stroke:#000000; stroke-opacity:1;
stroke-linecap:round; stroke-linejoin:round; "
 transform="translate(0 0) scale(1 1)">
</g>
<g style="fill:#000000; fill-opacity:0.0; 
stroke:#000000; stroke-width:-0.000393701; stroke-opacity:1; 
stroke-linecap:round; stroke-linejoin:round;">
</g>
<g style="fill:#000000; fill-opacity:0.0; 
stroke:#000000; stroke-width:0; stroke-opacity:1; 
stroke-linecap:round; stroke-linejoin:round;">
</g>
<g style="fill:#000000; fill-opacity:1.0; 
stroke:#000000; stroke-width:0; stroke-opacity:1; 
stroke-linecap:round; stroke-linejoin:round;">
<polyline style="fill-rule:evenodd;"
points="68050,40375
68405,40375
68405,39902
68050,39902
68050,40375
" /> 
<polyline style="fill-rule:evenodd;"
points="68050,39508
68405,39508
68405,39036
68050,39036
68050,39508
" /> 
<circle cx="74449.7" cy="44704.7" r="590.551" /> 
</g>
<g style="fill:#000000; fill-opacity:1.0; 
stroke:#000000; stroke-width:39.3701; stroke-opacity:1; 
stroke-linecap:round; stroke-linejoin:round;">
</g>
<g style="fill:#000000; fill-opacity:1.0; 
stroke:#000000; stroke-width:0; stroke-opacity:1; 
stroke-linecap:round; stroke-linejoin:round;">
<polyline style="fill-rule:evenodd;"
points="71338,39875
71180,39875
71180,40504
71338,40504
71338,39875
" /> 
<polyline style="fill-rule:evenodd;"
points="71594,39875
71436,39875
71436,40504
71594,40504
71594,39875
" /> 
<polyline style="fill-rule:evenodd;"
points="71850,39875
71692,39875
71692,40504
71850,40504
71850,39875
" /> 
<polyline style="fill-rule:evenodd;"
points="72106,39875
71948,39875
71948,40504
72106,40504
72106,39875
" /> 
<polyline style="fill-rule:evenodd;"
points="72361,39875
72204,39875
72204,40504
72361,40504
72361,39875
" /> 
<polyline style="fill-rule:evenodd;"
points="72617,39875
72460,39875
72460,40504
72617,40504
72617,39875
" /> 
<polyline style="fill-rule:evenodd;"
points="72873,39875
72716,39875
72716,40504
72873,40504
72873,39875
" /> 
<polyline style="fill-rule:evenodd;"
points="73129,39875
72972,39875
72972,40504
73129,40504
73129,39875
" /> 
<polyline style="fill-rule:evenodd;"
points="73385,39875
73228,39875
73228,40504
73385,40504
73385,39875
" /> 
<polyline style="fill-rule:evenodd;"
points="73641,39875
73484,39875
73484,40504
73641,40504
73641,39875
" /> 
<polyline style="fill-rule:evenodd;"
points="73897,39875
73739,39875
73739,40504
73897,40504
73897,39875
" /> 
<polyline style="fill-rule:evenodd;"
points="74153,39875
73995,39875
73995,40504
74153,40504
74153,39875
" /> 
<polyline style="fill-rule:evenodd;"
points="74409,39875
74251,39875
74251,40504
74409,40504
74409,39875
" /> 
<polyline style="fill-rule:evenodd;"
points="74665,39875
74507,39875
74507,40504
74665,40504
74665,39875
" /> 
<polyline style="fill-rule:evenodd;"
points="74507,42764
74665,42764
74665,42134
74507,42134
74507,42764
" /> 
<polyline style="fill-rule:evenodd;"
points="74251,42764
74409,42764
74409,42134
74251,42134
74251,42764
" /> 
<polyline style="fill-rule:evenodd;"
points="73995,42764
74153,42764
74153,42134
73995,42134
73995,42764
" /> 
<polyline style="fill-rule:evenodd;"
points="73739,42764
73897,42764
73897,42134
73739,42134
73739,42764
" /> 
<polyline style="fill-rule:evenodd;"
points="73484,42764
73641,42764
73641,42134
73484,42134
73484,42764
" /> 
<polyline style="fill-rule:evenodd;"
points="73228,42764
73385,42764
73385,42134
73228,42134
73228,42764
" /> 
<polyline style="fill-rule:evenodd;"
points="72972,42764
73129,42764
73129,42134
72972,42134
72972,42764
" /> 
<polyline style="fill-rule:evenodd;"
points="72716,42764
72873,42764
72873,42134
72716,42134
72716,42764
" /> 
<polyline style="fill-rule:evenodd;"
points="72460,42764
72617,42764
72617,42134
72460,42134
72460,42764
" /> 
<polyline style="fill-rule:evenodd;"
points="72204,42764
72361,42764
72361,42134
72204,42134
72204,42764
" /> 
<polyline style="fill-rule:evenodd;"
points="71948,42764
72106,42764
72106,42134
71948,42134
71948,42764
" /> 
<polyline style="fill-rule:evenodd;"
points="71692,42764
71850,42764
71850,42134
71692,42134
71692,42764
" /> 
<polyline style="fill-rule:evenodd;"
points="71436,42764
71594,42764
71594,42134
71436,42134
71436,42764
" /> 
<polyline style="fill-rule:evenodd;"
points="71180,42764
71338,42764
71338,42134
71180,42134
71180,42764
" /> 
<polyline style="fill-rule:evenodd;"
points="74832,40650
71013,40650
71013,41989
74832,41989
74832,40650
" /> 
<circle cx="72923" cy="41319.9" r="78.7402" /> 
</g>
<g style="fill:#000000; fill-opacity:1.0; 
stroke:#000000; stroke-width:39.3701; stroke-opacity:1; 
stroke-linecap:round; stroke-linejoin:round;">
</g>
<g style="fill:#000000; fill-opacity:1.0; 
stroke:#000000; stroke-width:0; stroke-opacity:1; 
stroke-linecap:round; stroke-linejoin:round;">
<circle cx="72923" cy="40808.1" r="78.7402" /> 
</g>
<g style="fill:#000000; fill-opacity:1.0; 
stroke:#000000; stroke-width:39.3701; stroke-opacity:1; 
stroke-linecap:round; stroke-linejoin:round;">
</g>
<g style="fill:#000000; fill-opacity:1.0; 
stroke:#000000; stroke-width:0; stroke-opacity:1; 
stroke-linecap:round; stroke-linejoin:round;">
<circle cx="72923" cy="41831.7" r="78.7402" /> 
</g>
<g style="fill:#000000; fill-opacity:1.0; 
stroke:#000000; stroke-width:39.3701; stroke-opacity:1; 
stroke-linecap:round; stroke-linejoin:round;">
</g>
<g style="fill:#000000; fill-opacity:1.0; 
stroke:#000000; stroke-width:0; stroke-opacity:1; 
stroke-linecap:round; stroke-linejoin:round;">
<circle cx="73434.8" cy="40808.1" r="78.7402" /> 
</g>
<g style="fill:#000000; fill-opacity:1.0; 
stroke:#000000; stroke-width:39.3701; stroke-opacity:1; 
stroke-linecap:round; stroke-linejoin:round;">
</g>
<g style="fill:#000000; fill-opacity:1.0; 
stroke:#000000; stroke-width:0; stroke-opacity:1; 
stroke-linecap:round; stroke-linejoin:round;">
<circle cx="73434.8" cy="41319.9" r="78.7402" /> 
</g>
<g style="fill:#000000; fill-opacity:1.0; 
stroke:#000000; stroke-width:39.3701; stroke-opacity:1; 
stroke-linecap:round; stroke-linejoin:round;">
</g>
<g style="fill:#000000; fill-opacity:1.0; 
stroke:#000000; stroke-width:0; stroke-opacity:1; 
stroke-linecap:round; stroke-linejoin:round;">
<circle cx="73434.8" cy="41831.7" r="78.7402" /> 
</g>
<g style="fill:#000000; fill-opacity:1.0; 
stroke:#000000; stroke-width:39.3701; stroke-opacity:1; 
stroke-linecap:round; stroke-linejoin:round;">
</g>
<g style="fill:#000000; fill-opacity:1.0; 
stroke:#000000; stroke-width:0; stroke-opacity:1; 
stroke-linecap:round; stroke-linejoin:round;">
<circle cx="73946.6" cy="40808.1" r="78.7402" /> 
</g>
<g style="fill:#000000; fill-opacity:1.0; 
stroke:#000000; stroke-width:39.3701; stroke-opacity:1; 
stroke-linecap:round; stroke-linejoin:round;">
</g>
<g style="fill:#000000; fill-opacity:1.0; 
stroke:#000000; stroke-width:0; stroke-opacity:1; 
stroke-linecap:round; stroke-linejoin:round;">
<circle cx="73946.6" cy="41319.9" r="78.7402" /> 
</g>
<g style="fill:#000000; fill-opacity:1.0; 
stroke:#000000; stroke-width:39.3701; stroke-opacity:1; 
stroke-linecap:round; stroke-linejoin:round;">
</g>
<g style="fill:#000000; fill-opacity:1.0; 
stroke:#000000; stroke-width:0; stroke-opacity:1; 
stroke-linecap:round; stroke-linejoin:round;">
<circle cx="73946.6" cy="41831.7" r="78.7402" /> 
</g>
<g style="fill:#000000; fill-opacity:1.0; 
stroke:#000000; stroke-width:39.3701; stroke-opacity:1; 
stroke-linecap:round; stroke-linejoin:round;">
</g>
<g style="fill:#000000; fill-opacity:1.0; 
stroke:#000000; stroke-width:0; stroke-opacity:1; 
stroke-linecap:round; stroke-linejoin:round;">
<circle cx="74458.4" cy="40808.1" r="78.7402" /> 
</g>
<g style="fill:#000000; fill-opacity:1.0; 
stroke:#000000; stroke-width:39.3701; stroke-opacity:1; 
stroke-linecap:round; stroke-linejoin:round;">
</g>
<g style="fill:#000000; fill-opacity:1.0; 
stroke:#000000; stroke-width:0; stroke-opacity:1; 
stroke-linecap:round; stroke-linejoin:round;">
<circle cx="74458.4" cy="41319.9" r="78.7402" /> 
</g>
<g style="fill:#000000; fill-opacity:1.0; 
stroke:#000000; stroke-width:39.3701; stroke-opacity:1; 
stroke-linecap:round; stroke-linejoin:round;">
</g>
<g style="fill:#000000; fill-opacity:1.0; 
stroke:#000000; stroke-width:0; stroke-opacity:1; 
stroke-linecap:round; stroke-linejoin:round;">
<circle cx="74458.4" cy="41831.7" r="78.7402" /> 
</g>
<g style="fill:#000000; fill-opacity:1.0; 
stroke:#000000; stroke-width:39.3701; stroke-opacity:1; 
stroke-linecap:round; stroke-linejoin:round;">
</g>
<g style="fill:#000000; fill-opacity:1.0; 
stroke:#000000; stroke-width:0; stroke-opacity:1; 
stroke-linecap:round; stroke-linejoin:round;">
<circle cx="72411.2" cy="40808.1" r="78.7402" /> 
</g>
<g style="fill:#000000; fill-opacity:1.0; 
stroke:#000000; stroke-width:39.3701; stroke-opacity:1; 
stroke-linecap:round; stroke-linejoin:round;">
</g>
<g style="fill:#000000; fill-opacity:1.0; 
stroke:#000000; stroke-width:0; stroke-opacity:1; 
stroke-linecap:round; stroke-linejoin:round;">
<circle cx="72411.2" cy="41319.9" r="78.7402" /> 
</g>
<g style="fill:#000000; fill-opacity:1.0; 
stroke:#000000; stroke-width:39.3701; stroke-opacity:1; 
stroke-linecap:round; stroke-linejoin:round;">
</g>
<g style="fill:#000000; fill-opacity:1.0; 
stroke:#000000; stroke-width:0; stroke-opacity:1; 
stroke-linecap:round; stroke-linejoin:round;">
<circle cx="72411.2" cy="41831.7" r="78.7402" /> 
</g>
<g style="fill:#000000; fill-opacity:1.0; 
stroke:#000000; stroke-width:39.3701; stroke-opacity:1; 
stroke-linecap:round; stroke-linejoin:round;">
</g>
<g style="fill:#000000; fill-opacity:1.0; 
stroke:#000000; stroke-width:0; stroke-opacity:1; 
stroke-linecap:round; stroke-linejoin:round;">
<circle cx="71899.4" cy="41831.7" r="78.7402" /> 
</g>
<g style="fill:#000000; fill-opacity:1.0; 
stroke:#000000; stroke-width:39.3701; stroke-opacity:1; 
stroke-linecap:round; stroke-linejoin:round;">
</g>
<g style="fill:#000000; fill-opacity:1.0; 
stroke:#000000; stroke-width:0; stroke-opacity:1; 
stroke-linecap:round; stroke-linejoin:round;">
<circle cx="71899.4" cy="41319.9" r="78.7402" /> 
</g>
<g style="fill:#000000; fill-opacity:1.0; 
stroke:#000000; stroke-width:39.3701; stroke-opacity:1; 
stroke-linecap:round; stroke-linejoin:round;">
</g>
<g style="fill:#000000; fill-opacity:1.0; 
stroke:#000000; stroke-width:0; stroke-opacity:1; 
stroke-linecap:round; stroke-linejoin:round;">
<circle cx="71899.4" cy="40808.1" r="78.7402" /> 
</g>
<g style="fill:#000000; fill-opacity:1.0; 
stroke:#000000; stroke-width:39.3701; stroke-opacity:1; 
stroke-linecap:round; stroke-linejoin:round;">
</g>
<g style="fill:#000000; fill-opacity:1.0; 
stroke:#000000; stroke-width:0; stroke-opacity:1; 
stroke-linecap:round; stroke-linejoin:round;">
<circle cx="71387.6" cy="40808.1" r="78.7402" /> 
</g>
<g style="fill:#000000; fill-opacity:1.0; 
stroke:#000000; stroke-width:39.3701; stroke-opacity:1; 
stroke-linecap:round; stroke-linejoin:round;">
</g>
<g style="fill:#000000; fill-opacity:1.0; 
stroke:#000000; stroke-width:0; stroke-opacity:1; 
stroke-linecap:round; stroke-linejoin:round;">
<circle cx="71387.6" cy="41319.9" r="78.7402" /> 
</g>
<g style="fill:#000000; fill-opacity:1.0; 
stroke:#000000; stroke-width:39.3701; stroke-opacity:1; 
stroke-linecap:round; stroke-linejoin:round;">
</g>
<g style="fill:#000000; fill-opacity:1.0; 
stroke:#000000; stroke-width:0; stroke-opacity:1; 
stroke-linecap:round; stroke-linejoin:round;">
<circle cx="71387.6" cy="41831.7" r="78.7402" /> 
</g>
<g style="fill:#000000; fill-opacity:1.0; 
stroke:#000000; stroke-width:39.3701; stroke-opacity:1; 
stroke-linecap:round; stroke-linejoin:round;">
</g>
<g style="fill:#000000; fill-opacity:1.0; 
stroke:#000000; stroke-width:0; stroke-opacity:1; 
stroke-linecap:round; stroke-linejoin:round;">
<circle cx="81098.1" cy="37171.7" r="590.551" /> 
</g>
<g style="fill:#000000; fill-opacity:1.0; 
stroke:#000000; stroke-width:39.3701; stroke-opacity:1; 
stroke-linecap:round; stroke-linejoin:round;">
</g>
<g style="fill:#000000; fill-opacity:1.0; 
stroke:#000000; stroke-width:0; stroke-opacity:1; 
stroke-linecap:round; stroke-linejoin:round;">
<polyline style="fill-rule:evenodd;"
points="76122,43208
75768,43208
75768,43681
76122,43681
76122,43208
" /> 
<polyline style="fill-rule:evenodd;"
points="76122,44074
75768,44074
75768,44547
76122,44547
76122,44074
" /> 
<polyline style="fill-rule:evenodd;"
points="71722,38071
72214,38071
72214,37481
71722,37481
71722,38071
" /> 
<polyline style="fill-rule:evenodd;"
points="71722,37087
72214,37087
72214,36497
71722,36497
71722,37087
" /> 
<polyline style="fill-rule:evenodd;"
points="73367,44670
73367,44190
73009,44190
73009,44670
73367,44670
" /> 
<polyline style="fill-rule:evenodd;"
points="72080,44670
72080,44190
71722,44190
71722,44670
72080,44670
" /> 
<polyline style="fill-rule:evenodd;"
points="83796,47159
84151,47159
84151,46884
83796,46884
83796,47159
" /> 
<polyline style="fill-rule:evenodd;"
points="81314,47159
81668,47159
81668,46884
81314,46884
81314,47159
" /> 
<polyline style="fill-rule:evenodd;"
points="83796,46659
84151,46659
84151,46384
83796,46384
83796,46659
" /> 
<polyline style="fill-rule:evenodd;"
points="81314,46659
81668,46659
81668,46384
81314,46384
81314,46659
" /> 
<polyline style="fill-rule:evenodd;"
points="83796,46159
84151,46159
84151,45884
83796,45884
83796,46159
" /> 
<polyline style="fill-rule:evenodd;"
points="81314,46159
81668,46159
81668,45884
81314,45884
81314,46159
" /> 
<polyline style="fill-rule:evenodd;"
points="83796,45659
84151,45659
84151,45384
83796,45384
83796,45659
" /> 
<polyline style="fill-rule:evenodd;"
points="81314,45659
81668,45659
81668,45384
81314,45384
81314,45659
" /> 
<polyline style="fill-rule:evenodd;"
points="82032,47256
83827,47256
83827,45287
82032,45287
82032,47256
" /> 
<polyline style="fill-rule:evenodd;"
points="84222,37358
84470,37358
84470,37161
84222,37161
84222,37358
" /> 
<polyline style="fill-rule:evenodd;"
points="82844,37358
83092,37358
83092,37161
82844,37161
82844,37358
" /> 
<polyline style="fill-rule:evenodd;"
points="84222,37102
84470,37102
84470,36905
84222,36905
84222,37102
" /> 
<polyline style="fill-rule:evenodd;"
points="82844,37102
83092,37102
83092,36905
82844,36905
82844,37102
" /> 
<polyline style="fill-rule:evenodd;"
points="84222,36846
84470,36846
84470,36650
84222,36650
84222,36846
" /> 
<polyline style="fill-rule:evenodd;"
points="82844,36846
83092,36846
83092,36650
82844,36650
82844,36846
" /> 
<polyline style="fill-rule:evenodd;"
points="84222,36590
84470,36590
84470,36394
84222,36394
84222,36590
" /> 
<polyline style="fill-rule:evenodd;"
points="82844,36590
83092,36590
83092,36394
82844,36394
82844,36590
" /> 
<polyline style="fill-rule:evenodd;"
points="83480,37358
84228,37358
84228,36394
83480,36394
83480,37358
" /> 
<polyline style="fill-rule:evenodd;"
points="86826,29907
86826,29277
85448,29277
85448,29907
86826,29907
" /> 
<polyline style="fill-rule:evenodd;"
points="88952,29907
88952,29277
87574,29277
87574,29907
88952,29907
" /> 
<circle cx="69174.1" cy="44862.2" r="590.551" /> 
</g>
<g style="fill:#000000; fill-opacity:1.0; 
stroke:#000000; stroke-width:39.3701; stroke-opacity:1; 
stroke-linecap:round; stroke-linejoin:round;">
</g>
<g style="fill:#000000; fill-opacity:1.0; 
stroke:#000000; stroke-width:0; stroke-opacity:1; 
stroke-linecap:round; stroke-linejoin:round;">
<circle cx="75512.7" cy="46122" r="590.551" /> 
</g>
<g style="fill:#000000; fill-opacity:1.0; 
stroke:#000000; stroke-width:39.3701; stroke-opacity:1; 
stroke-linecap:round; stroke-linejoin:round;">
</g>
<g style="fill:#000000; fill-opacity:1.0; 
stroke:#000000; stroke-width:0; stroke-opacity:1; 
stroke-linecap:round; stroke-linejoin:round;">
<circle cx="72874.9" cy="46397.6" r="590.551" /> 
</g>
<g style="fill:#000000; fill-opacity:1.0; 
stroke:#000000; stroke-width:39.3701; stroke-opacity:1; 
stroke-linecap:round; stroke-linejoin:round;">
</g>
<g style="fill:#000000; fill-opacity:1.0; 
stroke:#000000; stroke-width:0; stroke-opacity:1; 
stroke-linecap:round; stroke-linejoin:round;">
<circle cx="69174.1" cy="42893.7" r="590.551" /> 
</g>
<g style="fill:#000000; fill-opacity:1.0; 
stroke:#000000; stroke-width:39.3701; stroke-opacity:1; 
stroke-linecap:round; stroke-linejoin:round;">
</g>
<g style="fill:#000000; fill-opacity:1.0; 
stroke:#000000; stroke-width:0; stroke-opacity:1; 
stroke-linecap:round; stroke-linejoin:round;">
<circle cx="86216.2" cy="46029.9" r="590.551" /> 
</g>
<g style="fill:#000000; fill-opacity:1.0; 
stroke:#000000; stroke-width:39.3701; stroke-opacity:1; 
stroke-linecap:round; stroke-linejoin:round;">
</g>
<g style="fill:#000000; fill-opacity:1.0; 
stroke:#000000; stroke-width:0; stroke-opacity:1; 
stroke-linecap:round; stroke-linejoin:round;">
<circle cx="88086.3" cy="40518.1" r="590.551" /> 
</g>
<g style="fill:#000000; fill-opacity:1.0; 
stroke:#000000; stroke-width:39.3701; stroke-opacity:1; 
stroke-linecap:round; stroke-linejoin:round;">
</g>
<g style="fill:#000000; fill-opacity:1.0; 
stroke:#000000; stroke-width:0; stroke-opacity:1; 
stroke-linecap:round; stroke-linejoin:round;">
<circle cx="89365.8" cy="45833.1" r="590.551" /> 
</g>
<g style="fill:#000000; fill-opacity:1.0; 
stroke:#000000; stroke-width:39.3701; stroke-opacity:1; 
stroke-linecap:round; stroke-linejoin:round;">
</g>
<g style="fill:#000000; fill-opacity:1.0; 
stroke:#000000; stroke-width:0; stroke-opacity:1; 
stroke-linecap:round; stroke-linejoin:round;">
<polyline style="fill-rule:evenodd;"
points="85552,38962
85304,38962
85304,39159
85552,39159
85552,38962
" /> 
<polyline style="fill-rule:evenodd;"
points="86930,38962
86682,38962
86682,39159
86930,39159
86930,38962
" /> 
<polyline style="fill-rule:evenodd;"
points="85552,39218
85304,39218
85304,39415
85552,39415
85552,39218
" /> 
<polyline style="fill-rule:evenodd;"
points="86930,39218
86682,39218
86682,39415
86930,39415
86930,39218
" /> 
<polyline style="fill-rule:evenodd;"
points="85552,39474
85304,39474
85304,39671
85552,39671
85552,39474
" /> 
<polyline style="fill-rule:evenodd;"
points="86930,39474
86682,39474
86682,39671
86930,39671
86930,39474
" /> 
<polyline style="fill-rule:evenodd;"
points="85552,39730
85304,39730
85304,39927
85552,39927
85552,39730
" /> 
<polyline style="fill-rule:evenodd;"
points="86930,39730
86682,39730
86682,39927
86930,39927
86930,39730
" /> 
<polyline style="fill-rule:evenodd;"
points="86294,38962
85546,38962
85546,39927
86294,39927
86294,38962
" /> 
<polyline style="fill-rule:evenodd;"
points="87409,41896
85613,41896
85613,43864
87409,43864
87409,41896
" /> 
<polyline style="fill-rule:evenodd;"
points="88126,43492
87772,43492
87772,43768
88126,43768
88126,43492
" /> 
<polyline style="fill-rule:evenodd;"
points="85644,43492
85290,43492
85290,43768
85644,43768
85644,43492
" /> 
<polyline style="fill-rule:evenodd;"
points="88126,42992
87772,42992
87772,43268
88126,43268
88126,42992
" /> 
<polyline style="fill-rule:evenodd;"
points="85644,42992
85290,42992
85290,43268
85644,43268
85644,42992
" /> 
<polyline style="fill-rule:evenodd;"
points="88126,42492
87772,42492
87772,42768
88126,42768
88126,42492
" /> 
<polyline style="fill-rule:evenodd;"
points="85644,42492
85290,42492
85290,42768
85644,42768
85644,42492
" /> 
<polyline style="fill-rule:evenodd;"
points="88126,41992
87772,41992
87772,42268
88126,42268
88126,41992
" /> 
<polyline style="fill-rule:evenodd;"
points="85644,41992
85290,41992
85290,42268
85644,42268
85644,41992
" /> 
<polyline style="fill-rule:evenodd;"
points="86019,31837
86019,32466
86806,32466
86806,31837
86019,31837
" /> 
<polyline style="fill-rule:evenodd;"
points="87594,31837
87594,32466
88381,32466
88381,31837
87594,31837
" /> 
<polyline style="fill-rule:evenodd;"
points="71033,37973
71328,37973
71328,37501
71033,37501
71033,37973
" /> 
<polyline style="fill-rule:evenodd;"
points="71033,37225
71328,37225
71328,36752
71033,36752
71033,37225
" /> 
<polyline style="fill-rule:evenodd;"
points="72686,37067
72824,37067
72824,36949
72686,36949
72686,37067
" /> 
<polyline style="fill-rule:evenodd;"
points="72686,36851
72824,36851
72824,36733
72686,36733
72686,36851
" /> 
<polyline style="fill-rule:evenodd;"
points="68080,38642
68375,38642
68375,38170
68080,38170
68080,38642
" /> 
<polyline style="fill-rule:evenodd;"
points="68080,37894
68375,37894
68375,37422
68080,37422
68080,37894
" /> 
<polyline style="fill-rule:evenodd;"
points="70344,37973
70639,37973
70639,37501
70344,37501
70344,37973
" /> 
<polyline style="fill-rule:evenodd;"
points="70344,37225
70639,37225
70639,36752
70344,36752
70344,37225
" /> 
<polyline style="fill-rule:evenodd;"
points="76132,41673
75837,41673
75837,42145
76132,42145
76132,41673
" /> 
<polyline style="fill-rule:evenodd;"
points="76132,42421
75837,42421
75837,42893
76132,42893
76132,42421
" /> 
<polyline style="fill-rule:evenodd;"
points="70945,47814
70945,47185
70158,47185
70158,47814
70945,47814
" /> 
<polyline style="fill-rule:evenodd;"
points="69370,47814
69370,47185
68583,47185
68583,47814
69370,47814
" /> 
<polyline style="fill-rule:evenodd;"
points="70344,44016
70639,44016
70639,43544
70344,43544
70344,44016
" /> 
<polyline style="fill-rule:evenodd;"
points="70344,43268
70639,43268
70639,42796
70344,42796
70344,43268
" /> 
<polyline style="fill-rule:evenodd;"
points="72952,43534
72952,43829
73424,43829
73424,43534
72952,43534
" /> 
<polyline style="fill-rule:evenodd;"
points="73700,43534
73700,43829
74172,43829
74172,43534
73700,43534
" /> 
<polyline style="fill-rule:evenodd;"
points="71890,46555
71890,45925
71103,45925
71103,46555
71890,46555
" /> 
<polyline style="fill-rule:evenodd;"
points="70315,46555
70315,45925
69528,45925
69528,46555
70315,46555
" /> 
<polyline style="fill-rule:evenodd;"
points="83480,59711
83480,61679
84424,61679
84424,59711
83480,59711
" /> 
<polyline style="fill-rule:evenodd;"
points="86235,59711
86235,61679
87180,61679
87180,59711
86235,59711
" /> 
<polyline style="fill-rule:evenodd;"
points="83480,49868
83480,51837
84424,51837
84424,49868
83480,49868
" /> 
<polyline style="fill-rule:evenodd;"
points="86235,49868
86235,51837
87180,51837
87180,49868
86235,49868
" /> 
<polyline style="fill-rule:evenodd;"
points="83480,53018
83480,54986
84424,54986
84424,53018
83480,53018
" /> 
<polyline style="fill-rule:evenodd;"
points="86235,53018
86235,54986
87180,54986
87180,53018
86235,53018
" /> 
<polyline style="fill-rule:evenodd;"
points="83480,56167
83480,58136
84424,58136
84424,56167
83480,56167
" /> 
<polyline style="fill-rule:evenodd;"
points="86235,56167
86235,58136
87180,58136
87180,56167
86235,56167
" /> 
<polyline style="fill-rule:evenodd;"
points="67122,39976
67603,39976
67603,39618
67122,39618
67122,39976
" /> 
<polyline style="fill-rule:evenodd;"
points="67122,38688
67603,38688
67603,38330
67122,38330
67122,38688
" /> 
<polyline style="fill-rule:evenodd;"
points="85393,38067
85393,38547
85751,38547
85751,38067
85393,38067
" /> 
<polyline style="fill-rule:evenodd;"
points="86680,38067
86680,38547
87039,38547
87039,38067
86680,38067
" /> 
<polyline style="fill-rule:evenodd;"
points="83637,49140
83637,48234
82259,48234
82259,49140
83637,49140
" /> 
<polyline style="fill-rule:evenodd;"
points="81511,49140
81511,48234
80133,48234
80133,49140
81511,49140
" /> 
<polyline style="fill-rule:evenodd;"
points="70456,45115
70456,45595
70814,45595
70814,45115
70456,45115
" /> 
<polyline style="fill-rule:evenodd;"
points="71743,45115
71743,45595
72102,45595
72102,45115
71743,45115
" /> 
</g>
<g style="fill:#000000; fill-opacity:1.0; 
stroke:#000000; stroke-width:787; stroke-opacity:1; 
stroke-linecap:round; stroke-linejoin:round;">
</g>
<g style="fill:#000000; fill-opacity:0.0; 
stroke:#000000; stroke-width:787; stroke-opacity:1; 
stroke-linecap:round; stroke-linejoin:round;">
<path d="M87819 26344
L87819 26344
" />
</g>
<g style="fill:#000000; fill-opacity:0.0; 
stroke:#000000; stroke-width:0; stroke-opacity:1; 
stroke-linecap:round; stroke-linejoin:round;">
</g>
<g style="fill:#000000; fill-opacity:1.0; 
stroke:#000000; stroke-width:0; stroke-opacity:1; 
stroke-linecap:round; stroke-linejoin:round;">
<polyline style="fill-rule:evenodd;"
points="86426,25951
86426,26738
87213,26738
87213,25951
86426,25951
" /> 
</g>
<g style="fill:#000000; fill-opacity:1.0; 
stroke:#000000; stroke-width:787; stroke-opacity:1; 
stroke-linecap:round; stroke-linejoin:round;">
</g>
<g style="fill:#000000; fill-opacity:0.0; 
stroke:#000000; stroke-width:787; stroke-opacity:1; 
stroke-linecap:round; stroke-linejoin:round;">
<path d="M84838 65419
L84838 65419
" />
</g>
<g style="fill:#000000; fill-opacity:0.0; 
stroke:#000000; stroke-width:0; stroke-opacity:1; 
stroke-linecap:round; stroke-linejoin:round;">
</g>
<g style="fill:#000000; fill-opacity:1.0; 
stroke:#000000; stroke-width:0; stroke-opacity:1; 
stroke-linecap:round; stroke-linejoin:round;">
<polyline style="fill-rule:evenodd;"
points="86231,65813
86231,65026
85444,65026
85444,65813
86231,65813
" /> 
<polyline style="fill-rule:evenodd;"
points="69908,39888
69671,39888
69671,40045
69908,40045
69908,39888
" /> 
<polyline style="fill-rule:evenodd;"
points="69908,40242
69671,40242
69671,40399
69908,40399
69908,40242
" /> 
<polyline style="fill-rule:evenodd;"
points="69908,40793
69671,40793
69671,40951
69908,40951
69908,40793
" /> 
<polyline style="fill-rule:evenodd;"
points="69908,41147
69671,41147
69671,41305
69908,41305
69908,41147
" /> 
<polyline style="fill-rule:evenodd;"
points="72637,38031
72873,38031
72873,37874
72637,37874
72637,38031
" /> 
<polyline style="fill-rule:evenodd;"
points="72637,37677
72873,37677
72873,37519
72637,37519
72637,37677
" /> 
<polyline style="fill-rule:evenodd;"
points="68838,37993
69192,37993
69192,37520
68838,37520
68838,37993
" /> 
<polyline style="fill-rule:evenodd;"
points="68838,37127
69192,37127
69192,36654
68838,36654
68838,37127
" /> 
<polyline style="fill-rule:evenodd;"
points="69684,37815
69921,37815
69921,37658
69684,37658
69684,37815
" /> 
<polyline style="fill-rule:evenodd;"
points="69684,37461
69921,37461
69921,37304
69684,37304
69684,37461
" /> 
<polyline style="fill-rule:evenodd;"
points="75138,42066
75492,42066
75492,41594
75138,41594
75138,42066
" /> 
<polyline style="fill-rule:evenodd;"
points="75138,41200
75492,41200
75492,40728
75138,40728
75138,41200
" /> 
<polyline style="fill-rule:evenodd;"
points="73288,37972
73642,37972
73642,37500
73288,37500
73288,37972
" /> 
<polyline style="fill-rule:evenodd;"
points="73288,37106
73642,37106
73642,36633
73288,36633
73288,37106
" /> 
<polyline style="fill-rule:evenodd;"
points="72284,45118
72284,45472
72756,45472
72756,45118
72284,45118
" /> 
<polyline style="fill-rule:evenodd;"
points="73150,45118
73150,45472
73622,45472
73622,45118
73150,45118
" /> 
<polyline style="fill-rule:evenodd;"
points="78342,41699
78342,42486
81885,42486
81885,41699
78342,41699
" /> 
<polyline style="fill-rule:evenodd;"
points="78342,39337
78342,40124
81885,40124
81885,39337
78342,39337
" /> 
<polyline style="fill-rule:evenodd;"
points="91432,41502
92613,41502
92613,39533
91432,39533
91432,41502
" /> 
<polyline style="fill-rule:evenodd;"
points="89464,41502
90645,41502
90645,39533
89464,39533
89464,41502
" /> 
<polyline style="fill-rule:evenodd;"
points="75654,36468
74974,36468
74974,37148
75654,37148
75654,36468
" /> 
</g>
<g style="fill:#000000; fill-opacity:1.0; 
stroke:#000000; stroke-width:680; stroke-opacity:1; 
stroke-linecap:round; stroke-linejoin:round;">
</g>
<g style="fill:#000000; fill-opacity:0.0; 
stroke:#000000; stroke-width:680; stroke-opacity:1; 
stroke-linecap:round; stroke-linejoin:round;">
<path d="M75314 37808
L75314 37808
" />
<path d="M76314 36808
L76314 36808
" />
<path d="M76314 37808
L76314 37808
" />
</g>
<g style="fill:#000000; fill-opacity:0.0; 
stroke:#000000; stroke-width:0; stroke-opacity:1; 
stroke-linecap:round; stroke-linejoin:round;">
</g>
<g style="fill:#000000; fill-opacity:1.0; 
stroke:#000000; stroke-width:0; stroke-opacity:1; 
stroke-linecap:round; stroke-linejoin:round;">
<polyline style="fill-rule:evenodd;"
points="84168,35242
84523,35242
84523,34770
84168,34770
84168,35242
" /> 
<polyline style="fill-rule:evenodd;"
points="84168,34376
84523,34376
84523,33903
84168,33903
84168,34376
" /> 
<circle cx="74882.8" cy="53523.6" r="590.551" /> 
</g>
<g style="fill:#000000; fill-opacity:1.0; 
stroke:#000000; stroke-width:39.3701; stroke-opacity:1; 
stroke-linecap:round; stroke-linejoin:round;">
</g>
<g style="fill:#000000; fill-opacity:1.0; 
stroke:#000000; stroke-width:0; stroke-opacity:1; 
stroke-linecap:round; stroke-linejoin:round;">
<circle cx="89056" cy="54035.4" r="590.551" /> 
</g>
<g style="fill:#000000; fill-opacity:1.0; 
stroke:#000000; stroke-width:39.3701; stroke-opacity:1; 
stroke-linecap:round; stroke-linejoin:round;">
</g>
<g style="fill:#000000; fill-opacity:1.0; 
stroke:#000000; stroke-width:0; stroke-opacity:1; 
stroke-linecap:round; stroke-linejoin:round;">
<circle cx="90158.3" cy="42657.5" r="590.551" /> 
</g>
<g style="fill:#000000; fill-opacity:1.0; 
stroke:#000000; stroke-width:39.3701; stroke-opacity:1; 
stroke-linecap:round; stroke-linejoin:round;">
</g>
<g style="fill:#000000; fill-opacity:1.0; 
stroke:#000000; stroke-width:0; stroke-opacity:1; 
stroke-linecap:round; stroke-linejoin:round;">
<circle cx="76930" cy="44271.7" r="590.551" /> 
</g>
<g style="fill:#000000; fill-opacity:1.0; 
stroke:#000000; stroke-width:39.3701; stroke-opacity:1; 
stroke-linecap:round; stroke-linejoin:round;">
</g>
<g style="fill:#000000; fill-opacity:1.0; 
stroke:#000000; stroke-width:0; stroke-opacity:1; 
stroke-linecap:round; stroke-linejoin:round;">
<circle cx="67363.1" cy="42933.1" r="590.551" /> 
</g>
<g style="fill:#000000; fill-opacity:1.0; 
stroke:#000000; stroke-width:39.3701; stroke-opacity:1; 
stroke-linecap:round; stroke-linejoin:round;">
</g>
<g style="fill:#000000; fill-opacity:1.0; 
stroke:#000000; stroke-width:0; stroke-opacity:1; 
stroke-linecap:round; stroke-linejoin:round;">
<circle cx="83583.5" cy="39704.7" r="590.551" /> 
</g>
<g style="fill:#000000; fill-opacity:1.0; 
stroke:#000000; stroke-width:39.3701; stroke-opacity:1; 
stroke-linecap:round; stroke-linejoin:round;">
</g>
<g style="fill:#000000; fill-opacity:1.0; 
stroke:#000000; stroke-width:0; stroke-opacity:1; 
stroke-linecap:round; stroke-linejoin:round;">
<circle cx="78788.8" cy="48563" r="590.551" /> 
</g>
<g style="fill:#000000; fill-opacity:1.0; 
stroke:#000000; stroke-width:39.3701; stroke-opacity:1; 
stroke-linecap:round; stroke-linejoin:round;">
</g>
<g style="fill:#000000; fill-opacity:1.0; 
stroke:#000000; stroke-width:0; stroke-opacity:1; 
stroke-linecap:round; stroke-linejoin:round;">
<circle cx="75512.7" cy="46122" r="118.11" /> 
</g>
<g style="fill:#000000; fill-opacity:1.0; 
stroke:#000000; stroke-width:39.3701; stroke-opacity:1; 
stroke-linecap:round; stroke-linejoin:round;">
</g>
<g style="fill:#000000; fill-opacity:1.0; 
stroke:#000000; stroke-width:0; stroke-opacity:1; 
stroke-linecap:round; stroke-linejoin:round;">
<circle cx="81098.1" cy="37171.7" r="590.551" /> 
</g>
<g style="fill:#000000; fill-opacity:1.0; 
stroke:#000000; stroke-width:39.3701; stroke-opacity:1; 
stroke-linecap:round; stroke-linejoin:round;">
</g>
<g style="fill:#000000; fill-opacity:1.0; 
stroke:#000000; stroke-width:0; stroke-opacity:1; 
stroke-linecap:round; stroke-linejoin:round;">
<circle cx="69174.1" cy="42893.7" r="590.551" /> 
</g>
<g style="fill:#000000; fill-opacity:1.0; 
stroke:#000000; stroke-width:39.3701; stroke-opacity:1; 
stroke-linecap:round; stroke-linejoin:round;">
</g>
<g style="fill:#000000; fill-opacity:1.0; 
stroke:#000000; stroke-width:0; stroke-opacity:1; 
stroke-linecap:round; stroke-linejoin:round;">
<circle cx="88086.3" cy="40518.1" r="590.551" /> 
</g>
<g style="fill:#000000; fill-opacity:1.0; 
stroke:#000000; stroke-width:39.3701; stroke-opacity:1; 
stroke-linecap:round; stroke-linejoin:round;">
</g>
<g style="fill:#000000; fill-opacity:1.0; 
stroke:#000000; stroke-width:0; stroke-opacity:1; 
stroke-linecap:round; stroke-linejoin:round;">
<circle cx="69174.1" cy="44862.2" r="590.551" /> 
</g>
<g style="fill:#000000; fill-opacity:1.0; 
stroke:#000000; stroke-width:39.3701; stroke-opacity:1; 
stroke-linecap:round; stroke-linejoin:round;">
</g>
<g style="fill:#000000; fill-opacity:1.0; 
stroke:#000000; stroke-width:0; stroke-opacity:1; 
stroke-linecap:round; stroke-linejoin:round;">
<circle cx="74449.7" cy="44704.7" r="590.551" /> 
</g>
<g style="fill:#000000; fill-opacity:1.0; 
stroke:#000000; stroke-width:39.3701; stroke-opacity:1; 
stroke-linecap:round; stroke-linejoin:round;">
</g>
<g style="fill:#000000; fill-opacity:1.0; 
stroke:#000000; stroke-width:0; stroke-opacity:1; 
stroke-linecap:round; stroke-linejoin:round;">
<circle cx="86216.2" cy="46029.9" r="590.551" /> 
</g>
<g style="fill:#000000; fill-opacity:1.0; 
stroke:#000000; stroke-width:39.3701; stroke-opacity:1; 
stroke-linecap:round; stroke-linejoin:round;">
</g>
<g style="fill:#000000; fill-opacity:1.0; 
stroke:#000000; stroke-width:0; stroke-opacity:1; 
stroke-linecap:round; stroke-linejoin:round;">
<circle cx="72874.9" cy="46397.6" r="590.551" /> 
</g>
<g style="fill:#000000; fill-opacity:1.0; 
stroke:#000000; stroke-width:39.3701; stroke-opacity:1; 
stroke-linecap:round; stroke-linejoin:round;">
</g>
<g style="fill:#000000; fill-opacity:1.0; 
stroke:#000000; stroke-width:0; stroke-opacity:1; 
stroke-linecap:round; stroke-linejoin:round;">
<circle cx="89365.8" cy="45833.1" r="590.551" /> 
</g>
<g style="fill:#000000; fill-opacity:1.0; 
stroke:#000000; stroke-width:39.3701; stroke-opacity:1; 
stroke-linecap:round; stroke-linejoin:round;">
</g>
<g style="fill:#000000; fill-opacity:1.0; 
stroke:#000000; stroke-width:0; stroke-opacity:1; 
stroke-linecap:round; stroke-linejoin:round;">
<circle cx="89365.8" cy="45833.1" r="590.551" /> 
</g>
<g style="fill:#000000; fill-opacity:1.0; 
stroke:#000000; stroke-width:39.3701; stroke-opacity:1; 
stroke-linecap:round; stroke-linejoin:round;">
</g>
<g style="fill:#000000; fill-opacity:1.0; 
stroke:#000000; stroke-width:0; stroke-opacity:1; 
stroke-linecap:round; stroke-linejoin:round;">
<circle cx="72166.2" cy="48799.2" r="590.551" /> 
</g>
<g style="fill:#000000; fill-opacity:1.0; 
stroke:#000000; stroke-width:39.3701; stroke-opacity:1; 
stroke-linecap:round; stroke-linejoin:round;">
</g>
<g style="fill:#000000; fill-opacity:1.0; 
stroke:#000000; stroke-width:0; stroke-opacity:1; 
stroke-linecap:round; stroke-linejoin:round;">
<circle cx="74016.6" cy="35807.1" r="590.551" /> 
</g>
<g style="fill:#000000; fill-opacity:1.0; 
stroke:#000000; stroke-width:39.3701; stroke-opacity:1; 
stroke-linecap:round; stroke-linejoin:round;">
</g>
<g style="fill:#000000; fill-opacity:1.0; 
stroke:#000000; stroke-width:98.4252; stroke-opacity:1; 
stroke-linecap:round; stroke-linejoin:round;">
</g>
<g style="fill:#000000; fill-opacity:0.0; 
stroke:#000000; stroke-width:98.4252; stroke-opacity:1; 
stroke-linecap:round; stroke-linejoin:round;">
<path d="M73032 36988
L73032 36555
" />
<path d="M68977 47500
L69075 47500
" />
<path d="M69075 47500
L69922 46653
" />
<path d="M69922 46653
L69922 46240
" />
<path d="M72795 42449
L72795 42081
" />
<path d="M75226 41113
L75315 41023
" />
<path d="M72795 42081
L72716 42002
" />
<path d="M72716 42002
L72716 41220
" />
<path d="M72716 41220
L72823 41113
" />
<path d="M75315 41023
L75315 40964
" />
<path d="M72823 41113
L75226 41113
" />
<path d="M74882 53523
L68977 47618
" />
<path d="M68977 47618
L68977 47500
" />
<path d="M86708 54002
L89022 54002
" />
<path d="M89022 54002
L89055 54035
" />
<path d="M75315 40964
L75315 40905
" />
<path d="M69789 41226
L70006 41226
" />
<path d="M70006 41226
L70119 41113
" />
<path d="M70119 41113
L72823 41113
" />
<path d="M72283 40190
L72283 39191
" />
<path d="M69488 37382
L69802 37382
" />
<path d="M72283 39191
L72087 38996
" />
<path d="M72087 38996
L70276 38996
" />
<path d="M70276 38996
L69449 38169
" />
<path d="M69449 38169
L69449 37421
" />
<path d="M69449 37421
L69488 37382
" />
</g>
<g style="fill:#000000; fill-opacity:0.0; 
stroke:#000000; stroke-width:78.7402; stroke-opacity:1; 
stroke-linecap:round; stroke-linejoin:round;">
<path d="M86708 60695
L86708 61235
" />
<path d="M72795 42449
L72795 42056
" />
<path d="M72795 42056
L72608 41869
" />
<path d="M72608 41869
L72608 41737
" />
<path d="M72608 41737
L72387 41516
" />
</g>
<g style="fill:#000000; fill-opacity:0.0; 
stroke:#000000; stroke-width:98.4252; stroke-opacity:1; 
stroke-linecap:round; stroke-linejoin:round;">
<path d="M72311 40601
L72311 40541
" />
<path d="M72311 40541
L72283 40512
" />
<path d="M72283 40512
L72283 40190
" />
<path d="M72234 40580
L72234 40239
" />
<path d="M72234 40239
L72283 40190
" />
<path d="M72106 40708
L72106 40907
" />
<path d="M72234 40580
L72106 40708
" />
<path d="M72106 40907
L71998 41014
" />
<path d="M71998 41014
L71389 41014
" />
<path d="M72204 40907
L72380 41083
" />
<path d="M72311 40601
L72204 40708
" />
<path d="M72204 40708
L72204 40907
" />
<path d="M73562 40190
L73562 40603
" />
<path d="M73562 40603
L73641 40682
" />
<path d="M73641 40682
L73641 40907
" />
<path d="M73435 41113
L72410 41113
" />
<path d="M73641 40907
L73435 41113
" />
<path d="M72410 41113
L72204 40907
" />
</g>
<g style="fill:#000000; fill-opacity:0.0; 
stroke:#000000; stroke-width:118.11; stroke-opacity:1; 
stroke-linecap:round; stroke-linejoin:round;">
<path d="M72814 42469
L72795 42449
" />
</g>
<g style="fill:#000000; fill-opacity:0.0; 
stroke:#000000; stroke-width:98.4252; stroke-opacity:1; 
stroke-linecap:round; stroke-linejoin:round;">
<path d="M73050 40190
L73050 38660
" />
<path d="M73050 38660
L72717 38326
" />
<path d="M72717 38326
L71681 38326
" />
<path d="M71681 38326
L71180 37825
" />
<path d="M71180 37825
L71180 37737
" />
<path d="M72755 37598
L72755 37008
" />
<path d="M71968 37776
L72144 37952
" />
<path d="M72144 37952
L72755 37952
" />
<path d="M73306 40190
L73306 38464
" />
<path d="M73306 38464
L72795 37952
" />
<path d="M72795 37952
L72755 37952
" />
<path d="M71968 37825
L71968 37776
" />
<path d="M68228 39272
L68503 39272
" />
<path d="M68503 39272
L68837 39606
" />
<path d="M68837 39606
L71299 39606
" />
<path d="M71515 39821
L71299 39606
" />
<path d="M68228 39272
L68228 38406
" />
<path d="M71515 40190
L71515 39821
" />
<path d="M68228 38317
L68228 38406
" />
<path d="M75985 41909
L75394 41909
" />
<path d="M75394 41909
L75315 41830
" />
<path d="M74586 42449
L74763 42449
" />
<path d="M74763 42449
L75315 41897
" />
<path d="M75315 41897
L75315 41830
" />
<path d="M75335 41850
L75315 41830
" />
<path d="M75945 43444
L75945 42696
" />
<path d="M75945 42696
L75985 42657
" />
<path d="M76083 43307
L75945 43444
" />
<path d="M75158 43169
L74607 43169
" />
<path d="M74607 43169
L74330 42892
" />
<path d="M74330 42892
L74330 42863
" />
<path d="M74330 42863
L74330 42449
" />
<path d="M75433 43444
L75158 43169
" />
<path d="M75945 43444
L75433 43444
" />
<path d="M69789 39966
L69423 39966
" />
<path d="M69423 39966
L68701 40688
" />
<path d="M68701 40688
L67205 40688
" />
<path d="M67205 40688
L66496 39980
" />
<path d="M66496 39980
L66496 37618
" />
<path d="M66496 37618
L69203 34911
" />
<path d="M69189 34911
L69203 34911
" />
<path d="M69203 34911
L69449 34665
" />
<path d="M69449 34665
L75709 34665
" />
<path d="M75709 34665
L76378 35334
" />
<path d="M76378 35334
L76668 35334
" />
<path d="M76668 35334
L77509 34493
" />
<path d="M76314 37808
L76969 37153
" />
<path d="M76969 37153
L76969 35925
" />
<path d="M76969 35925
L76378 35334
" />
</g>
<g style="fill:#000000; fill-opacity:0.0; 
stroke:#000000; stroke-width:118.11; stroke-opacity:1; 
stroke-linecap:round; stroke-linejoin:round;">
<path d="M77509 34493
L77863 34140
" />
<path d="M77863 34140
L84346 34140
" />
<path d="M84326 34120
L84346 34140
" />
</g>
<g style="fill:#000000; fill-opacity:0.0; 
stroke:#000000; stroke-width:98.4252; stroke-opacity:1; 
stroke-linecap:round; stroke-linejoin:round;">
<path d="M68544 45688
L70024 45688
" />
<path d="M70024 45688
L70358 45355
" />
<path d="M70358 45355
L70635 45355
" />
<path d="M68150 45295
L68544 45688
" />
<path d="M68150 44153
L68150 45295
" />
<path d="M68544 43759
L68150 44153
" />
<path d="M70225 43759
L68544 43759
" />
<path d="M70491 43780
L70245 43780
" />
<path d="M70245 43780
L70225 43759
" />
<path d="M70925 43780
L71771 42934
" />
<path d="M71771 42934
L71771 42893
" />
<path d="M70491 43780
L70925 43780
" />
<path d="M71771 42449
L71771 42893
" />
<path d="M73188 43682
L73188 43436
" />
<path d="M73188 43436
L73306 43317
" />
<path d="M73306 43317
L73306 42863
" />
<path d="M73306 42863
L73306 42449
" />
</g>
<g style="fill:#000000; fill-opacity:0.0; 
stroke:#000000; stroke-width:118.11; stroke-opacity:1; 
stroke-linecap:round; stroke-linejoin:round;">
<path d="M73188 43682
L73188 44430
" />
</g>
<g style="fill:#000000; fill-opacity:0.0; 
stroke:#000000; stroke-width:98.4252; stroke-opacity:1; 
stroke-linecap:round; stroke-linejoin:round;">
<path d="M71901 44430
L72178 44430
" />
<path d="M72178 44430
L72539 44069
" />
<path d="M72539 44069
L72539 42863
" />
<path d="M72539 42863
L72539 42449
" />
<path d="M72520 45295
L71983 45295
" />
<path d="M71983 45295
L71922 45355
" />
<path d="M71901 44430
L71901 45333
" />
<path d="M71901 45333
L71922 45355
" />
<path d="M71496 46240
L71496 45503
" />
<path d="M71496 45503
L71645 45355
" />
<path d="M71645 45355
L71922 45355
" />
<path d="M71922 44451
L71901 44430
" />
<path d="M67363 39797
L67945 39797
" />
<path d="M67945 39797
L68228 40079
" />
<path d="M68228 40079
L68228 40138
" />
<path d="M68228 40197
L68228 40138
" />
<path d="M90158 42657
L90158 40621
" />
<path d="M90158 40621
L90054 40518
" />
<path d="M75945 44311
L76890 44311
" />
<path d="M76890 44311
L76930 44271
" />
<path d="M69789 40321
L71128 40321
" />
<path d="M71128 40321
L71259 40190
" />
<path d="M69789 40872
L69789 40321
" />
<path d="M71851 39232
L72027 39408
" />
<path d="M72027 39408
L72027 40190
" />
<path d="M70197 39232
L71851 39232
" />
<path d="M69016 38051
L70197 39232
" />
<path d="M69016 37986
L69016 38051
" />
<path d="M69015 37756
L69015 37985
" />
<path d="M69015 37985
L69016 37986
" />
<path d="M70433 38759
L69802 38128
" />
<path d="M69802 38128
L69802 37737
" />
<path d="M72284 38759
L70433 38759
" />
<path d="M72539 39014
L72284 38759
" />
<path d="M72539 40190
L72539 39014
" />
<path d="M73465 37736
L73465 38070
" />
<path d="M73465 38070
L73818 38424
" />
<path d="M73818 38424
L73818 39776
" />
<path d="M73818 39776
L73818 40190
" />
<path d="M74074 42449
L74074 43030
" />
<path d="M74685 47027
L73386 45728
" />
<path d="M74074 43030
L74449 43405
" />
<path d="M74449 43405
L75000 43405
" />
<path d="M75000 43405
L75512 43917
" />
<path d="M75512 43917
L75512 44783
" />
<path d="M75512 44783
L76457 45728
" />
<path d="M76457 45728
L76457 46673
" />
<path d="M76457 46673
L76103 47027
" />
<path d="M76103 47027
L74685 47027
" />
<path d="M73386 45728
L73386 45295
" />
<path d="M73445 45295
L73386 45295
" />
<path d="M67544 38051
L67544 37122
" />
<path d="M67544 37122
L69577 35088
" />
<path d="M69577 35088
L74361 35088
" />
<path d="M74361 35088
L74371 35098
" />
<path d="M74371 35098
L74804 35098
" />
<path d="M74804 35098
L75788 36082
" />
<path d="M75788 36082
L75788 37334
" />
<path d="M75788 37334
L75314 37808
" />
<path d="M71615 39429
L70079 39429
" />
<path d="M69449 38956
L69922 39429
" />
<path d="M67363 38509
L67363 38232
" />
<path d="M69922 39429
L70079 39429
" />
<path d="M67363 38232
L67544 38051
" />
<path d="M67544 38051
L67969 38051
" />
<path d="M67969 38051
L67978 38042
" />
<path d="M67978 38042
L68574 38042
" />
<path d="M68574 38042
L69449 38917
" />
<path d="M69449 38917
L69449 38956
" />
<path d="M71771 40190
L71771 39585
" />
<path d="M71771 39585
L71615 39429
" />
<path d="M83854 36876
L83854 35222
" />
<path d="M83854 35222
L84070 35006
" />
<path d="M84070 35006
L84346 35006
" />
<path d="M74330 40190
L74330 39449
" />
<path d="M74330 39449
L74790 38989
" />
<path d="M74790 38989
L74790 37639
" />
<path d="M74790 37639
L75314 37115
" />
<path d="M75314 37115
L75314 36808
" />
<path d="M75806 37566
L75806 38268
" />
<path d="M76314 36808
L76314 37058
" />
<path d="M76314 37058
L75806 37566
" />
<path d="M75806 38268
L74586 39489
" />
<path d="M74586 39489
L74586 40190
" />
<path d="M72559 38562
L72795 38798
" />
<path d="M72795 38798
L72795 40190
" />
<path d="M70982 38562
L72559 38562
" />
<path d="M70491 37737
L70491 38071
" />
<path d="M70491 38071
L70982 38562
" />
<path d="M67914 42381
L67363 42933
" />
<path d="M83583 39704
L85661 39704
" />
<path d="M85661 39704
L85920 39445
" />
<path d="M68465 41830
L67914 42381
" />
<path d="M69764 41830
L68465 41830
" />
<path d="M70473 42539
L69764 41830
" />
<path d="M70473 42925
L70473 42539
" />
<path d="M70491 43032
L70491 42943
" />
<path d="M70491 42943
L70473 42925
" />
</g>
<g style="fill:#000000; fill-opacity:0.0; 
stroke:#000000; stroke-width:118.11; stroke-opacity:1; 
stroke-linecap:round; stroke-linejoin:round;">
<path d="M79632 39730
L80113 39730
" />
</g>
<g style="fill:#000000; fill-opacity:0.0; 
stroke:#000000; stroke-width:98.4252; stroke-opacity:1; 
stroke-linecap:round; stroke-linejoin:round;">
<path d="M71259 42449
L71259 42686
" />
<path d="M71259 42686
L70913 43032
" />
<path d="M70913 43032
L70737 43032
" />
<path d="M70737 43032
L70491 43032
" />
<path d="M85428 39829
L85428 39061
" />
<path d="M78788 48562
L80698 48562
" />
<path d="M80698 48562
L80822 48687
" />
<path d="M75237 44074
L74844 43682
" />
<path d="M74844 43682
L73936 43682
" />
<path d="M75237 45011
L75237 44074
" />
<path d="M75512 46122
L75512 45286
" />
<path d="M75512 45286
L75237 45011
" />
<path d="M73936 43682
L73936 43143
" />
<path d="M73936 43143
L73818 43025
" />
<path d="M73818 43025
L73818 42863
" />
<path d="M73818 42863
L73818 42449
" />
<path d="M85429 42092
L85467 42130
" />
<path d="M82717 35925
L82968 36175
" />
<path d="M82968 36175
L82968 36492
" />
<path d="M81509 35925
L82717 35925
" />
<path d="M81098 37171
L81098 36336
" />
<path d="M81098 36336
L81509 35925
" />
<path d="M70237 43405
L70158 43405
" />
<path d="M70973 43405
L70237 43405
" />
<path d="M70237 43405
L70158 43484
" />
<path d="M70158 43484
L69764 43484
" />
<path d="M69764 43484
L69174 42893
" />
<path d="M70973 43405
L71515 42863
" />
<path d="M71515 42863
L71515 42449
" />
<path d="M88086 40518
L87397 39829
" />
<path d="M87397 39829
L86806 39829
" />
<path d="M69174 44862
L70093 44862
" />
<path d="M70093 44862
L72027 42928
" />
<path d="M72027 42928
L72027 42863
" />
<path d="M72027 42863
L72027 42449
" />
<path d="M73622 44114
L73562 44054
" />
<path d="M73562 44054
L73562 42449
" />
<path d="M74449 44704
L73859 44114
" />
<path d="M73859 44114
L73622 44114
" />
<path d="M89365 45833
L87949 44416
" />
<path d="M87949 44416
L87949 43630
" />
<path d="M72953 45728
L72953 45084
" />
<path d="M72953 45084
L72756 44887
" />
<path d="M72756 44887
L72756 43157
" />
<path d="M72874 45807
L72953 45728
" />
<path d="M72874 46397
L72874 45807
" />
<path d="M73050 42449
L73050 42863
" />
<path d="M73050 42863
L72756 43157
" />
<path d="M72166 48799
L73001 48799
" />
<path d="M73001 48799
L75054 50852
" />
<path d="M75054 50852
L83381 50852
" />
<path d="M83381 50852
L83952 50852
" />
<path d="M72166 48799
L70867 47500
" />
<path d="M70867 47500
L70552 47500
" />
<path d="M74292 38838
L74292 36082
" />
<path d="M74292 36082
L74016 35807
" />
<path d="M74074 39056
L74292 38838
" />
<path d="M74074 40190
L74074 39056
" />
<path d="M72283 43053
L72283 42972
" />
<path d="M72283 42972
L72283 42863
" />
<path d="M72284 43129
L72283 43128
" />
<path d="M72283 43128
L72283 42972
" />
<path d="M71339 44074
L72284 43129
" />
<path d="M72283 42863
L72283 42449
" />
<path d="M71339 45413
L71339 44074
" />
<path d="M70748 46003
L71339 45413
" />
<path d="M70748 46889
L70748 46003
" />
<path d="M70552 47500
L70552 47086
" />
<path d="M70552 47086
L70748 46889
" />
</g>
<g style="fill:#000000; fill-opacity:1.0; 
stroke:#000000; stroke-width:39.3701; stroke-opacity:1; 
stroke-linecap:round; stroke-linejoin:round;">
<polyline style="fill-rule:evenodd;"
points="87417,37545
91235,37545
91243,37547
91250,37551
91254,37558
91255,37565
91354,47210
91352,47218
91348,47224
91341,47229
91334,47230
85546,47230
85546,67663
95350,67663
95350,24396
87515,24396
87417,37545
" /> 
<polyline style="fill-rule:evenodd;"
points="83381,34396
87082,34396
87082,24396
83381,24396
83381,34396
" /> 
<polyline style="fill-rule:evenodd;"
points="80625,45714
81767,45714
81767,44848
81768,44841
81773,44834
81779,44830
81787,44829
85133,44829
85141,44830
85147,44835
85151,44841
85153,44848
85153,46896
87377,46896
87377,44376
80625,44376
80625,45714
" /> 
<polyline style="fill-rule:evenodd;"
points="77869,49651
81767,49651
81767,45852
80310,45852
80303,45851
80296,45846
80292,45840
80291,45833
80291,44061
80292,44053
80296,44047
80303,44043
80310,44041
87377,44041
87377,41522
77869,41522
77869,49651
" /> 
<polyline style="fill-rule:evenodd;"
points="86531,39612
88873,39612
88881,39614
88887,39618
88892,39625
88893,39632
88893,41502
88891,41510
88887,41516
88880,41520
88873,41522
87613,41522
87613,43352
90920,43352
90920,37880
86531,37880
86531,39612
" /> 
<polyline style="fill-rule:evenodd;"
points="86969,39764
86930,39772
86682,39772
86646,39765
86623,39750
86531,39750
86531,41285
88755,41285
88755,39750
86989,39750
86969,39764
" /> 
<polyline style="fill-rule:evenodd;"
points="82495,38746
82494,38754
82489,38760
82483,38764
82476,38766
77869,38766
77869,41285
86393,41285
86393,37880
83263,37880
83255,37878
83249,37874
83245,37867
83243,37860
83243,36699
82495,36699
82495,38746
" /> 
<polyline style="fill-rule:evenodd;"
points="81905,67663
84917,67663
84917,45065
81905,45065
81905,67663
" /> 
<polyline style="fill-rule:evenodd;"
points="87613,46896
90920,46896
90920,43490
87613,43490
87613,46896
" /> 
<polyline style="fill-rule:evenodd;"
points="77869,38431
82161,38431
82161,36581
82162,36573
82167,36566
82173,36562
82180,36561
82799,36561
82805,36557
82844,36549
83092,36549
83128,36556
83136,36561
83243,36561
83243,35518
77869,35518
77869,38431
" /> 
<polyline style="fill-rule:evenodd;"
points="77869,35183
83361,35183
83369,35185
83376,35189
83380,35195
83381,35203
83381,37545
87082,37545
87082,34632
77869,34632
77869,35183
" /> 
</g>
<g style="fill:#000000; fill-opacity:1.0; 
stroke:#000000; stroke-width:100; stroke-opacity:1; 
stroke-linecap:round; stroke-linejoin:round;">
<polyline style="fill-rule:evenodd;"
points="64719,67633
81569,67633
81475,51030
75054,51030
75038,51029
75022,51027
75021,51027
75020,51027
75004,51022
74988,51017
74988,51017
74987,51017
74972,51009
74958,51001
74957,51001
74956,51000
74943,50990
74930,50980
74929,50979
74929,50979
74929,50979
74929,50978
72927,48977
72864,48977
72860,48998
72809,49129
72732,49248
72634,49349
72518,49430
72389,49486
72251,49516
72110,49519
71971,49495
71840,49444
71721,49368
71619,49271
71537,49156
71480,49027
71449,48889
71446,48728
71474,48590
71528,48459
71546,48431
71028,47912
71014,47924
70981,47939
70945,47944
70158,47944
70137,47942
70103,47931
70072,47911
70049,47884
70034,47851
70028,47814
70028,47612
69620,47612
69620,47839
69611,47887
69592,47933
69565,47974
69530,48009
69489,48036
69443,48055
69395,48064
69089,48064
69027,48002
69027,47550
68927,47550
68927,48002
68864,48064
68558,48064
68510,48055
68465,48036
68424,48009
68389,47974
68361,47933
68343,47887
68333,47839
68333,47612
68396,47550
68927,47550
69027,47550
69558,47550
69620,47612
70028,47612
70028,47185
70030,47164
70031,47160
69620,47160
69620,47387
69558,47450
69027,47450
69027,46997
68927,46997
68927,47450
68396,47450
68333,47387
68333,47160
68343,47112
68361,47066
68389,47025
68424,46990
68465,46963
68510,46944
68558,46935
68864,46935
68927,46997
69027,46997
69089,46935
69395,46935
69443,46944
69489,46963
69530,46990
69565,47025
69592,47066
69611,47112
69620,47160
70031,47160
70041,47129
70061,47099
70089,47075
70122,47060
70158,47055
70376,47055
70377,47053
70377,47052
70377,47052
70382,47036
70386,47020
70387,47019
70387,47018
70395,47004
70402,46989
70403,46988
70403,46988
70414,46975
70424,46962
70425,46961
70425,46961
70425,46961
70426,46960
70570,46816
70570,46352
70565,46352
70565,46579
70556,46628
70537,46673
70510,46714
70475,46749
70434,46776
70388,46795
70340,46805
70034,46805
69972,46742
69972,46290
69872,46290
69872,46742
69809,46805
69503,46805
69455,46795
69410,46776
69369,46749
69334,46714
69306,46673
69288,46628
69278,46579
69278,46352
69340,46290
69872,46290
69972,46290
70503,46290
70565,46352
70570,46352
70570,46003
70572,45987
70573,45971
70574,45970
70574,45969
70579,45953
70583,45937
70584,45937
70584,45936
70592,45921
70599,45907
70600,45906
70600,45905
70611,45892
70621,45879
70622,45878
70622,45878
70622,45878
70623,45878
70776,45724
70466,45724
70475,45731
70510,45765
70537,45806
70556,45852
70565,45900
70565,46127
70503,46190
69972,46190
69972,46182
69872,46182
69872,46190
69340,46190
69278,46127
69278,45900
69285,45866
68544,45866
68527,45865
68511,45863
68510,45863
68509,45863
68493,45858
68478,45854
68477,45853
68476,45853
68461,45845
68447,45838
68446,45837
68445,45837
68432,45826
68420,45816
68418,45815
68418,45815
68418,45815
68418,45814
68024,45421
68014,45408
68003,45395
68003,45394
68002,45394
67994,45379
67986,45365
67986,45364
67986,45363
67981,45347
67976,45332
67976,45331
67976,45330
67974,45314
67972,45297
67972,45295
67972,45295
67972,45295
67972,45295
67972,44153
67974,44137
67975,44120
67975,44119
67975,44118
67980,44103
67985,44087
67985,44086
67985,44085
67993,44071
68001,44056
68001,44055
68002,44055
68012,44042
68022,44029
68024,44028
68024,44028
68024,44028
68024,44027
68418,43634
68431,43623
68443,43613
68444,43612
68445,43611
68459,43604
68474,43596
68474,43595
68475,43595
68491,43590
68507,43585
68508,43585
68508,43585
68525,43583
68541,43581
68543,43581
68543,43581
68543,43581
68544,43581
68959,43581
68848,43538
68729,43463
68626,43365
68545,43250
68488,43121
68457,42984
68454,42823
68482,42684
68535,42554
68613,42436
68713,42336
68830,42257
68960,42203
69098,42174
69239,42173
69378,42200
69508,42253
69626,42330
69727,42429
69807,42545
69863,42675
69892,42813
69894,42954
69868,43092
69816,43224
69793,43261
69838,43306
70010,43306
70031,43281
70057,43258
70088,43241
70121,43231
70155,43227
70158,43227
70214,43227
70214,42796
70216,42775
70227,42741
70247,42710
70275,42687
70295,42677
70295,42613
69690,42008
68539,42008
67982,42564
67996,42584
68052,42714
68081,42852
68083,42993
68057,43132
68005,43263
67929,43382
67831,43483
67715,43563
67586,43620
67448,43650
67307,43653
67168,43629
67037,43578
66918,43502
66815,43405
66734,43290
66677,43161
66645,43023
66643,42862
66671,42724
66724,42593
66802,42476
66902,42376
67019,42297
67149,42242
67287,42214
67428,42213
67567,42239
67697,42292
67730,42313
68339,41704
68352,41694
68364,41683
68365,41683
68366,41682
68380,41675
68395,41667
68396,41666
68397,41666
68412,41661
68428,41656
68429,41656
68430,41656
68446,41654
68462,41652
68464,41652
68464,41652
68464,41652
68465,41652
69764,41652
69781,41654
69797,41655
69798,41656
69799,41656
69814,41660
69830,41665
69831,41665
69832,41666
69846,41673
69861,41681
69862,41682
69863,41682
69875,41692
69888,41703
69890,41704
69890,41704
69890,41704
69890,41704
70599,42413
70609,42426
70620,42438
70620,42439
70621,42440
70628,42454
70636,42469
70637,42470
70637,42470
70642,42486
70647,42502
70647,42503
70647,42504
70649,42520
70651,42536
70651,42538
70651,42538
70651,42538
70651,42539
70651,42667
70660,42668
70694,42679
70725,42699
70748,42727
70763,42760
70768,42796
70768,42854
70839,42854
71051,42642
71051,42239
70988,42239
70940,42229
70895,42210
70854,42183
70819,42148
70791,42107
70773,42062
70763,42013
70763,41432
70826,41369
71186,41369
71180,41346
71180,41328
70158,41328
70158,41329
70148,41378
70129,41423
70102,41464
70067,41499
70026,41526
69980,41545
69932,41555
69902,41555
69839,41492
69839,41265
69739,41265
69739,41492
69677,41555
69647,41555
69598,41545
69553,41526
69512,41499
69477,41464
69450,41423
69431,41378
69421,41329
69421,41328
69484,41265
69739,41265
69839,41265
70095,41265
70158,41328
71180,41328
71180,41299
71185,41269
70826,41269
70763,41207
70763,40626
70773,40577
70791,40532
70814,40499
69989,40499
69977,40509
69967,40513
69967,40679
69993,40696
70017,40724
70032,40757
70037,40793
70037,40933
70067,40953
70102,40988
70129,41029
70148,41074
70158,41123
70158,41124
70095,41187
69839,41187
69839,41168
69739,41168
69739,41187
69484,41187
69421,41124
69421,41123
69431,41074
69450,41029
69477,40988
69512,40953
69542,40933
69542,40793
69544,40773
69554,40738
69574,40707
69602,40684
69611,40680
69611,40513
69586,40496
69562,40469
69547,40435
69542,40399
69542,40242
69544,40221
69554,40187
69574,40156
69588,40144
69497,40144
68827,40814
68814,40825
68802,40835
68801,40836
68800,40836
68786,40844
68771,40852
68770,40852
68770,40853
68754,40858
68738,40863
68737,40863
68736,40863
68720,40865
68704,40866
68702,40866
68702,40866
68702,40866
68701,40866
67205,40866
67189,40865
67172,40863
67171,40863
67171,40863
67155,40858
67139,40854
67138,40853
67137,40853
67123,40845
67108,40838
67107,40837
67107,40837
67094,40826
67081,40816
67080,40815
67080,40815
67080,40815
67079,40814
66371,40106
66360,40093
66350,40080
66349,40080
66349,40079
66341,40064
66333,40050
66333,40049
66332,40048
66327,40032
66322,40017
66322,40016
66322,40015
66320,39999
66318,39982
66318,39980
66318,39980
66318,39980
66318,39980
66318,37618
66320,37601
66322,37585
66322,37584
66322,37583
66327,37567
66331,37552
66332,37551
66332,37550
66340,37535
66347,37521
66348,37520
66348,37519
66359,37506
66369,37494
66370,37492
66370,37492
66370,37492
66371,37492
69030,34832
69040,34813
69062,34786
69088,34764
69111,34752
69323,34539
69336,34529
69349,34518
69349,34518
69350,34517
69365,34509
69379,34501
69380,34501
69381,34501
69397,34496
69412,34491
69413,34491
69414,34490
69430,34489
69447,34487
69449,34487
69449,34487
69449,34487
69449,34487
75709,34487
75725,34489
75742,34490
75743,34490
75744,34490
75759,34495
75775,34500
75776,34500
75777,34500
75791,34508
75806,34516
75807,34516
75808,34517
75820,34527
75833,34537
75834,34539
75834,34539
75834,34539
75835,34539
76452,35156
76594,35156
77343,34408
77352,34391
77375,34362
77376,34360
77730,34007
77743,33996
77756,33985
77757,33984
77758,33984
77773,33975
77789,33967
77790,33967
77790,33966
77807,33961
77824,33956
77825,33956
77825,33956
77843,33954
77860,33952
77862,33952
77862,33952
77862,33952
77863,33952
83070,33952
83079,24433
64769,24433
64719,67633
" /> 
<polyline style="fill-rule:evenodd;"
points="76794,35460
76781,35470
76773,35477
77095,35799
77105,35812
77116,35824
77116,35825
77117,35826
77125,35840
77132,35855
77133,35855
77133,35856
77138,35872
77143,35888
77143,35889
77143,35890
77145,35906
77147,35922
77147,35924
77147,35924
77147,35924
77147,35925
77147,37153
77145,37169
77144,37186
77144,37187
77143,37188
77139,37203
77134,37219
77134,37220
77133,37221
77126,37235
77118,37250
77118,37251
77117,37251
77107,37264
77096,37277
77095,37278
77095,37278
77095,37278
77095,37279
76747,37627
76773,37708
76783,37799
76783,37805
76783,37810
76774,37901
76748,37989
76705,38069
76647,38140
76576,38198
76496,38242
76408,38269
76317,38279
76226,38270
76139,38244
76058,38202
75986,38145
75984,38142
75984,38268
75983,38285
75981,38301
75981,38302
75981,38303
75976,38319
75972,38334
75971,38335
75971,38336
75963,38351
75956,38365
75955,38366
75955,38367
75944,38379
75934,38392
75933,38394
75933,38394
75933,38394
75932,38394
74764,39562
74764,39793
74774,39805
74789,39838
74794,39875
74794,40400
74857,40400
74905,40410
74950,40429
74991,40456
75026,40491
75033,40501
75065,40487
75114,40478
75203,40478
75265,40540
75265,40914
75257,40914
75257,41014
75265,41014
75265,41388
75203,41450
75114,41450
75082,41444
75082,41479
75102,41470
75138,41465
75492,41465
75513,41466
75548,41477
75578,41497
75602,41525
75617,41558
75622,41594
75622,41731
75708,41731
75708,41673
75709,41652
75720,41617
75740,41587
75768,41563
75801,41548
75837,41543
76132,41543
76153,41545
76188,41556
76218,41576
76242,41604
76256,41637
76262,41673
76262,42145
76260,42166
76249,42200
76229,42231
76201,42254
76168,42269
76132,42275
75837,42275
75816,42273
75782,42262
75751,42242
75728,42214
75713,42181
75708,42145
75708,42087
75620,42087
75620,42087
75609,42122
75589,42152
75562,42176
75529,42191
75492,42196
75268,42196
74889,42575
74876,42586
74864,42596
74863,42597
74862,42597
74848,42605
74833,42613
74832,42613
74831,42614
74816,42618
74800,42623
74799,42624
74798,42624
74794,42624
74794,42764
74792,42785
74782,42820
74762,42850
74734,42874
74701,42889
74665,42894
74583,42894
74680,42991
75158,42991
75174,42992
75191,42994
75191,42994
75192,42994
75208,42999
75224,43004
75225,43004
75226,43004
75240,43012
75255,43020
75255,43020
75256,43021
75269,43031
75282,43041
75283,43042
75283,43043
75283,43043
75284,43043
75507,43266
75639,43266
75639,43208
75640,43188
75651,43153
75671,43122
75699,43099
75732,43084
75767,43079
75767,43001
75751,42990
75728,42962
75713,42929
75708,42893
75708,42421
75709,42400
75720,42365
75740,42335
75768,42311
75801,42297
75837,42291
76132,42291
76153,42293
76188,42304
76218,42324
76242,42352
76256,42385
76262,42421
76262,42893
76260,42914
76249,42948
76229,42979
76201,43002
76168,43017
76132,43023
76123,43023
76123,43079
76143,43080
76178,43091
76208,43111
76232,43139
76247,43172
76252,43208
76252,43253
76257,43270
76261,43305
76258,43339
76252,43361
76252,43681
76250,43701
76239,43736
76219,43766
76192,43790
76158,43805
76122,43810
75768,43810
75748,43808
75713,43798
75682,43778
75659,43750
75644,43717
75639,43681
75639,43622
75469,43622
75638,43791
75648,43804
75659,43816
75659,43817
75660,43818
75668,43832
75676,43847
75676,43848
75676,43848
75681,43864
75686,43880
75686,43881
75687,43882
75688,43898
75690,43914
75690,43916
75690,43916
75690,43916
75690,43917
75690,43972
75699,43965
75732,43950
75768,43945
76122,43945
76143,43947
76178,43957
76208,43977
76232,44005
76247,44038
76247,44040
76291,43932
76369,43814
76469,43714
76586,43635
76716,43581
76854,43552
76995,43551
77134,43578
77264,43631
77369,43699
77369,41077
75742,41077
75742,41225
75733,41273
75714,41319
75687,41360
75652,41394
75611,41422
75565,41441
75517,41450
75428,41450
75365,41388
75365,41014
75680,41014
75742,41077
77369,41077
77369,40703
75742,40703
75742,40852
75680,40914
75365,40914
75365,40540
75428,40478
75517,40478
75565,40487
75611,40506
75652,40534
75687,40568
75714,40609
75733,40655
75742,40703
77369,40703
77369,34885
76794,35460
" /> 
<polyline style="fill-rule:evenodd;"
points="72755,42399
72747,42399
72747,42499
72755,42499
72755,42507
72834,42507
72834,42499
72842,42499
72842,42399
72834,42399
72834,42391
72755,42391
72755,42399
" /> 
<polyline style="fill-rule:evenodd;"
points="67722,37195
67722,37873
67830,37873
67830,37771
67892,37708
68178,37708
68178,37716
68278,37716
68278,37708
68563,37708
68625,37771
68625,37872
68640,37877
68641,37877
68642,37877
68657,37885
68671,37893
68672,37893
68673,37894
68685,37904
68698,37914
68700,37916
68700,37916
68700,37916
68700,37916
68708,37924
68708,37520
68710,37500
68721,37465
68741,37435
68769,37411
68799,37397
68625,37397
68625,37546
68563,37608
68278,37608
68278,37234
68178,37234
68178,37608
67892,37608
67830,37546
67830,37397
67840,37349
67858,37303
67886,37262
67921,37228
67962,37200
68007,37181
68055,37172
68115,37172
68178,37234
68278,37234
68340,37172
68400,37172
68448,37181
68494,37200
68535,37228
68569,37262
68597,37303
68616,37349
68625,37397
68799,37397
68802,37396
68838,37391
69192,37391
69213,37392
69247,37403
69278,37423
69301,37451
69316,37484
69322,37520
69322,37993
69320,38013
69309,38048
69292,38075
70271,39054
71851,39054
71867,39055
71883,39057
71884,39057
71885,39057
71901,39062
71917,39067
71918,39067
71919,39067
71933,39075
71948,39083
71948,39083
71949,39084
71962,39094
71975,39104
71976,39105
71976,39106
71976,39106
71977,39106
72153,39282
72163,39295
72174,39307
72174,39308
72175,39309
72182,39323
72190,39338
72191,39339
72191,39339
72196,39355
72201,39371
72201,39372
72201,39373
72203,39389
72205,39405
72205,39407
72205,39407
72205,39407
72205,39408
72205,39648
72243,39687
72243,40140
72235,40140
72235,40240
72243,40240
72243,40247
72322,40247
72322,40240
72331,40240
72331,40140
72322,40140
72322,39687
72361,39648
72361,39088
72210,38937
70433,38937
70417,38936
70401,38934
70400,38934
70399,38934
70383,38929
70367,38925
70367,38924
70366,38924
70351,38916
70337,38909
70336,38908
70335,38908
70322,38897
70309,38887
70308,38886
70308,38886
70308,38886
70308,38885
69677,38254
69666,38241
69656,38229
69655,38228
69655,38227
69647,38213
69639,38198
69639,38198
69638,38197
69633,38181
69628,38165
69628,38164
69628,38163
69626,38147
69624,38131
69624,38129
69624,38129
69624,38129
69624,38128
69624,37929
69599,37912
69575,37885
69560,37852
69555,37815
69555,37675
69525,37655
69490,37621
69463,37580
69444,37534
69434,37486
69434,37484
69497,37422
69752,37422
69752,37440
69852,37440
69852,37422
69860,37422
69860,37343
69852,37343
69852,37116
69752,37116
69752,37343
69497,37343
69434,37281
69434,37279
69444,37231
69463,37185
69490,37144
69525,37109
69566,37082
69611,37063
69660,37054
69690,37054
69752,37116
69852,37116
69915,37054
69945,37054
69993,37063
70039,37082
70080,37109
70094,37123
70094,37101
70156,37039
70441,37039
70441,37047
70541,37047
70541,37039
70827,37039
70836,37048
70845,37039
71130,37039
71130,37047
71230,37047
71230,37039
71238,37039
71238,37003
69442,37003
69442,37151
69433,37199
69414,37245
69386,37286
69352,37321
69311,37348
69265,37367
69217,37377
69128,37377
69065,37314
69065,36940
68965,36940
68965,37314
68903,37377
68813,37377
68765,37367
68719,37348
68678,37321
68644,37286
68616,37245
68597,37199
68588,37151
68588,37003
68650,36940
68965,36940
69065,36940
69380,36940
69442,37003
71238,37003
71238,36939
71230,36939
71230,36565
71130,36565
71130,36939
70845,36939
70836,36929
70827,36939
70541,36939
70541,36565
70441,36565
70441,36939
70156,36939
70094,36876
70094,36728
70103,36680
70122,36634
70125,36629
69442,36629
69442,36778
69380,36840
69065,36840
69065,36467
68965,36467
68965,36840
68650,36840
68588,36778
68588,36629
68597,36581
68616,36536
68644,36495
68678,36460
68719,36433
68765,36414
68813,36404
68903,36404
68965,36467
69065,36467
69128,36404
69217,36404
69265,36414
69311,36433
69352,36460
69386,36495
69414,36536
69433,36581
69442,36629
70125,36629
70150,36593
70184,36558
70225,36531
70271,36512
70319,36502
70379,36502
70441,36565
70541,36565
70604,36502
70664,36502
70712,36512
70757,36531
70798,36558
70833,36593
70836,36597
70839,36593
70873,36558
70914,36531
70960,36512
71008,36502
71068,36502
71130,36565
71230,36565
71293,36502
71353,36502
71401,36512
71446,36531
71472,36548
71472,36472
71481,36424
71500,36378
71528,36337
71562,36302
71603,36275
71649,36256
71697,36247
71855,36247
71918,36309
71918,36742
71910,36742
71910,36842
71918,36842
71918,37275
71855,37337
71697,37337
71649,37328
71603,37309
71571,37287
71568,37298
71550,37343
71522,37384
71487,37419
71446,37446
71444,37447
71452,37464
71457,37501
71457,37851
71592,37986
71592,37481
71594,37460
71605,37426
71625,37395
71652,37372
71686,37357
71722,37351
72214,37351
72234,37353
72269,37364
72300,37384
72323,37412
72338,37445
72343,37481
72343,37774
72552,37774
72551,37774
72528,37746
72513,37713
72508,37677
72508,37519
72509,37499
72520,37464
72540,37434
72568,37410
72577,37406
72577,37137
72577,37137
72562,37103
72557,37067
72557,37065
72527,37045
72492,37010
72465,36969
72464,36967
72464,37112
72454,37160
72435,37206
72408,37247
72373,37281
72332,37309
72287,37328
72238,37337
72080,37337
72018,37275
72018,36842
72401,36842
72436,36877
72436,36884
72438,36883
72437,36877
72436,36877
72436,36876
72437,36877
72440,36880
72499,36821
72676,36821
72686,36820
72813,36820
72813,36762
72790,36762
72790,36545
72721,36545
72721,36762
72499,36762
72440,36703
72437,36707
72436,36708
72436,36707
72401,36742
72018,36742
72018,36309
72080,36247
72238,36247
72287,36256
72332,36275
72373,36302
72408,36337
72435,36378
72454,36424
72464,36472
72464,36617
72465,36614
72492,36573
72527,36539
72568,36511
72613,36492
72659,36483
72721,36545
72790,36545
72852,36483
72867,36487
72869,36483
72852,36483
72852,36483
72849,36483
72662,36483
72659,36483
72658,36483
72662,36483
72849,36483
72852,36483
72869,36483
72884,36456
72906,36429
72932,36407
72963,36391
72996,36380
73031,36377
73065,36380
73099,36390
73129,36406
73152,36424
73169,36412
73215,36393
73263,36383
73352,36383
73415,36446
73415,36820
73407,36820
73407,36920
73415,36920
73415,37293
73352,37356
73263,37356
73215,37346
73169,37327
73128,37300
73094,37265
73066,37224
73047,37179
73045,37164
73033,37166
72999,37162
72965,37153
72934,37137
72933,37136
72933,37405
72959,37422
72983,37450
72998,37483
73003,37519
73003,37677
73001,37697
72990,37732
72970,37762
72956,37775
72959,37777
72983,37804
72998,37837
73003,37874
73003,37909
73432,38338
73443,38351
73453,38364
73454,38364
73454,38365
73462,38380
73470,38394
73470,38395
73471,38396
73475,38411
73480,38427
73481,38428
73481,38429
73482,38445
73484,38462
73484,38463
73484,38463
73484,38463
73484,38464
73484,39648
73523,39687
73523,40140
73514,40140
73514,40240
73523,40240
73523,40247
73602,40247
73602,40240
73610,40240
73610,40140
73602,40140
73602,39687
73640,39648
73640,38497
73339,38196
73329,38183
73318,38171
73318,38170
73317,38169
73309,38155
73301,38140
73301,38140
73301,38139
73296,38123
73291,38107
73291,38106
73290,38106
73290,38101
73288,38101
73267,38100
73232,38089
73202,38069
73178,38041
73164,38008
73158,37972
73158,37500
73160,37479
73171,37444
73191,37414
73219,37390
73252,37375
73288,37370
73642,37370
73663,37372
73697,37383
73728,37403
73751,37430
73766,37463
73771,37500
73771,37972
73770,37992
73759,38027
73739,38058
73720,38074
73944,38298
73954,38310
73965,38323
73965,38324
73966,38325
73974,38339
73982,38353
73982,38354
73982,38355
73987,38371
73992,38387
73992,38388
73993,38388
73994,38405
73996,38421
73996,38423
73996,38423
73996,38423
73996,38424
73996,38882
74114,38764
74114,36982
73892,36982
73892,37130
73882,37179
73864,37224
73836,37265
73801,37300
73761,37327
73715,37346
73667,37356
73577,37356
73515,37293
73515,36920
73830,36920
73892,36982
74114,36982
74114,36522
74102,36524
73961,36527
73860,36509
73864,36515
73882,36560
73892,36609
73892,36757
73830,36820
73515,36820
73515,36446
73577,36383
73583,36383
73571,36376
73469,36279
73388,36164
73330,36035
73299,35897
73297,35736
73324,35598
73378,35467
73456,35350
73539,35266
69651,35266
67722,37195
" /> 
</g>
<g style="fill:#FFFFFF; fill-opacity:1.0; 
stroke:#FFFFFF; stroke-width:100; stroke-opacity:1; 
stroke-linecap:round; stroke-linejoin:round;">
</g>
<g style="fill:#FFFFFF; fill-opacity:1.0; 
stroke:#FFFFFF; stroke-width:0; stroke-opacity:1; 
stroke-linecap:round; stroke-linejoin:round;">
<circle cx="74882.8" cy="53523.6" r="68.8976" /> 
</g>
<g style="fill:#FFFFFF; fill-opacity:1.0; 
stroke:#FFFFFF; stroke-width:39.3701; stroke-opacity:1; 
stroke-linecap:round; stroke-linejoin:round;">
</g>
<g style="fill:#FFFFFF; fill-opacity:1.0; 
stroke:#FFFFFF; stroke-width:0; stroke-opacity:1; 
stroke-linecap:round; stroke-linejoin:round;">
<circle cx="89056" cy="54035.4" r="68.8976" /> 
</g>
<g style="fill:#FFFFFF; fill-opacity:1.0; 
stroke:#FFFFFF; stroke-width:39.3701; stroke-opacity:1; 
stroke-linecap:round; stroke-linejoin:round;">
</g>
<g style="fill:#FFFFFF; fill-opacity:1.0; 
stroke:#FFFFFF; stroke-width:0; stroke-opacity:1; 
stroke-linecap:round; stroke-linejoin:round;">
<circle cx="90158.3" cy="42657.5" r="68.8976" /> 
</g>
<g style="fill:#FFFFFF; fill-opacity:1.0; 
stroke:#FFFFFF; stroke-width:39.3701; stroke-opacity:1; 
stroke-linecap:round; stroke-linejoin:round;">
</g>
<g style="fill:#FFFFFF; fill-opacity:1.0; 
stroke:#FFFFFF; stroke-width:0; stroke-opacity:1; 
stroke-linecap:round; stroke-linejoin:round;">
<circle cx="76930" cy="44271.7" r="68.8976" /> 
</g>
<g style="fill:#FFFFFF; fill-opacity:1.0; 
stroke:#FFFFFF; stroke-width:39.3701; stroke-opacity:1; 
stroke-linecap:round; stroke-linejoin:round;">
</g>
<g style="fill:#FFFFFF; fill-opacity:1.0; 
stroke:#FFFFFF; stroke-width:0; stroke-opacity:1; 
stroke-linecap:round; stroke-linejoin:round;">
<circle cx="67363.1" cy="42933.1" r="68.8976" /> 
</g>
<g style="fill:#FFFFFF; fill-opacity:1.0; 
stroke:#FFFFFF; stroke-width:39.3701; stroke-opacity:1; 
stroke-linecap:round; stroke-linejoin:round;">
</g>
<g style="fill:#FFFFFF; fill-opacity:1.0; 
stroke:#FFFFFF; stroke-width:0; stroke-opacity:1; 
stroke-linecap:round; stroke-linejoin:round;">
<circle cx="83583.5" cy="39704.7" r="68.8976" /> 
</g>
<g style="fill:#FFFFFF; fill-opacity:1.0; 
stroke:#FFFFFF; stroke-width:39.3701; stroke-opacity:1; 
stroke-linecap:round; stroke-linejoin:round;">
</g>
<g style="fill:#FFFFFF; fill-opacity:1.0; 
stroke:#FFFFFF; stroke-width:0; stroke-opacity:1; 
stroke-linecap:round; stroke-linejoin:round;">
<circle cx="78788.8" cy="48563" r="68.8976" /> 
</g>
<g style="fill:#FFFFFF; fill-opacity:1.0; 
stroke:#FFFFFF; stroke-width:39.3701; stroke-opacity:1; 
stroke-linecap:round; stroke-linejoin:round;">
</g>
<g style="fill:#FFFFFF; fill-opacity:1.0; 
stroke:#FFFFFF; stroke-width:0; stroke-opacity:1; 
stroke-linecap:round; stroke-linejoin:round;">
<circle cx="75512.7" cy="46122" r="68.8976" /> 
</g>
<g style="fill:#FFFFFF; fill-opacity:1.0; 
stroke:#FFFFFF; stroke-width:39.3701; stroke-opacity:1; 
stroke-linecap:round; stroke-linejoin:round;">
</g>
<g style="fill:#FFFFFF; fill-opacity:1.0; 
stroke:#FFFFFF; stroke-width:0; stroke-opacity:1; 
stroke-linecap:round; stroke-linejoin:round;">
<circle cx="81098.1" cy="37171.7" r="68.8976" /> 
</g>
<g style="fill:#FFFFFF; fill-opacity:1.0; 
stroke:#FFFFFF; stroke-width:39.3701; stroke-opacity:1; 
stroke-linecap:round; stroke-linejoin:round;">
</g>
<g style="fill:#FFFFFF; fill-opacity:1.0; 
stroke:#FFFFFF; stroke-width:0; stroke-opacity:1; 
stroke-linecap:round; stroke-linejoin:round;">
<circle cx="69174.1" cy="42893.7" r="68.8976" /> 
</g>
<g style="fill:#FFFFFF; fill-opacity:1.0; 
stroke:#FFFFFF; stroke-width:39.3701; stroke-opacity:1; 
stroke-linecap:round; stroke-linejoin:round;">
</g>
<g style="fill:#FFFFFF; fill-opacity:1.0; 
stroke:#FFFFFF; stroke-width:0; stroke-opacity:1; 
stroke-linecap:round; stroke-linejoin:round;">
<circle cx="88086.3" cy="40518.1" r="68.8976" /> 
</g>
<g style="fill:#FFFFFF; fill-opacity:1.0; 
stroke:#FFFFFF; stroke-width:39.3701; stroke-opacity:1; 
stroke-linecap:round; stroke-linejoin:round;">
</g>
<g style="fill:#FFFFFF; fill-opacity:1.0; 
stroke:#FFFFFF; stroke-width:0; stroke-opacity:1; 
stroke-linecap:round; stroke-linejoin:round;">
<circle cx="69174.1" cy="44862.2" r="68.8976" /> 
</g>
<g style="fill:#FFFFFF; fill-opacity:1.0; 
stroke:#FFFFFF; stroke-width:39.3701; stroke-opacity:1; 
stroke-linecap:round; stroke-linejoin:round;">
</g>
<g style="fill:#FFFFFF; fill-opacity:1.0; 
stroke:#FFFFFF; stroke-width:0; stroke-opacity:1; 
stroke-linecap:round; stroke-linejoin:round;">
<circle cx="74449.7" cy="44704.7" r="68.8976" /> 
</g>
<g style="fill:#FFFFFF; fill-opacity:1.0; 
stroke:#FFFFFF; stroke-width:39.3701; stroke-opacity:1; 
stroke-linecap:round; stroke-linejoin:round;">
</g>
<g style="fill:#FFFFFF; fill-opacity:1.0; 
stroke:#FFFFFF; stroke-width:0; stroke-opacity:1; 
stroke-linecap:round; stroke-linejoin:round;">
<circle cx="86216.2" cy="46029.9" r="68.8976" /> 
</g>
<g style="fill:#FFFFFF; fill-opacity:1.0; 
stroke:#FFFFFF; stroke-width:39.3701; stroke-opacity:1; 
stroke-linecap:round; stroke-linejoin:round;">
</g>
<g style="fill:#FFFFFF; fill-opacity:1.0; 
stroke:#FFFFFF; stroke-width:0; stroke-opacity:1; 
stroke-linecap:round; stroke-linejoin:round;">
<circle cx="72874.9" cy="46397.6" r="68.8976" /> 
</g>
<g style="fill:#FFFFFF; fill-opacity:1.0; 
stroke:#FFFFFF; stroke-width:39.3701; stroke-opacity:1; 
stroke-linecap:round; stroke-linejoin:round;">
</g>
<g style="fill:#FFFFFF; fill-opacity:1.0; 
stroke:#FFFFFF; stroke-width:0; stroke-opacity:1; 
stroke-linecap:round; stroke-linejoin:round;">
<circle cx="89365.8" cy="45833.1" r="68.8976" /> 
</g>
<g style="fill:#FFFFFF; fill-opacity:1.0; 
stroke:#FFFFFF; stroke-width:39.3701; stroke-opacity:1; 
stroke-linecap:round; stroke-linejoin:round;">
</g>
<g style="fill:#FFFFFF; fill-opacity:1.0; 
stroke:#FFFFFF; stroke-width:0; stroke-opacity:1; 
stroke-linecap:round; stroke-linejoin:round;">
<circle cx="89365.8" cy="45833.1" r="68.8976" /> 
</g>
<g style="fill:#FFFFFF; fill-opacity:1.0; 
stroke:#FFFFFF; stroke-width:39.3701; stroke-opacity:1; 
stroke-linecap:round; stroke-linejoin:round;">
</g>
<g style="fill:#FFFFFF; fill-opacity:1.0; 
stroke:#FFFFFF; stroke-width:0; stroke-opacity:1; 
stroke-linecap:round; stroke-linejoin:round;">
<circle cx="72166.2" cy="48799.2" r="68.8976" /> 
</g>
<g style="fill:#FFFFFF; fill-opacity:1.0; 
stroke:#FFFFFF; stroke-width:39.3701; stroke-opacity:1; 
stroke-linecap:round; stroke-linejoin:round;">
</g>
<g style="fill:#FFFFFF; fill-opacity:1.0; 
stroke:#FFFFFF; stroke-width:0; stroke-opacity:1; 
stroke-linecap:round; stroke-linejoin:round;">
<circle cx="74016.6" cy="35807.1" r="68.8976" /> 
</g>
<g style="fill:#FFFFFF; fill-opacity:1.0; 
stroke:#FFFFFF; stroke-width:39.3701; stroke-opacity:1; 
stroke-linecap:round; stroke-linejoin:round;">
</g>
<g style="fill:#FFFFFF; fill-opacity:1.0; 
stroke:#FFFFFF; stroke-width:0; stroke-opacity:1; 
stroke-linecap:round; stroke-linejoin:round;">
<circle cx="72923" cy="41319.9" r="59.0551" /> 
</g>
<g style="fill:#FFFFFF; fill-opacity:1.0; 
stroke:#FFFFFF; stroke-width:39.3701; stroke-opacity:1; 
stroke-linecap:round; stroke-linejoin:round;">
</g>
<g style="fill:#FFFFFF; fill-opacity:1.0; 
stroke:#FFFFFF; stroke-width:0; stroke-opacity:1; 
stroke-linecap:round; stroke-linejoin:round;">
<circle cx="72923" cy="40808.1" r="59.0551" /> 
</g>
<g style="fill:#FFFFFF; fill-opacity:1.0; 
stroke:#FFFFFF; stroke-width:39.3701; stroke-opacity:1; 
stroke-linecap:round; stroke-linejoin:round;">
</g>
<g style="fill:#FFFFFF; fill-opacity:1.0; 
stroke:#FFFFFF; stroke-width:0; stroke-opacity:1; 
stroke-linecap:round; stroke-linejoin:round;">
<circle cx="72923" cy="41831.7" r="59.0551" /> 
</g>
<g style="fill:#FFFFFF; fill-opacity:1.0; 
stroke:#FFFFFF; stroke-width:39.3701; stroke-opacity:1; 
stroke-linecap:round; stroke-linejoin:round;">
</g>
<g style="fill:#FFFFFF; fill-opacity:1.0; 
stroke:#FFFFFF; stroke-width:0; stroke-opacity:1; 
stroke-linecap:round; stroke-linejoin:round;">
<circle cx="73434.8" cy="40808.1" r="59.0551" /> 
</g>
<g style="fill:#FFFFFF; fill-opacity:1.0; 
stroke:#FFFFFF; stroke-width:39.3701; stroke-opacity:1; 
stroke-linecap:round; stroke-linejoin:round;">
</g>
<g style="fill:#FFFFFF; fill-opacity:1.0; 
stroke:#FFFFFF; stroke-width:0; stroke-opacity:1; 
stroke-linecap:round; stroke-linejoin:round;">
<circle cx="73434.8" cy="41319.9" r="59.0551" /> 
</g>
<g style="fill:#FFFFFF; fill-opacity:1.0; 
stroke:#FFFFFF; stroke-width:39.3701; stroke-opacity:1; 
stroke-linecap:round; stroke-linejoin:round;">
</g>
<g style="fill:#FFFFFF; fill-opacity:1.0; 
stroke:#FFFFFF; stroke-width:0; stroke-opacity:1; 
stroke-linecap:round; stroke-linejoin:round;">
<circle cx="73434.8" cy="41831.7" r="59.0551" /> 
</g>
<g style="fill:#FFFFFF; fill-opacity:1.0; 
stroke:#FFFFFF; stroke-width:39.3701; stroke-opacity:1; 
stroke-linecap:round; stroke-linejoin:round;">
</g>
<g style="fill:#FFFFFF; fill-opacity:1.0; 
stroke:#FFFFFF; stroke-width:0; stroke-opacity:1; 
stroke-linecap:round; stroke-linejoin:round;">
<circle cx="73946.6" cy="40808.1" r="59.0551" /> 
</g>
<g style="fill:#FFFFFF; fill-opacity:1.0; 
stroke:#FFFFFF; stroke-width:39.3701; stroke-opacity:1; 
stroke-linecap:round; stroke-linejoin:round;">
</g>
<g style="fill:#FFFFFF; fill-opacity:1.0; 
stroke:#FFFFFF; stroke-width:0; stroke-opacity:1; 
stroke-linecap:round; stroke-linejoin:round;">
<circle cx="73946.6" cy="41319.9" r="59.0551" /> 
</g>
<g style="fill:#FFFFFF; fill-opacity:1.0; 
stroke:#FFFFFF; stroke-width:39.3701; stroke-opacity:1; 
stroke-linecap:round; stroke-linejoin:round;">
</g>
<g style="fill:#FFFFFF; fill-opacity:1.0; 
stroke:#FFFFFF; stroke-width:0; stroke-opacity:1; 
stroke-linecap:round; stroke-linejoin:round;">
<circle cx="73946.6" cy="41831.7" r="59.0551" /> 
</g>
<g style="fill:#FFFFFF; fill-opacity:1.0; 
stroke:#FFFFFF; stroke-width:39.3701; stroke-opacity:1; 
stroke-linecap:round; stroke-linejoin:round;">
</g>
<g style="fill:#FFFFFF; fill-opacity:1.0; 
stroke:#FFFFFF; stroke-width:0; stroke-opacity:1; 
stroke-linecap:round; stroke-linejoin:round;">
<circle cx="74458.4" cy="40808.1" r="59.0551" /> 
</g>
<g style="fill:#FFFFFF; fill-opacity:1.0; 
stroke:#FFFFFF; stroke-width:39.3701; stroke-opacity:1; 
stroke-linecap:round; stroke-linejoin:round;">
</g>
<g style="fill:#FFFFFF; fill-opacity:1.0; 
stroke:#FFFFFF; stroke-width:0; stroke-opacity:1; 
stroke-linecap:round; stroke-linejoin:round;">
<circle cx="74458.4" cy="41319.9" r="59.0551" /> 
</g>
<g style="fill:#FFFFFF; fill-opacity:1.0; 
stroke:#FFFFFF; stroke-width:39.3701; stroke-opacity:1; 
stroke-linecap:round; stroke-linejoin:round;">
</g>
<g style="fill:#FFFFFF; fill-opacity:1.0; 
stroke:#FFFFFF; stroke-width:0; stroke-opacity:1; 
stroke-linecap:round; stroke-linejoin:round;">
<circle cx="74458.4" cy="41831.7" r="59.0551" /> 
</g>
<g style="fill:#FFFFFF; fill-opacity:1.0; 
stroke:#FFFFFF; stroke-width:39.3701; stroke-opacity:1; 
stroke-linecap:round; stroke-linejoin:round;">
</g>
<g style="fill:#FFFFFF; fill-opacity:1.0; 
stroke:#FFFFFF; stroke-width:0; stroke-opacity:1; 
stroke-linecap:round; stroke-linejoin:round;">
<circle cx="72411.2" cy="40808.1" r="59.0551" /> 
</g>
<g style="fill:#FFFFFF; fill-opacity:1.0; 
stroke:#FFFFFF; stroke-width:39.3701; stroke-opacity:1; 
stroke-linecap:round; stroke-linejoin:round;">
</g>
<g style="fill:#FFFFFF; fill-opacity:1.0; 
stroke:#FFFFFF; stroke-width:0; stroke-opacity:1; 
stroke-linecap:round; stroke-linejoin:round;">
<circle cx="72411.2" cy="41319.9" r="59.0551" /> 
</g>
<g style="fill:#FFFFFF; fill-opacity:1.0; 
stroke:#FFFFFF; stroke-width:39.3701; stroke-opacity:1; 
stroke-linecap:round; stroke-linejoin:round;">
</g>
<g style="fill:#FFFFFF; fill-opacity:1.0; 
stroke:#FFFFFF; stroke-width:0; stroke-opacity:1; 
stroke-linecap:round; stroke-linejoin:round;">
<circle cx="72411.2" cy="41831.7" r="59.0551" /> 
</g>
<g style="fill:#FFFFFF; fill-opacity:1.0; 
stroke:#FFFFFF; stroke-width:39.3701; stroke-opacity:1; 
stroke-linecap:round; stroke-linejoin:round;">
</g>
<g style="fill:#FFFFFF; fill-opacity:1.0; 
stroke:#FFFFFF; stroke-width:0; stroke-opacity:1; 
stroke-linecap:round; stroke-linejoin:round;">
<circle cx="71899.4" cy="41831.7" r="59.0551" /> 
</g>
<g style="fill:#FFFFFF; fill-opacity:1.0; 
stroke:#FFFFFF; stroke-width:39.3701; stroke-opacity:1; 
stroke-linecap:round; stroke-linejoin:round;">
</g>
<g style="fill:#FFFFFF; fill-opacity:1.0; 
stroke:#FFFFFF; stroke-width:0; stroke-opacity:1; 
stroke-linecap:round; stroke-linejoin:round;">
<circle cx="71899.4" cy="41319.9" r="59.0551" /> 
</g>
<g style="fill:#FFFFFF; fill-opacity:1.0; 
stroke:#FFFFFF; stroke-width:39.3701; stroke-opacity:1; 
stroke-linecap:round; stroke-linejoin:round;">
</g>
<g style="fill:#FFFFFF; fill-opacity:1.0; 
stroke:#FFFFFF; stroke-width:0; stroke-opacity:1; 
stroke-linecap:round; stroke-linejoin:round;">
<circle cx="71899.4" cy="40808.1" r="59.0551" /> 
</g>
<g style="fill:#FFFFFF; fill-opacity:1.0; 
stroke:#FFFFFF; stroke-width:39.3701; stroke-opacity:1; 
stroke-linecap:round; stroke-linejoin:round;">
</g>
<g style="fill:#FFFFFF; fill-opacity:1.0; 
stroke:#FFFFFF; stroke-width:0; stroke-opacity:1; 
stroke-linecap:round; stroke-linejoin:round;">
<circle cx="71387.6" cy="40808.1" r="59.0551" /> 
</g>
<g style="fill:#FFFFFF; fill-opacity:1.0; 
stroke:#FFFFFF; stroke-width:39.3701; stroke-opacity:1; 
stroke-linecap:round; stroke-linejoin:round;">
</g>
<g style="fill:#FFFFFF; fill-opacity:1.0; 
stroke:#FFFFFF; stroke-width:0; stroke-opacity:1; 
stroke-linecap:round; stroke-linejoin:round;">
<circle cx="71387.6" cy="41319.9" r="59.0551" /> 
</g>
<g style="fill:#FFFFFF; fill-opacity:1.0; 
stroke:#FFFFFF; stroke-width:39.3701; stroke-opacity:1; 
stroke-linecap:round; stroke-linejoin:round;">
</g>
<g style="fill:#FFFFFF; fill-opacity:1.0; 
stroke:#FFFFFF; stroke-width:0; stroke-opacity:1; 
stroke-linecap:round; stroke-linejoin:round;">
<circle cx="71387.6" cy="41831.7" r="59.0551" /> 
</g>
<g style="fill:#FFFFFF; fill-opacity:1.0; 
stroke:#FFFFFF; stroke-width:39.3701; stroke-opacity:1; 
stroke-linecap:round; stroke-linejoin:round;">
</g>
<g style="fill:#FFFFFF; fill-opacity:1.0; 
stroke:#FFFFFF; stroke-width:0; stroke-opacity:1; 
stroke-linecap:round; stroke-linejoin:round;">
<circle cx="87819.8" cy="26344.9" r="68.8976" /> 
</g>
<g style="fill:#FFFFFF; fill-opacity:1.0; 
stroke:#FFFFFF; stroke-width:39.3701; stroke-opacity:1; 
stroke-linecap:round; stroke-linejoin:round;">
</g>
<g style="fill:#FFFFFF; fill-opacity:1.0; 
stroke:#FFFFFF; stroke-width:0; stroke-opacity:1; 
stroke-linecap:round; stroke-linejoin:round;">
<circle cx="86819.8" cy="26344.9" r="68.8976" /> 
</g>
<g style="fill:#FFFFFF; fill-opacity:1.0; 
stroke:#FFFFFF; stroke-width:39.3701; stroke-opacity:1; 
stroke-linecap:round; stroke-linejoin:round;">
</g>
<g style="fill:#FFFFFF; fill-opacity:1.0; 
stroke:#FFFFFF; stroke-width:0; stroke-opacity:1; 
stroke-linecap:round; stroke-linejoin:round;">
<circle cx="84838.3" cy="65419.7" r="68.8976" /> 
</g>
<g style="fill:#FFFFFF; fill-opacity:1.0; 
stroke:#FFFFFF; stroke-width:39.3701; stroke-opacity:1; 
stroke-linecap:round; stroke-linejoin:round;">
</g>
<g style="fill:#FFFFFF; fill-opacity:1.0; 
stroke:#FFFFFF; stroke-width:0; stroke-opacity:1; 
stroke-linecap:round; stroke-linejoin:round;">
<circle cx="85838.3" cy="65419.7" r="68.8976" /> 
</g>
<g style="fill:#FFFFFF; fill-opacity:1.0; 
stroke:#FFFFFF; stroke-width:39.3701; stroke-opacity:1; 
stroke-linecap:round; stroke-linejoin:round;">
</g>
<g style="fill:#FFFFFF; fill-opacity:1.0; 
stroke:#FFFFFF; stroke-width:0; stroke-opacity:1; 
stroke-linecap:round; stroke-linejoin:round;">
<circle cx="75314.7" cy="36808.1" r="68.8976" /> 
</g>
<g style="fill:#FFFFFF; fill-opacity:1.0; 
stroke:#FFFFFF; stroke-width:39.3701; stroke-opacity:1; 
stroke-linecap:round; stroke-linejoin:round;">
</g>
<g style="fill:#FFFFFF; fill-opacity:1.0; 
stroke:#FFFFFF; stroke-width:0; stroke-opacity:1; 
stroke-linecap:round; stroke-linejoin:round;">
<circle cx="75314.7" cy="37808.1" r="68.8976" /> 
</g>
<g style="fill:#FFFFFF; fill-opacity:1.0; 
stroke:#FFFFFF; stroke-width:39.3701; stroke-opacity:1; 
stroke-linecap:round; stroke-linejoin:round;">
</g>
<g style="fill:#FFFFFF; fill-opacity:1.0; 
stroke:#FFFFFF; stroke-width:0; stroke-opacity:1; 
stroke-linecap:round; stroke-linejoin:round;">
<circle cx="76314.7" cy="36808.1" r="68.8976" /> 
</g>
<g style="fill:#FFFFFF; fill-opacity:1.0; 
stroke:#FFFFFF; stroke-width:39.3701; stroke-opacity:1; 
stroke-linecap:round; stroke-linejoin:round;">
</g>
<g style="fill:#FFFFFF; fill-opacity:1.0; 
stroke:#FFFFFF; stroke-width:0; stroke-opacity:1; 
stroke-linecap:round; stroke-linejoin:round;">
<circle cx="76314.7" cy="37808.1" r="68.8976" /> 
</g>
<g style="fill:#FFFFFF; fill-opacity:1.0; 
stroke:#FFFFFF; stroke-width:39.3701; stroke-opacity:1; 
stroke-linecap:round; stroke-linejoin:round;">
</g>
<g style="fill:#000000; fill-opacity:1.0; 
stroke:#000000; stroke-width:39.3701; stroke-opacity:1; 
stroke-linecap:round; stroke-linejoin:round;">
</g> 
</svg>
