G04 #@! TF.GenerationSoftware,KiCad,Pcbnew,no-vcs-found-be10de8~57~ubuntu16.10.1*
G04 #@! TF.CreationDate,2017-03-16T11:48:35+01:00*
G04 #@! TF.ProjectId,SW48A2,5357343841322E6B696361645F706362,rev?*
G04 #@! TF.FileFunction,Copper,L1,Top,Signal*
G04 #@! TF.FilePolarity,Positive*
%FSLAX46Y46*%
G04 Gerber Fmt 4.6, Leading zero omitted, Abs format (unit mm)*
G04 Created by KiCad (PCBNEW no-vcs-found-be10de8~57~ubuntu16.10.1) date Thu Mar 16 11:48:35 2017*
%MOMM*%
%LPD*%
G01*
G04 APERTURE LIST*
%ADD10C,0.100000*%
%ADD11C,0.150000*%
%ADD12C,0.300000*%
%ADD13C,0.400000*%
%ADD14R,0.400000X1.600000*%
%ADD15R,9.700000X3.400000*%
%ADD16C,0.400000*%
%ADD17R,0.900000X1.200000*%
%ADD18R,1.200000X0.900000*%
%ADD19R,1.250000X1.500000*%
%ADD20R,0.910000X1.220000*%
%ADD21R,0.900000X0.700000*%
%ADD22R,4.560000X5.000000*%
%ADD23R,0.630000X0.500000*%
%ADD24R,1.900000X2.450000*%
%ADD25R,3.500000X1.600000*%
%ADD26C,3.000000*%
%ADD27R,2.000000X1.600000*%
%ADD28R,0.750000X1.200000*%
%ADD29R,0.350000X0.300000*%
%ADD30R,1.200000X0.750000*%
%ADD31R,2.400000X5.000000*%
%ADD32R,1.220000X0.910000*%
%ADD33R,3.500120X2.301240*%
%ADD34O,1.998980X1.998980*%
%ADD35R,1.998980X1.998980*%
%ADD36R,0.600000X0.400000*%
%ADD37R,9.000000X2.000000*%
%ADD38R,3.000000X5.000000*%
%ADD39R,1.727200X1.727200*%
%ADD40O,1.727200X1.727200*%
%ADD41C,0.600000*%
%ADD42C,0.250000*%
%ADD43C,1.000000*%
%ADD44C,0.254000*%
G04 APERTURE END LIST*
D10*
D11*
X177002200Y-166007200D02*
X177002200Y-198007200D01*
X285002200Y-198007200D01*
X285002200Y-166007200D01*
X177002200Y-166007200D01*
D10*
D11*
X10000000Y-10000000D02*
X10000000Y-200007200D01*
X287002200Y-200007200D01*
X287002200Y-10000000D01*
X10000000Y-10000000D01*
D10*
D11*
X12000000Y-12000000D02*
X12000000Y-198007200D01*
X285002200Y-198007200D01*
X285002200Y-12000000D01*
X12000000Y-12000000D01*
D10*
D11*
X60000000Y-12000000D02*
X60000000Y-10000000D01*
D10*
D11*
X110000000Y-12000000D02*
X110000000Y-10000000D01*
D10*
D11*
X160000000Y-12000000D02*
X160000000Y-10000000D01*
D10*
D11*
X210000000Y-12000000D02*
X210000000Y-10000000D01*
D10*
D11*
X260000000Y-12000000D02*
X260000000Y-10000000D01*
D10*
D11*
X36065476Y-11588095D02*
X35322619Y-11588095D01*
X35694047Y-11588095D02*
X35694047Y-10288095D01*
X35570238Y-10473809D01*
X35446428Y-10597619D01*
X35322619Y-10659523D01*
D10*
D11*
X85322619Y-10411904D02*
X85384523Y-10350000D01*
X85508333Y-10288095D01*
X85817857Y-10288095D01*
X85941666Y-10350000D01*
X86003571Y-10411904D01*
X86065476Y-10535714D01*
X86065476Y-10659523D01*
X86003571Y-10845238D01*
X85260714Y-11588095D01*
X86065476Y-11588095D01*
D10*
D11*
X135260714Y-10288095D02*
X136065476Y-10288095D01*
X135632142Y-10783333D01*
X135817857Y-10783333D01*
X135941666Y-10845238D01*
X136003571Y-10907142D01*
X136065476Y-11030952D01*
X136065476Y-11340476D01*
X136003571Y-11464285D01*
X135941666Y-11526190D01*
X135817857Y-11588095D01*
X135446428Y-11588095D01*
X135322619Y-11526190D01*
X135260714Y-11464285D01*
D10*
D11*
X185941666Y-10721428D02*
X185941666Y-11588095D01*
X185632142Y-10226190D02*
X185322619Y-11154761D01*
X186127380Y-11154761D01*
D10*
D11*
X236003571Y-10288095D02*
X235384523Y-10288095D01*
X235322619Y-10907142D01*
X235384523Y-10845238D01*
X235508333Y-10783333D01*
X235817857Y-10783333D01*
X235941666Y-10845238D01*
X236003571Y-10907142D01*
X236065476Y-11030952D01*
X236065476Y-11340476D01*
X236003571Y-11464285D01*
X235941666Y-11526190D01*
X235817857Y-11588095D01*
X235508333Y-11588095D01*
X235384523Y-11526190D01*
X235322619Y-11464285D01*
D10*
D11*
X285941666Y-10288095D02*
X285694047Y-10288095D01*
X285570238Y-10350000D01*
X285508333Y-10411904D01*
X285384523Y-10597619D01*
X285322619Y-10845238D01*
X285322619Y-11340476D01*
X285384523Y-11464285D01*
X285446428Y-11526190D01*
X285570238Y-11588095D01*
X285817857Y-11588095D01*
X285941666Y-11526190D01*
X286003571Y-11464285D01*
X286065476Y-11340476D01*
X286065476Y-11030952D01*
X286003571Y-10907142D01*
X285941666Y-10845238D01*
X285817857Y-10783333D01*
X285570238Y-10783333D01*
X285446428Y-10845238D01*
X285384523Y-10907142D01*
X285322619Y-11030952D01*
D10*
D11*
X60000000Y-198007200D02*
X60000000Y-200007200D01*
D10*
D11*
X110000000Y-198007200D02*
X110000000Y-200007200D01*
D10*
D11*
X160000000Y-198007200D02*
X160000000Y-200007200D01*
D10*
D11*
X210000000Y-198007200D02*
X210000000Y-200007200D01*
D10*
D11*
X260000000Y-198007200D02*
X260000000Y-200007200D01*
D10*
D11*
X36065476Y-199595295D02*
X35322619Y-199595295D01*
X35694047Y-199595295D02*
X35694047Y-198295295D01*
X35570238Y-198481009D01*
X35446428Y-198604819D01*
X35322619Y-198666723D01*
D10*
D11*
X85322619Y-198419104D02*
X85384523Y-198357200D01*
X85508333Y-198295295D01*
X85817857Y-198295295D01*
X85941666Y-198357200D01*
X86003571Y-198419104D01*
X86065476Y-198542914D01*
X86065476Y-198666723D01*
X86003571Y-198852438D01*
X85260714Y-199595295D01*
X86065476Y-199595295D01*
D10*
D11*
X135260714Y-198295295D02*
X136065476Y-198295295D01*
X135632142Y-198790533D01*
X135817857Y-198790533D01*
X135941666Y-198852438D01*
X136003571Y-198914342D01*
X136065476Y-199038152D01*
X136065476Y-199347676D01*
X136003571Y-199471485D01*
X135941666Y-199533390D01*
X135817857Y-199595295D01*
X135446428Y-199595295D01*
X135322619Y-199533390D01*
X135260714Y-199471485D01*
D10*
D11*
X185941666Y-198728628D02*
X185941666Y-199595295D01*
X185632142Y-198233390D02*
X185322619Y-199161961D01*
X186127380Y-199161961D01*
D10*
D11*
X236003571Y-198295295D02*
X235384523Y-198295295D01*
X235322619Y-198914342D01*
X235384523Y-198852438D01*
X235508333Y-198790533D01*
X235817857Y-198790533D01*
X235941666Y-198852438D01*
X236003571Y-198914342D01*
X236065476Y-199038152D01*
X236065476Y-199347676D01*
X236003571Y-199471485D01*
X235941666Y-199533390D01*
X235817857Y-199595295D01*
X235508333Y-199595295D01*
X235384523Y-199533390D01*
X235322619Y-199471485D01*
D10*
D11*
X285941666Y-198295295D02*
X285694047Y-198295295D01*
X285570238Y-198357200D01*
X285508333Y-198419104D01*
X285384523Y-198604819D01*
X285322619Y-198852438D01*
X285322619Y-199347676D01*
X285384523Y-199471485D01*
X285446428Y-199533390D01*
X285570238Y-199595295D01*
X285817857Y-199595295D01*
X285941666Y-199533390D01*
X286003571Y-199471485D01*
X286065476Y-199347676D01*
X286065476Y-199038152D01*
X286003571Y-198914342D01*
X285941666Y-198852438D01*
X285817857Y-198790533D01*
X285570238Y-198790533D01*
X285446428Y-198852438D01*
X285384523Y-198914342D01*
X285322619Y-199038152D01*
D10*
D11*
X10000000Y-60000000D02*
X12000000Y-60000000D01*
D10*
D11*
X10000000Y-110000000D02*
X12000000Y-110000000D01*
D10*
D11*
X10000000Y-160000000D02*
X12000000Y-160000000D01*
D10*
D11*
X10690476Y-35216666D02*
X11309523Y-35216666D01*
X10566666Y-35588095D02*
X11000000Y-34288095D01*
X11433333Y-35588095D01*
D10*
D11*
X11092857Y-84907142D02*
X11278571Y-84969047D01*
X11340476Y-85030952D01*
X11402380Y-85154761D01*
X11402380Y-85340476D01*
X11340476Y-85464285D01*
X11278571Y-85526190D01*
X11154761Y-85588095D01*
X10659523Y-85588095D01*
X10659523Y-84288095D01*
X11092857Y-84288095D01*
X11216666Y-84350000D01*
X11278571Y-84411904D01*
X11340476Y-84535714D01*
X11340476Y-84659523D01*
X11278571Y-84783333D01*
X11216666Y-84845238D01*
X11092857Y-84907142D01*
X10659523Y-84907142D01*
D10*
D11*
X11402380Y-135464285D02*
X11340476Y-135526190D01*
X11154761Y-135588095D01*
X11030952Y-135588095D01*
X10845238Y-135526190D01*
X10721428Y-135402380D01*
X10659523Y-135278571D01*
X10597619Y-135030952D01*
X10597619Y-134845238D01*
X10659523Y-134597619D01*
X10721428Y-134473809D01*
X10845238Y-134350000D01*
X11030952Y-134288095D01*
X11154761Y-134288095D01*
X11340476Y-134350000D01*
X11402380Y-134411904D01*
D10*
D11*
X10659523Y-185588095D02*
X10659523Y-184288095D01*
X10969047Y-184288095D01*
X11154761Y-184350000D01*
X11278571Y-184473809D01*
X11340476Y-184597619D01*
X11402380Y-184845238D01*
X11402380Y-185030952D01*
X11340476Y-185278571D01*
X11278571Y-185402380D01*
X11154761Y-185526190D01*
X10969047Y-185588095D01*
X10659523Y-185588095D01*
D10*
D11*
X287002200Y-60000000D02*
X285002200Y-60000000D01*
D10*
D11*
X287002200Y-110000000D02*
X285002200Y-110000000D01*
D10*
D11*
X287002200Y-160000000D02*
X285002200Y-160000000D01*
D10*
D11*
X285692676Y-35216666D02*
X286311723Y-35216666D01*
X285568866Y-35588095D02*
X286002200Y-34288095D01*
X286435533Y-35588095D01*
D10*
D11*
X286095057Y-84907142D02*
X286280771Y-84969047D01*
X286342676Y-85030952D01*
X286404580Y-85154761D01*
X286404580Y-85340476D01*
X286342676Y-85464285D01*
X286280771Y-85526190D01*
X286156961Y-85588095D01*
X285661723Y-85588095D01*
X285661723Y-84288095D01*
X286095057Y-84288095D01*
X286218866Y-84350000D01*
X286280771Y-84411904D01*
X286342676Y-84535714D01*
X286342676Y-84659523D01*
X286280771Y-84783333D01*
X286218866Y-84845238D01*
X286095057Y-84907142D01*
X285661723Y-84907142D01*
D10*
D11*
X286404580Y-135464285D02*
X286342676Y-135526190D01*
X286156961Y-135588095D01*
X286033152Y-135588095D01*
X285847438Y-135526190D01*
X285723628Y-135402380D01*
X285661723Y-135278571D01*
X285599819Y-135030952D01*
X285599819Y-134845238D01*
X285661723Y-134597619D01*
X285723628Y-134473809D01*
X285847438Y-134350000D01*
X286033152Y-134288095D01*
X286156961Y-134288095D01*
X286342676Y-134350000D01*
X286404580Y-134411904D01*
D10*
D11*
X285661723Y-185588095D02*
X285661723Y-184288095D01*
X285971247Y-184288095D01*
X286156961Y-184350000D01*
X286280771Y-184473809D01*
X286342676Y-184597619D01*
X286404580Y-184845238D01*
X286404580Y-185030952D01*
X286342676Y-185278571D01*
X286280771Y-185402380D01*
X286156961Y-185526190D01*
X285971247Y-185588095D01*
X285661723Y-185588095D01*
D10*
D11*
X200434342Y-193785771D02*
X200434342Y-192285771D01*
X200791485Y-192285771D01*
X201005771Y-192357200D01*
X201148628Y-192500057D01*
X201220057Y-192642914D01*
X201291485Y-192928628D01*
X201291485Y-193142914D01*
X201220057Y-193428628D01*
X201148628Y-193571485D01*
X201005771Y-193714342D01*
X200791485Y-193785771D01*
X200434342Y-193785771D01*
X202577200Y-193785771D02*
X202577200Y-193000057D01*
X202505771Y-192857200D01*
X202362914Y-192785771D01*
X202077200Y-192785771D01*
X201934342Y-192857200D01*
X202577200Y-193714342D02*
X202434342Y-193785771D01*
X202077200Y-193785771D01*
X201934342Y-193714342D01*
X201862914Y-193571485D01*
X201862914Y-193428628D01*
X201934342Y-193285771D01*
X202077200Y-193214342D01*
X202434342Y-193214342D01*
X202577200Y-193142914D01*
X203077200Y-192785771D02*
X203648628Y-192785771D01*
X203291485Y-192285771D02*
X203291485Y-193571485D01*
X203362914Y-193714342D01*
X203505771Y-193785771D01*
X203648628Y-193785771D01*
X204720057Y-193714342D02*
X204577200Y-193785771D01*
X204291485Y-193785771D01*
X204148628Y-193714342D01*
X204077200Y-193571485D01*
X204077200Y-193000057D01*
X204148628Y-192857200D01*
X204291485Y-192785771D01*
X204577200Y-192785771D01*
X204720057Y-192857200D01*
X204791485Y-193000057D01*
X204791485Y-193142914D01*
X204077200Y-193285771D01*
X205434342Y-193642914D02*
X205505771Y-193714342D01*
X205434342Y-193785771D01*
X205362914Y-193714342D01*
X205434342Y-193642914D01*
X205434342Y-193785771D01*
X205434342Y-192857200D02*
X205505771Y-192928628D01*
X205434342Y-193000057D01*
X205362914Y-192928628D01*
X205434342Y-192857200D01*
X205434342Y-193000057D01*
D10*
D11*
X177002200Y-194507200D02*
X285002200Y-194507200D01*
D10*
D11*
X178434342Y-196585771D02*
X178434342Y-195085771D01*
X179291485Y-196585771D02*
X178648628Y-195728628D01*
X179291485Y-195085771D02*
X178434342Y-195942914D01*
X179934342Y-196585771D02*
X179934342Y-195585771D01*
X179934342Y-195085771D02*
X179862914Y-195157200D01*
X179934342Y-195228628D01*
X180005771Y-195157200D01*
X179934342Y-195085771D01*
X179934342Y-195228628D01*
X181505771Y-196442914D02*
X181434342Y-196514342D01*
X181220057Y-196585771D01*
X181077200Y-196585771D01*
X180862914Y-196514342D01*
X180720057Y-196371485D01*
X180648628Y-196228628D01*
X180577200Y-195942914D01*
X180577200Y-195728628D01*
X180648628Y-195442914D01*
X180720057Y-195300057D01*
X180862914Y-195157200D01*
X181077200Y-195085771D01*
X181220057Y-195085771D01*
X181434342Y-195157200D01*
X181505771Y-195228628D01*
X182791485Y-196585771D02*
X182791485Y-195800057D01*
X182720057Y-195657200D01*
X182577200Y-195585771D01*
X182291485Y-195585771D01*
X182148628Y-195657200D01*
X182791485Y-196514342D02*
X182648628Y-196585771D01*
X182291485Y-196585771D01*
X182148628Y-196514342D01*
X182077200Y-196371485D01*
X182077200Y-196228628D01*
X182148628Y-196085771D01*
X182291485Y-196014342D01*
X182648628Y-196014342D01*
X182791485Y-195942914D01*
X184148628Y-196585771D02*
X184148628Y-195085771D01*
X184148628Y-196514342D02*
X184005771Y-196585771D01*
X183720057Y-196585771D01*
X183577200Y-196514342D01*
X183505771Y-196442914D01*
X183434342Y-196300057D01*
X183434342Y-195871485D01*
X183505771Y-195728628D01*
X183577200Y-195657200D01*
X183720057Y-195585771D01*
X184005771Y-195585771D01*
X184148628Y-195657200D01*
X186005771Y-195800057D02*
X186505771Y-195800057D01*
X186720057Y-196585771D02*
X186005771Y-196585771D01*
X186005771Y-195085771D01*
X186720057Y-195085771D01*
X187362914Y-196442914D02*
X187434342Y-196514342D01*
X187362914Y-196585771D01*
X187291485Y-196514342D01*
X187362914Y-196442914D01*
X187362914Y-196585771D01*
X188077200Y-196585771D02*
X188077200Y-195085771D01*
X188434342Y-195085771D01*
X188648628Y-195157200D01*
X188791485Y-195300057D01*
X188862914Y-195442914D01*
X188934342Y-195728628D01*
X188934342Y-195942914D01*
X188862914Y-196228628D01*
X188791485Y-196371485D01*
X188648628Y-196514342D01*
X188434342Y-196585771D01*
X188077200Y-196585771D01*
X189577200Y-196442914D02*
X189648628Y-196514342D01*
X189577200Y-196585771D01*
X189505771Y-196514342D01*
X189577200Y-196442914D01*
X189577200Y-196585771D01*
X190220057Y-196157200D02*
X190934342Y-196157200D01*
X190077200Y-196585771D02*
X190577200Y-195085771D01*
X191077200Y-196585771D01*
X191577200Y-196442914D02*
X191648628Y-196514342D01*
X191577200Y-196585771D01*
X191505771Y-196514342D01*
X191577200Y-196442914D01*
X191577200Y-196585771D01*
X194577200Y-196585771D02*
X194577200Y-195085771D01*
X194720057Y-196014342D02*
X195148628Y-196585771D01*
X195148628Y-195585771D02*
X194577200Y-196157200D01*
X195791485Y-196585771D02*
X195791485Y-195585771D01*
X195791485Y-195085771D02*
X195720057Y-195157200D01*
X195791485Y-195228628D01*
X195862914Y-195157200D01*
X195791485Y-195085771D01*
X195791485Y-195228628D01*
X197148628Y-196514342D02*
X197005771Y-196585771D01*
X196720057Y-196585771D01*
X196577200Y-196514342D01*
X196505771Y-196442914D01*
X196434342Y-196300057D01*
X196434342Y-195871485D01*
X196505771Y-195728628D01*
X196577200Y-195657200D01*
X196720057Y-195585771D01*
X197005771Y-195585771D01*
X197148628Y-195657200D01*
X198434342Y-196585771D02*
X198434342Y-195800057D01*
X198362914Y-195657200D01*
X198220057Y-195585771D01*
X197934342Y-195585771D01*
X197791485Y-195657200D01*
X198434342Y-196514342D02*
X198291485Y-196585771D01*
X197934342Y-196585771D01*
X197791485Y-196514342D01*
X197720057Y-196371485D01*
X197720057Y-196228628D01*
X197791485Y-196085771D01*
X197934342Y-196014342D01*
X198291485Y-196014342D01*
X198434342Y-195942914D01*
X199791485Y-196585771D02*
X199791485Y-195085771D01*
X199791485Y-196514342D02*
X199648628Y-196585771D01*
X199362914Y-196585771D01*
X199220057Y-196514342D01*
X199148628Y-196442914D01*
X199077200Y-196300057D01*
X199077200Y-195871485D01*
X199148628Y-195728628D01*
X199220057Y-195657200D01*
X199362914Y-195585771D01*
X199648628Y-195585771D01*
X199791485Y-195657200D01*
X201648628Y-195585771D02*
X201648628Y-196585771D01*
X201648628Y-195728628D02*
X201720057Y-195657200D01*
X201862914Y-195585771D01*
X202077200Y-195585771D01*
X202220057Y-195657200D01*
X202291485Y-195800057D01*
X202291485Y-196585771D01*
X203220057Y-196585771D02*
X203077200Y-196514342D01*
X203005771Y-196442914D01*
X202934342Y-196300057D01*
X202934342Y-195871485D01*
X203005771Y-195728628D01*
X203077200Y-195657200D01*
X203220057Y-195585771D01*
X203434342Y-195585771D01*
X203577200Y-195657200D01*
X203648628Y-195728628D01*
X203720057Y-195871485D01*
X203720057Y-196300057D01*
X203648628Y-196442914D01*
X203577200Y-196514342D01*
X203434342Y-196585771D01*
X203220057Y-196585771D01*
X204362914Y-196014342D02*
X205505771Y-196014342D01*
X206077200Y-195585771D02*
X206434342Y-196585771D01*
X206791485Y-195585771D01*
X208005771Y-196514342D02*
X207862914Y-196585771D01*
X207577200Y-196585771D01*
X207434342Y-196514342D01*
X207362914Y-196442914D01*
X207291485Y-196300057D01*
X207291485Y-195871485D01*
X207362914Y-195728628D01*
X207434342Y-195657200D01*
X207577200Y-195585771D01*
X207862914Y-195585771D01*
X208005771Y-195657200D01*
X208577200Y-196514342D02*
X208720057Y-196585771D01*
X209005771Y-196585771D01*
X209148628Y-196514342D01*
X209220057Y-196371485D01*
X209220057Y-196300057D01*
X209148628Y-196157200D01*
X209005771Y-196085771D01*
X208791485Y-196085771D01*
X208648628Y-196014342D01*
X208577200Y-195871485D01*
X208577200Y-195800057D01*
X208648628Y-195657200D01*
X208791485Y-195585771D01*
X209005771Y-195585771D01*
X209148628Y-195657200D01*
X209862914Y-196014342D02*
X211005771Y-196014342D01*
X211505771Y-195585771D02*
X212077200Y-195585771D01*
X211720057Y-196585771D02*
X211720057Y-195300057D01*
X211791485Y-195157200D01*
X211934342Y-195085771D01*
X212077200Y-195085771D01*
X212791485Y-196585771D02*
X212648628Y-196514342D01*
X212577200Y-196442914D01*
X212505771Y-196300057D01*
X212505771Y-195871485D01*
X212577200Y-195728628D01*
X212648628Y-195657200D01*
X212791485Y-195585771D01*
X213005771Y-195585771D01*
X213148628Y-195657200D01*
X213220057Y-195728628D01*
X213291485Y-195871485D01*
X213291485Y-196300057D01*
X213220057Y-196442914D01*
X213148628Y-196514342D01*
X213005771Y-196585771D01*
X212791485Y-196585771D01*
X214577200Y-195585771D02*
X214577200Y-196585771D01*
X213934342Y-195585771D02*
X213934342Y-196371485D01*
X214005771Y-196514342D01*
X214148628Y-196585771D01*
X214362914Y-196585771D01*
X214505771Y-196514342D01*
X214577200Y-196442914D01*
X215291485Y-195585771D02*
X215291485Y-196585771D01*
X215291485Y-195728628D02*
X215362914Y-195657200D01*
X215505771Y-195585771D01*
X215720057Y-195585771D01*
X215862914Y-195657200D01*
X215934342Y-195800057D01*
X215934342Y-196585771D01*
X217291485Y-196585771D02*
X217291485Y-195085771D01*
X217291485Y-196514342D02*
X217148628Y-196585771D01*
X216862914Y-196585771D01*
X216720057Y-196514342D01*
X216648628Y-196442914D01*
X216577200Y-196300057D01*
X216577200Y-195871485D01*
X216648628Y-195728628D01*
X216720057Y-195657200D01*
X216862914Y-195585771D01*
X217148628Y-195585771D01*
X217291485Y-195657200D01*
X218005771Y-196014342D02*
X219148628Y-196014342D01*
X219862914Y-196585771D02*
X219862914Y-195085771D01*
X219862914Y-195657200D02*
X220005771Y-195585771D01*
X220291485Y-195585771D01*
X220434342Y-195657200D01*
X220505771Y-195728628D01*
X220577200Y-195871485D01*
X220577200Y-196300057D01*
X220505771Y-196442914D01*
X220434342Y-196514342D01*
X220291485Y-196585771D01*
X220005771Y-196585771D01*
X219862914Y-196514342D01*
X221791485Y-196514342D02*
X221648628Y-196585771D01*
X221362914Y-196585771D01*
X221220057Y-196514342D01*
X221148628Y-196371485D01*
X221148628Y-195800057D01*
X221220057Y-195657200D01*
X221362914Y-195585771D01*
X221648628Y-195585771D01*
X221791485Y-195657200D01*
X221862914Y-195800057D01*
X221862914Y-195942914D01*
X221148628Y-196085771D01*
X223291485Y-196585771D02*
X222434342Y-196585771D01*
X222862914Y-196585771D02*
X222862914Y-195085771D01*
X222720057Y-195300057D01*
X222577200Y-195442914D01*
X222434342Y-195514342D01*
X224220057Y-195085771D02*
X224362914Y-195085771D01*
X224505771Y-195157200D01*
X224577200Y-195228628D01*
X224648628Y-195371485D01*
X224720057Y-195657200D01*
X224720057Y-196014342D01*
X224648628Y-196300057D01*
X224577200Y-196442914D01*
X224505771Y-196514342D01*
X224362914Y-196585771D01*
X224220057Y-196585771D01*
X224077200Y-196514342D01*
X224005771Y-196442914D01*
X223934342Y-196300057D01*
X223862914Y-196014342D01*
X223862914Y-195657200D01*
X223934342Y-195371485D01*
X224005771Y-195228628D01*
X224077200Y-195157200D01*
X224220057Y-195085771D01*
X226005771Y-196585771D02*
X226005771Y-195085771D01*
X226005771Y-196514342D02*
X225862914Y-196585771D01*
X225577200Y-196585771D01*
X225434342Y-196514342D01*
X225362914Y-196442914D01*
X225291485Y-196300057D01*
X225291485Y-195871485D01*
X225362914Y-195728628D01*
X225434342Y-195657200D01*
X225577200Y-195585771D01*
X225862914Y-195585771D01*
X226005771Y-195657200D01*
X227291485Y-196514342D02*
X227148628Y-196585771D01*
X226862914Y-196585771D01*
X226720057Y-196514342D01*
X226648628Y-196371485D01*
X226648628Y-195800057D01*
X226720057Y-195657200D01*
X226862914Y-195585771D01*
X227148628Y-195585771D01*
X227291485Y-195657200D01*
X227362914Y-195800057D01*
X227362914Y-195942914D01*
X226648628Y-196085771D01*
X228220057Y-195728628D02*
X228077200Y-195657200D01*
X228005771Y-195585771D01*
X227934342Y-195442914D01*
X227934342Y-195371485D01*
X228005771Y-195228628D01*
X228077200Y-195157200D01*
X228220057Y-195085771D01*
X228505771Y-195085771D01*
X228648628Y-195157200D01*
X228720057Y-195228628D01*
X228791485Y-195371485D01*
X228791485Y-195442914D01*
X228720057Y-195585771D01*
X228648628Y-195657200D01*
X228505771Y-195728628D01*
X228220057Y-195728628D01*
X228077200Y-195800057D01*
X228005771Y-195871485D01*
X227934342Y-196014342D01*
X227934342Y-196300057D01*
X228005771Y-196442914D01*
X228077200Y-196514342D01*
X228220057Y-196585771D01*
X228505771Y-196585771D01*
X228648628Y-196514342D01*
X228720057Y-196442914D01*
X228791485Y-196300057D01*
X228791485Y-196014342D01*
X228720057Y-195871485D01*
X228648628Y-195800057D01*
X228505771Y-195728628D01*
X229324700Y-194677200D02*
X230505771Y-194677200D01*
X230148628Y-195085771D02*
X229434342Y-195085771D01*
X229362914Y-195800057D01*
X229434342Y-195728628D01*
X229577200Y-195657200D01*
X229934342Y-195657200D01*
X230077200Y-195728628D01*
X230148628Y-195800057D01*
X230220057Y-195942914D01*
X230220057Y-196300057D01*
X230148628Y-196442914D01*
X230077200Y-196514342D01*
X229934342Y-196585771D01*
X229577200Y-196585771D01*
X229434342Y-196514342D01*
X229362914Y-196442914D01*
X230505771Y-194677200D02*
X231934342Y-194677200D01*
X230720057Y-195085771D02*
X231720057Y-195085771D01*
X231077200Y-196585771D01*
X232934342Y-195585771D02*
X232934342Y-196585771D01*
X232291485Y-195585771D02*
X232291485Y-196371485D01*
X232362914Y-196514342D01*
X232505771Y-196585771D01*
X232720057Y-196585771D01*
X232862914Y-196514342D01*
X232934342Y-196442914D01*
X233648628Y-196585771D02*
X233648628Y-195085771D01*
X233648628Y-195657200D02*
X233791485Y-195585771D01*
X234077200Y-195585771D01*
X234220057Y-195657200D01*
X234291485Y-195728628D01*
X234362914Y-195871485D01*
X234362914Y-196300057D01*
X234291485Y-196442914D01*
X234220057Y-196514342D01*
X234077200Y-196585771D01*
X233791485Y-196585771D01*
X233648628Y-196514342D01*
X235648628Y-195585771D02*
X235648628Y-196585771D01*
X235005771Y-195585771D02*
X235005771Y-196371485D01*
X235077200Y-196514342D01*
X235220057Y-196585771D01*
X235434342Y-196585771D01*
X235577200Y-196514342D01*
X235648628Y-196442914D01*
X236362914Y-195585771D02*
X236362914Y-196585771D01*
X236362914Y-195728628D02*
X236434342Y-195657200D01*
X236577200Y-195585771D01*
X236791485Y-195585771D01*
X236934342Y-195657200D01*
X237005771Y-195800057D01*
X237005771Y-196585771D01*
X237505771Y-195585771D02*
X238077200Y-195585771D01*
X237720057Y-195085771D02*
X237720057Y-196371485D01*
X237791485Y-196514342D01*
X237934342Y-196585771D01*
X238077200Y-196585771D01*
X239220057Y-195585771D02*
X239220057Y-196585771D01*
X238577200Y-195585771D02*
X238577200Y-196371485D01*
X238648628Y-196514342D01*
X238791485Y-196585771D01*
X239005771Y-196585771D01*
X239148628Y-196514342D01*
X239220057Y-196442914D01*
X240720057Y-196585771D02*
X239862914Y-196585771D01*
X240291485Y-196585771D02*
X240291485Y-195085771D01*
X240148628Y-195300057D01*
X240005771Y-195442914D01*
X239862914Y-195514342D01*
X242005771Y-195085771D02*
X241720057Y-195085771D01*
X241577200Y-195157200D01*
X241505771Y-195228628D01*
X241362914Y-195442914D01*
X241291485Y-195728628D01*
X241291485Y-196300057D01*
X241362914Y-196442914D01*
X241434342Y-196514342D01*
X241577200Y-196585771D01*
X241862914Y-196585771D01*
X242005771Y-196514342D01*
X242077200Y-196442914D01*
X242148628Y-196300057D01*
X242148628Y-195942914D01*
X242077200Y-195800057D01*
X242005771Y-195728628D01*
X241862914Y-195657200D01*
X241577200Y-195657200D01*
X241434342Y-195728628D01*
X241362914Y-195800057D01*
X241291485Y-195942914D01*
X242791485Y-196442914D02*
X242862914Y-196514342D01*
X242791485Y-196585771D01*
X242720057Y-196514342D01*
X242791485Y-196442914D01*
X242791485Y-196585771D01*
X244291485Y-196585771D02*
X243434342Y-196585771D01*
X243862914Y-196585771D02*
X243862914Y-195085771D01*
X243720057Y-195300057D01*
X243577200Y-195442914D01*
X243434342Y-195514342D01*
X245220057Y-195085771D02*
X245362914Y-195085771D01*
X245505771Y-195157200D01*
X245577200Y-195228628D01*
X245648628Y-195371485D01*
X245720057Y-195657200D01*
X245720057Y-196014342D01*
X245648628Y-196300057D01*
X245577200Y-196442914D01*
X245505771Y-196514342D01*
X245362914Y-196585771D01*
X245220057Y-196585771D01*
X245077200Y-196514342D01*
X245005771Y-196442914D01*
X244934342Y-196300057D01*
X244862914Y-196014342D01*
X244862914Y-195657200D01*
X244934342Y-195371485D01*
X245005771Y-195228628D01*
X245077200Y-195157200D01*
X245220057Y-195085771D01*
X246362914Y-196442914D02*
X246434342Y-196514342D01*
X246362914Y-196585771D01*
X246291485Y-196514342D01*
X246362914Y-196442914D01*
X246362914Y-196585771D01*
X247862914Y-196585771D02*
X247005771Y-196585771D01*
X247434342Y-196585771D02*
X247434342Y-195085771D01*
X247291485Y-195300057D01*
X247148628Y-195442914D01*
X247005771Y-195514342D01*
D10*
D11*
X177002200Y-191507200D02*
X285002200Y-191507200D01*
D10*
D12*
X264411485Y-193785771D02*
X263911485Y-193071485D01*
X263554342Y-193785771D02*
X263554342Y-192285771D01*
X264125771Y-192285771D01*
X264268628Y-192357200D01*
X264340057Y-192428628D01*
X264411485Y-192571485D01*
X264411485Y-192785771D01*
X264340057Y-192928628D01*
X264268628Y-193000057D01*
X264125771Y-193071485D01*
X263554342Y-193071485D01*
X265625771Y-193714342D02*
X265482914Y-193785771D01*
X265197200Y-193785771D01*
X265054342Y-193714342D01*
X264982914Y-193571485D01*
X264982914Y-193000057D01*
X265054342Y-192857200D01*
X265197200Y-192785771D01*
X265482914Y-192785771D01*
X265625771Y-192857200D01*
X265697200Y-193000057D01*
X265697200Y-193142914D01*
X264982914Y-193285771D01*
X266197200Y-192785771D02*
X266554342Y-193785771D01*
X266911485Y-192785771D01*
X267482914Y-193642914D02*
X267554342Y-193714342D01*
X267482914Y-193785771D01*
X267411485Y-193714342D01*
X267482914Y-193642914D01*
X267482914Y-193785771D01*
X267482914Y-192857200D02*
X267554342Y-192928628D01*
X267482914Y-193000057D01*
X267411485Y-192928628D01*
X267482914Y-192857200D01*
X267482914Y-193000057D01*
D10*
D11*
X178362914Y-193714342D02*
X178577200Y-193785771D01*
X178934342Y-193785771D01*
X179077200Y-193714342D01*
X179148628Y-193642914D01*
X179220057Y-193500057D01*
X179220057Y-193357200D01*
X179148628Y-193214342D01*
X179077200Y-193142914D01*
X178934342Y-193071485D01*
X178648628Y-193000057D01*
X178505771Y-192928628D01*
X178434342Y-192857200D01*
X178362914Y-192714342D01*
X178362914Y-192571485D01*
X178434342Y-192428628D01*
X178505771Y-192357200D01*
X178648628Y-192285771D01*
X179005771Y-192285771D01*
X179220057Y-192357200D01*
X179862914Y-193785771D02*
X179862914Y-192785771D01*
X179862914Y-192285771D02*
X179791485Y-192357200D01*
X179862914Y-192428628D01*
X179934342Y-192357200D01*
X179862914Y-192285771D01*
X179862914Y-192428628D01*
X180434342Y-192785771D02*
X181220057Y-192785771D01*
X180434342Y-193785771D01*
X181220057Y-193785771D01*
X182362914Y-193714342D02*
X182220057Y-193785771D01*
X181934342Y-193785771D01*
X181791485Y-193714342D01*
X181720057Y-193571485D01*
X181720057Y-193000057D01*
X181791485Y-192857200D01*
X181934342Y-192785771D01*
X182220057Y-192785771D01*
X182362914Y-192857200D01*
X182434342Y-193000057D01*
X182434342Y-193142914D01*
X181720057Y-193285771D01*
X183077200Y-193642914D02*
X183148628Y-193714342D01*
X183077200Y-193785771D01*
X183005771Y-193714342D01*
X183077200Y-193642914D01*
X183077200Y-193785771D01*
X183077200Y-192857200D02*
X183148628Y-192928628D01*
X183077200Y-193000057D01*
X183005771Y-192928628D01*
X183077200Y-192857200D01*
X183077200Y-193000057D01*
X184862914Y-193357200D02*
X185577200Y-193357200D01*
X184720057Y-193785771D02*
X185220057Y-192285771D01*
X185720057Y-193785771D01*
X186862914Y-192785771D02*
X186862914Y-193785771D01*
X186505771Y-192214342D02*
X186148628Y-193285771D01*
X187077200Y-193285771D01*
D10*
D11*
X263434342Y-196585771D02*
X263434342Y-195085771D01*
X264791485Y-196585771D02*
X264791485Y-195085771D01*
X264791485Y-196514342D02*
X264648628Y-196585771D01*
X264362914Y-196585771D01*
X264220057Y-196514342D01*
X264148628Y-196442914D01*
X264077200Y-196300057D01*
X264077200Y-195871485D01*
X264148628Y-195728628D01*
X264220057Y-195657200D01*
X264362914Y-195585771D01*
X264648628Y-195585771D01*
X264791485Y-195657200D01*
X265505771Y-196442914D02*
X265577200Y-196514342D01*
X265505771Y-196585771D01*
X265434342Y-196514342D01*
X265505771Y-196442914D01*
X265505771Y-196585771D01*
X265505771Y-195657200D02*
X265577200Y-195728628D01*
X265505771Y-195800057D01*
X265434342Y-195728628D01*
X265505771Y-195657200D01*
X265505771Y-195800057D01*
X268148628Y-196585771D02*
X267291485Y-196585771D01*
X267720057Y-196585771D02*
X267720057Y-195085771D01*
X267577200Y-195300057D01*
X267434342Y-195442914D01*
X267291485Y-195514342D01*
X269862914Y-195014342D02*
X268577200Y-196942914D01*
X271148628Y-196585771D02*
X270291485Y-196585771D01*
X270720057Y-196585771D02*
X270720057Y-195085771D01*
X270577200Y-195300057D01*
X270434342Y-195442914D01*
X270291485Y-195514342D01*
D10*
D11*
X177002200Y-187507200D02*
X285002200Y-187507200D01*
D10*
D13*
X178714580Y-188211961D02*
X179857438Y-188211961D01*
X179036009Y-190211961D02*
X179286009Y-188211961D01*
X180274104Y-190211961D02*
X180440771Y-188878628D01*
X180524104Y-188211961D02*
X180416961Y-188307200D01*
X180500295Y-188402438D01*
X180607438Y-188307200D01*
X180524104Y-188211961D01*
X180500295Y-188402438D01*
X181107438Y-188878628D02*
X181869342Y-188878628D01*
X181476485Y-188211961D02*
X181262200Y-189926247D01*
X181333628Y-190116723D01*
X181512200Y-190211961D01*
X181702676Y-190211961D01*
X182655057Y-190211961D02*
X182476485Y-190116723D01*
X182405057Y-189926247D01*
X182619342Y-188211961D01*
X184190771Y-190116723D02*
X183988390Y-190211961D01*
X183607438Y-190211961D01*
X183428866Y-190116723D01*
X183357438Y-189926247D01*
X183452676Y-189164342D01*
X183571723Y-188973866D01*
X183774104Y-188878628D01*
X184155057Y-188878628D01*
X184333628Y-188973866D01*
X184405057Y-189164342D01*
X184381247Y-189354819D01*
X183405057Y-189545295D01*
X185155057Y-190021485D02*
X185238390Y-190116723D01*
X185131247Y-190211961D01*
X185047914Y-190116723D01*
X185155057Y-190021485D01*
X185131247Y-190211961D01*
X185286009Y-188973866D02*
X185369342Y-189069104D01*
X185262200Y-189164342D01*
X185178866Y-189069104D01*
X185286009Y-188973866D01*
X185262200Y-189164342D01*
D10*
D11*
X178934342Y-185600057D02*
X178434342Y-185600057D01*
X178434342Y-186385771D02*
X178434342Y-184885771D01*
X179148628Y-184885771D01*
X179720057Y-186385771D02*
X179720057Y-185385771D01*
X179720057Y-184885771D02*
X179648628Y-184957200D01*
X179720057Y-185028628D01*
X179791485Y-184957200D01*
X179720057Y-184885771D01*
X179720057Y-185028628D01*
X180648628Y-186385771D02*
X180505771Y-186314342D01*
X180434342Y-186171485D01*
X180434342Y-184885771D01*
X181791485Y-186314342D02*
X181648628Y-186385771D01*
X181362914Y-186385771D01*
X181220057Y-186314342D01*
X181148628Y-186171485D01*
X181148628Y-185600057D01*
X181220057Y-185457200D01*
X181362914Y-185385771D01*
X181648628Y-185385771D01*
X181791485Y-185457200D01*
X181862914Y-185600057D01*
X181862914Y-185742914D01*
X181148628Y-185885771D01*
X182505771Y-186242914D02*
X182577200Y-186314342D01*
X182505771Y-186385771D01*
X182434342Y-186314342D01*
X182505771Y-186242914D01*
X182505771Y-186385771D01*
X182505771Y-185457200D02*
X182577200Y-185528628D01*
X182505771Y-185600057D01*
X182434342Y-185528628D01*
X182505771Y-185457200D01*
X182505771Y-185600057D01*
X184291485Y-186314342D02*
X184505771Y-186385771D01*
X184862914Y-186385771D01*
X185005771Y-186314342D01*
X185077200Y-186242914D01*
X185148628Y-186100057D01*
X185148628Y-185957200D01*
X185077200Y-185814342D01*
X185005771Y-185742914D01*
X184862914Y-185671485D01*
X184577200Y-185600057D01*
X184434342Y-185528628D01*
X184362914Y-185457200D01*
X184291485Y-185314342D01*
X184291485Y-185171485D01*
X184362914Y-185028628D01*
X184434342Y-184957200D01*
X184577200Y-184885771D01*
X184934342Y-184885771D01*
X185148628Y-184957200D01*
X185648628Y-184885771D02*
X186005771Y-186385771D01*
X186291485Y-185314342D01*
X186577200Y-186385771D01*
X186934342Y-184885771D01*
X188148628Y-185385771D02*
X188148628Y-186385771D01*
X187791485Y-184814342D02*
X187434342Y-185885771D01*
X188362914Y-185885771D01*
X189148628Y-185528628D02*
X189005771Y-185457200D01*
X188934342Y-185385771D01*
X188862914Y-185242914D01*
X188862914Y-185171485D01*
X188934342Y-185028628D01*
X189005771Y-184957200D01*
X189148628Y-184885771D01*
X189434342Y-184885771D01*
X189577200Y-184957200D01*
X189648628Y-185028628D01*
X189720057Y-185171485D01*
X189720057Y-185242914D01*
X189648628Y-185385771D01*
X189577200Y-185457200D01*
X189434342Y-185528628D01*
X189148628Y-185528628D01*
X189005771Y-185600057D01*
X188934342Y-185671485D01*
X188862914Y-185814342D01*
X188862914Y-186100057D01*
X188934342Y-186242914D01*
X189005771Y-186314342D01*
X189148628Y-186385771D01*
X189434342Y-186385771D01*
X189577200Y-186314342D01*
X189648628Y-186242914D01*
X189720057Y-186100057D01*
X189720057Y-185814342D01*
X189648628Y-185671485D01*
X189577200Y-185600057D01*
X189434342Y-185528628D01*
X190291485Y-185957200D02*
X191005771Y-185957200D01*
X190148628Y-186385771D02*
X190648628Y-184885771D01*
X191148628Y-186385771D01*
X191577200Y-185028628D02*
X191648628Y-184957200D01*
X191791485Y-184885771D01*
X192148628Y-184885771D01*
X192291485Y-184957200D01*
X192362914Y-185028628D01*
X192434342Y-185171485D01*
X192434342Y-185314342D01*
X192362914Y-185528628D01*
X191505771Y-186385771D01*
X192434342Y-186385771D01*
X193077200Y-186242914D02*
X193148628Y-186314342D01*
X193077200Y-186385771D01*
X193005771Y-186314342D01*
X193077200Y-186242914D01*
X193077200Y-186385771D01*
X193791485Y-186385771D02*
X193791485Y-184885771D01*
X193934342Y-185814342D02*
X194362914Y-186385771D01*
X194362914Y-185385771D02*
X193791485Y-185957200D01*
X195005771Y-186385771D02*
X195005771Y-185385771D01*
X195005771Y-184885771D02*
X194934342Y-184957200D01*
X195005771Y-185028628D01*
X195077200Y-184957200D01*
X195005771Y-184885771D01*
X195005771Y-185028628D01*
X196362914Y-186314342D02*
X196220057Y-186385771D01*
X195934342Y-186385771D01*
X195791485Y-186314342D01*
X195720057Y-186242914D01*
X195648628Y-186100057D01*
X195648628Y-185671485D01*
X195720057Y-185528628D01*
X195791485Y-185457200D01*
X195934342Y-185385771D01*
X196220057Y-185385771D01*
X196362914Y-185457200D01*
X197648628Y-186385771D02*
X197648628Y-185600057D01*
X197577200Y-185457200D01*
X197434342Y-185385771D01*
X197148628Y-185385771D01*
X197005771Y-185457200D01*
X197648628Y-186314342D02*
X197505771Y-186385771D01*
X197148628Y-186385771D01*
X197005771Y-186314342D01*
X196934342Y-186171485D01*
X196934342Y-186028628D01*
X197005771Y-185885771D01*
X197148628Y-185814342D01*
X197505771Y-185814342D01*
X197648628Y-185742914D01*
X199005771Y-186385771D02*
X199005771Y-184885771D01*
X199005771Y-186314342D02*
X198862914Y-186385771D01*
X198577200Y-186385771D01*
X198434342Y-186314342D01*
X198362914Y-186242914D01*
X198291485Y-186100057D01*
X198291485Y-185671485D01*
X198362914Y-185528628D01*
X198434342Y-185457200D01*
X198577200Y-185385771D01*
X198862914Y-185385771D01*
X199005771Y-185457200D01*
X199362914Y-186528628D02*
X200505771Y-186528628D01*
X200862914Y-185385771D02*
X200862914Y-186885771D01*
X200862914Y-185457200D02*
X201005771Y-185385771D01*
X201291485Y-185385771D01*
X201434342Y-185457200D01*
X201505771Y-185528628D01*
X201577200Y-185671485D01*
X201577200Y-186100057D01*
X201505771Y-186242914D01*
X201434342Y-186314342D01*
X201291485Y-186385771D01*
X201005771Y-186385771D01*
X200862914Y-186314342D01*
X202862914Y-186314342D02*
X202720057Y-186385771D01*
X202434342Y-186385771D01*
X202291485Y-186314342D01*
X202220057Y-186242914D01*
X202148628Y-186100057D01*
X202148628Y-185671485D01*
X202220057Y-185528628D01*
X202291485Y-185457200D01*
X202434342Y-185385771D01*
X202720057Y-185385771D01*
X202862914Y-185457200D01*
X203505771Y-186385771D02*
X203505771Y-184885771D01*
X203505771Y-185457200D02*
X203648628Y-185385771D01*
X203934342Y-185385771D01*
X204077200Y-185457200D01*
X204148628Y-185528628D01*
X204220057Y-185671485D01*
X204220057Y-186100057D01*
X204148628Y-186242914D01*
X204077200Y-186314342D01*
X203934342Y-186385771D01*
X203648628Y-186385771D01*
X203505771Y-186314342D01*
D10*
D11*
X177002200Y-181507200D02*
X285002200Y-181507200D01*
D10*
D11*
X178362914Y-183614342D02*
X178577200Y-183685771D01*
X178934342Y-183685771D01*
X179077200Y-183614342D01*
X179148628Y-183542914D01*
X179220057Y-183400057D01*
X179220057Y-183257200D01*
X179148628Y-183114342D01*
X179077200Y-183042914D01*
X178934342Y-182971485D01*
X178648628Y-182900057D01*
X178505771Y-182828628D01*
X178434342Y-182757200D01*
X178362914Y-182614342D01*
X178362914Y-182471485D01*
X178434342Y-182328628D01*
X178505771Y-182257200D01*
X178648628Y-182185771D01*
X179005771Y-182185771D01*
X179220057Y-182257200D01*
X179862914Y-183685771D02*
X179862914Y-182185771D01*
X180505771Y-183685771D02*
X180505771Y-182900057D01*
X180434342Y-182757200D01*
X180291485Y-182685771D01*
X180077200Y-182685771D01*
X179934342Y-182757200D01*
X179862914Y-182828628D01*
X181791485Y-183614342D02*
X181648628Y-183685771D01*
X181362914Y-183685771D01*
X181220057Y-183614342D01*
X181148628Y-183471485D01*
X181148628Y-182900057D01*
X181220057Y-182757200D01*
X181362914Y-182685771D01*
X181648628Y-182685771D01*
X181791485Y-182757200D01*
X181862914Y-182900057D01*
X181862914Y-183042914D01*
X181148628Y-183185771D01*
X183077200Y-183614342D02*
X182934342Y-183685771D01*
X182648628Y-183685771D01*
X182505771Y-183614342D01*
X182434342Y-183471485D01*
X182434342Y-182900057D01*
X182505771Y-182757200D01*
X182648628Y-182685771D01*
X182934342Y-182685771D01*
X183077200Y-182757200D01*
X183148628Y-182900057D01*
X183148628Y-183042914D01*
X182434342Y-183185771D01*
X183577200Y-182685771D02*
X184148628Y-182685771D01*
X183791485Y-182185771D02*
X183791485Y-183471485D01*
X183862914Y-183614342D01*
X184005771Y-183685771D01*
X184148628Y-183685771D01*
X184648628Y-183542914D02*
X184720057Y-183614342D01*
X184648628Y-183685771D01*
X184577200Y-183614342D01*
X184648628Y-183542914D01*
X184648628Y-183685771D01*
X184648628Y-182757200D02*
X184720057Y-182828628D01*
X184648628Y-182900057D01*
X184577200Y-182828628D01*
X184648628Y-182757200D01*
X184648628Y-182900057D01*
D10*
D11*
X197002200Y-191507200D02*
X197002200Y-194507200D01*
D10*
D11*
X261002200Y-191507200D02*
X261002200Y-198007200D01*
D14*
X163300000Y-68880000D03*
X162650000Y-68880000D03*
X162000000Y-68880000D03*
X161350000Y-68880000D03*
X160700000Y-68880000D03*
X160050000Y-68880000D03*
X159400000Y-68880000D03*
X158750000Y-68880000D03*
X158100000Y-68880000D03*
X157450000Y-68880000D03*
X156800000Y-68880000D03*
X156150000Y-68880000D03*
X155500000Y-68880000D03*
X154850000Y-68880000D03*
X154850000Y-74620000D03*
X155500000Y-74620000D03*
X156150000Y-74620000D03*
X156800000Y-74620000D03*
X157450000Y-74620000D03*
X158100000Y-74620000D03*
X158750000Y-74620000D03*
X159400000Y-74620000D03*
X160050000Y-74620000D03*
X160700000Y-74620000D03*
X161350000Y-74620000D03*
X162000000Y-74620000D03*
X162650000Y-74620000D03*
X163300000Y-74620000D03*
D15*
X159075000Y-71750000D03*
D16*
X159075000Y-71750000D03*
X159075000Y-70450000D03*
X159075000Y-73050000D03*
X157775000Y-70450000D03*
X157775000Y-71750000D03*
X157775000Y-73050000D03*
X156475000Y-70450000D03*
X156475000Y-71750000D03*
X156475000Y-73050000D03*
X155175000Y-70450000D03*
X155175000Y-71750000D03*
X155175000Y-73050000D03*
X160375000Y-70450000D03*
X160375000Y-71750000D03*
X160375000Y-73050000D03*
X161675000Y-73050000D03*
X161675000Y-71750000D03*
X161675000Y-70450000D03*
X162975000Y-70450000D03*
X162975000Y-71750000D03*
X162975000Y-73050000D03*
D17*
X145822000Y-81002000D03*
X145822000Y-78802000D03*
D18*
X150400000Y-77000000D03*
X152600000Y-77000000D03*
D19*
X158500000Y-64250000D03*
X158500000Y-61750000D03*
D20*
X158400000Y-79650000D03*
X161670000Y-79650000D03*
D21*
X138445000Y-124770000D03*
X144750000Y-124770000D03*
X138445000Y-123500000D03*
X144750000Y-123500000D03*
X138445000Y-122230000D03*
X144750000Y-122230000D03*
X138445000Y-120960000D03*
X144750000Y-120960000D03*
D22*
X141097500Y-122865000D03*
D23*
X137500000Y-99975000D03*
X141000000Y-99975000D03*
X137500000Y-99325000D03*
X141000000Y-99325000D03*
X137500000Y-98675000D03*
X141000000Y-98675000D03*
X137500000Y-98025000D03*
X141000000Y-98025000D03*
D24*
X138750000Y-99000000D03*
D25*
X132950000Y-80500000D03*
X127550000Y-80500000D03*
D26*
X167250000Y-88000000D03*
X154250000Y-80250000D03*
X145750000Y-99750000D03*
X160250000Y-84750000D03*
X156250000Y-84750000D03*
X168250000Y-78500000D03*
X132750000Y-122250000D03*
X128000000Y-108250000D03*
X124750000Y-121750000D03*
D23*
X134750000Y-104550000D03*
X131250000Y-104550000D03*
X134750000Y-105200000D03*
X131250000Y-105200000D03*
X134750000Y-105850000D03*
X131250000Y-105850000D03*
X134750000Y-106500000D03*
X131250000Y-106500000D03*
D24*
X133500000Y-105525000D03*
D22*
X132000000Y-114250000D03*
D21*
X128347500Y-116155000D03*
X134652500Y-116155000D03*
X128347500Y-114885000D03*
X134652500Y-114885000D03*
X128347500Y-113615000D03*
X134652500Y-113615000D03*
X128347500Y-112345000D03*
X134652500Y-112345000D03*
D27*
X132250000Y-87000000D03*
X128250000Y-87000000D03*
D28*
X160500000Y-64150000D03*
X160500000Y-62250000D03*
D29*
X156500000Y-62300000D03*
X156500000Y-61750000D03*
D28*
X151000000Y-83950000D03*
X151000000Y-82050000D03*
X162250000Y-64150000D03*
X162250000Y-62250000D03*
D30*
X152450000Y-75250000D03*
X150550000Y-75250000D03*
D27*
X146000000Y-85000000D03*
X142000000Y-85000000D03*
D28*
X165250000Y-78000000D03*
X165250000Y-76100000D03*
D30*
X158400000Y-77750000D03*
X156500000Y-77750000D03*
D27*
X163500000Y-84750000D03*
X167500000Y-84750000D03*
D31*
X138500000Y-159500000D03*
X131500000Y-159500000D03*
X138500000Y-134500000D03*
X131500000Y-134500000D03*
X138500000Y-142500000D03*
X131500000Y-142500000D03*
X138500000Y-150500000D03*
X131500000Y-150500000D03*
D32*
X151000000Y-90730000D03*
X151000000Y-94000000D03*
D20*
X134385000Y-102635000D03*
X131115000Y-102635000D03*
D33*
X141049980Y-129000000D03*
X146450020Y-129000000D03*
D20*
X164885000Y-82000000D03*
X161615000Y-82000000D03*
D34*
X128677000Y-72250000D03*
D35*
X131217000Y-72250000D03*
D34*
X136250000Y-171500000D03*
D35*
X133710000Y-171500000D03*
D36*
X150533000Y-65813000D03*
X150533000Y-66713000D03*
X150533000Y-68113000D03*
X150533000Y-69013000D03*
X156500000Y-65200000D03*
X156500000Y-64300000D03*
D17*
X166000000Y-64200000D03*
X166000000Y-62000000D03*
X151000000Y-88350000D03*
X151000000Y-86150000D03*
D36*
X164000000Y-64150000D03*
X164000000Y-63250000D03*
D17*
X152500000Y-73350000D03*
X152500000Y-71150000D03*
D18*
X144382000Y-75922000D03*
X142182000Y-75922000D03*
X160100000Y-87500000D03*
X157900000Y-87500000D03*
D37*
X148250000Y-112250000D03*
X148250000Y-106250000D03*
D38*
X118000000Y-108250000D03*
X123000000Y-108250000D03*
D39*
X153000000Y-60290000D03*
D40*
X153000000Y-62830000D03*
X150460000Y-60290000D03*
X150460000Y-62830000D03*
D17*
X137500000Y-94250000D03*
X137500000Y-92050000D03*
D26*
X151537000Y-163552000D03*
X128169000Y-164204001D03*
X149124000Y-79478000D03*
X127788000Y-104116000D03*
X147854000Y-67413000D03*
X167539000Y-68556000D03*
X143917000Y-72366000D03*
X159411000Y-54713000D03*
X163348000Y-48109000D03*
X163348000Y-98528000D03*
X140234000Y-106910000D03*
X167793000Y-74906000D03*
X158395000Y-112244000D03*
D41*
X154250000Y-80250000D03*
D26*
X145758148Y-100108148D03*
X168250000Y-78500000D03*
X168250000Y-78500000D03*
X167250000Y-88000000D03*
D41*
X128000000Y-108250000D03*
X132750000Y-122250000D03*
X156250000Y-84750000D03*
X124750000Y-121750000D03*
X160250000Y-84750000D03*
D26*
X148362000Y-135739000D03*
X148743000Y-84812000D03*
X155982000Y-54586000D03*
D42*
X161843998Y-66250002D02*
X160700000Y-67394000D01*
X160700000Y-67394000D02*
X160700000Y-68880000D01*
X162986408Y-66250002D02*
X161843998Y-66250002D01*
X164000000Y-63250000D02*
X164550000Y-63250000D01*
X164550000Y-63250000D02*
X164872000Y-63572000D01*
X164872000Y-63572000D02*
X164872000Y-64746000D01*
X164618000Y-65000000D02*
X164236410Y-65000000D01*
X164872000Y-64746000D02*
X164618000Y-65000000D01*
X164236410Y-65000000D02*
X162986408Y-66250002D01*
X160627001Y-69924999D02*
X160627001Y-69772001D01*
X160627001Y-69772001D02*
X160700000Y-69699002D01*
X160700000Y-69699002D02*
X160700000Y-68880000D01*
X160824999Y-69872999D02*
X160824999Y-69004999D01*
X160824999Y-69004999D02*
X160700000Y-68880000D01*
X161149999Y-70197999D02*
X161149999Y-70702001D01*
X155949999Y-73052003D02*
X155507003Y-73494999D01*
X155949999Y-72797999D02*
X155949999Y-73052003D01*
X160824999Y-69872999D02*
X161149999Y-70197999D01*
X161149999Y-70702001D02*
X161422999Y-70975001D01*
X161422999Y-70975001D02*
X162969003Y-70975001D01*
X162969003Y-70975001D02*
X164519001Y-72524999D01*
X164519001Y-72524999D02*
X156222999Y-72524999D01*
X156222999Y-72524999D02*
X155949999Y-72797999D01*
X160900001Y-70702001D02*
X160452002Y-71150000D01*
X160627001Y-69924999D02*
X160900001Y-70197999D01*
X160900001Y-70197999D02*
X160900001Y-70702001D01*
X160452002Y-71150000D02*
X153200000Y-71150000D01*
X153200000Y-71150000D02*
X152500000Y-71150000D01*
X156500000Y-61750000D02*
X156075000Y-61750000D01*
X156075000Y-61750000D02*
X155739020Y-62085980D01*
X159400000Y-74620000D02*
X159400000Y-73684998D01*
X159400000Y-73684998D02*
X159600001Y-73484997D01*
X159600001Y-73484997D02*
X159600001Y-71497999D01*
X159327001Y-71224999D02*
X159075000Y-71224999D01*
X159600001Y-71497999D02*
X159327001Y-71224999D01*
X151537000Y-163552000D02*
X168047000Y-147042000D01*
X168047000Y-147042000D02*
X168047000Y-91924000D01*
X168047000Y-91924000D02*
X167295981Y-92675019D01*
X167295981Y-92675019D02*
X148116844Y-92675019D01*
X148116844Y-92675019D02*
X144224989Y-88783164D01*
X146597001Y-77617997D02*
X152989999Y-71224999D01*
X144224989Y-88783164D02*
X144224989Y-81599009D01*
X152989999Y-71224999D02*
X159327001Y-71224999D01*
X131500000Y-159500000D02*
X131500000Y-162250000D01*
X129545999Y-164204001D02*
X128169000Y-164204001D01*
X131500000Y-162250000D02*
X129545999Y-164204001D01*
X157450000Y-68880000D02*
X157450000Y-69930000D01*
X157450000Y-69930000D02*
X157249999Y-70130001D01*
X157249999Y-70130001D02*
X157249999Y-70702001D01*
X157772997Y-71224999D02*
X160377003Y-71224999D01*
X157249999Y-70702001D02*
X157772997Y-71224999D01*
X160377003Y-71224999D02*
X160900001Y-70702001D01*
D12*
X159350000Y-74670000D02*
X159400000Y-74620000D01*
D42*
X158750000Y-68880000D02*
X158750000Y-67000000D01*
X158750000Y-67000000D02*
X160500000Y-65250000D01*
X160500000Y-65250000D02*
X160500000Y-64150000D01*
X156500000Y-64300000D02*
X156500000Y-62300000D01*
X156500000Y-65200000D02*
X157250000Y-65200000D01*
X158100000Y-65850000D02*
X157450000Y-65200000D01*
X157250000Y-65200000D02*
X157550000Y-65200000D01*
X157450000Y-65200000D02*
X157250000Y-65200000D01*
X158100000Y-68880000D02*
X158100000Y-65850000D01*
X157550000Y-65200000D02*
X157600000Y-65250000D01*
X157600000Y-65250000D02*
X157625000Y-65250000D01*
X157625000Y-65250000D02*
X158500000Y-64375000D01*
X158500000Y-64375000D02*
X158500000Y-64250000D01*
X168428000Y-66778000D02*
X170075001Y-68425001D01*
X162650000Y-68880000D02*
X162650000Y-67872820D01*
X162650000Y-67872820D02*
X162922790Y-67600030D01*
X162922790Y-67600030D02*
X165700970Y-67600030D01*
X165700970Y-67600030D02*
X166570001Y-66730999D01*
X166570001Y-66730999D02*
X168380999Y-66730999D01*
X168380999Y-66730999D02*
X168428000Y-66778000D01*
X150261999Y-82986999D02*
X151000000Y-83725000D01*
X170075001Y-87876001D02*
X165725992Y-92225010D01*
X170075001Y-68425001D02*
X170075001Y-87876001D01*
X165725992Y-92225010D02*
X148303245Y-92225010D01*
X148303245Y-92225010D02*
X144674999Y-88596764D01*
X144674999Y-88596764D02*
X144674999Y-83939999D01*
X144674999Y-83939999D02*
X145627999Y-82986999D01*
X145627999Y-82986999D02*
X150261999Y-82986999D01*
X151000000Y-83725000D02*
X151000000Y-83950000D01*
D12*
X151000000Y-84939000D02*
X151000000Y-83950000D01*
X151000000Y-86150000D02*
X151000000Y-84939000D01*
D42*
X152500000Y-73350000D02*
X152500000Y-75200000D01*
X152500000Y-75200000D02*
X152450000Y-75250000D01*
X152450000Y-75250000D02*
X154220000Y-75250000D01*
X154220000Y-75250000D02*
X154850000Y-74620000D01*
X155500000Y-74620000D02*
X155500000Y-75670000D01*
X155500000Y-75670000D02*
X155219999Y-75950001D01*
X155219999Y-75950001D02*
X151475001Y-75950001D01*
X151475001Y-75950001D02*
X150775000Y-75250000D01*
X150775000Y-75250000D02*
X150550000Y-75250000D01*
X150400000Y-77000000D02*
X150400000Y-75400000D01*
X150400000Y-75400000D02*
X150550000Y-75250000D01*
X150533000Y-65813000D02*
X150533000Y-62903000D01*
X150533000Y-62903000D02*
X150460000Y-62830000D01*
X150460000Y-62830000D02*
X139960510Y-62830000D01*
X139960510Y-62830000D02*
X131790000Y-71000510D01*
X131790000Y-71000510D02*
X131790000Y-72250000D01*
D12*
X137550000Y-92000000D02*
X137500000Y-92050000D01*
D42*
X131790000Y-72250000D02*
X131790000Y-79340000D01*
X131790000Y-79340000D02*
X132950000Y-80500000D01*
X164885000Y-82000000D02*
X164885000Y-78365000D01*
X164885000Y-78365000D02*
X165250000Y-78000000D01*
X162000000Y-75913570D02*
X162886421Y-76799991D01*
X162886421Y-76799991D02*
X163186402Y-76799992D01*
X164386410Y-78000000D02*
X165250000Y-78000000D01*
X163186402Y-76799992D02*
X164386410Y-78000000D01*
X162000000Y-75913570D02*
X162086430Y-76000000D01*
X162000000Y-74620000D02*
X162000000Y-75913570D01*
D12*
X158400000Y-77750000D02*
X158400000Y-79650000D01*
D42*
X160100000Y-87500000D02*
X160550000Y-87500000D01*
X160550000Y-87500000D02*
X163300000Y-84750000D01*
X163300000Y-84750000D02*
X163500000Y-84750000D01*
X161615000Y-82000000D02*
X161615000Y-79705000D01*
X161615000Y-79705000D02*
X161670000Y-79650000D01*
X163300000Y-84750000D02*
X161615000Y-83065000D01*
X161615000Y-83065000D02*
X161615000Y-82860000D01*
X161615000Y-82860000D02*
X161615000Y-82000000D01*
D12*
X160050000Y-74620000D02*
X160050000Y-76175000D01*
X160050000Y-76175000D02*
X160550000Y-76675000D01*
X160550000Y-76675000D02*
X160550000Y-78530000D01*
X160550000Y-78530000D02*
X161670000Y-79650000D01*
X151000000Y-90730000D02*
X151000000Y-88350000D01*
D42*
X152600000Y-77000000D02*
X152450000Y-77000000D01*
X152450000Y-77000000D02*
X149972000Y-79478000D01*
X149972000Y-79478000D02*
X149124000Y-79478000D01*
D43*
X131250000Y-105200000D02*
X128872000Y-105200000D01*
X128872000Y-105200000D02*
X127788000Y-104116000D01*
D42*
X150533000Y-67313000D02*
X150533000Y-67413000D01*
X150533000Y-67413000D02*
X150533000Y-67540000D01*
X147854000Y-67413000D02*
X149975320Y-67413000D01*
X149975320Y-67413000D02*
X150533000Y-67413000D01*
X163300000Y-68880000D02*
X167215000Y-68880000D01*
X167215000Y-68880000D02*
X167539000Y-68556000D01*
X150533000Y-67540000D02*
X150533000Y-68113000D01*
X150533000Y-66713000D02*
X150533000Y-67313000D01*
X166000000Y-64200000D02*
X166000000Y-65904000D01*
X166000000Y-65904000D02*
X165203990Y-66700010D01*
X161363590Y-67830000D02*
X161350000Y-67830000D01*
X165203990Y-66700010D02*
X162493579Y-66700011D01*
X162493579Y-66700011D02*
X161363590Y-67830000D01*
X161350000Y-67830000D02*
X161350000Y-68880000D01*
X160050000Y-68880000D02*
X160050000Y-67036000D01*
X160050000Y-67036000D02*
X160046705Y-67032705D01*
X160046705Y-67032705D02*
X161375400Y-65704010D01*
X161375400Y-65704010D02*
X162277398Y-65704010D01*
X164000000Y-64600000D02*
X164000000Y-64150000D01*
X162277398Y-65704010D02*
X162981408Y-65000000D01*
X162981408Y-65000000D02*
X163600000Y-65000000D01*
X163600000Y-65000000D02*
X164000000Y-64600000D01*
X156800000Y-68880000D02*
X156800000Y-66832590D01*
X156800000Y-66832590D02*
X155289010Y-65321600D01*
X155289010Y-65321600D02*
X155289010Y-60104990D01*
X155289010Y-60104990D02*
X156744000Y-58650000D01*
X156744000Y-58650000D02*
X158522000Y-58650000D01*
X158522000Y-58650000D02*
X159411000Y-57761000D01*
X159411000Y-57761000D02*
X159411000Y-54713000D01*
X145822000Y-77212000D02*
X145822000Y-78802000D01*
X145822000Y-77212000D02*
X144532000Y-75922000D01*
X144532000Y-75922000D02*
X144382000Y-75922000D01*
X143917000Y-72366000D02*
X143917000Y-75457000D01*
X143917000Y-75457000D02*
X144382000Y-75922000D01*
X157900000Y-87500000D02*
X155250000Y-87500000D01*
X155250000Y-87500000D02*
X153750000Y-86000000D01*
X156150000Y-76350000D02*
X156150000Y-74620000D01*
X153750000Y-86000000D02*
X153750000Y-82580000D01*
X152172000Y-79063002D02*
X153485002Y-77750000D01*
X153485002Y-77750000D02*
X155000000Y-77750000D01*
X153750000Y-82580000D02*
X152172000Y-81002000D01*
X155250000Y-77500000D02*
X155250000Y-77250000D01*
X152172000Y-81002000D02*
X152172000Y-79063002D01*
X155000000Y-77750000D02*
X155250000Y-77500000D01*
X155250000Y-77250000D02*
X156150000Y-76350000D01*
X162000000Y-68880000D02*
X162000000Y-67830000D01*
X162000000Y-67830000D02*
X162080000Y-67750000D01*
X167500000Y-65000000D02*
X167500000Y-59666000D01*
X162080000Y-67750000D02*
X162136410Y-67750000D01*
X162136410Y-67750000D02*
X162736390Y-67150020D01*
X166904000Y-65762000D02*
X167500000Y-65166000D01*
X162736390Y-67150020D02*
X165507000Y-67150020D01*
X165507000Y-67150020D02*
X166895020Y-65762000D01*
X166895020Y-65762000D02*
X166904000Y-65762000D01*
X167500000Y-65166000D02*
X167500000Y-65000000D01*
X162967000Y-50611320D02*
X162967000Y-51665000D01*
X162967000Y-51665000D02*
X163348000Y-52046000D01*
X163348000Y-48109000D02*
X163348000Y-50230320D01*
X163348000Y-50230320D02*
X162967000Y-50611320D01*
X151000000Y-94000000D02*
X158820000Y-94000000D01*
X158820000Y-94000000D02*
X163348000Y-98528000D01*
X167500000Y-59500000D02*
X167500000Y-59666000D01*
X163348000Y-52046000D02*
X167500000Y-56198000D01*
X167500000Y-56198000D02*
X167500000Y-59666000D01*
X154458000Y-52046000D02*
X163348000Y-52046000D01*
X151918000Y-54586000D02*
X154458000Y-52046000D01*
X151918000Y-55948998D02*
X151918000Y-54586000D01*
X151750000Y-58396000D02*
X151750000Y-58250000D01*
X151750000Y-61580000D02*
X151750000Y-58396000D01*
X151750000Y-58396000D02*
X151750000Y-56116998D01*
X151750000Y-56116998D02*
X151918000Y-55948998D01*
X153000000Y-62830000D02*
X151750000Y-61580000D01*
X155500000Y-68880000D02*
X155500000Y-67000000D01*
X155500000Y-67000000D02*
X154331000Y-65831000D01*
X154331000Y-65831000D02*
X154331000Y-62401870D01*
X154331000Y-62401870D02*
X153000000Y-61070870D01*
X153000000Y-61070870D02*
X153000000Y-60290000D01*
X151750000Y-62216410D02*
X151750000Y-64000000D01*
X150460000Y-60290000D02*
X150460000Y-60926410D01*
X150460000Y-60926410D02*
X151750000Y-62216410D01*
X151750000Y-64000000D02*
X154850000Y-67100000D01*
X154850000Y-67100000D02*
X154850000Y-68880000D01*
X159400000Y-68880000D02*
X159400000Y-67043000D01*
X159400000Y-67043000D02*
X161189000Y-65254000D01*
X161189000Y-65254000D02*
X162090998Y-65254000D01*
X162090998Y-65254000D02*
X162250000Y-65094998D01*
X162250000Y-65094998D02*
X162237002Y-65094998D01*
X162250000Y-65094998D02*
X162250000Y-64150000D01*
X140234000Y-106910000D02*
X140234000Y-100091000D01*
X140234000Y-100091000D02*
X141000000Y-99325000D01*
X165250000Y-76100000D02*
X166599000Y-76100000D01*
X166599000Y-76100000D02*
X167793000Y-74906000D01*
X163300000Y-74620000D02*
X163300000Y-75220000D01*
X163300000Y-75220000D02*
X164180000Y-76100000D01*
X164180000Y-76100000D02*
X164625000Y-76100000D01*
X164625000Y-76100000D02*
X165250000Y-76100000D01*
X134750000Y-106500000D02*
X134750000Y-104550000D01*
D43*
X148250000Y-112250000D02*
X158389000Y-112250000D01*
X158389000Y-112250000D02*
X158395000Y-112244000D01*
D42*
X156500000Y-77750000D02*
X156275000Y-77750000D01*
X156275000Y-77750000D02*
X154250000Y-79775000D01*
X154250000Y-79775000D02*
X154250000Y-80250000D01*
D12*
X156800000Y-74620000D02*
X156800000Y-77450000D01*
X156800000Y-77450000D02*
X156500000Y-77750000D01*
D42*
X134747500Y-112250000D02*
X134652500Y-112345000D01*
X164525001Y-77025001D02*
X164500000Y-77000000D01*
X164500000Y-77000000D02*
X164022820Y-77000000D01*
X164022820Y-77000000D02*
X162650000Y-75627180D01*
X162650000Y-75627180D02*
X162650000Y-74620000D01*
X168250000Y-78500000D02*
X166775001Y-77025001D01*
X166775001Y-77025001D02*
X164525001Y-77025001D01*
D12*
X162650000Y-75500000D02*
X162650000Y-74620000D01*
D42*
X161350000Y-74620000D02*
X161350000Y-75899980D01*
X161975010Y-76524990D02*
X161975010Y-76975010D01*
X165750001Y-86500001D02*
X167250000Y-88000000D01*
X161350000Y-75899980D02*
X161975010Y-76524990D01*
X161975010Y-76975010D02*
X163750000Y-78750000D01*
X163750000Y-78750000D02*
X163750000Y-82750000D01*
X163750000Y-82750000D02*
X164049990Y-83049990D01*
X164049990Y-83049990D02*
X164821403Y-83049991D01*
X164821403Y-83049991D02*
X165750000Y-83978588D01*
X165750000Y-83978588D02*
X165750001Y-86500001D01*
D12*
X157450000Y-74620000D02*
X157450000Y-79550000D01*
X157450000Y-79550000D02*
X156250000Y-80750000D01*
X156250000Y-80750000D02*
X156250000Y-84750000D01*
X160250000Y-84750000D02*
X160250000Y-81850000D01*
X160250000Y-81850000D02*
X159450000Y-81050000D01*
X159450000Y-81050000D02*
X159450000Y-77200000D01*
X159450000Y-77200000D02*
X158750000Y-76500000D01*
X158750000Y-76500000D02*
X158750000Y-74620000D01*
D42*
X156150000Y-68880000D02*
X156150000Y-66946000D01*
X154839000Y-65508000D02*
X154839000Y-59666000D01*
X156150000Y-66946000D02*
X155982000Y-66778000D01*
X155982000Y-66778000D02*
X155982000Y-66651000D01*
X155982000Y-66651000D02*
X154839000Y-65508000D01*
X154839000Y-59666000D02*
X155982000Y-58523000D01*
X155982000Y-58523000D02*
X155982000Y-54586000D01*
X149666002Y-81637000D02*
X146457000Y-81637000D01*
X146457000Y-81637000D02*
X145982009Y-81162009D01*
X145982009Y-81162009D02*
X145822000Y-81162009D01*
X149666002Y-81637000D02*
X150428002Y-80875000D01*
X147175000Y-87225000D02*
X146000000Y-86050000D01*
X150428002Y-80875000D02*
X151664000Y-80875000D01*
X152045000Y-86740002D02*
X151560002Y-87225000D01*
X151664000Y-80875000D02*
X151721990Y-80932990D01*
X151721990Y-80932990D02*
X151721991Y-81188401D01*
X146000000Y-86050000D02*
X146000000Y-85000000D01*
X151721991Y-81188401D02*
X152045000Y-81511410D01*
X152045000Y-81511410D02*
X152045000Y-86740002D01*
X151560002Y-87225000D02*
X147175000Y-87225000D01*
D43*
X148362000Y-135739000D02*
X139739000Y-135739000D01*
X139739000Y-135739000D02*
X138500000Y-134500000D01*
D42*
X148743000Y-84812000D02*
X146188000Y-84812000D01*
X146188000Y-84812000D02*
X146000000Y-85000000D01*
X161500000Y-77750000D02*
X162500000Y-78750000D01*
X160750000Y-90250000D02*
X165000000Y-86000000D01*
X165000000Y-86000000D02*
X165000000Y-83864998D01*
X165000000Y-83864998D02*
X164635002Y-83500000D01*
X162500000Y-82750000D02*
X162500000Y-78750000D01*
X164635002Y-83500000D02*
X163250000Y-83500000D01*
X163250000Y-83500000D02*
X162500000Y-82750000D01*
X161500000Y-77250000D02*
X161500000Y-77750000D01*
D12*
X160700000Y-74620000D02*
X160700000Y-76050000D01*
X148500000Y-91750000D02*
X146000000Y-89250000D01*
X160700000Y-76050000D02*
X161500000Y-76850000D01*
X160750000Y-90250000D02*
X155000000Y-90250000D01*
X161500000Y-76850000D02*
X161500000Y-77250000D01*
X155000000Y-90250000D02*
X153500000Y-91750000D01*
X153500000Y-91750000D02*
X148500000Y-91750000D01*
X146000000Y-89250000D02*
X146000000Y-85000000D01*
D42*
X136250000Y-166750000D02*
X137750000Y-165250000D01*
X136250000Y-171500000D02*
X136250000Y-166750000D01*
D10*
G36*
X129699625Y-100700000D02*
X120000000Y-100700000D01*
X119980547Y-100703939D01*
X119964160Y-100715136D01*
X119953419Y-100731827D01*
X119950003Y-100749490D01*
X119700003Y-125249490D01*
X119703743Y-125268982D01*
X119714773Y-125285483D01*
X119731353Y-125296393D01*
X119750000Y-125300000D01*
X134450000Y-125300000D01*
X134450000Y-177200000D01*
X109550000Y-177200000D01*
X109550000Y-67300000D01*
X129450371Y-67300000D01*
X129699625Y-100700000D01*
X129699625Y-100700000D01*
G37*
X129699625Y-100700000D02*
X120000000Y-100700000D01*
X119980547Y-100703939D01*
X119964160Y-100715136D01*
X119953419Y-100731827D01*
X119950003Y-100749490D01*
X119700003Y-125249490D01*
X119703743Y-125268982D01*
X119714773Y-125285483D01*
X119731353Y-125296393D01*
X119750000Y-125300000D01*
X134450000Y-125300000D01*
X134450000Y-177200000D01*
X109550000Y-177200000D01*
X109550000Y-67300000D01*
X129450371Y-67300000D01*
X129699625Y-100700000D01*
G36*
X139950000Y-92700000D02*
X130550000Y-92700000D01*
X130550000Y-67300000D01*
X139950000Y-67300000D01*
X139950000Y-92700000D01*
X139950000Y-92700000D01*
G37*
X139950000Y-92700000D02*
X130550000Y-92700000D01*
X130550000Y-67300000D01*
X139950000Y-67300000D01*
X139950000Y-92700000D01*
G36*
X146950000Y-121450000D02*
X144050000Y-121450000D01*
X144050000Y-119250000D01*
X144046061Y-119230547D01*
X144034864Y-119214160D01*
X144018173Y-119203419D01*
X144000000Y-119200000D01*
X135500000Y-119200000D01*
X135480547Y-119203939D01*
X135464160Y-119215136D01*
X135453419Y-119231827D01*
X135450000Y-119250000D01*
X135450000Y-124450000D01*
X129800000Y-124450000D01*
X129800000Y-118050000D01*
X146950000Y-118050000D01*
X146950000Y-121450000D01*
X146950000Y-121450000D01*
G37*
X146950000Y-121450000D02*
X144050000Y-121450000D01*
X144050000Y-119250000D01*
X144046061Y-119230547D01*
X144034864Y-119214160D01*
X144018173Y-119203419D01*
X144000000Y-119200000D01*
X135500000Y-119200000D01*
X135480547Y-119203939D01*
X135464160Y-119215136D01*
X135453419Y-119231827D01*
X135450000Y-119250000D01*
X135450000Y-124450000D01*
X129800000Y-124450000D01*
X129800000Y-118050000D01*
X146950000Y-118050000D01*
X146950000Y-121450000D01*
G36*
X153950000Y-131450000D02*
X144050000Y-131450000D01*
X144050000Y-121800000D01*
X147750000Y-121800000D01*
X147769453Y-121796061D01*
X147785840Y-121784864D01*
X147796581Y-121768173D01*
X147800000Y-121750000D01*
X147800000Y-117250000D01*
X147796061Y-117230547D01*
X147784864Y-117214160D01*
X147768173Y-117203419D01*
X147750000Y-117200000D01*
X129800000Y-117200000D01*
X129800000Y-110800000D01*
X153950000Y-110800000D01*
X153950000Y-131450000D01*
X153950000Y-131450000D01*
G37*
X153950000Y-131450000D02*
X144050000Y-131450000D01*
X144050000Y-121800000D01*
X147750000Y-121800000D01*
X147769453Y-121796061D01*
X147785840Y-121784864D01*
X147796581Y-121768173D01*
X147800000Y-121750000D01*
X147800000Y-117250000D01*
X147796061Y-117230547D01*
X147784864Y-117214160D01*
X147768173Y-117203419D01*
X147750000Y-117200000D01*
X129800000Y-117200000D01*
X129800000Y-110800000D01*
X153950000Y-110800000D01*
X153950000Y-131450000D01*
G36*
X131950000Y-105950000D02*
X126000000Y-105950000D01*
X125980547Y-105953939D01*
X125964160Y-105965136D01*
X125953419Y-105981827D01*
X125950000Y-106000000D01*
X125950000Y-110750000D01*
X125953939Y-110769453D01*
X125965136Y-110785840D01*
X125981827Y-110796581D01*
X126000000Y-110800000D01*
X129200000Y-110800000D01*
X129200000Y-115450000D01*
X120800000Y-115450000D01*
X120800000Y-101550000D01*
X131950000Y-101550000D01*
X131950000Y-105950000D01*
X131950000Y-105950000D01*
G37*
X131950000Y-105950000D02*
X126000000Y-105950000D01*
X125980547Y-105953939D01*
X125964160Y-105965136D01*
X125953419Y-105981827D01*
X125950000Y-106000000D01*
X125950000Y-110750000D01*
X125953939Y-110769453D01*
X125965136Y-110785840D01*
X125981827Y-110796581D01*
X126000000Y-110800000D01*
X129200000Y-110800000D01*
X129200000Y-115450000D01*
X120800000Y-115450000D01*
X120800000Y-101550000D01*
X131950000Y-101550000D01*
X131950000Y-105950000D01*
G36*
X130835831Y-106334815D02*
X130935000Y-106354897D01*
X131565000Y-106354897D01*
X131657644Y-106337465D01*
X131715866Y-106300000D01*
X131950000Y-106300000D01*
X131950000Y-110200000D01*
X126300000Y-110200000D01*
X126300000Y-106300000D01*
X130784878Y-106300000D01*
X130835831Y-106334815D01*
X130835831Y-106334815D01*
G37*
X130835831Y-106334815D02*
X130935000Y-106354897D01*
X131565000Y-106354897D01*
X131657644Y-106337465D01*
X131715866Y-106300000D01*
X131950000Y-106300000D01*
X131950000Y-110200000D01*
X126300000Y-110200000D01*
X126300000Y-106300000D01*
X130784878Y-106300000D01*
X130835831Y-106334815D01*
G36*
X142200000Y-103750000D02*
X142203939Y-103769453D01*
X142215136Y-103785840D01*
X142231827Y-103796581D01*
X142250000Y-103800000D01*
X153950000Y-103800000D01*
X153950000Y-110200000D01*
X132300000Y-110200000D01*
X132300000Y-101550000D01*
X140250000Y-101550000D01*
X140269453Y-101546061D01*
X140285840Y-101534864D01*
X140296581Y-101518173D01*
X140300000Y-101500000D01*
X140300000Y-98550000D01*
X142200000Y-98550000D01*
X142200000Y-103750000D01*
X142200000Y-103750000D01*
G37*
X142200000Y-103750000D02*
X142203939Y-103769453D01*
X142215136Y-103785840D01*
X142231827Y-103796581D01*
X142250000Y-103800000D01*
X153950000Y-103800000D01*
X153950000Y-110200000D01*
X132300000Y-110200000D01*
X132300000Y-101550000D01*
X140250000Y-101550000D01*
X140269453Y-101546061D01*
X140285840Y-101534864D01*
X140296581Y-101518173D01*
X140300000Y-101500000D01*
X140300000Y-98550000D01*
X142200000Y-98550000D01*
X142200000Y-103750000D01*
G36*
X143700000Y-177200000D02*
X136050000Y-177200000D01*
X136050000Y-119800000D01*
X143700000Y-119800000D01*
X143700000Y-177200000D01*
X143700000Y-177200000D01*
G37*
X143700000Y-177200000D02*
X136050000Y-177200000D01*
X136050000Y-119800000D01*
X143700000Y-119800000D01*
X143700000Y-177200000D01*
G36*
X129200000Y-124450000D02*
X120800000Y-124450000D01*
X120800000Y-115800000D01*
X129200000Y-115800000D01*
X129200000Y-124450000D01*
X129200000Y-124450000D01*
G37*
X129200000Y-124450000D02*
X120800000Y-124450000D01*
X120800000Y-115800000D01*
X129200000Y-115800000D01*
X129200000Y-124450000D01*
G36*
X153950000Y-102950000D02*
X143050000Y-102950000D01*
X143050000Y-98250000D01*
X143046061Y-98230547D01*
X143034864Y-98214160D01*
X143018173Y-98203419D01*
X143000000Y-98200000D01*
X141428534Y-98200000D01*
X141414169Y-98190185D01*
X141315000Y-98170103D01*
X140685000Y-98170103D01*
X140592356Y-98187535D01*
X140572985Y-98200000D01*
X140300000Y-98200000D01*
X140300000Y-95550000D01*
X153950000Y-95550000D01*
X153950000Y-102950000D01*
X153950000Y-102950000D01*
G37*
X153950000Y-102950000D02*
X143050000Y-102950000D01*
X143050000Y-98250000D01*
X143046061Y-98230547D01*
X143034864Y-98214160D01*
X143018173Y-98203419D01*
X143000000Y-98200000D01*
X141428534Y-98200000D01*
X141414169Y-98190185D01*
X141315000Y-98170103D01*
X140685000Y-98170103D01*
X140592356Y-98187535D01*
X140572985Y-98200000D01*
X140300000Y-98200000D01*
X140300000Y-95550000D01*
X153950000Y-95550000D01*
X153950000Y-102950000D01*
G36*
X153950000Y-94700000D02*
X140000000Y-94700000D01*
X139980547Y-94703939D01*
X139964160Y-94715136D01*
X139953419Y-94731827D01*
X139950000Y-94750000D01*
X139950000Y-99854023D01*
X139887545Y-99947493D01*
X139887545Y-99947494D01*
X139859000Y-100091000D01*
X139859000Y-100700000D01*
X130550000Y-100700000D01*
X130550000Y-93300000D01*
X153950000Y-93300000D01*
X153950000Y-94700000D01*
X153950000Y-94700000D01*
G37*
X153950000Y-94700000D02*
X140000000Y-94700000D01*
X139980547Y-94703939D01*
X139964160Y-94715136D01*
X139953419Y-94731827D01*
X139950000Y-94750000D01*
X139950000Y-99854023D01*
X139887545Y-99947493D01*
X139887545Y-99947494D01*
X139859000Y-100091000D01*
X139859000Y-100700000D01*
X130550000Y-100700000D01*
X130550000Y-93300000D01*
X153950000Y-93300000D01*
X153950000Y-94700000D01*
D44*
G36*
X171603000Y-46584036D02*
X171603000Y-176506000D01*
X144806000Y-176506000D01*
X144806000Y-145062606D01*
X157976803Y-131891803D01*
X157998266Y-131863229D01*
X158010918Y-131829807D01*
X158014000Y-131802000D01*
X158014000Y-117122606D01*
X160770803Y-114365803D01*
X160792266Y-114337229D01*
X160804918Y-114303807D01*
X160808000Y-114276000D01*
X160808000Y-107799000D01*
X160802972Y-107763619D01*
X160788286Y-107731039D01*
X160765105Y-107703840D01*
X160735264Y-107684177D01*
X160701127Y-107673605D01*
X160681000Y-107672000D01*
X157125000Y-107672000D01*
X157125000Y-94452000D01*
X158632776Y-94452000D01*
X161773833Y-97593057D01*
X161739241Y-97643577D01*
X161598094Y-97972897D01*
X161523601Y-98323361D01*
X161518599Y-98681619D01*
X161583277Y-99034026D01*
X161715174Y-99367159D01*
X161909264Y-99668328D01*
X162158156Y-99926062D01*
X162452368Y-100130545D01*
X162780694Y-100273988D01*
X163130629Y-100350926D01*
X163488844Y-100358429D01*
X163841694Y-100296212D01*
X164175739Y-100166645D01*
X164478256Y-99974662D01*
X164737722Y-99727576D01*
X164944254Y-99434798D01*
X165089985Y-99107481D01*
X165169364Y-98758092D01*
X165175078Y-98348853D01*
X165105485Y-97997384D01*
X164968951Y-97666125D01*
X164770674Y-97367695D01*
X164518208Y-97113461D01*
X164221170Y-96913106D01*
X163890873Y-96774262D01*
X163539898Y-96702217D01*
X163181613Y-96699716D01*
X162829666Y-96766853D01*
X162497463Y-96901072D01*
X162414552Y-96955328D01*
X159139612Y-93680388D01*
X159107356Y-93653892D01*
X159075365Y-93627049D01*
X159073285Y-93625905D01*
X159071446Y-93624395D01*
X159034637Y-93604658D01*
X158998062Y-93584551D01*
X158995795Y-93583832D01*
X158993701Y-93582709D01*
X158953814Y-93570515D01*
X158913976Y-93557877D01*
X158911610Y-93557612D01*
X158909341Y-93556918D01*
X158867813Y-93552699D01*
X158826311Y-93548044D01*
X158821673Y-93548012D01*
X158821578Y-93548002D01*
X158821489Y-93548010D01*
X158820000Y-93548000D01*
X157125000Y-93548000D01*
X157125000Y-92813000D01*
X157119972Y-92777619D01*
X157105286Y-92745039D01*
X157082105Y-92717840D01*
X157052264Y-92698177D01*
X157018127Y-92687605D01*
X156998000Y-92686000D01*
X144731606Y-92686000D01*
X140869211Y-88823605D01*
X140878851Y-86423342D01*
X140937458Y-86435000D01*
X141714250Y-86435000D01*
X141873000Y-86276250D01*
X141873000Y-85127000D01*
X142127000Y-85127000D01*
X142127000Y-86276250D01*
X142285750Y-86435000D01*
X143062542Y-86435000D01*
X143185223Y-86410597D01*
X143300785Y-86362730D01*
X143404789Y-86293237D01*
X143493237Y-86204789D01*
X143562730Y-86100785D01*
X143610597Y-85985223D01*
X143635000Y-85862542D01*
X143635000Y-85285750D01*
X143476250Y-85127000D01*
X142127000Y-85127000D01*
X141873000Y-85127000D01*
X141853000Y-85127000D01*
X141853000Y-84873000D01*
X141873000Y-84873000D01*
X141873000Y-83723750D01*
X142127000Y-83723750D01*
X142127000Y-84873000D01*
X143476250Y-84873000D01*
X143635000Y-84714250D01*
X143635000Y-84137458D01*
X143610597Y-84014777D01*
X143562730Y-83899215D01*
X143493237Y-83795211D01*
X143404789Y-83706763D01*
X143300785Y-83637270D01*
X143185223Y-83589403D01*
X143062542Y-83565000D01*
X142285750Y-83565000D01*
X142127000Y-83723750D01*
X141873000Y-83723750D01*
X141714250Y-83565000D01*
X140937458Y-83565000D01*
X140890292Y-83574382D01*
X140919877Y-76207750D01*
X140947000Y-76207750D01*
X140947000Y-76434542D01*
X140971403Y-76557223D01*
X141019270Y-76672785D01*
X141088763Y-76776789D01*
X141177211Y-76865237D01*
X141281215Y-76934730D01*
X141396777Y-76982597D01*
X141519458Y-77007000D01*
X141896250Y-77007000D01*
X142055000Y-76848250D01*
X142055000Y-76049000D01*
X142309000Y-76049000D01*
X142309000Y-76848250D01*
X142467750Y-77007000D01*
X142844542Y-77007000D01*
X142967223Y-76982597D01*
X143082785Y-76934730D01*
X143186789Y-76865237D01*
X143275237Y-76776789D01*
X143344730Y-76672785D01*
X143392597Y-76557223D01*
X143417000Y-76434542D01*
X143417000Y-76207750D01*
X143258250Y-76049000D01*
X142309000Y-76049000D01*
X142055000Y-76049000D01*
X141105750Y-76049000D01*
X140947000Y-76207750D01*
X140919877Y-76207750D01*
X140923083Y-75409458D01*
X140947000Y-75409458D01*
X140947000Y-75636250D01*
X141105750Y-75795000D01*
X142055000Y-75795000D01*
X142055000Y-74995750D01*
X142309000Y-74995750D01*
X142309000Y-75795000D01*
X143258250Y-75795000D01*
X143417000Y-75636250D01*
X143417000Y-75409458D01*
X143392597Y-75286777D01*
X143344730Y-75171215D01*
X143275237Y-75067211D01*
X143186789Y-74978763D01*
X143082785Y-74909270D01*
X142967223Y-74861403D01*
X142844542Y-74837000D01*
X142467750Y-74837000D01*
X142309000Y-74995750D01*
X142055000Y-74995750D01*
X141896250Y-74837000D01*
X141519458Y-74837000D01*
X141396777Y-74861403D01*
X141281215Y-74909270D01*
X141177211Y-74978763D01*
X141088763Y-75067211D01*
X141019270Y-75171215D01*
X140971403Y-75286777D01*
X140947000Y-75409458D01*
X140923083Y-75409458D01*
X140934688Y-72519619D01*
X142087599Y-72519619D01*
X142152277Y-72872026D01*
X142284174Y-73205159D01*
X142478264Y-73506328D01*
X142727156Y-73764062D01*
X143021368Y-73968545D01*
X143349694Y-74111988D01*
X143465000Y-74137340D01*
X143465000Y-75390500D01*
X143453418Y-75472000D01*
X143453418Y-76372000D01*
X143457571Y-76424074D01*
X143484922Y-76512396D01*
X143535797Y-76589601D01*
X143606167Y-76649577D01*
X143690459Y-76687573D01*
X143782000Y-76700582D01*
X144671358Y-76700582D01*
X145370000Y-77399225D01*
X145370000Y-77873578D01*
X145319926Y-77877571D01*
X145231604Y-77904922D01*
X145154399Y-77955797D01*
X145094423Y-78026167D01*
X145056427Y-78110459D01*
X145043418Y-78202000D01*
X145043418Y-79402000D01*
X145047571Y-79454074D01*
X145074922Y-79542396D01*
X145125797Y-79619601D01*
X145196167Y-79679577D01*
X145280459Y-79717573D01*
X145372000Y-79730582D01*
X146272000Y-79730582D01*
X146324074Y-79726429D01*
X146412396Y-79699078D01*
X146489601Y-79648203D01*
X146549577Y-79577833D01*
X146587573Y-79493541D01*
X146600582Y-79402000D01*
X146600582Y-78202000D01*
X146596429Y-78149926D01*
X146569078Y-78061604D01*
X146518203Y-77984399D01*
X146447833Y-77924423D01*
X146363541Y-77886427D01*
X146274000Y-77873702D01*
X146274000Y-77212000D01*
X146269920Y-77170387D01*
X146266286Y-77128854D01*
X146265624Y-77126577D01*
X146265392Y-77124206D01*
X146253298Y-77084149D01*
X146241675Y-77044142D01*
X146240583Y-77042036D01*
X146239895Y-77039756D01*
X146220281Y-77002867D01*
X146201079Y-76965823D01*
X146199595Y-76963964D01*
X146198480Y-76961867D01*
X146172088Y-76929507D01*
X146146043Y-76896881D01*
X146142782Y-76893573D01*
X146142726Y-76893505D01*
X146142663Y-76893453D01*
X146141612Y-76892387D01*
X145310582Y-76061358D01*
X145310582Y-75472000D01*
X145306429Y-75419926D01*
X145279078Y-75331604D01*
X145228203Y-75254399D01*
X145157833Y-75194423D01*
X145073541Y-75156427D01*
X144982000Y-75143418D01*
X144369000Y-75143418D01*
X144369000Y-74141564D01*
X144410694Y-74134212D01*
X144744739Y-74004645D01*
X145047256Y-73812662D01*
X145306722Y-73565576D01*
X145513254Y-73272798D01*
X145658985Y-72945481D01*
X145738364Y-72596092D01*
X145744078Y-72186853D01*
X145674485Y-71835384D01*
X145537951Y-71504125D01*
X145492523Y-71435750D01*
X151415000Y-71435750D01*
X151415000Y-71812542D01*
X151439403Y-71935223D01*
X151487270Y-72050785D01*
X151556763Y-72154789D01*
X151645211Y-72243237D01*
X151749215Y-72312730D01*
X151864777Y-72360597D01*
X151987458Y-72385000D01*
X152214250Y-72385000D01*
X152373000Y-72226250D01*
X152373000Y-71277000D01*
X152627000Y-71277000D01*
X152627000Y-72226250D01*
X152785750Y-72385000D01*
X153012542Y-72385000D01*
X153135223Y-72360597D01*
X153250785Y-72312730D01*
X153354789Y-72243237D01*
X153443237Y-72154789D01*
X153512730Y-72050785D01*
X153560597Y-71935223D01*
X153585000Y-71812542D01*
X153585000Y-71435750D01*
X153426250Y-71277000D01*
X152627000Y-71277000D01*
X152373000Y-71277000D01*
X151573750Y-71277000D01*
X151415000Y-71435750D01*
X145492523Y-71435750D01*
X145339674Y-71205695D01*
X145087208Y-70951461D01*
X144790170Y-70751106D01*
X144459873Y-70612262D01*
X144108898Y-70540217D01*
X143750613Y-70537716D01*
X143398666Y-70604853D01*
X143066463Y-70739072D01*
X142766656Y-70935260D01*
X142510665Y-71185945D01*
X142308241Y-71481577D01*
X142167094Y-71810897D01*
X142092601Y-72161361D01*
X142087599Y-72519619D01*
X140934688Y-72519619D01*
X140942849Y-70487458D01*
X151415000Y-70487458D01*
X151415000Y-70864250D01*
X151573750Y-71023000D01*
X152373000Y-71023000D01*
X152373000Y-70073750D01*
X152627000Y-70073750D01*
X152627000Y-71023000D01*
X153426250Y-71023000D01*
X153585000Y-70864250D01*
X153585000Y-70487458D01*
X153560597Y-70364777D01*
X153512730Y-70249215D01*
X153443237Y-70145211D01*
X153354789Y-70056763D01*
X153250785Y-69987270D01*
X153135223Y-69939403D01*
X153012542Y-69915000D01*
X152785750Y-69915000D01*
X152627000Y-70073750D01*
X152373000Y-70073750D01*
X152214250Y-69915000D01*
X151987458Y-69915000D01*
X151864777Y-69939403D01*
X151749215Y-69987270D01*
X151645211Y-70056763D01*
X151556763Y-70145211D01*
X151487270Y-70249215D01*
X151439403Y-70364777D01*
X151415000Y-70487458D01*
X140942849Y-70487458D01*
X140947732Y-69271750D01*
X149598000Y-69271750D01*
X149598000Y-69275542D01*
X149622403Y-69398223D01*
X149670270Y-69513785D01*
X149739763Y-69617789D01*
X149828211Y-69706237D01*
X149932215Y-69775730D01*
X150047777Y-69823597D01*
X150170458Y-69848000D01*
X150247250Y-69848000D01*
X150406000Y-69689250D01*
X150406000Y-69113000D01*
X150660000Y-69113000D01*
X150660000Y-69689250D01*
X150818750Y-69848000D01*
X150895542Y-69848000D01*
X151018223Y-69823597D01*
X151133785Y-69775730D01*
X151237789Y-69706237D01*
X151326237Y-69617789D01*
X151395730Y-69513785D01*
X151443597Y-69398223D01*
X151468000Y-69275542D01*
X151468000Y-69271750D01*
X151309250Y-69113000D01*
X150660000Y-69113000D01*
X150406000Y-69113000D01*
X149756750Y-69113000D01*
X149598000Y-69271750D01*
X140947732Y-69271750D01*
X140971788Y-63282000D01*
X149356982Y-63282000D01*
X149359235Y-63289463D01*
X149468324Y-63494629D01*
X149615185Y-63674698D01*
X149794225Y-63822813D01*
X149998624Y-63933331D01*
X150081000Y-63958831D01*
X150081000Y-65323569D01*
X150015399Y-65366797D01*
X149955423Y-65437167D01*
X149917427Y-65521459D01*
X149904418Y-65613000D01*
X149904418Y-66013000D01*
X149908571Y-66065074D01*
X149935922Y-66153396D01*
X149986797Y-66230601D01*
X150023219Y-66261644D01*
X150015399Y-66266797D01*
X149955423Y-66337167D01*
X149917427Y-66421459D01*
X149904418Y-66513000D01*
X149904418Y-66913000D01*
X149908246Y-66961000D01*
X149627051Y-66961000D01*
X149611485Y-66882384D01*
X149474951Y-66551125D01*
X149276674Y-66252695D01*
X149024208Y-65998461D01*
X148727170Y-65798106D01*
X148396873Y-65659262D01*
X148045898Y-65587217D01*
X147687613Y-65584716D01*
X147335666Y-65651853D01*
X147003463Y-65786072D01*
X146703656Y-65982260D01*
X146447665Y-66232945D01*
X146245241Y-66528577D01*
X146104094Y-66857897D01*
X146029601Y-67208361D01*
X146024599Y-67566619D01*
X146089277Y-67919026D01*
X146221174Y-68252159D01*
X146415264Y-68553328D01*
X146664156Y-68811062D01*
X146958368Y-69015545D01*
X147286694Y-69158988D01*
X147636629Y-69235926D01*
X147994844Y-69243429D01*
X148347694Y-69181212D01*
X148681739Y-69051645D01*
X148984256Y-68859662D01*
X149243722Y-68612576D01*
X149450254Y-68319798D01*
X149595985Y-67992481D01*
X149624948Y-67865000D01*
X149911239Y-67865000D01*
X149904418Y-67913000D01*
X149904418Y-68268843D01*
X149828211Y-68319763D01*
X149739763Y-68408211D01*
X149670270Y-68512215D01*
X149622403Y-68627777D01*
X149598000Y-68750458D01*
X149598000Y-68754250D01*
X149756750Y-68913000D01*
X150406000Y-68913000D01*
X150406000Y-68866000D01*
X150660000Y-68866000D01*
X150660000Y-68913000D01*
X151309250Y-68913000D01*
X151468000Y-68754250D01*
X151468000Y-68750458D01*
X151443597Y-68627777D01*
X151395730Y-68512215D01*
X151326237Y-68408211D01*
X151237789Y-68319763D01*
X151161582Y-68268843D01*
X151161582Y-67913000D01*
X151157429Y-67860926D01*
X151130078Y-67772604D01*
X151079203Y-67695399D01*
X151008833Y-67635423D01*
X150985000Y-67624680D01*
X150985000Y-67202431D01*
X151050601Y-67159203D01*
X151110577Y-67088833D01*
X151148573Y-67004541D01*
X151161582Y-66913000D01*
X151161582Y-66513000D01*
X151157429Y-66460926D01*
X151130078Y-66372604D01*
X151079203Y-66295399D01*
X151042781Y-66264356D01*
X151050601Y-66259203D01*
X151110577Y-66188833D01*
X151148573Y-66104541D01*
X151161582Y-66013000D01*
X151161582Y-65613000D01*
X151157429Y-65560926D01*
X151130078Y-65472604D01*
X151079203Y-65395399D01*
X151008833Y-65335423D01*
X150985000Y-65324680D01*
X150985000Y-63898370D01*
X151111929Y-63832013D01*
X151293019Y-63686412D01*
X151298000Y-63680476D01*
X151298000Y-64000000D01*
X151302071Y-64041518D01*
X151305713Y-64083146D01*
X151306376Y-64085428D01*
X151306608Y-64087794D01*
X151318676Y-64127764D01*
X151330324Y-64167858D01*
X151331418Y-64169968D01*
X151332105Y-64172244D01*
X151351701Y-64209097D01*
X151370921Y-64246177D01*
X151372405Y-64248036D01*
X151373520Y-64250133D01*
X151399887Y-64282463D01*
X151425956Y-64315119D01*
X151429216Y-64318424D01*
X151429274Y-64318495D01*
X151429340Y-64318550D01*
X151430388Y-64319612D01*
X154398000Y-67287224D01*
X154398000Y-67874157D01*
X154372423Y-67904167D01*
X154334427Y-67988459D01*
X154321418Y-68080000D01*
X154321418Y-69415000D01*
X154162458Y-69415000D01*
X154039777Y-69439403D01*
X153924215Y-69487270D01*
X153820211Y-69556763D01*
X153731763Y-69645211D01*
X153662270Y-69749215D01*
X153614403Y-69864777D01*
X153590000Y-69987458D01*
X153590000Y-71464250D01*
X153748750Y-71623000D01*
X154663198Y-71623000D01*
X154648750Y-71690972D01*
X154647307Y-71794312D01*
X154662483Y-71877000D01*
X153748750Y-71877000D01*
X153590000Y-72035750D01*
X153590000Y-73512542D01*
X153614403Y-73635223D01*
X153662270Y-73750785D01*
X153731763Y-73854789D01*
X153820211Y-73943237D01*
X153924215Y-74012730D01*
X154039777Y-74060597D01*
X154162458Y-74085000D01*
X154321418Y-74085000D01*
X154321418Y-74509357D01*
X154032776Y-74798000D01*
X153366710Y-74798000D01*
X153347078Y-74734604D01*
X153296203Y-74657399D01*
X153225833Y-74597423D01*
X153141541Y-74559427D01*
X153050000Y-74546418D01*
X152952000Y-74546418D01*
X152952000Y-74278422D01*
X153002074Y-74274429D01*
X153090396Y-74247078D01*
X153167601Y-74196203D01*
X153227577Y-74125833D01*
X153265573Y-74041541D01*
X153278582Y-73950000D01*
X153278582Y-72750000D01*
X153274429Y-72697926D01*
X153247078Y-72609604D01*
X153196203Y-72532399D01*
X153125833Y-72472423D01*
X153041541Y-72434427D01*
X152950000Y-72421418D01*
X152050000Y-72421418D01*
X151997926Y-72425571D01*
X151909604Y-72452922D01*
X151832399Y-72503797D01*
X151772423Y-72574167D01*
X151734427Y-72658459D01*
X151721418Y-72750000D01*
X151721418Y-73950000D01*
X151725571Y-74002074D01*
X151752922Y-74090396D01*
X151803797Y-74167601D01*
X151874167Y-74227577D01*
X151958459Y-74265573D01*
X152048000Y-74278298D01*
X152048000Y-74546418D01*
X151850000Y-74546418D01*
X151797926Y-74550571D01*
X151709604Y-74577922D01*
X151632399Y-74628797D01*
X151572423Y-74699167D01*
X151534427Y-74783459D01*
X151521418Y-74875000D01*
X151521418Y-75357194D01*
X151478582Y-75314358D01*
X151478582Y-74875000D01*
X151474429Y-74822926D01*
X151447078Y-74734604D01*
X151396203Y-74657399D01*
X151325833Y-74597423D01*
X151241541Y-74559427D01*
X151150000Y-74546418D01*
X149950000Y-74546418D01*
X149897926Y-74550571D01*
X149809604Y-74577922D01*
X149732399Y-74628797D01*
X149672423Y-74699167D01*
X149634427Y-74783459D01*
X149621418Y-74875000D01*
X149621418Y-75625000D01*
X149625571Y-75677074D01*
X149652922Y-75765396D01*
X149703797Y-75842601D01*
X149774167Y-75902577D01*
X149858459Y-75940573D01*
X149948000Y-75953298D01*
X149948000Y-76221418D01*
X149800000Y-76221418D01*
X149747926Y-76225571D01*
X149659604Y-76252922D01*
X149582399Y-76303797D01*
X149522423Y-76374167D01*
X149484427Y-76458459D01*
X149471418Y-76550000D01*
X149471418Y-77450000D01*
X149475571Y-77502074D01*
X149502922Y-77590396D01*
X149553797Y-77667601D01*
X149605495Y-77711663D01*
X149315898Y-77652217D01*
X148957613Y-77649716D01*
X148605666Y-77716853D01*
X148273463Y-77851072D01*
X147973656Y-78047260D01*
X147717665Y-78297945D01*
X147515241Y-78593577D01*
X147374094Y-78922897D01*
X147299601Y-79273361D01*
X147294599Y-79631619D01*
X147359277Y-79984026D01*
X147491174Y-80317159D01*
X147685264Y-80618328D01*
X147934156Y-80876062D01*
X148228368Y-81080545D01*
X148467455Y-81185000D01*
X146644224Y-81185000D01*
X146600582Y-81141358D01*
X146600582Y-80402000D01*
X146596429Y-80349926D01*
X146569078Y-80261604D01*
X146518203Y-80184399D01*
X146447833Y-80124423D01*
X146363541Y-80086427D01*
X146272000Y-80073418D01*
X145372000Y-80073418D01*
X145319926Y-80077571D01*
X145231604Y-80104922D01*
X145154399Y-80155797D01*
X145094423Y-80226167D01*
X145056427Y-80310459D01*
X145043418Y-80402000D01*
X145043418Y-81602000D01*
X145047571Y-81654074D01*
X145074922Y-81742396D01*
X145125797Y-81819601D01*
X145196167Y-81879577D01*
X145280459Y-81917573D01*
X145372000Y-81930582D01*
X146111358Y-81930582D01*
X146137388Y-81956612D01*
X146169644Y-81983108D01*
X146201635Y-82009951D01*
X146203715Y-82011095D01*
X146205554Y-82012605D01*
X146242363Y-82032342D01*
X146278938Y-82052449D01*
X146281205Y-82053168D01*
X146283299Y-82054291D01*
X146323227Y-82066498D01*
X146363024Y-82079123D01*
X146365385Y-82079388D01*
X146367659Y-82080083D01*
X146409232Y-82084306D01*
X146450689Y-82088956D01*
X146455328Y-82088988D01*
X146455423Y-82088998D01*
X146455512Y-82088990D01*
X146457000Y-82089000D01*
X149666002Y-82089000D01*
X149707520Y-82084929D01*
X149749148Y-82081287D01*
X149751430Y-82080624D01*
X149753796Y-82080392D01*
X149793766Y-82068324D01*
X149833860Y-82056676D01*
X149835970Y-82055582D01*
X149838246Y-82054895D01*
X149875099Y-82035299D01*
X149912179Y-82016079D01*
X149914038Y-82014595D01*
X149916135Y-82013480D01*
X149948465Y-81987113D01*
X149981121Y-81961044D01*
X149984426Y-81957784D01*
X149984497Y-81957726D01*
X149984552Y-81957660D01*
X149985614Y-81956612D01*
X150083988Y-81858238D01*
X150148750Y-81923000D01*
X150873000Y-81923000D01*
X150873000Y-81903000D01*
X151127000Y-81903000D01*
X151127000Y-81923000D01*
X151147000Y-81923000D01*
X151147000Y-82177000D01*
X151127000Y-82177000D01*
X151127000Y-82197000D01*
X150873000Y-82197000D01*
X150873000Y-82177000D01*
X150148750Y-82177000D01*
X149990000Y-82335750D01*
X149990000Y-82534999D01*
X145627999Y-82534999D01*
X145586477Y-82539070D01*
X145544853Y-82542712D01*
X145542571Y-82543375D01*
X145540205Y-82543607D01*
X145500235Y-82555675D01*
X145460141Y-82567323D01*
X145458030Y-82568417D01*
X145455755Y-82569104D01*
X145418941Y-82588679D01*
X145381822Y-82607919D01*
X145379959Y-82609406D01*
X145377866Y-82610519D01*
X145345539Y-82636884D01*
X145312881Y-82662955D01*
X145309572Y-82666217D01*
X145309504Y-82666273D01*
X145309452Y-82666336D01*
X145308387Y-82667386D01*
X144355387Y-83620387D01*
X144328891Y-83652643D01*
X144302048Y-83684634D01*
X144300904Y-83686714D01*
X144299394Y-83688553D01*
X144279657Y-83725362D01*
X144259550Y-83761937D01*
X144258831Y-83764204D01*
X144257708Y-83766298D01*
X144245514Y-83806185D01*
X144232876Y-83846023D01*
X144232611Y-83848389D01*
X144231917Y-83850658D01*
X144227698Y-83892186D01*
X144223043Y-83933688D01*
X144223011Y-83938326D01*
X144223001Y-83938421D01*
X144223009Y-83938510D01*
X144222999Y-83939999D01*
X144222999Y-88596764D01*
X144227070Y-88638282D01*
X144230712Y-88679910D01*
X144231375Y-88682192D01*
X144231607Y-88684558D01*
X144243675Y-88724528D01*
X144255323Y-88764622D01*
X144256417Y-88766732D01*
X144257104Y-88769008D01*
X144276700Y-88805861D01*
X144295920Y-88842941D01*
X144297404Y-88844800D01*
X144298519Y-88846897D01*
X144324886Y-88879227D01*
X144350955Y-88911883D01*
X144354215Y-88915188D01*
X144354273Y-88915259D01*
X144354339Y-88915314D01*
X144355387Y-88916376D01*
X147983633Y-92544622D01*
X148015889Y-92571118D01*
X148047880Y-92597961D01*
X148049960Y-92599105D01*
X148051799Y-92600615D01*
X148088643Y-92620371D01*
X148125183Y-92640459D01*
X148127445Y-92641177D01*
X148129544Y-92642302D01*
X148169518Y-92654523D01*
X148209269Y-92667133D01*
X148211630Y-92667398D01*
X148213904Y-92668093D01*
X148255477Y-92672316D01*
X148296934Y-92676966D01*
X148301573Y-92676998D01*
X148301668Y-92677008D01*
X148301757Y-92677000D01*
X148303245Y-92677010D01*
X165725992Y-92677010D01*
X165767510Y-92672939D01*
X165809138Y-92669297D01*
X165811420Y-92668634D01*
X165813786Y-92668402D01*
X165853756Y-92656334D01*
X165893850Y-92644686D01*
X165895960Y-92643592D01*
X165898236Y-92642905D01*
X165935089Y-92623309D01*
X165972169Y-92604089D01*
X165974028Y-92602605D01*
X165976125Y-92601490D01*
X166008455Y-92575123D01*
X166041111Y-92549054D01*
X166044416Y-92545794D01*
X166044487Y-92545736D01*
X166044542Y-92545670D01*
X166045604Y-92544622D01*
X170394614Y-88195613D01*
X170421138Y-88163322D01*
X170447952Y-88131366D01*
X170449095Y-88129286D01*
X170450607Y-88127446D01*
X170470372Y-88090585D01*
X170490450Y-88054063D01*
X170491168Y-88051801D01*
X170492293Y-88049702D01*
X170504510Y-88009741D01*
X170517124Y-87969977D01*
X170517389Y-87967614D01*
X170518084Y-87965341D01*
X170522306Y-87923774D01*
X170526957Y-87882312D01*
X170526989Y-87877673D01*
X170526999Y-87877578D01*
X170526991Y-87877489D01*
X170527001Y-87876001D01*
X170527001Y-68425001D01*
X170522921Y-68383388D01*
X170519287Y-68341855D01*
X170518625Y-68339578D01*
X170518393Y-68337207D01*
X170506313Y-68297196D01*
X170494677Y-68257143D01*
X170493583Y-68255033D01*
X170492896Y-68252757D01*
X170473300Y-68215904D01*
X170454080Y-68178824D01*
X170452596Y-68176965D01*
X170451481Y-68174868D01*
X170425114Y-68142538D01*
X170399045Y-68109882D01*
X170395785Y-68106577D01*
X170395727Y-68106506D01*
X170395661Y-68106451D01*
X170394613Y-68105389D01*
X168747682Y-66458458D01*
X168747612Y-66458387D01*
X168700611Y-66411387D01*
X168668355Y-66384891D01*
X168636364Y-66358048D01*
X168634284Y-66356904D01*
X168632445Y-66355394D01*
X168595636Y-66335657D01*
X168559061Y-66315550D01*
X168556794Y-66314831D01*
X168554700Y-66313708D01*
X168514813Y-66301514D01*
X168474975Y-66288876D01*
X168472609Y-66288611D01*
X168470340Y-66287917D01*
X168428812Y-66283698D01*
X168387310Y-66279043D01*
X168382672Y-66279011D01*
X168382577Y-66279001D01*
X168382488Y-66279009D01*
X168380999Y-66278999D01*
X167017245Y-66278999D01*
X167173821Y-66122423D01*
X167186463Y-66112113D01*
X167219119Y-66086044D01*
X167222424Y-66082784D01*
X167222495Y-66082726D01*
X167222550Y-66082660D01*
X167223612Y-66081612D01*
X167819612Y-65485612D01*
X167846108Y-65453356D01*
X167872951Y-65421365D01*
X167874095Y-65419285D01*
X167875605Y-65417446D01*
X167895352Y-65380618D01*
X167915449Y-65344062D01*
X167916167Y-65341798D01*
X167917291Y-65339702D01*
X167929490Y-65299800D01*
X167942123Y-65259976D01*
X167942388Y-65257610D01*
X167943082Y-65255341D01*
X167947296Y-65213858D01*
X167951956Y-65172311D01*
X167951988Y-65167663D01*
X167951997Y-65167578D01*
X167951990Y-65167499D01*
X167952000Y-65166000D01*
X167952000Y-56198000D01*
X167947929Y-56156478D01*
X167944287Y-56114854D01*
X167943624Y-56112572D01*
X167943392Y-56110206D01*
X167931324Y-56070236D01*
X167919676Y-56030142D01*
X167918582Y-56028032D01*
X167917895Y-56025756D01*
X167898299Y-55988903D01*
X167879079Y-55951823D01*
X167877595Y-55949964D01*
X167876480Y-55947867D01*
X167850093Y-55915513D01*
X167824044Y-55882882D01*
X167820785Y-55879578D01*
X167820726Y-55879505D01*
X167820659Y-55879449D01*
X167819612Y-55878388D01*
X163667682Y-51726458D01*
X163667612Y-51726387D01*
X163419000Y-51477776D01*
X163419000Y-50798544D01*
X163667612Y-50549933D01*
X163694128Y-50517651D01*
X163720951Y-50485685D01*
X163722095Y-50483605D01*
X163723605Y-50481766D01*
X163743352Y-50444938D01*
X163763449Y-50408382D01*
X163764167Y-50406118D01*
X163765291Y-50404022D01*
X163777490Y-50364120D01*
X163790123Y-50324296D01*
X163790388Y-50321930D01*
X163791082Y-50319661D01*
X163795296Y-50278178D01*
X163799956Y-50236631D01*
X163799988Y-50231983D01*
X163799997Y-50231898D01*
X163799990Y-50231819D01*
X163800000Y-50230320D01*
X163800000Y-49884564D01*
X163841694Y-49877212D01*
X164175739Y-49747645D01*
X164478256Y-49555662D01*
X164737722Y-49308576D01*
X164944254Y-49015798D01*
X165089985Y-48688481D01*
X165169364Y-48339092D01*
X165175078Y-47929853D01*
X165105485Y-47578384D01*
X164968951Y-47247125D01*
X164770674Y-46948695D01*
X164518208Y-46694461D01*
X164353849Y-46583599D01*
X170078699Y-46572426D01*
X171603000Y-46584036D01*
X171603000Y-46584036D01*
G37*
X171603000Y-46584036D02*
X171603000Y-176506000D01*
X144806000Y-176506000D01*
X144806000Y-145062606D01*
X157976803Y-131891803D01*
X157998266Y-131863229D01*
X158010918Y-131829807D01*
X158014000Y-131802000D01*
X158014000Y-117122606D01*
X160770803Y-114365803D01*
X160792266Y-114337229D01*
X160804918Y-114303807D01*
X160808000Y-114276000D01*
X160808000Y-107799000D01*
X160802972Y-107763619D01*
X160788286Y-107731039D01*
X160765105Y-107703840D01*
X160735264Y-107684177D01*
X160701127Y-107673605D01*
X160681000Y-107672000D01*
X157125000Y-107672000D01*
X157125000Y-94452000D01*
X158632776Y-94452000D01*
X161773833Y-97593057D01*
X161739241Y-97643577D01*
X161598094Y-97972897D01*
X161523601Y-98323361D01*
X161518599Y-98681619D01*
X161583277Y-99034026D01*
X161715174Y-99367159D01*
X161909264Y-99668328D01*
X162158156Y-99926062D01*
X162452368Y-100130545D01*
X162780694Y-100273988D01*
X163130629Y-100350926D01*
X163488844Y-100358429D01*
X163841694Y-100296212D01*
X164175739Y-100166645D01*
X164478256Y-99974662D01*
X164737722Y-99727576D01*
X164944254Y-99434798D01*
X165089985Y-99107481D01*
X165169364Y-98758092D01*
X165175078Y-98348853D01*
X165105485Y-97997384D01*
X164968951Y-97666125D01*
X164770674Y-97367695D01*
X164518208Y-97113461D01*
X164221170Y-96913106D01*
X163890873Y-96774262D01*
X163539898Y-96702217D01*
X163181613Y-96699716D01*
X162829666Y-96766853D01*
X162497463Y-96901072D01*
X162414552Y-96955328D01*
X159139612Y-93680388D01*
X159107356Y-93653892D01*
X159075365Y-93627049D01*
X159073285Y-93625905D01*
X159071446Y-93624395D01*
X159034637Y-93604658D01*
X158998062Y-93584551D01*
X158995795Y-93583832D01*
X158993701Y-93582709D01*
X158953814Y-93570515D01*
X158913976Y-93557877D01*
X158911610Y-93557612D01*
X158909341Y-93556918D01*
X158867813Y-93552699D01*
X158826311Y-93548044D01*
X158821673Y-93548012D01*
X158821578Y-93548002D01*
X158821489Y-93548010D01*
X158820000Y-93548000D01*
X157125000Y-93548000D01*
X157125000Y-92813000D01*
X157119972Y-92777619D01*
X157105286Y-92745039D01*
X157082105Y-92717840D01*
X157052264Y-92698177D01*
X157018127Y-92687605D01*
X156998000Y-92686000D01*
X144731606Y-92686000D01*
X140869211Y-88823605D01*
X140878851Y-86423342D01*
X140937458Y-86435000D01*
X141714250Y-86435000D01*
X141873000Y-86276250D01*
X141873000Y-85127000D01*
X142127000Y-85127000D01*
X142127000Y-86276250D01*
X142285750Y-86435000D01*
X143062542Y-86435000D01*
X143185223Y-86410597D01*
X143300785Y-86362730D01*
X143404789Y-86293237D01*
X143493237Y-86204789D01*
X143562730Y-86100785D01*
X143610597Y-85985223D01*
X143635000Y-85862542D01*
X143635000Y-85285750D01*
X143476250Y-85127000D01*
X142127000Y-85127000D01*
X141873000Y-85127000D01*
X141853000Y-85127000D01*
X141853000Y-84873000D01*
X141873000Y-84873000D01*
X141873000Y-83723750D01*
X142127000Y-83723750D01*
X142127000Y-84873000D01*
X143476250Y-84873000D01*
X143635000Y-84714250D01*
X143635000Y-84137458D01*
X143610597Y-84014777D01*
X143562730Y-83899215D01*
X143493237Y-83795211D01*
X143404789Y-83706763D01*
X143300785Y-83637270D01*
X143185223Y-83589403D01*
X143062542Y-83565000D01*
X142285750Y-83565000D01*
X142127000Y-83723750D01*
X141873000Y-83723750D01*
X141714250Y-83565000D01*
X140937458Y-83565000D01*
X140890292Y-83574382D01*
X140919877Y-76207750D01*
X140947000Y-76207750D01*
X140947000Y-76434542D01*
X140971403Y-76557223D01*
X141019270Y-76672785D01*
X141088763Y-76776789D01*
X141177211Y-76865237D01*
X141281215Y-76934730D01*
X141396777Y-76982597D01*
X141519458Y-77007000D01*
X141896250Y-77007000D01*
X142055000Y-76848250D01*
X142055000Y-76049000D01*
X142309000Y-76049000D01*
X142309000Y-76848250D01*
X142467750Y-77007000D01*
X142844542Y-77007000D01*
X142967223Y-76982597D01*
X143082785Y-76934730D01*
X143186789Y-76865237D01*
X143275237Y-76776789D01*
X143344730Y-76672785D01*
X143392597Y-76557223D01*
X143417000Y-76434542D01*
X143417000Y-76207750D01*
X143258250Y-76049000D01*
X142309000Y-76049000D01*
X142055000Y-76049000D01*
X141105750Y-76049000D01*
X140947000Y-76207750D01*
X140919877Y-76207750D01*
X140923083Y-75409458D01*
X140947000Y-75409458D01*
X140947000Y-75636250D01*
X141105750Y-75795000D01*
X142055000Y-75795000D01*
X142055000Y-74995750D01*
X142309000Y-74995750D01*
X142309000Y-75795000D01*
X143258250Y-75795000D01*
X143417000Y-75636250D01*
X143417000Y-75409458D01*
X143392597Y-75286777D01*
X143344730Y-75171215D01*
X143275237Y-75067211D01*
X143186789Y-74978763D01*
X143082785Y-74909270D01*
X142967223Y-74861403D01*
X142844542Y-74837000D01*
X142467750Y-74837000D01*
X142309000Y-74995750D01*
X142055000Y-74995750D01*
X141896250Y-74837000D01*
X141519458Y-74837000D01*
X141396777Y-74861403D01*
X141281215Y-74909270D01*
X141177211Y-74978763D01*
X141088763Y-75067211D01*
X141019270Y-75171215D01*
X140971403Y-75286777D01*
X140947000Y-75409458D01*
X140923083Y-75409458D01*
X140934688Y-72519619D01*
X142087599Y-72519619D01*
X142152277Y-72872026D01*
X142284174Y-73205159D01*
X142478264Y-73506328D01*
X142727156Y-73764062D01*
X143021368Y-73968545D01*
X143349694Y-74111988D01*
X143465000Y-74137340D01*
X143465000Y-75390500D01*
X143453418Y-75472000D01*
X143453418Y-76372000D01*
X143457571Y-76424074D01*
X143484922Y-76512396D01*
X143535797Y-76589601D01*
X143606167Y-76649577D01*
X143690459Y-76687573D01*
X143782000Y-76700582D01*
X144671358Y-76700582D01*
X145370000Y-77399225D01*
X145370000Y-77873578D01*
X145319926Y-77877571D01*
X145231604Y-77904922D01*
X145154399Y-77955797D01*
X145094423Y-78026167D01*
X145056427Y-78110459D01*
X145043418Y-78202000D01*
X145043418Y-79402000D01*
X145047571Y-79454074D01*
X145074922Y-79542396D01*
X145125797Y-79619601D01*
X145196167Y-79679577D01*
X145280459Y-79717573D01*
X145372000Y-79730582D01*
X146272000Y-79730582D01*
X146324074Y-79726429D01*
X146412396Y-79699078D01*
X146489601Y-79648203D01*
X146549577Y-79577833D01*
X146587573Y-79493541D01*
X146600582Y-79402000D01*
X146600582Y-78202000D01*
X146596429Y-78149926D01*
X146569078Y-78061604D01*
X146518203Y-77984399D01*
X146447833Y-77924423D01*
X146363541Y-77886427D01*
X146274000Y-77873702D01*
X146274000Y-77212000D01*
X146269920Y-77170387D01*
X146266286Y-77128854D01*
X146265624Y-77126577D01*
X146265392Y-77124206D01*
X146253298Y-77084149D01*
X146241675Y-77044142D01*
X146240583Y-77042036D01*
X146239895Y-77039756D01*
X146220281Y-77002867D01*
X146201079Y-76965823D01*
X146199595Y-76963964D01*
X146198480Y-76961867D01*
X146172088Y-76929507D01*
X146146043Y-76896881D01*
X146142782Y-76893573D01*
X146142726Y-76893505D01*
X146142663Y-76893453D01*
X146141612Y-76892387D01*
X145310582Y-76061358D01*
X145310582Y-75472000D01*
X145306429Y-75419926D01*
X145279078Y-75331604D01*
X145228203Y-75254399D01*
X145157833Y-75194423D01*
X145073541Y-75156427D01*
X144982000Y-75143418D01*
X144369000Y-75143418D01*
X144369000Y-74141564D01*
X144410694Y-74134212D01*
X144744739Y-74004645D01*
X145047256Y-73812662D01*
X145306722Y-73565576D01*
X145513254Y-73272798D01*
X145658985Y-72945481D01*
X145738364Y-72596092D01*
X145744078Y-72186853D01*
X145674485Y-71835384D01*
X145537951Y-71504125D01*
X145492523Y-71435750D01*
X151415000Y-71435750D01*
X151415000Y-71812542D01*
X151439403Y-71935223D01*
X151487270Y-72050785D01*
X151556763Y-72154789D01*
X151645211Y-72243237D01*
X151749215Y-72312730D01*
X151864777Y-72360597D01*
X151987458Y-72385000D01*
X152214250Y-72385000D01*
X152373000Y-72226250D01*
X152373000Y-71277000D01*
X152627000Y-71277000D01*
X152627000Y-72226250D01*
X152785750Y-72385000D01*
X153012542Y-72385000D01*
X153135223Y-72360597D01*
X153250785Y-72312730D01*
X153354789Y-72243237D01*
X153443237Y-72154789D01*
X153512730Y-72050785D01*
X153560597Y-71935223D01*
X153585000Y-71812542D01*
X153585000Y-71435750D01*
X153426250Y-71277000D01*
X152627000Y-71277000D01*
X152373000Y-71277000D01*
X151573750Y-71277000D01*
X151415000Y-71435750D01*
X145492523Y-71435750D01*
X145339674Y-71205695D01*
X145087208Y-70951461D01*
X144790170Y-70751106D01*
X144459873Y-70612262D01*
X144108898Y-70540217D01*
X143750613Y-70537716D01*
X143398666Y-70604853D01*
X143066463Y-70739072D01*
X142766656Y-70935260D01*
X142510665Y-71185945D01*
X142308241Y-71481577D01*
X142167094Y-71810897D01*
X142092601Y-72161361D01*
X142087599Y-72519619D01*
X140934688Y-72519619D01*
X140942849Y-70487458D01*
X151415000Y-70487458D01*
X151415000Y-70864250D01*
X151573750Y-71023000D01*
X152373000Y-71023000D01*
X152373000Y-70073750D01*
X152627000Y-70073750D01*
X152627000Y-71023000D01*
X153426250Y-71023000D01*
X153585000Y-70864250D01*
X153585000Y-70487458D01*
X153560597Y-70364777D01*
X153512730Y-70249215D01*
X153443237Y-70145211D01*
X153354789Y-70056763D01*
X153250785Y-69987270D01*
X153135223Y-69939403D01*
X153012542Y-69915000D01*
X152785750Y-69915000D01*
X152627000Y-70073750D01*
X152373000Y-70073750D01*
X152214250Y-69915000D01*
X151987458Y-69915000D01*
X151864777Y-69939403D01*
X151749215Y-69987270D01*
X151645211Y-70056763D01*
X151556763Y-70145211D01*
X151487270Y-70249215D01*
X151439403Y-70364777D01*
X151415000Y-70487458D01*
X140942849Y-70487458D01*
X140947732Y-69271750D01*
X149598000Y-69271750D01*
X149598000Y-69275542D01*
X149622403Y-69398223D01*
X149670270Y-69513785D01*
X149739763Y-69617789D01*
X149828211Y-69706237D01*
X149932215Y-69775730D01*
X150047777Y-69823597D01*
X150170458Y-69848000D01*
X150247250Y-69848000D01*
X150406000Y-69689250D01*
X150406000Y-69113000D01*
X150660000Y-69113000D01*
X150660000Y-69689250D01*
X150818750Y-69848000D01*
X150895542Y-69848000D01*
X151018223Y-69823597D01*
X151133785Y-69775730D01*
X151237789Y-69706237D01*
X151326237Y-69617789D01*
X151395730Y-69513785D01*
X151443597Y-69398223D01*
X151468000Y-69275542D01*
X151468000Y-69271750D01*
X151309250Y-69113000D01*
X150660000Y-69113000D01*
X150406000Y-69113000D01*
X149756750Y-69113000D01*
X149598000Y-69271750D01*
X140947732Y-69271750D01*
X140971788Y-63282000D01*
X149356982Y-63282000D01*
X149359235Y-63289463D01*
X149468324Y-63494629D01*
X149615185Y-63674698D01*
X149794225Y-63822813D01*
X149998624Y-63933331D01*
X150081000Y-63958831D01*
X150081000Y-65323569D01*
X150015399Y-65366797D01*
X149955423Y-65437167D01*
X149917427Y-65521459D01*
X149904418Y-65613000D01*
X149904418Y-66013000D01*
X149908571Y-66065074D01*
X149935922Y-66153396D01*
X149986797Y-66230601D01*
X150023219Y-66261644D01*
X150015399Y-66266797D01*
X149955423Y-66337167D01*
X149917427Y-66421459D01*
X149904418Y-66513000D01*
X149904418Y-66913000D01*
X149908246Y-66961000D01*
X149627051Y-66961000D01*
X149611485Y-66882384D01*
X149474951Y-66551125D01*
X149276674Y-66252695D01*
X149024208Y-65998461D01*
X148727170Y-65798106D01*
X148396873Y-65659262D01*
X148045898Y-65587217D01*
X147687613Y-65584716D01*
X147335666Y-65651853D01*
X147003463Y-65786072D01*
X146703656Y-65982260D01*
X146447665Y-66232945D01*
X146245241Y-66528577D01*
X146104094Y-66857897D01*
X146029601Y-67208361D01*
X146024599Y-67566619D01*
X146089277Y-67919026D01*
X146221174Y-68252159D01*
X146415264Y-68553328D01*
X146664156Y-68811062D01*
X146958368Y-69015545D01*
X147286694Y-69158988D01*
X147636629Y-69235926D01*
X147994844Y-69243429D01*
X148347694Y-69181212D01*
X148681739Y-69051645D01*
X148984256Y-68859662D01*
X149243722Y-68612576D01*
X149450254Y-68319798D01*
X149595985Y-67992481D01*
X149624948Y-67865000D01*
X149911239Y-67865000D01*
X149904418Y-67913000D01*
X149904418Y-68268843D01*
X149828211Y-68319763D01*
X149739763Y-68408211D01*
X149670270Y-68512215D01*
X149622403Y-68627777D01*
X149598000Y-68750458D01*
X149598000Y-68754250D01*
X149756750Y-68913000D01*
X150406000Y-68913000D01*
X150406000Y-68866000D01*
X150660000Y-68866000D01*
X150660000Y-68913000D01*
X151309250Y-68913000D01*
X151468000Y-68754250D01*
X151468000Y-68750458D01*
X151443597Y-68627777D01*
X151395730Y-68512215D01*
X151326237Y-68408211D01*
X151237789Y-68319763D01*
X151161582Y-68268843D01*
X151161582Y-67913000D01*
X151157429Y-67860926D01*
X151130078Y-67772604D01*
X151079203Y-67695399D01*
X151008833Y-67635423D01*
X150985000Y-67624680D01*
X150985000Y-67202431D01*
X151050601Y-67159203D01*
X151110577Y-67088833D01*
X151148573Y-67004541D01*
X151161582Y-66913000D01*
X151161582Y-66513000D01*
X151157429Y-66460926D01*
X151130078Y-66372604D01*
X151079203Y-66295399D01*
X151042781Y-66264356D01*
X151050601Y-66259203D01*
X151110577Y-66188833D01*
X151148573Y-66104541D01*
X151161582Y-66013000D01*
X151161582Y-65613000D01*
X151157429Y-65560926D01*
X151130078Y-65472604D01*
X151079203Y-65395399D01*
X151008833Y-65335423D01*
X150985000Y-65324680D01*
X150985000Y-63898370D01*
X151111929Y-63832013D01*
X151293019Y-63686412D01*
X151298000Y-63680476D01*
X151298000Y-64000000D01*
X151302071Y-64041518D01*
X151305713Y-64083146D01*
X151306376Y-64085428D01*
X151306608Y-64087794D01*
X151318676Y-64127764D01*
X151330324Y-64167858D01*
X151331418Y-64169968D01*
X151332105Y-64172244D01*
X151351701Y-64209097D01*
X151370921Y-64246177D01*
X151372405Y-64248036D01*
X151373520Y-64250133D01*
X151399887Y-64282463D01*
X151425956Y-64315119D01*
X151429216Y-64318424D01*
X151429274Y-64318495D01*
X151429340Y-64318550D01*
X151430388Y-64319612D01*
X154398000Y-67287224D01*
X154398000Y-67874157D01*
X154372423Y-67904167D01*
X154334427Y-67988459D01*
X154321418Y-68080000D01*
X154321418Y-69415000D01*
X154162458Y-69415000D01*
X154039777Y-69439403D01*
X153924215Y-69487270D01*
X153820211Y-69556763D01*
X153731763Y-69645211D01*
X153662270Y-69749215D01*
X153614403Y-69864777D01*
X153590000Y-69987458D01*
X153590000Y-71464250D01*
X153748750Y-71623000D01*
X154663198Y-71623000D01*
X154648750Y-71690972D01*
X154647307Y-71794312D01*
X154662483Y-71877000D01*
X153748750Y-71877000D01*
X153590000Y-72035750D01*
X153590000Y-73512542D01*
X153614403Y-73635223D01*
X153662270Y-73750785D01*
X153731763Y-73854789D01*
X153820211Y-73943237D01*
X153924215Y-74012730D01*
X154039777Y-74060597D01*
X154162458Y-74085000D01*
X154321418Y-74085000D01*
X154321418Y-74509357D01*
X154032776Y-74798000D01*
X153366710Y-74798000D01*
X153347078Y-74734604D01*
X153296203Y-74657399D01*
X153225833Y-74597423D01*
X153141541Y-74559427D01*
X153050000Y-74546418D01*
X152952000Y-74546418D01*
X152952000Y-74278422D01*
X153002074Y-74274429D01*
X153090396Y-74247078D01*
X153167601Y-74196203D01*
X153227577Y-74125833D01*
X153265573Y-74041541D01*
X153278582Y-73950000D01*
X153278582Y-72750000D01*
X153274429Y-72697926D01*
X153247078Y-72609604D01*
X153196203Y-72532399D01*
X153125833Y-72472423D01*
X153041541Y-72434427D01*
X152950000Y-72421418D01*
X152050000Y-72421418D01*
X151997926Y-72425571D01*
X151909604Y-72452922D01*
X151832399Y-72503797D01*
X151772423Y-72574167D01*
X151734427Y-72658459D01*
X151721418Y-72750000D01*
X151721418Y-73950000D01*
X151725571Y-74002074D01*
X151752922Y-74090396D01*
X151803797Y-74167601D01*
X151874167Y-74227577D01*
X151958459Y-74265573D01*
X152048000Y-74278298D01*
X152048000Y-74546418D01*
X151850000Y-74546418D01*
X151797926Y-74550571D01*
X151709604Y-74577922D01*
X151632399Y-74628797D01*
X151572423Y-74699167D01*
X151534427Y-74783459D01*
X151521418Y-74875000D01*
X151521418Y-75357194D01*
X151478582Y-75314358D01*
X151478582Y-74875000D01*
X151474429Y-74822926D01*
X151447078Y-74734604D01*
X151396203Y-74657399D01*
X151325833Y-74597423D01*
X151241541Y-74559427D01*
X151150000Y-74546418D01*
X149950000Y-74546418D01*
X149897926Y-74550571D01*
X149809604Y-74577922D01*
X149732399Y-74628797D01*
X149672423Y-74699167D01*
X149634427Y-74783459D01*
X149621418Y-74875000D01*
X149621418Y-75625000D01*
X149625571Y-75677074D01*
X149652922Y-75765396D01*
X149703797Y-75842601D01*
X149774167Y-75902577D01*
X149858459Y-75940573D01*
X149948000Y-75953298D01*
X149948000Y-76221418D01*
X149800000Y-76221418D01*
X149747926Y-76225571D01*
X149659604Y-76252922D01*
X149582399Y-76303797D01*
X149522423Y-76374167D01*
X149484427Y-76458459D01*
X149471418Y-76550000D01*
X149471418Y-77450000D01*
X149475571Y-77502074D01*
X149502922Y-77590396D01*
X149553797Y-77667601D01*
X149605495Y-77711663D01*
X149315898Y-77652217D01*
X148957613Y-77649716D01*
X148605666Y-77716853D01*
X148273463Y-77851072D01*
X147973656Y-78047260D01*
X147717665Y-78297945D01*
X147515241Y-78593577D01*
X147374094Y-78922897D01*
X147299601Y-79273361D01*
X147294599Y-79631619D01*
X147359277Y-79984026D01*
X147491174Y-80317159D01*
X147685264Y-80618328D01*
X147934156Y-80876062D01*
X148228368Y-81080545D01*
X148467455Y-81185000D01*
X146644224Y-81185000D01*
X146600582Y-81141358D01*
X146600582Y-80402000D01*
X146596429Y-80349926D01*
X146569078Y-80261604D01*
X146518203Y-80184399D01*
X146447833Y-80124423D01*
X146363541Y-80086427D01*
X146272000Y-80073418D01*
X145372000Y-80073418D01*
X145319926Y-80077571D01*
X145231604Y-80104922D01*
X145154399Y-80155797D01*
X145094423Y-80226167D01*
X145056427Y-80310459D01*
X145043418Y-80402000D01*
X145043418Y-81602000D01*
X145047571Y-81654074D01*
X145074922Y-81742396D01*
X145125797Y-81819601D01*
X145196167Y-81879577D01*
X145280459Y-81917573D01*
X145372000Y-81930582D01*
X146111358Y-81930582D01*
X146137388Y-81956612D01*
X146169644Y-81983108D01*
X146201635Y-82009951D01*
X146203715Y-82011095D01*
X146205554Y-82012605D01*
X146242363Y-82032342D01*
X146278938Y-82052449D01*
X146281205Y-82053168D01*
X146283299Y-82054291D01*
X146323227Y-82066498D01*
X146363024Y-82079123D01*
X146365385Y-82079388D01*
X146367659Y-82080083D01*
X146409232Y-82084306D01*
X146450689Y-82088956D01*
X146455328Y-82088988D01*
X146455423Y-82088998D01*
X146455512Y-82088990D01*
X146457000Y-82089000D01*
X149666002Y-82089000D01*
X149707520Y-82084929D01*
X149749148Y-82081287D01*
X149751430Y-82080624D01*
X149753796Y-82080392D01*
X149793766Y-82068324D01*
X149833860Y-82056676D01*
X149835970Y-82055582D01*
X149838246Y-82054895D01*
X149875099Y-82035299D01*
X149912179Y-82016079D01*
X149914038Y-82014595D01*
X149916135Y-82013480D01*
X149948465Y-81987113D01*
X149981121Y-81961044D01*
X149984426Y-81957784D01*
X149984497Y-81957726D01*
X149984552Y-81957660D01*
X149985614Y-81956612D01*
X150083988Y-81858238D01*
X150148750Y-81923000D01*
X150873000Y-81923000D01*
X150873000Y-81903000D01*
X151127000Y-81903000D01*
X151127000Y-81923000D01*
X151147000Y-81923000D01*
X151147000Y-82177000D01*
X151127000Y-82177000D01*
X151127000Y-82197000D01*
X150873000Y-82197000D01*
X150873000Y-82177000D01*
X150148750Y-82177000D01*
X149990000Y-82335750D01*
X149990000Y-82534999D01*
X145627999Y-82534999D01*
X145586477Y-82539070D01*
X145544853Y-82542712D01*
X145542571Y-82543375D01*
X145540205Y-82543607D01*
X145500235Y-82555675D01*
X145460141Y-82567323D01*
X145458030Y-82568417D01*
X145455755Y-82569104D01*
X145418941Y-82588679D01*
X145381822Y-82607919D01*
X145379959Y-82609406D01*
X145377866Y-82610519D01*
X145345539Y-82636884D01*
X145312881Y-82662955D01*
X145309572Y-82666217D01*
X145309504Y-82666273D01*
X145309452Y-82666336D01*
X145308387Y-82667386D01*
X144355387Y-83620387D01*
X144328891Y-83652643D01*
X144302048Y-83684634D01*
X144300904Y-83686714D01*
X144299394Y-83688553D01*
X144279657Y-83725362D01*
X144259550Y-83761937D01*
X144258831Y-83764204D01*
X144257708Y-83766298D01*
X144245514Y-83806185D01*
X144232876Y-83846023D01*
X144232611Y-83848389D01*
X144231917Y-83850658D01*
X144227698Y-83892186D01*
X144223043Y-83933688D01*
X144223011Y-83938326D01*
X144223001Y-83938421D01*
X144223009Y-83938510D01*
X144222999Y-83939999D01*
X144222999Y-88596764D01*
X144227070Y-88638282D01*
X144230712Y-88679910D01*
X144231375Y-88682192D01*
X144231607Y-88684558D01*
X144243675Y-88724528D01*
X144255323Y-88764622D01*
X144256417Y-88766732D01*
X144257104Y-88769008D01*
X144276700Y-88805861D01*
X144295920Y-88842941D01*
X144297404Y-88844800D01*
X144298519Y-88846897D01*
X144324886Y-88879227D01*
X144350955Y-88911883D01*
X144354215Y-88915188D01*
X144354273Y-88915259D01*
X144354339Y-88915314D01*
X144355387Y-88916376D01*
X147983633Y-92544622D01*
X148015889Y-92571118D01*
X148047880Y-92597961D01*
X148049960Y-92599105D01*
X148051799Y-92600615D01*
X148088643Y-92620371D01*
X148125183Y-92640459D01*
X148127445Y-92641177D01*
X148129544Y-92642302D01*
X148169518Y-92654523D01*
X148209269Y-92667133D01*
X148211630Y-92667398D01*
X148213904Y-92668093D01*
X148255477Y-92672316D01*
X148296934Y-92676966D01*
X148301573Y-92676998D01*
X148301668Y-92677008D01*
X148301757Y-92677000D01*
X148303245Y-92677010D01*
X165725992Y-92677010D01*
X165767510Y-92672939D01*
X165809138Y-92669297D01*
X165811420Y-92668634D01*
X165813786Y-92668402D01*
X165853756Y-92656334D01*
X165893850Y-92644686D01*
X165895960Y-92643592D01*
X165898236Y-92642905D01*
X165935089Y-92623309D01*
X165972169Y-92604089D01*
X165974028Y-92602605D01*
X165976125Y-92601490D01*
X166008455Y-92575123D01*
X166041111Y-92549054D01*
X166044416Y-92545794D01*
X166044487Y-92545736D01*
X166044542Y-92545670D01*
X166045604Y-92544622D01*
X170394614Y-88195613D01*
X170421138Y-88163322D01*
X170447952Y-88131366D01*
X170449095Y-88129286D01*
X170450607Y-88127446D01*
X170470372Y-88090585D01*
X170490450Y-88054063D01*
X170491168Y-88051801D01*
X170492293Y-88049702D01*
X170504510Y-88009741D01*
X170517124Y-87969977D01*
X170517389Y-87967614D01*
X170518084Y-87965341D01*
X170522306Y-87923774D01*
X170526957Y-87882312D01*
X170526989Y-87877673D01*
X170526999Y-87877578D01*
X170526991Y-87877489D01*
X170527001Y-87876001D01*
X170527001Y-68425001D01*
X170522921Y-68383388D01*
X170519287Y-68341855D01*
X170518625Y-68339578D01*
X170518393Y-68337207D01*
X170506313Y-68297196D01*
X170494677Y-68257143D01*
X170493583Y-68255033D01*
X170492896Y-68252757D01*
X170473300Y-68215904D01*
X170454080Y-68178824D01*
X170452596Y-68176965D01*
X170451481Y-68174868D01*
X170425114Y-68142538D01*
X170399045Y-68109882D01*
X170395785Y-68106577D01*
X170395727Y-68106506D01*
X170395661Y-68106451D01*
X170394613Y-68105389D01*
X168747682Y-66458458D01*
X168747612Y-66458387D01*
X168700611Y-66411387D01*
X168668355Y-66384891D01*
X168636364Y-66358048D01*
X168634284Y-66356904D01*
X168632445Y-66355394D01*
X168595636Y-66335657D01*
X168559061Y-66315550D01*
X168556794Y-66314831D01*
X168554700Y-66313708D01*
X168514813Y-66301514D01*
X168474975Y-66288876D01*
X168472609Y-66288611D01*
X168470340Y-66287917D01*
X168428812Y-66283698D01*
X168387310Y-66279043D01*
X168382672Y-66279011D01*
X168382577Y-66279001D01*
X168382488Y-66279009D01*
X168380999Y-66278999D01*
X167017245Y-66278999D01*
X167173821Y-66122423D01*
X167186463Y-66112113D01*
X167219119Y-66086044D01*
X167222424Y-66082784D01*
X167222495Y-66082726D01*
X167222550Y-66082660D01*
X167223612Y-66081612D01*
X167819612Y-65485612D01*
X167846108Y-65453356D01*
X167872951Y-65421365D01*
X167874095Y-65419285D01*
X167875605Y-65417446D01*
X167895352Y-65380618D01*
X167915449Y-65344062D01*
X167916167Y-65341798D01*
X167917291Y-65339702D01*
X167929490Y-65299800D01*
X167942123Y-65259976D01*
X167942388Y-65257610D01*
X167943082Y-65255341D01*
X167947296Y-65213858D01*
X167951956Y-65172311D01*
X167951988Y-65167663D01*
X167951997Y-65167578D01*
X167951990Y-65167499D01*
X167952000Y-65166000D01*
X167952000Y-56198000D01*
X167947929Y-56156478D01*
X167944287Y-56114854D01*
X167943624Y-56112572D01*
X167943392Y-56110206D01*
X167931324Y-56070236D01*
X167919676Y-56030142D01*
X167918582Y-56028032D01*
X167917895Y-56025756D01*
X167898299Y-55988903D01*
X167879079Y-55951823D01*
X167877595Y-55949964D01*
X167876480Y-55947867D01*
X167850093Y-55915513D01*
X167824044Y-55882882D01*
X167820785Y-55879578D01*
X167820726Y-55879505D01*
X167820659Y-55879449D01*
X167819612Y-55878388D01*
X163667682Y-51726458D01*
X163667612Y-51726387D01*
X163419000Y-51477776D01*
X163419000Y-50798544D01*
X163667612Y-50549933D01*
X163694128Y-50517651D01*
X163720951Y-50485685D01*
X163722095Y-50483605D01*
X163723605Y-50481766D01*
X163743352Y-50444938D01*
X163763449Y-50408382D01*
X163764167Y-50406118D01*
X163765291Y-50404022D01*
X163777490Y-50364120D01*
X163790123Y-50324296D01*
X163790388Y-50321930D01*
X163791082Y-50319661D01*
X163795296Y-50278178D01*
X163799956Y-50236631D01*
X163799988Y-50231983D01*
X163799997Y-50231898D01*
X163799990Y-50231819D01*
X163800000Y-50230320D01*
X163800000Y-49884564D01*
X163841694Y-49877212D01*
X164175739Y-49747645D01*
X164478256Y-49555662D01*
X164737722Y-49308576D01*
X164944254Y-49015798D01*
X165089985Y-48688481D01*
X165169364Y-48339092D01*
X165175078Y-47929853D01*
X165105485Y-47578384D01*
X164968951Y-47247125D01*
X164770674Y-46948695D01*
X164518208Y-46694461D01*
X164353849Y-46583599D01*
X170078699Y-46572426D01*
X171603000Y-46584036D01*
G36*
X166675833Y-77565057D02*
X166641241Y-77615577D01*
X166500094Y-77944897D01*
X166425601Y-78295361D01*
X166420599Y-78653619D01*
X166485277Y-79006026D01*
X166617174Y-79339159D01*
X166811264Y-79640328D01*
X167060156Y-79898062D01*
X167354368Y-80102545D01*
X167682694Y-80245988D01*
X168032629Y-80322926D01*
X168390844Y-80330429D01*
X168743694Y-80268212D01*
X169077739Y-80138645D01*
X169380256Y-79946662D01*
X169623001Y-79715499D01*
X169623001Y-87688776D01*
X169068330Y-88243447D01*
X169071364Y-88230092D01*
X169077078Y-87820853D01*
X169007485Y-87469384D01*
X168870951Y-87138125D01*
X168672674Y-86839695D01*
X168420208Y-86585461D01*
X168123170Y-86385106D01*
X167792873Y-86246262D01*
X167441898Y-86174217D01*
X167226536Y-86172714D01*
X167373000Y-86026250D01*
X167373000Y-84877000D01*
X167627000Y-84877000D01*
X167627000Y-86026250D01*
X167785750Y-86185000D01*
X168562542Y-86185000D01*
X168685223Y-86160597D01*
X168800785Y-86112730D01*
X168904789Y-86043237D01*
X168993237Y-85954789D01*
X169062730Y-85850785D01*
X169110597Y-85735223D01*
X169135000Y-85612542D01*
X169135000Y-85035750D01*
X168976250Y-84877000D01*
X167627000Y-84877000D01*
X167373000Y-84877000D01*
X167353000Y-84877000D01*
X167353000Y-84623000D01*
X167373000Y-84623000D01*
X167373000Y-83473750D01*
X167627000Y-83473750D01*
X167627000Y-84623000D01*
X168976250Y-84623000D01*
X169135000Y-84464250D01*
X169135000Y-83887458D01*
X169110597Y-83764777D01*
X169062730Y-83649215D01*
X168993237Y-83545211D01*
X168904789Y-83456763D01*
X168800785Y-83387270D01*
X168685223Y-83339403D01*
X168562542Y-83315000D01*
X167785750Y-83315000D01*
X167627000Y-83473750D01*
X167373000Y-83473750D01*
X167214250Y-83315000D01*
X166437458Y-83315000D01*
X166314777Y-83339403D01*
X166199215Y-83387270D01*
X166095211Y-83456763D01*
X166006763Y-83545211D01*
X165986369Y-83575732D01*
X165348537Y-82937901D01*
X165392074Y-82934429D01*
X165480396Y-82907078D01*
X165557601Y-82856203D01*
X165617577Y-82785833D01*
X165655573Y-82701541D01*
X165668582Y-82610000D01*
X165668582Y-81390000D01*
X165664429Y-81337926D01*
X165637078Y-81249604D01*
X165586203Y-81172399D01*
X165515833Y-81112423D01*
X165431541Y-81074427D01*
X165340000Y-81061418D01*
X165337000Y-81061418D01*
X165337000Y-78928582D01*
X165625000Y-78928582D01*
X165677074Y-78924429D01*
X165765396Y-78897078D01*
X165842601Y-78846203D01*
X165902577Y-78775833D01*
X165940573Y-78691541D01*
X165953582Y-78600000D01*
X165953582Y-77477001D01*
X166587777Y-77477001D01*
X166675833Y-77565057D01*
X166675833Y-77565057D01*
G37*
X166675833Y-77565057D02*
X166641241Y-77615577D01*
X166500094Y-77944897D01*
X166425601Y-78295361D01*
X166420599Y-78653619D01*
X166485277Y-79006026D01*
X166617174Y-79339159D01*
X166811264Y-79640328D01*
X167060156Y-79898062D01*
X167354368Y-80102545D01*
X167682694Y-80245988D01*
X168032629Y-80322926D01*
X168390844Y-80330429D01*
X168743694Y-80268212D01*
X169077739Y-80138645D01*
X169380256Y-79946662D01*
X169623001Y-79715499D01*
X169623001Y-87688776D01*
X169068330Y-88243447D01*
X169071364Y-88230092D01*
X169077078Y-87820853D01*
X169007485Y-87469384D01*
X168870951Y-87138125D01*
X168672674Y-86839695D01*
X168420208Y-86585461D01*
X168123170Y-86385106D01*
X167792873Y-86246262D01*
X167441898Y-86174217D01*
X167226536Y-86172714D01*
X167373000Y-86026250D01*
X167373000Y-84877000D01*
X167627000Y-84877000D01*
X167627000Y-86026250D01*
X167785750Y-86185000D01*
X168562542Y-86185000D01*
X168685223Y-86160597D01*
X168800785Y-86112730D01*
X168904789Y-86043237D01*
X168993237Y-85954789D01*
X169062730Y-85850785D01*
X169110597Y-85735223D01*
X169135000Y-85612542D01*
X169135000Y-85035750D01*
X168976250Y-84877000D01*
X167627000Y-84877000D01*
X167373000Y-84877000D01*
X167353000Y-84877000D01*
X167353000Y-84623000D01*
X167373000Y-84623000D01*
X167373000Y-83473750D01*
X167627000Y-83473750D01*
X167627000Y-84623000D01*
X168976250Y-84623000D01*
X169135000Y-84464250D01*
X169135000Y-83887458D01*
X169110597Y-83764777D01*
X169062730Y-83649215D01*
X168993237Y-83545211D01*
X168904789Y-83456763D01*
X168800785Y-83387270D01*
X168685223Y-83339403D01*
X168562542Y-83315000D01*
X167785750Y-83315000D01*
X167627000Y-83473750D01*
X167373000Y-83473750D01*
X167214250Y-83315000D01*
X166437458Y-83315000D01*
X166314777Y-83339403D01*
X166199215Y-83387270D01*
X166095211Y-83456763D01*
X166006763Y-83545211D01*
X165986369Y-83575732D01*
X165348537Y-82937901D01*
X165392074Y-82934429D01*
X165480396Y-82907078D01*
X165557601Y-82856203D01*
X165617577Y-82785833D01*
X165655573Y-82701541D01*
X165668582Y-82610000D01*
X165668582Y-81390000D01*
X165664429Y-81337926D01*
X165637078Y-81249604D01*
X165586203Y-81172399D01*
X165515833Y-81112423D01*
X165431541Y-81074427D01*
X165340000Y-81061418D01*
X165337000Y-81061418D01*
X165337000Y-78928582D01*
X165625000Y-78928582D01*
X165677074Y-78924429D01*
X165765396Y-78897078D01*
X165842601Y-78846203D01*
X165902577Y-78775833D01*
X165940573Y-78691541D01*
X165953582Y-78600000D01*
X165953582Y-77477001D01*
X166587777Y-77477001D01*
X166675833Y-77565057D01*
G36*
X159500000Y-74493000D02*
X159521418Y-74493000D01*
X159521418Y-74747000D01*
X159500000Y-74747000D01*
X159500000Y-75896250D01*
X159573000Y-75969250D01*
X159573000Y-76175000D01*
X159577306Y-76218914D01*
X159581140Y-76262745D01*
X159581839Y-76265151D01*
X159582084Y-76267650D01*
X159594808Y-76309792D01*
X159607112Y-76352143D01*
X159608268Y-76354373D01*
X159608992Y-76356771D01*
X159629663Y-76395647D01*
X159649954Y-76434792D01*
X159651519Y-76436752D01*
X159652697Y-76438968D01*
X159680533Y-76473098D01*
X159708033Y-76507548D01*
X159711477Y-76511040D01*
X159711535Y-76511111D01*
X159711601Y-76511166D01*
X159712710Y-76512290D01*
X160073000Y-76872580D01*
X160073000Y-78530000D01*
X160077306Y-78573914D01*
X160081140Y-78617745D01*
X160081839Y-78620151D01*
X160082084Y-78622650D01*
X160094817Y-78664823D01*
X160107112Y-78707143D01*
X160108268Y-78709373D01*
X160108992Y-78711771D01*
X160129663Y-78750647D01*
X160149954Y-78789792D01*
X160151519Y-78791752D01*
X160152697Y-78793968D01*
X160180533Y-78828098D01*
X160208033Y-78862548D01*
X160211477Y-78866040D01*
X160211535Y-78866111D01*
X160211601Y-78866166D01*
X160212710Y-78867290D01*
X160886418Y-79540998D01*
X160886418Y-80260000D01*
X160890571Y-80312074D01*
X160917922Y-80400396D01*
X160968797Y-80477601D01*
X161039167Y-80537577D01*
X161123459Y-80575573D01*
X161163000Y-80581192D01*
X161163000Y-81061418D01*
X161160000Y-81061418D01*
X161107926Y-81065571D01*
X161019604Y-81092922D01*
X160942399Y-81143797D01*
X160882423Y-81214167D01*
X160844427Y-81298459D01*
X160831418Y-81390000D01*
X160831418Y-82610000D01*
X160835571Y-82662074D01*
X160862922Y-82750396D01*
X160913797Y-82827601D01*
X160984167Y-82887577D01*
X161068459Y-82925573D01*
X161160000Y-82938582D01*
X161163000Y-82938582D01*
X161163000Y-83065000D01*
X161167071Y-83106518D01*
X161170713Y-83148146D01*
X161171376Y-83150428D01*
X161171608Y-83152794D01*
X161177289Y-83171610D01*
X161123170Y-83135106D01*
X160792873Y-82996262D01*
X160727000Y-82982740D01*
X160727000Y-81850000D01*
X160722694Y-81806086D01*
X160718860Y-81762255D01*
X160718161Y-81759849D01*
X160717916Y-81757350D01*
X160705183Y-81715177D01*
X160692888Y-81672857D01*
X160691732Y-81670627D01*
X160691008Y-81668229D01*
X160670337Y-81629353D01*
X160650046Y-81590208D01*
X160648481Y-81588248D01*
X160647303Y-81586032D01*
X160619467Y-81551902D01*
X160591967Y-81517452D01*
X160588523Y-81513960D01*
X160588465Y-81513889D01*
X160588399Y-81513834D01*
X160587290Y-81512710D01*
X159927000Y-80852420D01*
X159927000Y-77200000D01*
X159922694Y-77156086D01*
X159918860Y-77112255D01*
X159918161Y-77109849D01*
X159917916Y-77107350D01*
X159905169Y-77065131D01*
X159892887Y-77022857D01*
X159891733Y-77020631D01*
X159891008Y-77018229D01*
X159870309Y-76979299D01*
X159850045Y-76940207D01*
X159848481Y-76938248D01*
X159847303Y-76936032D01*
X159819438Y-76901866D01*
X159791966Y-76867452D01*
X159788524Y-76863962D01*
X159788465Y-76863889D01*
X159788398Y-76863833D01*
X159787290Y-76862710D01*
X159227000Y-76302420D01*
X159227000Y-75969250D01*
X159300000Y-75896250D01*
X159300000Y-74747000D01*
X159278582Y-74747000D01*
X159278582Y-74493000D01*
X159300000Y-74493000D01*
X159300000Y-74473000D01*
X159500000Y-74473000D01*
X159500000Y-74493000D01*
X159500000Y-74493000D01*
G37*
X159500000Y-74493000D02*
X159521418Y-74493000D01*
X159521418Y-74747000D01*
X159500000Y-74747000D01*
X159500000Y-75896250D01*
X159573000Y-75969250D01*
X159573000Y-76175000D01*
X159577306Y-76218914D01*
X159581140Y-76262745D01*
X159581839Y-76265151D01*
X159582084Y-76267650D01*
X159594808Y-76309792D01*
X159607112Y-76352143D01*
X159608268Y-76354373D01*
X159608992Y-76356771D01*
X159629663Y-76395647D01*
X159649954Y-76434792D01*
X159651519Y-76436752D01*
X159652697Y-76438968D01*
X159680533Y-76473098D01*
X159708033Y-76507548D01*
X159711477Y-76511040D01*
X159711535Y-76511111D01*
X159711601Y-76511166D01*
X159712710Y-76512290D01*
X160073000Y-76872580D01*
X160073000Y-78530000D01*
X160077306Y-78573914D01*
X160081140Y-78617745D01*
X160081839Y-78620151D01*
X160082084Y-78622650D01*
X160094817Y-78664823D01*
X160107112Y-78707143D01*
X160108268Y-78709373D01*
X160108992Y-78711771D01*
X160129663Y-78750647D01*
X160149954Y-78789792D01*
X160151519Y-78791752D01*
X160152697Y-78793968D01*
X160180533Y-78828098D01*
X160208033Y-78862548D01*
X160211477Y-78866040D01*
X160211535Y-78866111D01*
X160211601Y-78866166D01*
X160212710Y-78867290D01*
X160886418Y-79540998D01*
X160886418Y-80260000D01*
X160890571Y-80312074D01*
X160917922Y-80400396D01*
X160968797Y-80477601D01*
X161039167Y-80537577D01*
X161123459Y-80575573D01*
X161163000Y-80581192D01*
X161163000Y-81061418D01*
X161160000Y-81061418D01*
X161107926Y-81065571D01*
X161019604Y-81092922D01*
X160942399Y-81143797D01*
X160882423Y-81214167D01*
X160844427Y-81298459D01*
X160831418Y-81390000D01*
X160831418Y-82610000D01*
X160835571Y-82662074D01*
X160862922Y-82750396D01*
X160913797Y-82827601D01*
X160984167Y-82887577D01*
X161068459Y-82925573D01*
X161160000Y-82938582D01*
X161163000Y-82938582D01*
X161163000Y-83065000D01*
X161167071Y-83106518D01*
X161170713Y-83148146D01*
X161171376Y-83150428D01*
X161171608Y-83152794D01*
X161177289Y-83171610D01*
X161123170Y-83135106D01*
X160792873Y-82996262D01*
X160727000Y-82982740D01*
X160727000Y-81850000D01*
X160722694Y-81806086D01*
X160718860Y-81762255D01*
X160718161Y-81759849D01*
X160717916Y-81757350D01*
X160705183Y-81715177D01*
X160692888Y-81672857D01*
X160691732Y-81670627D01*
X160691008Y-81668229D01*
X160670337Y-81629353D01*
X160650046Y-81590208D01*
X160648481Y-81588248D01*
X160647303Y-81586032D01*
X160619467Y-81551902D01*
X160591967Y-81517452D01*
X160588523Y-81513960D01*
X160588465Y-81513889D01*
X160588399Y-81513834D01*
X160587290Y-81512710D01*
X159927000Y-80852420D01*
X159927000Y-77200000D01*
X159922694Y-77156086D01*
X159918860Y-77112255D01*
X159918161Y-77109849D01*
X159917916Y-77107350D01*
X159905169Y-77065131D01*
X159892887Y-77022857D01*
X159891733Y-77020631D01*
X159891008Y-77018229D01*
X159870309Y-76979299D01*
X159850045Y-76940207D01*
X159848481Y-76938248D01*
X159847303Y-76936032D01*
X159819438Y-76901866D01*
X159791966Y-76867452D01*
X159788524Y-76863962D01*
X159788465Y-76863889D01*
X159788398Y-76863833D01*
X159787290Y-76862710D01*
X159227000Y-76302420D01*
X159227000Y-75969250D01*
X159300000Y-75896250D01*
X159300000Y-74747000D01*
X159278582Y-74747000D01*
X159278582Y-74493000D01*
X159300000Y-74493000D01*
X159300000Y-74473000D01*
X159500000Y-74473000D01*
X159500000Y-74493000D01*
G36*
X157648000Y-66037224D02*
X157648000Y-67505750D01*
X157550000Y-67603750D01*
X157550000Y-68753000D01*
X157571418Y-68753000D01*
X157571418Y-69007000D01*
X157550000Y-69007000D01*
X157550000Y-69027000D01*
X157350000Y-69027000D01*
X157350000Y-69007000D01*
X157328582Y-69007000D01*
X157328582Y-68753000D01*
X157350000Y-68753000D01*
X157350000Y-67603750D01*
X157252000Y-67505750D01*
X157252000Y-66832590D01*
X157247929Y-66791068D01*
X157244287Y-66749444D01*
X157243624Y-66747162D01*
X157243392Y-66744796D01*
X157231324Y-66704826D01*
X157219676Y-66664732D01*
X157218582Y-66662621D01*
X157217895Y-66660346D01*
X157198320Y-66623532D01*
X157179080Y-66586413D01*
X157177593Y-66584550D01*
X157176480Y-66582457D01*
X157150115Y-66550130D01*
X157124044Y-66517472D01*
X157120782Y-66514163D01*
X157120726Y-66514095D01*
X157120663Y-66514043D01*
X157119613Y-66512978D01*
X156335216Y-65728582D01*
X156800000Y-65728582D01*
X156852074Y-65724429D01*
X156940396Y-65697078D01*
X157008804Y-65652000D01*
X157262776Y-65652000D01*
X157648000Y-66037224D01*
X157648000Y-66037224D01*
G37*
X157648000Y-66037224D02*
X157648000Y-67505750D01*
X157550000Y-67603750D01*
X157550000Y-68753000D01*
X157571418Y-68753000D01*
X157571418Y-69007000D01*
X157550000Y-69007000D01*
X157550000Y-69027000D01*
X157350000Y-69027000D01*
X157350000Y-69007000D01*
X157328582Y-69007000D01*
X157328582Y-68753000D01*
X157350000Y-68753000D01*
X157350000Y-67603750D01*
X157252000Y-67505750D01*
X157252000Y-66832590D01*
X157247929Y-66791068D01*
X157244287Y-66749444D01*
X157243624Y-66747162D01*
X157243392Y-66744796D01*
X157231324Y-66704826D01*
X157219676Y-66664732D01*
X157218582Y-66662621D01*
X157217895Y-66660346D01*
X157198320Y-66623532D01*
X157179080Y-66586413D01*
X157177593Y-66584550D01*
X157176480Y-66582457D01*
X157150115Y-66550130D01*
X157124044Y-66517472D01*
X157120782Y-66514163D01*
X157120726Y-66514095D01*
X157120663Y-66514043D01*
X157119613Y-66512978D01*
X156335216Y-65728582D01*
X156800000Y-65728582D01*
X156852074Y-65724429D01*
X156940396Y-65697078D01*
X157008804Y-65652000D01*
X157262776Y-65652000D01*
X157648000Y-66037224D01*
G36*
X167048000Y-56385224D02*
X167048000Y-61184365D01*
X167012730Y-61099215D01*
X166943237Y-60995211D01*
X166854789Y-60906763D01*
X166750785Y-60837270D01*
X166635223Y-60789403D01*
X166512542Y-60765000D01*
X166285750Y-60765000D01*
X166127000Y-60923750D01*
X166127000Y-61873000D01*
X166147000Y-61873000D01*
X166147000Y-62127000D01*
X166127000Y-62127000D01*
X166127000Y-63076250D01*
X166285750Y-63235000D01*
X166512542Y-63235000D01*
X166635223Y-63210597D01*
X166750785Y-63162730D01*
X166854789Y-63093237D01*
X166943237Y-63004789D01*
X167012730Y-62900785D01*
X167048000Y-62815635D01*
X167048000Y-64978776D01*
X166625199Y-65401577D01*
X166612533Y-65411907D01*
X166579902Y-65437956D01*
X166576598Y-65441215D01*
X166576525Y-65441274D01*
X166576469Y-65441341D01*
X166575408Y-65442388D01*
X166452000Y-65565796D01*
X166452000Y-65128422D01*
X166502074Y-65124429D01*
X166590396Y-65097078D01*
X166667601Y-65046203D01*
X166727577Y-64975833D01*
X166765573Y-64891541D01*
X166778582Y-64800000D01*
X166778582Y-63600000D01*
X166774429Y-63547926D01*
X166747078Y-63459604D01*
X166696203Y-63382399D01*
X166625833Y-63322423D01*
X166541541Y-63284427D01*
X166450000Y-63271418D01*
X165550000Y-63271418D01*
X165497926Y-63275571D01*
X165409604Y-63302922D01*
X165332399Y-63353797D01*
X165272423Y-63424167D01*
X165234427Y-63508459D01*
X165221418Y-63600000D01*
X165221418Y-64800000D01*
X165225571Y-64852074D01*
X165252922Y-64940396D01*
X165303797Y-65017601D01*
X165374167Y-65077577D01*
X165458459Y-65115573D01*
X165548000Y-65128298D01*
X165548000Y-65716776D01*
X165016766Y-66248010D01*
X162493579Y-66248011D01*
X162452057Y-66252082D01*
X162410433Y-66255724D01*
X162408151Y-66256387D01*
X162405785Y-66256619D01*
X162365815Y-66268687D01*
X162325721Y-66280335D01*
X162323611Y-66281429D01*
X162321335Y-66282116D01*
X162284482Y-66301712D01*
X162247402Y-66320932D01*
X162245543Y-66322416D01*
X162243446Y-66323531D01*
X162211092Y-66349918D01*
X162178461Y-66375967D01*
X162175157Y-66379226D01*
X162175084Y-66379285D01*
X162175028Y-66379352D01*
X162173967Y-66380399D01*
X161102673Y-67451693D01*
X161102501Y-67451783D01*
X161101265Y-67452776D01*
X161099867Y-67453520D01*
X161081339Y-67468631D01*
X160962542Y-67445000D01*
X160958750Y-67445000D01*
X160800000Y-67603750D01*
X160800000Y-68753000D01*
X160821418Y-68753000D01*
X160821418Y-69007000D01*
X160800000Y-69007000D01*
X160800000Y-69027000D01*
X160600000Y-69027000D01*
X160600000Y-69007000D01*
X160578582Y-69007000D01*
X160578582Y-68753000D01*
X160600000Y-68753000D01*
X160600000Y-67603750D01*
X160502000Y-67505750D01*
X160502000Y-67216634D01*
X161562625Y-66156010D01*
X162277398Y-66156010D01*
X162318916Y-66151939D01*
X162360544Y-66148297D01*
X162362826Y-66147634D01*
X162365192Y-66147402D01*
X162405162Y-66135334D01*
X162445256Y-66123686D01*
X162447366Y-66122592D01*
X162449642Y-66121905D01*
X162486495Y-66102309D01*
X162523575Y-66083089D01*
X162525434Y-66081605D01*
X162527531Y-66080490D01*
X162559861Y-66054123D01*
X162592517Y-66028054D01*
X162595822Y-66024794D01*
X162595893Y-66024736D01*
X162595948Y-66024670D01*
X162597010Y-66023622D01*
X163168633Y-65452000D01*
X163600000Y-65452000D01*
X163641518Y-65447929D01*
X163683146Y-65444287D01*
X163685428Y-65443624D01*
X163687794Y-65443392D01*
X163727764Y-65431324D01*
X163767858Y-65419676D01*
X163769968Y-65418582D01*
X163772244Y-65417895D01*
X163809097Y-65398299D01*
X163846177Y-65379079D01*
X163848036Y-65377595D01*
X163850133Y-65376480D01*
X163882463Y-65350113D01*
X163915119Y-65324044D01*
X163918424Y-65320784D01*
X163918495Y-65320726D01*
X163918550Y-65320660D01*
X163919612Y-65319612D01*
X164319612Y-64919613D01*
X164346128Y-64887331D01*
X164372951Y-64855365D01*
X164374095Y-64853285D01*
X164375605Y-64851446D01*
X164395352Y-64814618D01*
X164415449Y-64778062D01*
X164416167Y-64775798D01*
X164417291Y-64773702D01*
X164429490Y-64733800D01*
X164442123Y-64693976D01*
X164442388Y-64691610D01*
X164443082Y-64689341D01*
X164447296Y-64647858D01*
X164447941Y-64642106D01*
X164517601Y-64596203D01*
X164577577Y-64525833D01*
X164615573Y-64441541D01*
X164628582Y-64350000D01*
X164628582Y-63994157D01*
X164704789Y-63943237D01*
X164793237Y-63854789D01*
X164862730Y-63750785D01*
X164910597Y-63635223D01*
X164935000Y-63512542D01*
X164935000Y-63508750D01*
X164776250Y-63350000D01*
X164127000Y-63350000D01*
X164127000Y-63397000D01*
X163873000Y-63397000D01*
X163873000Y-63350000D01*
X163853000Y-63350000D01*
X163853000Y-63150000D01*
X163873000Y-63150000D01*
X163873000Y-62573750D01*
X164127000Y-62573750D01*
X164127000Y-63150000D01*
X164776250Y-63150000D01*
X164935000Y-62991250D01*
X164935000Y-62987458D01*
X164910597Y-62864777D01*
X164862730Y-62749215D01*
X164793237Y-62645211D01*
X164704789Y-62556763D01*
X164600785Y-62487270D01*
X164485223Y-62439403D01*
X164362542Y-62415000D01*
X164285750Y-62415000D01*
X164127000Y-62573750D01*
X163873000Y-62573750D01*
X163714250Y-62415000D01*
X163637458Y-62415000D01*
X163514777Y-62439403D01*
X163399215Y-62487270D01*
X163295211Y-62556763D01*
X163260000Y-62591974D01*
X163260000Y-62535750D01*
X163101250Y-62377000D01*
X162377000Y-62377000D01*
X162377000Y-62397000D01*
X162123000Y-62397000D01*
X162123000Y-62377000D01*
X161398750Y-62377000D01*
X161375000Y-62400750D01*
X161351250Y-62377000D01*
X160627000Y-62377000D01*
X160627000Y-62397000D01*
X160373000Y-62397000D01*
X160373000Y-62377000D01*
X160353000Y-62377000D01*
X160353000Y-62285750D01*
X164915000Y-62285750D01*
X164915000Y-62662542D01*
X164939403Y-62785223D01*
X164987270Y-62900785D01*
X165056763Y-63004789D01*
X165145211Y-63093237D01*
X165249215Y-63162730D01*
X165364777Y-63210597D01*
X165487458Y-63235000D01*
X165714250Y-63235000D01*
X165873000Y-63076250D01*
X165873000Y-62127000D01*
X165073750Y-62127000D01*
X164915000Y-62285750D01*
X160353000Y-62285750D01*
X160353000Y-62123000D01*
X160373000Y-62123000D01*
X160373000Y-61173750D01*
X160627000Y-61173750D01*
X160627000Y-62123000D01*
X161351250Y-62123000D01*
X161375000Y-62099250D01*
X161398750Y-62123000D01*
X162123000Y-62123000D01*
X162123000Y-61173750D01*
X162377000Y-61173750D01*
X162377000Y-62123000D01*
X163101250Y-62123000D01*
X163260000Y-61964250D01*
X163260000Y-61587458D01*
X163235597Y-61464777D01*
X163187730Y-61349215D01*
X163179875Y-61337458D01*
X164915000Y-61337458D01*
X164915000Y-61714250D01*
X165073750Y-61873000D01*
X165873000Y-61873000D01*
X165873000Y-60923750D01*
X165714250Y-60765000D01*
X165487458Y-60765000D01*
X165364777Y-60789403D01*
X165249215Y-60837270D01*
X165145211Y-60906763D01*
X165056763Y-60995211D01*
X164987270Y-61099215D01*
X164939403Y-61214777D01*
X164915000Y-61337458D01*
X163179875Y-61337458D01*
X163118237Y-61245211D01*
X163029789Y-61156763D01*
X162925785Y-61087270D01*
X162810223Y-61039403D01*
X162687542Y-61015000D01*
X162535750Y-61015000D01*
X162377000Y-61173750D01*
X162123000Y-61173750D01*
X161964250Y-61015000D01*
X161812458Y-61015000D01*
X161689777Y-61039403D01*
X161574215Y-61087270D01*
X161470211Y-61156763D01*
X161381763Y-61245211D01*
X161375000Y-61255333D01*
X161368237Y-61245211D01*
X161279789Y-61156763D01*
X161175785Y-61087270D01*
X161060223Y-61039403D01*
X160937542Y-61015000D01*
X160785750Y-61015000D01*
X160627000Y-61173750D01*
X160373000Y-61173750D01*
X160214250Y-61015000D01*
X160062458Y-61015000D01*
X159939777Y-61039403D01*
X159824215Y-61087270D01*
X159760000Y-61130177D01*
X159760000Y-60937458D01*
X159735597Y-60814777D01*
X159687730Y-60699215D01*
X159618237Y-60595211D01*
X159529789Y-60506763D01*
X159425785Y-60437270D01*
X159310223Y-60389403D01*
X159187542Y-60365000D01*
X158785750Y-60365000D01*
X158627000Y-60523750D01*
X158627000Y-61623000D01*
X158647000Y-61623000D01*
X158647000Y-61877000D01*
X158627000Y-61877000D01*
X158627000Y-62976250D01*
X158785750Y-63135000D01*
X159187542Y-63135000D01*
X159310223Y-63110597D01*
X159425785Y-63062730D01*
X159508836Y-63007237D01*
X159514403Y-63035223D01*
X159562270Y-63150785D01*
X159631763Y-63254789D01*
X159720211Y-63343237D01*
X159824215Y-63412730D01*
X159829124Y-63414763D01*
X159809427Y-63458459D01*
X159796418Y-63550000D01*
X159796418Y-64750000D01*
X159800571Y-64802074D01*
X159827922Y-64890396D01*
X159878797Y-64967601D01*
X159949167Y-65027577D01*
X160033459Y-65065573D01*
X160043742Y-65067034D01*
X158552000Y-66558776D01*
X158552000Y-65850000D01*
X158547929Y-65808478D01*
X158544287Y-65766854D01*
X158543624Y-65764572D01*
X158543392Y-65762206D01*
X158531324Y-65722236D01*
X158519676Y-65682142D01*
X158518582Y-65680032D01*
X158517895Y-65677756D01*
X158498299Y-65640903D01*
X158479079Y-65603823D01*
X158477595Y-65601964D01*
X158476480Y-65599867D01*
X158450093Y-65567513D01*
X158424044Y-65534882D01*
X158420785Y-65531578D01*
X158420726Y-65531505D01*
X158420659Y-65531449D01*
X158419612Y-65530388D01*
X158217806Y-65328582D01*
X159125000Y-65328582D01*
X159177074Y-65324429D01*
X159265396Y-65297078D01*
X159342601Y-65246203D01*
X159402577Y-65175833D01*
X159440573Y-65091541D01*
X159453582Y-65000000D01*
X159453582Y-63500000D01*
X159449429Y-63447926D01*
X159422078Y-63359604D01*
X159371203Y-63282399D01*
X159300833Y-63222423D01*
X159216541Y-63184427D01*
X159125000Y-63171418D01*
X157875000Y-63171418D01*
X157822926Y-63175571D01*
X157734604Y-63202922D01*
X157657399Y-63253797D01*
X157597423Y-63324167D01*
X157559427Y-63408459D01*
X157546418Y-63500000D01*
X157546418Y-64689358D01*
X157487776Y-64748000D01*
X157014874Y-64748000D01*
X157017601Y-64746203D01*
X157077577Y-64675833D01*
X157115573Y-64591541D01*
X157128582Y-64500000D01*
X157128582Y-64100000D01*
X157124429Y-64047926D01*
X157097078Y-63959604D01*
X157046203Y-63882399D01*
X156975833Y-63822423D01*
X156952000Y-63811680D01*
X156952000Y-62626510D01*
X156952577Y-62625833D01*
X156990573Y-62541541D01*
X157003582Y-62450000D01*
X157003582Y-62444157D01*
X157079789Y-62393237D01*
X157168237Y-62304789D01*
X157237730Y-62200785D01*
X157240000Y-62195305D01*
X157240000Y-62562542D01*
X157264403Y-62685223D01*
X157312270Y-62800785D01*
X157381763Y-62904789D01*
X157470211Y-62993237D01*
X157574215Y-63062730D01*
X157689777Y-63110597D01*
X157812458Y-63135000D01*
X158214250Y-63135000D01*
X158373000Y-62976250D01*
X158373000Y-61877000D01*
X157398750Y-61877000D01*
X157310000Y-61965750D01*
X157310000Y-61983750D01*
X157306481Y-61980231D01*
X157309203Y-61966547D01*
X157310000Y-61965750D01*
X157310000Y-61962542D01*
X157309203Y-61966547D01*
X157301000Y-61974750D01*
X157151250Y-61825000D01*
X156700206Y-61825000D01*
X156675000Y-61821418D01*
X156353000Y-61821418D01*
X156353000Y-61675000D01*
X156412500Y-61675000D01*
X156412500Y-61123750D01*
X156587500Y-61123750D01*
X156587500Y-61675000D01*
X157151250Y-61675000D01*
X157301000Y-61525250D01*
X157309203Y-61533453D01*
X157310000Y-61537458D01*
X157310000Y-61534250D01*
X157398750Y-61623000D01*
X158373000Y-61623000D01*
X158373000Y-60523750D01*
X158214250Y-60365000D01*
X157812458Y-60365000D01*
X157689777Y-60389403D01*
X157574215Y-60437270D01*
X157470211Y-60506763D01*
X157381763Y-60595211D01*
X157312270Y-60699215D01*
X157264403Y-60814777D01*
X157240000Y-60937458D01*
X157240000Y-61304695D01*
X157237730Y-61299215D01*
X157168237Y-61195211D01*
X157079789Y-61106763D01*
X156975785Y-61037270D01*
X156860223Y-60989403D01*
X156744805Y-60966445D01*
X156587500Y-61123750D01*
X156412500Y-61123750D01*
X156255195Y-60966445D01*
X156139777Y-60989403D01*
X156024215Y-61037270D01*
X155920211Y-61106763D01*
X155831763Y-61195211D01*
X155762270Y-61299215D01*
X155741010Y-61350542D01*
X155741010Y-60965000D01*
X156253750Y-60965000D01*
X156255195Y-60966445D01*
X156262458Y-60965000D01*
X156737542Y-60965000D01*
X156744805Y-60966445D01*
X156746250Y-60965000D01*
X156737542Y-60965000D01*
X156262458Y-60965000D01*
X156253750Y-60965000D01*
X155741010Y-60965000D01*
X155741010Y-60292214D01*
X156931225Y-59102000D01*
X158522000Y-59102000D01*
X158563518Y-59097929D01*
X158605146Y-59094287D01*
X158607428Y-59093624D01*
X158609794Y-59093392D01*
X158649764Y-59081324D01*
X158689858Y-59069676D01*
X158691968Y-59068582D01*
X158694244Y-59067895D01*
X158731097Y-59048299D01*
X158768177Y-59029079D01*
X158770036Y-59027595D01*
X158772133Y-59026480D01*
X158804463Y-59000113D01*
X158837119Y-58974044D01*
X158840424Y-58970784D01*
X158840495Y-58970726D01*
X158840550Y-58970660D01*
X158841612Y-58969612D01*
X159730612Y-58080612D01*
X159757108Y-58048356D01*
X159783951Y-58016365D01*
X159785095Y-58014285D01*
X159786605Y-58012446D01*
X159806342Y-57975637D01*
X159826449Y-57939062D01*
X159827168Y-57936795D01*
X159828291Y-57934701D01*
X159840485Y-57894814D01*
X159853123Y-57854976D01*
X159853388Y-57852610D01*
X159854082Y-57850341D01*
X159858300Y-57808817D01*
X159862956Y-57767311D01*
X159862988Y-57762672D01*
X159862998Y-57762577D01*
X159862990Y-57762488D01*
X159863000Y-57761000D01*
X159863000Y-56488564D01*
X159904694Y-56481212D01*
X160238739Y-56351645D01*
X160541256Y-56159662D01*
X160800722Y-55912576D01*
X161007254Y-55619798D01*
X161152985Y-55292481D01*
X161232364Y-54943092D01*
X161238078Y-54533853D01*
X161168485Y-54182384D01*
X161031951Y-53851125D01*
X160833674Y-53552695D01*
X160581208Y-53298461D01*
X160284170Y-53098106D01*
X159953873Y-52959262D01*
X159602898Y-52887217D01*
X159244613Y-52884716D01*
X158892666Y-52951853D01*
X158560463Y-53086072D01*
X158260656Y-53282260D01*
X158004665Y-53532945D01*
X157802241Y-53828577D01*
X157722595Y-54014405D01*
X157602951Y-53724125D01*
X157404674Y-53425695D01*
X157152208Y-53171461D01*
X156855170Y-52971106D01*
X156524873Y-52832262D01*
X156173898Y-52760217D01*
X155815613Y-52757716D01*
X155463666Y-52824853D01*
X155131463Y-52959072D01*
X154831656Y-53155260D01*
X154575665Y-53405945D01*
X154373241Y-53701577D01*
X154232094Y-54030897D01*
X154157601Y-54381361D01*
X154152599Y-54739619D01*
X154217277Y-55092026D01*
X154349174Y-55425159D01*
X154543264Y-55726328D01*
X154792156Y-55984062D01*
X155086368Y-56188545D01*
X155414694Y-56331988D01*
X155530000Y-56357340D01*
X155530000Y-58335776D01*
X154519388Y-59346388D01*
X154492892Y-59378644D01*
X154466049Y-59410635D01*
X154464905Y-59412715D01*
X154463395Y-59414554D01*
X154443658Y-59451363D01*
X154423551Y-59487938D01*
X154422832Y-59490205D01*
X154421709Y-59492299D01*
X154409515Y-59532186D01*
X154396877Y-59572024D01*
X154396612Y-59574390D01*
X154395918Y-59576659D01*
X154391699Y-59618187D01*
X154387044Y-59659689D01*
X154387012Y-59664327D01*
X154387002Y-59664422D01*
X154387010Y-59664511D01*
X154387000Y-59666000D01*
X154387000Y-61818646D01*
X154013060Y-61444706D01*
X154081201Y-61399803D01*
X154141177Y-61329433D01*
X154179173Y-61245141D01*
X154192182Y-61153600D01*
X154192182Y-59426400D01*
X154188029Y-59374326D01*
X154160678Y-59286004D01*
X154109803Y-59208799D01*
X154039433Y-59148823D01*
X153955141Y-59110827D01*
X153863600Y-59097818D01*
X152202000Y-59097818D01*
X152202000Y-56304222D01*
X152237612Y-56268610D01*
X152264108Y-56236354D01*
X152290951Y-56204363D01*
X152292095Y-56202283D01*
X152293605Y-56200444D01*
X152313342Y-56163635D01*
X152333449Y-56127060D01*
X152334168Y-56124793D01*
X152335291Y-56122699D01*
X152347485Y-56082812D01*
X152360123Y-56042974D01*
X152360388Y-56040608D01*
X152361082Y-56038339D01*
X152365300Y-55996815D01*
X152369956Y-55955309D01*
X152369988Y-55950670D01*
X152369998Y-55950575D01*
X152369990Y-55950486D01*
X152370000Y-55948998D01*
X152370000Y-54773224D01*
X154645225Y-52498000D01*
X163160776Y-52498000D01*
X167048000Y-56385224D01*
X167048000Y-56385224D01*
G37*
X167048000Y-56385224D02*
X167048000Y-61184365D01*
X167012730Y-61099215D01*
X166943237Y-60995211D01*
X166854789Y-60906763D01*
X166750785Y-60837270D01*
X166635223Y-60789403D01*
X166512542Y-60765000D01*
X166285750Y-60765000D01*
X166127000Y-60923750D01*
X166127000Y-61873000D01*
X166147000Y-61873000D01*
X166147000Y-62127000D01*
X166127000Y-62127000D01*
X166127000Y-63076250D01*
X166285750Y-63235000D01*
X166512542Y-63235000D01*
X166635223Y-63210597D01*
X166750785Y-63162730D01*
X166854789Y-63093237D01*
X166943237Y-63004789D01*
X167012730Y-62900785D01*
X167048000Y-62815635D01*
X167048000Y-64978776D01*
X166625199Y-65401577D01*
X166612533Y-65411907D01*
X166579902Y-65437956D01*
X166576598Y-65441215D01*
X166576525Y-65441274D01*
X166576469Y-65441341D01*
X166575408Y-65442388D01*
X166452000Y-65565796D01*
X166452000Y-65128422D01*
X166502074Y-65124429D01*
X166590396Y-65097078D01*
X166667601Y-65046203D01*
X166727577Y-64975833D01*
X166765573Y-64891541D01*
X166778582Y-64800000D01*
X166778582Y-63600000D01*
X166774429Y-63547926D01*
X166747078Y-63459604D01*
X166696203Y-63382399D01*
X166625833Y-63322423D01*
X166541541Y-63284427D01*
X166450000Y-63271418D01*
X165550000Y-63271418D01*
X165497926Y-63275571D01*
X165409604Y-63302922D01*
X165332399Y-63353797D01*
X165272423Y-63424167D01*
X165234427Y-63508459D01*
X165221418Y-63600000D01*
X165221418Y-64800000D01*
X165225571Y-64852074D01*
X165252922Y-64940396D01*
X165303797Y-65017601D01*
X165374167Y-65077577D01*
X165458459Y-65115573D01*
X165548000Y-65128298D01*
X165548000Y-65716776D01*
X165016766Y-66248010D01*
X162493579Y-66248011D01*
X162452057Y-66252082D01*
X162410433Y-66255724D01*
X162408151Y-66256387D01*
X162405785Y-66256619D01*
X162365815Y-66268687D01*
X162325721Y-66280335D01*
X162323611Y-66281429D01*
X162321335Y-66282116D01*
X162284482Y-66301712D01*
X162247402Y-66320932D01*
X162245543Y-66322416D01*
X162243446Y-66323531D01*
X162211092Y-66349918D01*
X162178461Y-66375967D01*
X162175157Y-66379226D01*
X162175084Y-66379285D01*
X162175028Y-66379352D01*
X162173967Y-66380399D01*
X161102673Y-67451693D01*
X161102501Y-67451783D01*
X161101265Y-67452776D01*
X161099867Y-67453520D01*
X161081339Y-67468631D01*
X160962542Y-67445000D01*
X160958750Y-67445000D01*
X160800000Y-67603750D01*
X160800000Y-68753000D01*
X160821418Y-68753000D01*
X160821418Y-69007000D01*
X160800000Y-69007000D01*
X160800000Y-69027000D01*
X160600000Y-69027000D01*
X160600000Y-69007000D01*
X160578582Y-69007000D01*
X160578582Y-68753000D01*
X160600000Y-68753000D01*
X160600000Y-67603750D01*
X160502000Y-67505750D01*
X160502000Y-67216634D01*
X161562625Y-66156010D01*
X162277398Y-66156010D01*
X162318916Y-66151939D01*
X162360544Y-66148297D01*
X162362826Y-66147634D01*
X162365192Y-66147402D01*
X162405162Y-66135334D01*
X162445256Y-66123686D01*
X162447366Y-66122592D01*
X162449642Y-66121905D01*
X162486495Y-66102309D01*
X162523575Y-66083089D01*
X162525434Y-66081605D01*
X162527531Y-66080490D01*
X162559861Y-66054123D01*
X162592517Y-66028054D01*
X162595822Y-66024794D01*
X162595893Y-66024736D01*
X162595948Y-66024670D01*
X162597010Y-66023622D01*
X163168633Y-65452000D01*
X163600000Y-65452000D01*
X163641518Y-65447929D01*
X163683146Y-65444287D01*
X163685428Y-65443624D01*
X163687794Y-65443392D01*
X163727764Y-65431324D01*
X163767858Y-65419676D01*
X163769968Y-65418582D01*
X163772244Y-65417895D01*
X163809097Y-65398299D01*
X163846177Y-65379079D01*
X163848036Y-65377595D01*
X163850133Y-65376480D01*
X163882463Y-65350113D01*
X163915119Y-65324044D01*
X163918424Y-65320784D01*
X163918495Y-65320726D01*
X163918550Y-65320660D01*
X163919612Y-65319612D01*
X164319612Y-64919613D01*
X164346128Y-64887331D01*
X164372951Y-64855365D01*
X164374095Y-64853285D01*
X164375605Y-64851446D01*
X164395352Y-64814618D01*
X164415449Y-64778062D01*
X164416167Y-64775798D01*
X164417291Y-64773702D01*
X164429490Y-64733800D01*
X164442123Y-64693976D01*
X164442388Y-64691610D01*
X164443082Y-64689341D01*
X164447296Y-64647858D01*
X164447941Y-64642106D01*
X164517601Y-64596203D01*
X164577577Y-64525833D01*
X164615573Y-64441541D01*
X164628582Y-64350000D01*
X164628582Y-63994157D01*
X164704789Y-63943237D01*
X164793237Y-63854789D01*
X164862730Y-63750785D01*
X164910597Y-63635223D01*
X164935000Y-63512542D01*
X164935000Y-63508750D01*
X164776250Y-63350000D01*
X164127000Y-63350000D01*
X164127000Y-63397000D01*
X163873000Y-63397000D01*
X163873000Y-63350000D01*
X163853000Y-63350000D01*
X163853000Y-63150000D01*
X163873000Y-63150000D01*
X163873000Y-62573750D01*
X164127000Y-62573750D01*
X164127000Y-63150000D01*
X164776250Y-63150000D01*
X164935000Y-62991250D01*
X164935000Y-62987458D01*
X164910597Y-62864777D01*
X164862730Y-62749215D01*
X164793237Y-62645211D01*
X164704789Y-62556763D01*
X164600785Y-62487270D01*
X164485223Y-62439403D01*
X164362542Y-62415000D01*
X164285750Y-62415000D01*
X164127000Y-62573750D01*
X163873000Y-62573750D01*
X163714250Y-62415000D01*
X163637458Y-62415000D01*
X163514777Y-62439403D01*
X163399215Y-62487270D01*
X163295211Y-62556763D01*
X163260000Y-62591974D01*
X163260000Y-62535750D01*
X163101250Y-62377000D01*
X162377000Y-62377000D01*
X162377000Y-62397000D01*
X162123000Y-62397000D01*
X162123000Y-62377000D01*
X161398750Y-62377000D01*
X161375000Y-62400750D01*
X161351250Y-62377000D01*
X160627000Y-62377000D01*
X160627000Y-62397000D01*
X160373000Y-62397000D01*
X160373000Y-62377000D01*
X160353000Y-62377000D01*
X160353000Y-62285750D01*
X164915000Y-62285750D01*
X164915000Y-62662542D01*
X164939403Y-62785223D01*
X164987270Y-62900785D01*
X165056763Y-63004789D01*
X165145211Y-63093237D01*
X165249215Y-63162730D01*
X165364777Y-63210597D01*
X165487458Y-63235000D01*
X165714250Y-63235000D01*
X165873000Y-63076250D01*
X165873000Y-62127000D01*
X165073750Y-62127000D01*
X164915000Y-62285750D01*
X160353000Y-62285750D01*
X160353000Y-62123000D01*
X160373000Y-62123000D01*
X160373000Y-61173750D01*
X160627000Y-61173750D01*
X160627000Y-62123000D01*
X161351250Y-62123000D01*
X161375000Y-62099250D01*
X161398750Y-62123000D01*
X162123000Y-62123000D01*
X162123000Y-61173750D01*
X162377000Y-61173750D01*
X162377000Y-62123000D01*
X163101250Y-62123000D01*
X163260000Y-61964250D01*
X163260000Y-61587458D01*
X163235597Y-61464777D01*
X163187730Y-61349215D01*
X163179875Y-61337458D01*
X164915000Y-61337458D01*
X164915000Y-61714250D01*
X165073750Y-61873000D01*
X165873000Y-61873000D01*
X165873000Y-60923750D01*
X165714250Y-60765000D01*
X165487458Y-60765000D01*
X165364777Y-60789403D01*
X165249215Y-60837270D01*
X165145211Y-60906763D01*
X165056763Y-60995211D01*
X164987270Y-61099215D01*
X164939403Y-61214777D01*
X164915000Y-61337458D01*
X163179875Y-61337458D01*
X163118237Y-61245211D01*
X163029789Y-61156763D01*
X162925785Y-61087270D01*
X162810223Y-61039403D01*
X162687542Y-61015000D01*
X162535750Y-61015000D01*
X162377000Y-61173750D01*
X162123000Y-61173750D01*
X161964250Y-61015000D01*
X161812458Y-61015000D01*
X161689777Y-61039403D01*
X161574215Y-61087270D01*
X161470211Y-61156763D01*
X161381763Y-61245211D01*
X161375000Y-61255333D01*
X161368237Y-61245211D01*
X161279789Y-61156763D01*
X161175785Y-61087270D01*
X161060223Y-61039403D01*
X160937542Y-61015000D01*
X160785750Y-61015000D01*
X160627000Y-61173750D01*
X160373000Y-61173750D01*
X160214250Y-61015000D01*
X160062458Y-61015000D01*
X159939777Y-61039403D01*
X159824215Y-61087270D01*
X159760000Y-61130177D01*
X159760000Y-60937458D01*
X159735597Y-60814777D01*
X159687730Y-60699215D01*
X159618237Y-60595211D01*
X159529789Y-60506763D01*
X159425785Y-60437270D01*
X159310223Y-60389403D01*
X159187542Y-60365000D01*
X158785750Y-60365000D01*
X158627000Y-60523750D01*
X158627000Y-61623000D01*
X158647000Y-61623000D01*
X158647000Y-61877000D01*
X158627000Y-61877000D01*
X158627000Y-62976250D01*
X158785750Y-63135000D01*
X159187542Y-63135000D01*
X159310223Y-63110597D01*
X159425785Y-63062730D01*
X159508836Y-63007237D01*
X159514403Y-63035223D01*
X159562270Y-63150785D01*
X159631763Y-63254789D01*
X159720211Y-63343237D01*
X159824215Y-63412730D01*
X159829124Y-63414763D01*
X159809427Y-63458459D01*
X159796418Y-63550000D01*
X159796418Y-64750000D01*
X159800571Y-64802074D01*
X159827922Y-64890396D01*
X159878797Y-64967601D01*
X159949167Y-65027577D01*
X160033459Y-65065573D01*
X160043742Y-65067034D01*
X158552000Y-66558776D01*
X158552000Y-65850000D01*
X158547929Y-65808478D01*
X158544287Y-65766854D01*
X158543624Y-65764572D01*
X158543392Y-65762206D01*
X158531324Y-65722236D01*
X158519676Y-65682142D01*
X158518582Y-65680032D01*
X158517895Y-65677756D01*
X158498299Y-65640903D01*
X158479079Y-65603823D01*
X158477595Y-65601964D01*
X158476480Y-65599867D01*
X158450093Y-65567513D01*
X158424044Y-65534882D01*
X158420785Y-65531578D01*
X158420726Y-65531505D01*
X158420659Y-65531449D01*
X158419612Y-65530388D01*
X158217806Y-65328582D01*
X159125000Y-65328582D01*
X159177074Y-65324429D01*
X159265396Y-65297078D01*
X159342601Y-65246203D01*
X159402577Y-65175833D01*
X159440573Y-65091541D01*
X159453582Y-65000000D01*
X159453582Y-63500000D01*
X159449429Y-63447926D01*
X159422078Y-63359604D01*
X159371203Y-63282399D01*
X159300833Y-63222423D01*
X159216541Y-63184427D01*
X159125000Y-63171418D01*
X157875000Y-63171418D01*
X157822926Y-63175571D01*
X157734604Y-63202922D01*
X157657399Y-63253797D01*
X157597423Y-63324167D01*
X157559427Y-63408459D01*
X157546418Y-63500000D01*
X157546418Y-64689358D01*
X157487776Y-64748000D01*
X157014874Y-64748000D01*
X157017601Y-64746203D01*
X157077577Y-64675833D01*
X157115573Y-64591541D01*
X157128582Y-64500000D01*
X157128582Y-64100000D01*
X157124429Y-64047926D01*
X157097078Y-63959604D01*
X157046203Y-63882399D01*
X156975833Y-63822423D01*
X156952000Y-63811680D01*
X156952000Y-62626510D01*
X156952577Y-62625833D01*
X156990573Y-62541541D01*
X157003582Y-62450000D01*
X157003582Y-62444157D01*
X157079789Y-62393237D01*
X157168237Y-62304789D01*
X157237730Y-62200785D01*
X157240000Y-62195305D01*
X157240000Y-62562542D01*
X157264403Y-62685223D01*
X157312270Y-62800785D01*
X157381763Y-62904789D01*
X157470211Y-62993237D01*
X157574215Y-63062730D01*
X157689777Y-63110597D01*
X157812458Y-63135000D01*
X158214250Y-63135000D01*
X158373000Y-62976250D01*
X158373000Y-61877000D01*
X157398750Y-61877000D01*
X157310000Y-61965750D01*
X157310000Y-61983750D01*
X157306481Y-61980231D01*
X157309203Y-61966547D01*
X157310000Y-61965750D01*
X157310000Y-61962542D01*
X157309203Y-61966547D01*
X157301000Y-61974750D01*
X157151250Y-61825000D01*
X156700206Y-61825000D01*
X156675000Y-61821418D01*
X156353000Y-61821418D01*
X156353000Y-61675000D01*
X156412500Y-61675000D01*
X156412500Y-61123750D01*
X156587500Y-61123750D01*
X156587500Y-61675000D01*
X157151250Y-61675000D01*
X157301000Y-61525250D01*
X157309203Y-61533453D01*
X157310000Y-61537458D01*
X157310000Y-61534250D01*
X157398750Y-61623000D01*
X158373000Y-61623000D01*
X158373000Y-60523750D01*
X158214250Y-60365000D01*
X157812458Y-60365000D01*
X157689777Y-60389403D01*
X157574215Y-60437270D01*
X157470211Y-60506763D01*
X157381763Y-60595211D01*
X157312270Y-60699215D01*
X157264403Y-60814777D01*
X157240000Y-60937458D01*
X157240000Y-61304695D01*
X157237730Y-61299215D01*
X157168237Y-61195211D01*
X157079789Y-61106763D01*
X156975785Y-61037270D01*
X156860223Y-60989403D01*
X156744805Y-60966445D01*
X156587500Y-61123750D01*
X156412500Y-61123750D01*
X156255195Y-60966445D01*
X156139777Y-60989403D01*
X156024215Y-61037270D01*
X155920211Y-61106763D01*
X155831763Y-61195211D01*
X155762270Y-61299215D01*
X155741010Y-61350542D01*
X155741010Y-60965000D01*
X156253750Y-60965000D01*
X156255195Y-60966445D01*
X156262458Y-60965000D01*
X156737542Y-60965000D01*
X156744805Y-60966445D01*
X156746250Y-60965000D01*
X156737542Y-60965000D01*
X156262458Y-60965000D01*
X156253750Y-60965000D01*
X155741010Y-60965000D01*
X155741010Y-60292214D01*
X156931225Y-59102000D01*
X158522000Y-59102000D01*
X158563518Y-59097929D01*
X158605146Y-59094287D01*
X158607428Y-59093624D01*
X158609794Y-59093392D01*
X158649764Y-59081324D01*
X158689858Y-59069676D01*
X158691968Y-59068582D01*
X158694244Y-59067895D01*
X158731097Y-59048299D01*
X158768177Y-59029079D01*
X158770036Y-59027595D01*
X158772133Y-59026480D01*
X158804463Y-59000113D01*
X158837119Y-58974044D01*
X158840424Y-58970784D01*
X158840495Y-58970726D01*
X158840550Y-58970660D01*
X158841612Y-58969612D01*
X159730612Y-58080612D01*
X159757108Y-58048356D01*
X159783951Y-58016365D01*
X159785095Y-58014285D01*
X159786605Y-58012446D01*
X159806342Y-57975637D01*
X159826449Y-57939062D01*
X159827168Y-57936795D01*
X159828291Y-57934701D01*
X159840485Y-57894814D01*
X159853123Y-57854976D01*
X159853388Y-57852610D01*
X159854082Y-57850341D01*
X159858300Y-57808817D01*
X159862956Y-57767311D01*
X159862988Y-57762672D01*
X159862998Y-57762577D01*
X159862990Y-57762488D01*
X159863000Y-57761000D01*
X159863000Y-56488564D01*
X159904694Y-56481212D01*
X160238739Y-56351645D01*
X160541256Y-56159662D01*
X160800722Y-55912576D01*
X161007254Y-55619798D01*
X161152985Y-55292481D01*
X161232364Y-54943092D01*
X161238078Y-54533853D01*
X161168485Y-54182384D01*
X161031951Y-53851125D01*
X160833674Y-53552695D01*
X160581208Y-53298461D01*
X160284170Y-53098106D01*
X159953873Y-52959262D01*
X159602898Y-52887217D01*
X159244613Y-52884716D01*
X158892666Y-52951853D01*
X158560463Y-53086072D01*
X158260656Y-53282260D01*
X158004665Y-53532945D01*
X157802241Y-53828577D01*
X157722595Y-54014405D01*
X157602951Y-53724125D01*
X157404674Y-53425695D01*
X157152208Y-53171461D01*
X156855170Y-52971106D01*
X156524873Y-52832262D01*
X156173898Y-52760217D01*
X155815613Y-52757716D01*
X155463666Y-52824853D01*
X155131463Y-52959072D01*
X154831656Y-53155260D01*
X154575665Y-53405945D01*
X154373241Y-53701577D01*
X154232094Y-54030897D01*
X154157601Y-54381361D01*
X154152599Y-54739619D01*
X154217277Y-55092026D01*
X154349174Y-55425159D01*
X154543264Y-55726328D01*
X154792156Y-55984062D01*
X155086368Y-56188545D01*
X155414694Y-56331988D01*
X155530000Y-56357340D01*
X155530000Y-58335776D01*
X154519388Y-59346388D01*
X154492892Y-59378644D01*
X154466049Y-59410635D01*
X154464905Y-59412715D01*
X154463395Y-59414554D01*
X154443658Y-59451363D01*
X154423551Y-59487938D01*
X154422832Y-59490205D01*
X154421709Y-59492299D01*
X154409515Y-59532186D01*
X154396877Y-59572024D01*
X154396612Y-59574390D01*
X154395918Y-59576659D01*
X154391699Y-59618187D01*
X154387044Y-59659689D01*
X154387012Y-59664327D01*
X154387002Y-59664422D01*
X154387010Y-59664511D01*
X154387000Y-59666000D01*
X154387000Y-61818646D01*
X154013060Y-61444706D01*
X154081201Y-61399803D01*
X154141177Y-61329433D01*
X154179173Y-61245141D01*
X154192182Y-61153600D01*
X154192182Y-59426400D01*
X154188029Y-59374326D01*
X154160678Y-59286004D01*
X154109803Y-59208799D01*
X154039433Y-59148823D01*
X153955141Y-59110827D01*
X153863600Y-59097818D01*
X152202000Y-59097818D01*
X152202000Y-56304222D01*
X152237612Y-56268610D01*
X152264108Y-56236354D01*
X152290951Y-56204363D01*
X152292095Y-56202283D01*
X152293605Y-56200444D01*
X152313342Y-56163635D01*
X152333449Y-56127060D01*
X152334168Y-56124793D01*
X152335291Y-56122699D01*
X152347485Y-56082812D01*
X152360123Y-56042974D01*
X152360388Y-56040608D01*
X152361082Y-56038339D01*
X152365300Y-55996815D01*
X152369956Y-55955309D01*
X152369988Y-55950670D01*
X152369998Y-55950575D01*
X152369990Y-55950486D01*
X152370000Y-55948998D01*
X152370000Y-54773224D01*
X154645225Y-52498000D01*
X163160776Y-52498000D01*
X167048000Y-56385224D01*
M02*
