G04 #@! TF.GenerationSoftware,KiCad,Pcbnew,no-vcs-found-be10de8~57~ubuntu16.10.1*
G04 #@! TF.CreationDate,2017-03-16T11:48:35+01:00*
G04 #@! TF.ProjectId,SW48A2,5357343841322E6B696361645F706362,rev?*
G04 #@! TF.FileFunction,Copper,L2,Bot,Signal*
G04 #@! TF.FilePolarity,Positive*
%FSLAX46Y46*%
G04 Gerber Fmt 4.6, Leading zero omitted, Abs format (unit mm)*
G04 Created by KiCad (PCBNEW no-vcs-found-be10de8~57~ubuntu16.10.1) date Thu Mar 16 11:48:35 2017*
%MOMM*%
%LPD*%
G01*
G04 APERTURE LIST*
%ADD10C,0.100000*%
%ADD11C,0.150000*%
%ADD12C,0.300000*%
%ADD13C,0.400000*%
%ADD14C,0.400000*%
%ADD15O,1.998980X1.998980*%
%ADD16R,1.998980X1.998980*%
%ADD17R,1.727200X1.727200*%
%ADD18O,1.727200X1.727200*%
%ADD19C,3.000000*%
%ADD20C,0.600000*%
%ADD21C,0.250000*%
G04 APERTURE END LIST*
D10*
D11*
X177002200Y-166007200D02*
X177002200Y-198007200D01*
X285002200Y-198007200D01*
X285002200Y-166007200D01*
X177002200Y-166007200D01*
D10*
D11*
X10000000Y-10000000D02*
X10000000Y-200007200D01*
X287002200Y-200007200D01*
X287002200Y-10000000D01*
X10000000Y-10000000D01*
D10*
D11*
X12000000Y-12000000D02*
X12000000Y-198007200D01*
X285002200Y-198007200D01*
X285002200Y-12000000D01*
X12000000Y-12000000D01*
D10*
D11*
X60000000Y-12000000D02*
X60000000Y-10000000D01*
D10*
D11*
X110000000Y-12000000D02*
X110000000Y-10000000D01*
D10*
D11*
X160000000Y-12000000D02*
X160000000Y-10000000D01*
D10*
D11*
X210000000Y-12000000D02*
X210000000Y-10000000D01*
D10*
D11*
X260000000Y-12000000D02*
X260000000Y-10000000D01*
D10*
D11*
X36065476Y-11588095D02*
X35322619Y-11588095D01*
X35694047Y-11588095D02*
X35694047Y-10288095D01*
X35570238Y-10473809D01*
X35446428Y-10597619D01*
X35322619Y-10659523D01*
D10*
D11*
X85322619Y-10411904D02*
X85384523Y-10350000D01*
X85508333Y-10288095D01*
X85817857Y-10288095D01*
X85941666Y-10350000D01*
X86003571Y-10411904D01*
X86065476Y-10535714D01*
X86065476Y-10659523D01*
X86003571Y-10845238D01*
X85260714Y-11588095D01*
X86065476Y-11588095D01*
D10*
D11*
X135260714Y-10288095D02*
X136065476Y-10288095D01*
X135632142Y-10783333D01*
X135817857Y-10783333D01*
X135941666Y-10845238D01*
X136003571Y-10907142D01*
X136065476Y-11030952D01*
X136065476Y-11340476D01*
X136003571Y-11464285D01*
X135941666Y-11526190D01*
X135817857Y-11588095D01*
X135446428Y-11588095D01*
X135322619Y-11526190D01*
X135260714Y-11464285D01*
D10*
D11*
X185941666Y-10721428D02*
X185941666Y-11588095D01*
X185632142Y-10226190D02*
X185322619Y-11154761D01*
X186127380Y-11154761D01*
D10*
D11*
X236003571Y-10288095D02*
X235384523Y-10288095D01*
X235322619Y-10907142D01*
X235384523Y-10845238D01*
X235508333Y-10783333D01*
X235817857Y-10783333D01*
X235941666Y-10845238D01*
X236003571Y-10907142D01*
X236065476Y-11030952D01*
X236065476Y-11340476D01*
X236003571Y-11464285D01*
X235941666Y-11526190D01*
X235817857Y-11588095D01*
X235508333Y-11588095D01*
X235384523Y-11526190D01*
X235322619Y-11464285D01*
D10*
D11*
X285941666Y-10288095D02*
X285694047Y-10288095D01*
X285570238Y-10350000D01*
X285508333Y-10411904D01*
X285384523Y-10597619D01*
X285322619Y-10845238D01*
X285322619Y-11340476D01*
X285384523Y-11464285D01*
X285446428Y-11526190D01*
X285570238Y-11588095D01*
X285817857Y-11588095D01*
X285941666Y-11526190D01*
X286003571Y-11464285D01*
X286065476Y-11340476D01*
X286065476Y-11030952D01*
X286003571Y-10907142D01*
X285941666Y-10845238D01*
X285817857Y-10783333D01*
X285570238Y-10783333D01*
X285446428Y-10845238D01*
X285384523Y-10907142D01*
X285322619Y-11030952D01*
D10*
D11*
X60000000Y-198007200D02*
X60000000Y-200007200D01*
D10*
D11*
X110000000Y-198007200D02*
X110000000Y-200007200D01*
D10*
D11*
X160000000Y-198007200D02*
X160000000Y-200007200D01*
D10*
D11*
X210000000Y-198007200D02*
X210000000Y-200007200D01*
D10*
D11*
X260000000Y-198007200D02*
X260000000Y-200007200D01*
D10*
D11*
X36065476Y-199595295D02*
X35322619Y-199595295D01*
X35694047Y-199595295D02*
X35694047Y-198295295D01*
X35570238Y-198481009D01*
X35446428Y-198604819D01*
X35322619Y-198666723D01*
D10*
D11*
X85322619Y-198419104D02*
X85384523Y-198357200D01*
X85508333Y-198295295D01*
X85817857Y-198295295D01*
X85941666Y-198357200D01*
X86003571Y-198419104D01*
X86065476Y-198542914D01*
X86065476Y-198666723D01*
X86003571Y-198852438D01*
X85260714Y-199595295D01*
X86065476Y-199595295D01*
D10*
D11*
X135260714Y-198295295D02*
X136065476Y-198295295D01*
X135632142Y-198790533D01*
X135817857Y-198790533D01*
X135941666Y-198852438D01*
X136003571Y-198914342D01*
X136065476Y-199038152D01*
X136065476Y-199347676D01*
X136003571Y-199471485D01*
X135941666Y-199533390D01*
X135817857Y-199595295D01*
X135446428Y-199595295D01*
X135322619Y-199533390D01*
X135260714Y-199471485D01*
D10*
D11*
X185941666Y-198728628D02*
X185941666Y-199595295D01*
X185632142Y-198233390D02*
X185322619Y-199161961D01*
X186127380Y-199161961D01*
D10*
D11*
X236003571Y-198295295D02*
X235384523Y-198295295D01*
X235322619Y-198914342D01*
X235384523Y-198852438D01*
X235508333Y-198790533D01*
X235817857Y-198790533D01*
X235941666Y-198852438D01*
X236003571Y-198914342D01*
X236065476Y-199038152D01*
X236065476Y-199347676D01*
X236003571Y-199471485D01*
X235941666Y-199533390D01*
X235817857Y-199595295D01*
X235508333Y-199595295D01*
X235384523Y-199533390D01*
X235322619Y-199471485D01*
D10*
D11*
X285941666Y-198295295D02*
X285694047Y-198295295D01*
X285570238Y-198357200D01*
X285508333Y-198419104D01*
X285384523Y-198604819D01*
X285322619Y-198852438D01*
X285322619Y-199347676D01*
X285384523Y-199471485D01*
X285446428Y-199533390D01*
X285570238Y-199595295D01*
X285817857Y-199595295D01*
X285941666Y-199533390D01*
X286003571Y-199471485D01*
X286065476Y-199347676D01*
X286065476Y-199038152D01*
X286003571Y-198914342D01*
X285941666Y-198852438D01*
X285817857Y-198790533D01*
X285570238Y-198790533D01*
X285446428Y-198852438D01*
X285384523Y-198914342D01*
X285322619Y-199038152D01*
D10*
D11*
X10000000Y-60000000D02*
X12000000Y-60000000D01*
D10*
D11*
X10000000Y-110000000D02*
X12000000Y-110000000D01*
D10*
D11*
X10000000Y-160000000D02*
X12000000Y-160000000D01*
D10*
D11*
X10690476Y-35216666D02*
X11309523Y-35216666D01*
X10566666Y-35588095D02*
X11000000Y-34288095D01*
X11433333Y-35588095D01*
D10*
D11*
X11092857Y-84907142D02*
X11278571Y-84969047D01*
X11340476Y-85030952D01*
X11402380Y-85154761D01*
X11402380Y-85340476D01*
X11340476Y-85464285D01*
X11278571Y-85526190D01*
X11154761Y-85588095D01*
X10659523Y-85588095D01*
X10659523Y-84288095D01*
X11092857Y-84288095D01*
X11216666Y-84350000D01*
X11278571Y-84411904D01*
X11340476Y-84535714D01*
X11340476Y-84659523D01*
X11278571Y-84783333D01*
X11216666Y-84845238D01*
X11092857Y-84907142D01*
X10659523Y-84907142D01*
D10*
D11*
X11402380Y-135464285D02*
X11340476Y-135526190D01*
X11154761Y-135588095D01*
X11030952Y-135588095D01*
X10845238Y-135526190D01*
X10721428Y-135402380D01*
X10659523Y-135278571D01*
X10597619Y-135030952D01*
X10597619Y-134845238D01*
X10659523Y-134597619D01*
X10721428Y-134473809D01*
X10845238Y-134350000D01*
X11030952Y-134288095D01*
X11154761Y-134288095D01*
X11340476Y-134350000D01*
X11402380Y-134411904D01*
D10*
D11*
X10659523Y-185588095D02*
X10659523Y-184288095D01*
X10969047Y-184288095D01*
X11154761Y-184350000D01*
X11278571Y-184473809D01*
X11340476Y-184597619D01*
X11402380Y-184845238D01*
X11402380Y-185030952D01*
X11340476Y-185278571D01*
X11278571Y-185402380D01*
X11154761Y-185526190D01*
X10969047Y-185588095D01*
X10659523Y-185588095D01*
D10*
D11*
X287002200Y-60000000D02*
X285002200Y-60000000D01*
D10*
D11*
X287002200Y-110000000D02*
X285002200Y-110000000D01*
D10*
D11*
X287002200Y-160000000D02*
X285002200Y-160000000D01*
D10*
D11*
X285692676Y-35216666D02*
X286311723Y-35216666D01*
X285568866Y-35588095D02*
X286002200Y-34288095D01*
X286435533Y-35588095D01*
D10*
D11*
X286095057Y-84907142D02*
X286280771Y-84969047D01*
X286342676Y-85030952D01*
X286404580Y-85154761D01*
X286404580Y-85340476D01*
X286342676Y-85464285D01*
X286280771Y-85526190D01*
X286156961Y-85588095D01*
X285661723Y-85588095D01*
X285661723Y-84288095D01*
X286095057Y-84288095D01*
X286218866Y-84350000D01*
X286280771Y-84411904D01*
X286342676Y-84535714D01*
X286342676Y-84659523D01*
X286280771Y-84783333D01*
X286218866Y-84845238D01*
X286095057Y-84907142D01*
X285661723Y-84907142D01*
D10*
D11*
X286404580Y-135464285D02*
X286342676Y-135526190D01*
X286156961Y-135588095D01*
X286033152Y-135588095D01*
X285847438Y-135526190D01*
X285723628Y-135402380D01*
X285661723Y-135278571D01*
X285599819Y-135030952D01*
X285599819Y-134845238D01*
X285661723Y-134597619D01*
X285723628Y-134473809D01*
X285847438Y-134350000D01*
X286033152Y-134288095D01*
X286156961Y-134288095D01*
X286342676Y-134350000D01*
X286404580Y-134411904D01*
D10*
D11*
X285661723Y-185588095D02*
X285661723Y-184288095D01*
X285971247Y-184288095D01*
X286156961Y-184350000D01*
X286280771Y-184473809D01*
X286342676Y-184597619D01*
X286404580Y-184845238D01*
X286404580Y-185030952D01*
X286342676Y-185278571D01*
X286280771Y-185402380D01*
X286156961Y-185526190D01*
X285971247Y-185588095D01*
X285661723Y-185588095D01*
D10*
D11*
X200434342Y-193785771D02*
X200434342Y-192285771D01*
X200791485Y-192285771D01*
X201005771Y-192357200D01*
X201148628Y-192500057D01*
X201220057Y-192642914D01*
X201291485Y-192928628D01*
X201291485Y-193142914D01*
X201220057Y-193428628D01*
X201148628Y-193571485D01*
X201005771Y-193714342D01*
X200791485Y-193785771D01*
X200434342Y-193785771D01*
X202577200Y-193785771D02*
X202577200Y-193000057D01*
X202505771Y-192857200D01*
X202362914Y-192785771D01*
X202077200Y-192785771D01*
X201934342Y-192857200D01*
X202577200Y-193714342D02*
X202434342Y-193785771D01*
X202077200Y-193785771D01*
X201934342Y-193714342D01*
X201862914Y-193571485D01*
X201862914Y-193428628D01*
X201934342Y-193285771D01*
X202077200Y-193214342D01*
X202434342Y-193214342D01*
X202577200Y-193142914D01*
X203077200Y-192785771D02*
X203648628Y-192785771D01*
X203291485Y-192285771D02*
X203291485Y-193571485D01*
X203362914Y-193714342D01*
X203505771Y-193785771D01*
X203648628Y-193785771D01*
X204720057Y-193714342D02*
X204577200Y-193785771D01*
X204291485Y-193785771D01*
X204148628Y-193714342D01*
X204077200Y-193571485D01*
X204077200Y-193000057D01*
X204148628Y-192857200D01*
X204291485Y-192785771D01*
X204577200Y-192785771D01*
X204720057Y-192857200D01*
X204791485Y-193000057D01*
X204791485Y-193142914D01*
X204077200Y-193285771D01*
X205434342Y-193642914D02*
X205505771Y-193714342D01*
X205434342Y-193785771D01*
X205362914Y-193714342D01*
X205434342Y-193642914D01*
X205434342Y-193785771D01*
X205434342Y-192857200D02*
X205505771Y-192928628D01*
X205434342Y-193000057D01*
X205362914Y-192928628D01*
X205434342Y-192857200D01*
X205434342Y-193000057D01*
D10*
D11*
X177002200Y-194507200D02*
X285002200Y-194507200D01*
D10*
D11*
X178434342Y-196585771D02*
X178434342Y-195085771D01*
X179291485Y-196585771D02*
X178648628Y-195728628D01*
X179291485Y-195085771D02*
X178434342Y-195942914D01*
X179934342Y-196585771D02*
X179934342Y-195585771D01*
X179934342Y-195085771D02*
X179862914Y-195157200D01*
X179934342Y-195228628D01*
X180005771Y-195157200D01*
X179934342Y-195085771D01*
X179934342Y-195228628D01*
X181505771Y-196442914D02*
X181434342Y-196514342D01*
X181220057Y-196585771D01*
X181077200Y-196585771D01*
X180862914Y-196514342D01*
X180720057Y-196371485D01*
X180648628Y-196228628D01*
X180577200Y-195942914D01*
X180577200Y-195728628D01*
X180648628Y-195442914D01*
X180720057Y-195300057D01*
X180862914Y-195157200D01*
X181077200Y-195085771D01*
X181220057Y-195085771D01*
X181434342Y-195157200D01*
X181505771Y-195228628D01*
X182791485Y-196585771D02*
X182791485Y-195800057D01*
X182720057Y-195657200D01*
X182577200Y-195585771D01*
X182291485Y-195585771D01*
X182148628Y-195657200D01*
X182791485Y-196514342D02*
X182648628Y-196585771D01*
X182291485Y-196585771D01*
X182148628Y-196514342D01*
X182077200Y-196371485D01*
X182077200Y-196228628D01*
X182148628Y-196085771D01*
X182291485Y-196014342D01*
X182648628Y-196014342D01*
X182791485Y-195942914D01*
X184148628Y-196585771D02*
X184148628Y-195085771D01*
X184148628Y-196514342D02*
X184005771Y-196585771D01*
X183720057Y-196585771D01*
X183577200Y-196514342D01*
X183505771Y-196442914D01*
X183434342Y-196300057D01*
X183434342Y-195871485D01*
X183505771Y-195728628D01*
X183577200Y-195657200D01*
X183720057Y-195585771D01*
X184005771Y-195585771D01*
X184148628Y-195657200D01*
X186005771Y-195800057D02*
X186505771Y-195800057D01*
X186720057Y-196585771D02*
X186005771Y-196585771D01*
X186005771Y-195085771D01*
X186720057Y-195085771D01*
X187362914Y-196442914D02*
X187434342Y-196514342D01*
X187362914Y-196585771D01*
X187291485Y-196514342D01*
X187362914Y-196442914D01*
X187362914Y-196585771D01*
X188077200Y-196585771D02*
X188077200Y-195085771D01*
X188434342Y-195085771D01*
X188648628Y-195157200D01*
X188791485Y-195300057D01*
X188862914Y-195442914D01*
X188934342Y-195728628D01*
X188934342Y-195942914D01*
X188862914Y-196228628D01*
X188791485Y-196371485D01*
X188648628Y-196514342D01*
X188434342Y-196585771D01*
X188077200Y-196585771D01*
X189577200Y-196442914D02*
X189648628Y-196514342D01*
X189577200Y-196585771D01*
X189505771Y-196514342D01*
X189577200Y-196442914D01*
X189577200Y-196585771D01*
X190220057Y-196157200D02*
X190934342Y-196157200D01*
X190077200Y-196585771D02*
X190577200Y-195085771D01*
X191077200Y-196585771D01*
X191577200Y-196442914D02*
X191648628Y-196514342D01*
X191577200Y-196585771D01*
X191505771Y-196514342D01*
X191577200Y-196442914D01*
X191577200Y-196585771D01*
X194577200Y-196585771D02*
X194577200Y-195085771D01*
X194720057Y-196014342D02*
X195148628Y-196585771D01*
X195148628Y-195585771D02*
X194577200Y-196157200D01*
X195791485Y-196585771D02*
X195791485Y-195585771D01*
X195791485Y-195085771D02*
X195720057Y-195157200D01*
X195791485Y-195228628D01*
X195862914Y-195157200D01*
X195791485Y-195085771D01*
X195791485Y-195228628D01*
X197148628Y-196514342D02*
X197005771Y-196585771D01*
X196720057Y-196585771D01*
X196577200Y-196514342D01*
X196505771Y-196442914D01*
X196434342Y-196300057D01*
X196434342Y-195871485D01*
X196505771Y-195728628D01*
X196577200Y-195657200D01*
X196720057Y-195585771D01*
X197005771Y-195585771D01*
X197148628Y-195657200D01*
X198434342Y-196585771D02*
X198434342Y-195800057D01*
X198362914Y-195657200D01*
X198220057Y-195585771D01*
X197934342Y-195585771D01*
X197791485Y-195657200D01*
X198434342Y-196514342D02*
X198291485Y-196585771D01*
X197934342Y-196585771D01*
X197791485Y-196514342D01*
X197720057Y-196371485D01*
X197720057Y-196228628D01*
X197791485Y-196085771D01*
X197934342Y-196014342D01*
X198291485Y-196014342D01*
X198434342Y-195942914D01*
X199791485Y-196585771D02*
X199791485Y-195085771D01*
X199791485Y-196514342D02*
X199648628Y-196585771D01*
X199362914Y-196585771D01*
X199220057Y-196514342D01*
X199148628Y-196442914D01*
X199077200Y-196300057D01*
X199077200Y-195871485D01*
X199148628Y-195728628D01*
X199220057Y-195657200D01*
X199362914Y-195585771D01*
X199648628Y-195585771D01*
X199791485Y-195657200D01*
X201648628Y-195585771D02*
X201648628Y-196585771D01*
X201648628Y-195728628D02*
X201720057Y-195657200D01*
X201862914Y-195585771D01*
X202077200Y-195585771D01*
X202220057Y-195657200D01*
X202291485Y-195800057D01*
X202291485Y-196585771D01*
X203220057Y-196585771D02*
X203077200Y-196514342D01*
X203005771Y-196442914D01*
X202934342Y-196300057D01*
X202934342Y-195871485D01*
X203005771Y-195728628D01*
X203077200Y-195657200D01*
X203220057Y-195585771D01*
X203434342Y-195585771D01*
X203577200Y-195657200D01*
X203648628Y-195728628D01*
X203720057Y-195871485D01*
X203720057Y-196300057D01*
X203648628Y-196442914D01*
X203577200Y-196514342D01*
X203434342Y-196585771D01*
X203220057Y-196585771D01*
X204362914Y-196014342D02*
X205505771Y-196014342D01*
X206077200Y-195585771D02*
X206434342Y-196585771D01*
X206791485Y-195585771D01*
X208005771Y-196514342D02*
X207862914Y-196585771D01*
X207577200Y-196585771D01*
X207434342Y-196514342D01*
X207362914Y-196442914D01*
X207291485Y-196300057D01*
X207291485Y-195871485D01*
X207362914Y-195728628D01*
X207434342Y-195657200D01*
X207577200Y-195585771D01*
X207862914Y-195585771D01*
X208005771Y-195657200D01*
X208577200Y-196514342D02*
X208720057Y-196585771D01*
X209005771Y-196585771D01*
X209148628Y-196514342D01*
X209220057Y-196371485D01*
X209220057Y-196300057D01*
X209148628Y-196157200D01*
X209005771Y-196085771D01*
X208791485Y-196085771D01*
X208648628Y-196014342D01*
X208577200Y-195871485D01*
X208577200Y-195800057D01*
X208648628Y-195657200D01*
X208791485Y-195585771D01*
X209005771Y-195585771D01*
X209148628Y-195657200D01*
X209862914Y-196014342D02*
X211005771Y-196014342D01*
X211505771Y-195585771D02*
X212077200Y-195585771D01*
X211720057Y-196585771D02*
X211720057Y-195300057D01*
X211791485Y-195157200D01*
X211934342Y-195085771D01*
X212077200Y-195085771D01*
X212791485Y-196585771D02*
X212648628Y-196514342D01*
X212577200Y-196442914D01*
X212505771Y-196300057D01*
X212505771Y-195871485D01*
X212577200Y-195728628D01*
X212648628Y-195657200D01*
X212791485Y-195585771D01*
X213005771Y-195585771D01*
X213148628Y-195657200D01*
X213220057Y-195728628D01*
X213291485Y-195871485D01*
X213291485Y-196300057D01*
X213220057Y-196442914D01*
X213148628Y-196514342D01*
X213005771Y-196585771D01*
X212791485Y-196585771D01*
X214577200Y-195585771D02*
X214577200Y-196585771D01*
X213934342Y-195585771D02*
X213934342Y-196371485D01*
X214005771Y-196514342D01*
X214148628Y-196585771D01*
X214362914Y-196585771D01*
X214505771Y-196514342D01*
X214577200Y-196442914D01*
X215291485Y-195585771D02*
X215291485Y-196585771D01*
X215291485Y-195728628D02*
X215362914Y-195657200D01*
X215505771Y-195585771D01*
X215720057Y-195585771D01*
X215862914Y-195657200D01*
X215934342Y-195800057D01*
X215934342Y-196585771D01*
X217291485Y-196585771D02*
X217291485Y-195085771D01*
X217291485Y-196514342D02*
X217148628Y-196585771D01*
X216862914Y-196585771D01*
X216720057Y-196514342D01*
X216648628Y-196442914D01*
X216577200Y-196300057D01*
X216577200Y-195871485D01*
X216648628Y-195728628D01*
X216720057Y-195657200D01*
X216862914Y-195585771D01*
X217148628Y-195585771D01*
X217291485Y-195657200D01*
X218005771Y-196014342D02*
X219148628Y-196014342D01*
X219862914Y-196585771D02*
X219862914Y-195085771D01*
X219862914Y-195657200D02*
X220005771Y-195585771D01*
X220291485Y-195585771D01*
X220434342Y-195657200D01*
X220505771Y-195728628D01*
X220577200Y-195871485D01*
X220577200Y-196300057D01*
X220505771Y-196442914D01*
X220434342Y-196514342D01*
X220291485Y-196585771D01*
X220005771Y-196585771D01*
X219862914Y-196514342D01*
X221791485Y-196514342D02*
X221648628Y-196585771D01*
X221362914Y-196585771D01*
X221220057Y-196514342D01*
X221148628Y-196371485D01*
X221148628Y-195800057D01*
X221220057Y-195657200D01*
X221362914Y-195585771D01*
X221648628Y-195585771D01*
X221791485Y-195657200D01*
X221862914Y-195800057D01*
X221862914Y-195942914D01*
X221148628Y-196085771D01*
X223291485Y-196585771D02*
X222434342Y-196585771D01*
X222862914Y-196585771D02*
X222862914Y-195085771D01*
X222720057Y-195300057D01*
X222577200Y-195442914D01*
X222434342Y-195514342D01*
X224220057Y-195085771D02*
X224362914Y-195085771D01*
X224505771Y-195157200D01*
X224577200Y-195228628D01*
X224648628Y-195371485D01*
X224720057Y-195657200D01*
X224720057Y-196014342D01*
X224648628Y-196300057D01*
X224577200Y-196442914D01*
X224505771Y-196514342D01*
X224362914Y-196585771D01*
X224220057Y-196585771D01*
X224077200Y-196514342D01*
X224005771Y-196442914D01*
X223934342Y-196300057D01*
X223862914Y-196014342D01*
X223862914Y-195657200D01*
X223934342Y-195371485D01*
X224005771Y-195228628D01*
X224077200Y-195157200D01*
X224220057Y-195085771D01*
X226005771Y-196585771D02*
X226005771Y-195085771D01*
X226005771Y-196514342D02*
X225862914Y-196585771D01*
X225577200Y-196585771D01*
X225434342Y-196514342D01*
X225362914Y-196442914D01*
X225291485Y-196300057D01*
X225291485Y-195871485D01*
X225362914Y-195728628D01*
X225434342Y-195657200D01*
X225577200Y-195585771D01*
X225862914Y-195585771D01*
X226005771Y-195657200D01*
X227291485Y-196514342D02*
X227148628Y-196585771D01*
X226862914Y-196585771D01*
X226720057Y-196514342D01*
X226648628Y-196371485D01*
X226648628Y-195800057D01*
X226720057Y-195657200D01*
X226862914Y-195585771D01*
X227148628Y-195585771D01*
X227291485Y-195657200D01*
X227362914Y-195800057D01*
X227362914Y-195942914D01*
X226648628Y-196085771D01*
X228220057Y-195728628D02*
X228077200Y-195657200D01*
X228005771Y-195585771D01*
X227934342Y-195442914D01*
X227934342Y-195371485D01*
X228005771Y-195228628D01*
X228077200Y-195157200D01*
X228220057Y-195085771D01*
X228505771Y-195085771D01*
X228648628Y-195157200D01*
X228720057Y-195228628D01*
X228791485Y-195371485D01*
X228791485Y-195442914D01*
X228720057Y-195585771D01*
X228648628Y-195657200D01*
X228505771Y-195728628D01*
X228220057Y-195728628D01*
X228077200Y-195800057D01*
X228005771Y-195871485D01*
X227934342Y-196014342D01*
X227934342Y-196300057D01*
X228005771Y-196442914D01*
X228077200Y-196514342D01*
X228220057Y-196585771D01*
X228505771Y-196585771D01*
X228648628Y-196514342D01*
X228720057Y-196442914D01*
X228791485Y-196300057D01*
X228791485Y-196014342D01*
X228720057Y-195871485D01*
X228648628Y-195800057D01*
X228505771Y-195728628D01*
X229324700Y-194677200D02*
X230505771Y-194677200D01*
X230148628Y-195085771D02*
X229434342Y-195085771D01*
X229362914Y-195800057D01*
X229434342Y-195728628D01*
X229577200Y-195657200D01*
X229934342Y-195657200D01*
X230077200Y-195728628D01*
X230148628Y-195800057D01*
X230220057Y-195942914D01*
X230220057Y-196300057D01*
X230148628Y-196442914D01*
X230077200Y-196514342D01*
X229934342Y-196585771D01*
X229577200Y-196585771D01*
X229434342Y-196514342D01*
X229362914Y-196442914D01*
X230505771Y-194677200D02*
X231934342Y-194677200D01*
X230720057Y-195085771D02*
X231720057Y-195085771D01*
X231077200Y-196585771D01*
X232934342Y-195585771D02*
X232934342Y-196585771D01*
X232291485Y-195585771D02*
X232291485Y-196371485D01*
X232362914Y-196514342D01*
X232505771Y-196585771D01*
X232720057Y-196585771D01*
X232862914Y-196514342D01*
X232934342Y-196442914D01*
X233648628Y-196585771D02*
X233648628Y-195085771D01*
X233648628Y-195657200D02*
X233791485Y-195585771D01*
X234077200Y-195585771D01*
X234220057Y-195657200D01*
X234291485Y-195728628D01*
X234362914Y-195871485D01*
X234362914Y-196300057D01*
X234291485Y-196442914D01*
X234220057Y-196514342D01*
X234077200Y-196585771D01*
X233791485Y-196585771D01*
X233648628Y-196514342D01*
X235648628Y-195585771D02*
X235648628Y-196585771D01*
X235005771Y-195585771D02*
X235005771Y-196371485D01*
X235077200Y-196514342D01*
X235220057Y-196585771D01*
X235434342Y-196585771D01*
X235577200Y-196514342D01*
X235648628Y-196442914D01*
X236362914Y-195585771D02*
X236362914Y-196585771D01*
X236362914Y-195728628D02*
X236434342Y-195657200D01*
X236577200Y-195585771D01*
X236791485Y-195585771D01*
X236934342Y-195657200D01*
X237005771Y-195800057D01*
X237005771Y-196585771D01*
X237505771Y-195585771D02*
X238077200Y-195585771D01*
X237720057Y-195085771D02*
X237720057Y-196371485D01*
X237791485Y-196514342D01*
X237934342Y-196585771D01*
X238077200Y-196585771D01*
X239220057Y-195585771D02*
X239220057Y-196585771D01*
X238577200Y-195585771D02*
X238577200Y-196371485D01*
X238648628Y-196514342D01*
X238791485Y-196585771D01*
X239005771Y-196585771D01*
X239148628Y-196514342D01*
X239220057Y-196442914D01*
X240720057Y-196585771D02*
X239862914Y-196585771D01*
X240291485Y-196585771D02*
X240291485Y-195085771D01*
X240148628Y-195300057D01*
X240005771Y-195442914D01*
X239862914Y-195514342D01*
X242005771Y-195085771D02*
X241720057Y-195085771D01*
X241577200Y-195157200D01*
X241505771Y-195228628D01*
X241362914Y-195442914D01*
X241291485Y-195728628D01*
X241291485Y-196300057D01*
X241362914Y-196442914D01*
X241434342Y-196514342D01*
X241577200Y-196585771D01*
X241862914Y-196585771D01*
X242005771Y-196514342D01*
X242077200Y-196442914D01*
X242148628Y-196300057D01*
X242148628Y-195942914D01*
X242077200Y-195800057D01*
X242005771Y-195728628D01*
X241862914Y-195657200D01*
X241577200Y-195657200D01*
X241434342Y-195728628D01*
X241362914Y-195800057D01*
X241291485Y-195942914D01*
X242791485Y-196442914D02*
X242862914Y-196514342D01*
X242791485Y-196585771D01*
X242720057Y-196514342D01*
X242791485Y-196442914D01*
X242791485Y-196585771D01*
X244291485Y-196585771D02*
X243434342Y-196585771D01*
X243862914Y-196585771D02*
X243862914Y-195085771D01*
X243720057Y-195300057D01*
X243577200Y-195442914D01*
X243434342Y-195514342D01*
X245220057Y-195085771D02*
X245362914Y-195085771D01*
X245505771Y-195157200D01*
X245577200Y-195228628D01*
X245648628Y-195371485D01*
X245720057Y-195657200D01*
X245720057Y-196014342D01*
X245648628Y-196300057D01*
X245577200Y-196442914D01*
X245505771Y-196514342D01*
X245362914Y-196585771D01*
X245220057Y-196585771D01*
X245077200Y-196514342D01*
X245005771Y-196442914D01*
X244934342Y-196300057D01*
X244862914Y-196014342D01*
X244862914Y-195657200D01*
X244934342Y-195371485D01*
X245005771Y-195228628D01*
X245077200Y-195157200D01*
X245220057Y-195085771D01*
X246362914Y-196442914D02*
X246434342Y-196514342D01*
X246362914Y-196585771D01*
X246291485Y-196514342D01*
X246362914Y-196442914D01*
X246362914Y-196585771D01*
X247862914Y-196585771D02*
X247005771Y-196585771D01*
X247434342Y-196585771D02*
X247434342Y-195085771D01*
X247291485Y-195300057D01*
X247148628Y-195442914D01*
X247005771Y-195514342D01*
D10*
D11*
X177002200Y-191507200D02*
X285002200Y-191507200D01*
D10*
D12*
X264411485Y-193785771D02*
X263911485Y-193071485D01*
X263554342Y-193785771D02*
X263554342Y-192285771D01*
X264125771Y-192285771D01*
X264268628Y-192357200D01*
X264340057Y-192428628D01*
X264411485Y-192571485D01*
X264411485Y-192785771D01*
X264340057Y-192928628D01*
X264268628Y-193000057D01*
X264125771Y-193071485D01*
X263554342Y-193071485D01*
X265625771Y-193714342D02*
X265482914Y-193785771D01*
X265197200Y-193785771D01*
X265054342Y-193714342D01*
X264982914Y-193571485D01*
X264982914Y-193000057D01*
X265054342Y-192857200D01*
X265197200Y-192785771D01*
X265482914Y-192785771D01*
X265625771Y-192857200D01*
X265697200Y-193000057D01*
X265697200Y-193142914D01*
X264982914Y-193285771D01*
X266197200Y-192785771D02*
X266554342Y-193785771D01*
X266911485Y-192785771D01*
X267482914Y-193642914D02*
X267554342Y-193714342D01*
X267482914Y-193785771D01*
X267411485Y-193714342D01*
X267482914Y-193642914D01*
X267482914Y-193785771D01*
X267482914Y-192857200D02*
X267554342Y-192928628D01*
X267482914Y-193000057D01*
X267411485Y-192928628D01*
X267482914Y-192857200D01*
X267482914Y-193000057D01*
D10*
D11*
X178362914Y-193714342D02*
X178577200Y-193785771D01*
X178934342Y-193785771D01*
X179077200Y-193714342D01*
X179148628Y-193642914D01*
X179220057Y-193500057D01*
X179220057Y-193357200D01*
X179148628Y-193214342D01*
X179077200Y-193142914D01*
X178934342Y-193071485D01*
X178648628Y-193000057D01*
X178505771Y-192928628D01*
X178434342Y-192857200D01*
X178362914Y-192714342D01*
X178362914Y-192571485D01*
X178434342Y-192428628D01*
X178505771Y-192357200D01*
X178648628Y-192285771D01*
X179005771Y-192285771D01*
X179220057Y-192357200D01*
X179862914Y-193785771D02*
X179862914Y-192785771D01*
X179862914Y-192285771D02*
X179791485Y-192357200D01*
X179862914Y-192428628D01*
X179934342Y-192357200D01*
X179862914Y-192285771D01*
X179862914Y-192428628D01*
X180434342Y-192785771D02*
X181220057Y-192785771D01*
X180434342Y-193785771D01*
X181220057Y-193785771D01*
X182362914Y-193714342D02*
X182220057Y-193785771D01*
X181934342Y-193785771D01*
X181791485Y-193714342D01*
X181720057Y-193571485D01*
X181720057Y-193000057D01*
X181791485Y-192857200D01*
X181934342Y-192785771D01*
X182220057Y-192785771D01*
X182362914Y-192857200D01*
X182434342Y-193000057D01*
X182434342Y-193142914D01*
X181720057Y-193285771D01*
X183077200Y-193642914D02*
X183148628Y-193714342D01*
X183077200Y-193785771D01*
X183005771Y-193714342D01*
X183077200Y-193642914D01*
X183077200Y-193785771D01*
X183077200Y-192857200D02*
X183148628Y-192928628D01*
X183077200Y-193000057D01*
X183005771Y-192928628D01*
X183077200Y-192857200D01*
X183077200Y-193000057D01*
X184862914Y-193357200D02*
X185577200Y-193357200D01*
X184720057Y-193785771D02*
X185220057Y-192285771D01*
X185720057Y-193785771D01*
X186862914Y-192785771D02*
X186862914Y-193785771D01*
X186505771Y-192214342D02*
X186148628Y-193285771D01*
X187077200Y-193285771D01*
D10*
D11*
X263434342Y-196585771D02*
X263434342Y-195085771D01*
X264791485Y-196585771D02*
X264791485Y-195085771D01*
X264791485Y-196514342D02*
X264648628Y-196585771D01*
X264362914Y-196585771D01*
X264220057Y-196514342D01*
X264148628Y-196442914D01*
X264077200Y-196300057D01*
X264077200Y-195871485D01*
X264148628Y-195728628D01*
X264220057Y-195657200D01*
X264362914Y-195585771D01*
X264648628Y-195585771D01*
X264791485Y-195657200D01*
X265505771Y-196442914D02*
X265577200Y-196514342D01*
X265505771Y-196585771D01*
X265434342Y-196514342D01*
X265505771Y-196442914D01*
X265505771Y-196585771D01*
X265505771Y-195657200D02*
X265577200Y-195728628D01*
X265505771Y-195800057D01*
X265434342Y-195728628D01*
X265505771Y-195657200D01*
X265505771Y-195800057D01*
X268148628Y-196585771D02*
X267291485Y-196585771D01*
X267720057Y-196585771D02*
X267720057Y-195085771D01*
X267577200Y-195300057D01*
X267434342Y-195442914D01*
X267291485Y-195514342D01*
X269862914Y-195014342D02*
X268577200Y-196942914D01*
X271148628Y-196585771D02*
X270291485Y-196585771D01*
X270720057Y-196585771D02*
X270720057Y-195085771D01*
X270577200Y-195300057D01*
X270434342Y-195442914D01*
X270291485Y-195514342D01*
D10*
D11*
X177002200Y-187507200D02*
X285002200Y-187507200D01*
D10*
D13*
X178714580Y-188211961D02*
X179857438Y-188211961D01*
X179036009Y-190211961D02*
X179286009Y-188211961D01*
X180274104Y-190211961D02*
X180440771Y-188878628D01*
X180524104Y-188211961D02*
X180416961Y-188307200D01*
X180500295Y-188402438D01*
X180607438Y-188307200D01*
X180524104Y-188211961D01*
X180500295Y-188402438D01*
X181107438Y-188878628D02*
X181869342Y-188878628D01*
X181476485Y-188211961D02*
X181262200Y-189926247D01*
X181333628Y-190116723D01*
X181512200Y-190211961D01*
X181702676Y-190211961D01*
X182655057Y-190211961D02*
X182476485Y-190116723D01*
X182405057Y-189926247D01*
X182619342Y-188211961D01*
X184190771Y-190116723D02*
X183988390Y-190211961D01*
X183607438Y-190211961D01*
X183428866Y-190116723D01*
X183357438Y-189926247D01*
X183452676Y-189164342D01*
X183571723Y-188973866D01*
X183774104Y-188878628D01*
X184155057Y-188878628D01*
X184333628Y-188973866D01*
X184405057Y-189164342D01*
X184381247Y-189354819D01*
X183405057Y-189545295D01*
X185155057Y-190021485D02*
X185238390Y-190116723D01*
X185131247Y-190211961D01*
X185047914Y-190116723D01*
X185155057Y-190021485D01*
X185131247Y-190211961D01*
X185286009Y-188973866D02*
X185369342Y-189069104D01*
X185262200Y-189164342D01*
X185178866Y-189069104D01*
X185286009Y-188973866D01*
X185262200Y-189164342D01*
D10*
D11*
X178934342Y-185600057D02*
X178434342Y-185600057D01*
X178434342Y-186385771D02*
X178434342Y-184885771D01*
X179148628Y-184885771D01*
X179720057Y-186385771D02*
X179720057Y-185385771D01*
X179720057Y-184885771D02*
X179648628Y-184957200D01*
X179720057Y-185028628D01*
X179791485Y-184957200D01*
X179720057Y-184885771D01*
X179720057Y-185028628D01*
X180648628Y-186385771D02*
X180505771Y-186314342D01*
X180434342Y-186171485D01*
X180434342Y-184885771D01*
X181791485Y-186314342D02*
X181648628Y-186385771D01*
X181362914Y-186385771D01*
X181220057Y-186314342D01*
X181148628Y-186171485D01*
X181148628Y-185600057D01*
X181220057Y-185457200D01*
X181362914Y-185385771D01*
X181648628Y-185385771D01*
X181791485Y-185457200D01*
X181862914Y-185600057D01*
X181862914Y-185742914D01*
X181148628Y-185885771D01*
X182505771Y-186242914D02*
X182577200Y-186314342D01*
X182505771Y-186385771D01*
X182434342Y-186314342D01*
X182505771Y-186242914D01*
X182505771Y-186385771D01*
X182505771Y-185457200D02*
X182577200Y-185528628D01*
X182505771Y-185600057D01*
X182434342Y-185528628D01*
X182505771Y-185457200D01*
X182505771Y-185600057D01*
X184291485Y-186314342D02*
X184505771Y-186385771D01*
X184862914Y-186385771D01*
X185005771Y-186314342D01*
X185077200Y-186242914D01*
X185148628Y-186100057D01*
X185148628Y-185957200D01*
X185077200Y-185814342D01*
X185005771Y-185742914D01*
X184862914Y-185671485D01*
X184577200Y-185600057D01*
X184434342Y-185528628D01*
X184362914Y-185457200D01*
X184291485Y-185314342D01*
X184291485Y-185171485D01*
X184362914Y-185028628D01*
X184434342Y-184957200D01*
X184577200Y-184885771D01*
X184934342Y-184885771D01*
X185148628Y-184957200D01*
X185648628Y-184885771D02*
X186005771Y-186385771D01*
X186291485Y-185314342D01*
X186577200Y-186385771D01*
X186934342Y-184885771D01*
X188148628Y-185385771D02*
X188148628Y-186385771D01*
X187791485Y-184814342D02*
X187434342Y-185885771D01*
X188362914Y-185885771D01*
X189148628Y-185528628D02*
X189005771Y-185457200D01*
X188934342Y-185385771D01*
X188862914Y-185242914D01*
X188862914Y-185171485D01*
X188934342Y-185028628D01*
X189005771Y-184957200D01*
X189148628Y-184885771D01*
X189434342Y-184885771D01*
X189577200Y-184957200D01*
X189648628Y-185028628D01*
X189720057Y-185171485D01*
X189720057Y-185242914D01*
X189648628Y-185385771D01*
X189577200Y-185457200D01*
X189434342Y-185528628D01*
X189148628Y-185528628D01*
X189005771Y-185600057D01*
X188934342Y-185671485D01*
X188862914Y-185814342D01*
X188862914Y-186100057D01*
X188934342Y-186242914D01*
X189005771Y-186314342D01*
X189148628Y-186385771D01*
X189434342Y-186385771D01*
X189577200Y-186314342D01*
X189648628Y-186242914D01*
X189720057Y-186100057D01*
X189720057Y-185814342D01*
X189648628Y-185671485D01*
X189577200Y-185600057D01*
X189434342Y-185528628D01*
X190291485Y-185957200D02*
X191005771Y-185957200D01*
X190148628Y-186385771D02*
X190648628Y-184885771D01*
X191148628Y-186385771D01*
X191577200Y-185028628D02*
X191648628Y-184957200D01*
X191791485Y-184885771D01*
X192148628Y-184885771D01*
X192291485Y-184957200D01*
X192362914Y-185028628D01*
X192434342Y-185171485D01*
X192434342Y-185314342D01*
X192362914Y-185528628D01*
X191505771Y-186385771D01*
X192434342Y-186385771D01*
X193077200Y-186242914D02*
X193148628Y-186314342D01*
X193077200Y-186385771D01*
X193005771Y-186314342D01*
X193077200Y-186242914D01*
X193077200Y-186385771D01*
X193791485Y-186385771D02*
X193791485Y-184885771D01*
X193934342Y-185814342D02*
X194362914Y-186385771D01*
X194362914Y-185385771D02*
X193791485Y-185957200D01*
X195005771Y-186385771D02*
X195005771Y-185385771D01*
X195005771Y-184885771D02*
X194934342Y-184957200D01*
X195005771Y-185028628D01*
X195077200Y-184957200D01*
X195005771Y-184885771D01*
X195005771Y-185028628D01*
X196362914Y-186314342D02*
X196220057Y-186385771D01*
X195934342Y-186385771D01*
X195791485Y-186314342D01*
X195720057Y-186242914D01*
X195648628Y-186100057D01*
X195648628Y-185671485D01*
X195720057Y-185528628D01*
X195791485Y-185457200D01*
X195934342Y-185385771D01*
X196220057Y-185385771D01*
X196362914Y-185457200D01*
X197648628Y-186385771D02*
X197648628Y-185600057D01*
X197577200Y-185457200D01*
X197434342Y-185385771D01*
X197148628Y-185385771D01*
X197005771Y-185457200D01*
X197648628Y-186314342D02*
X197505771Y-186385771D01*
X197148628Y-186385771D01*
X197005771Y-186314342D01*
X196934342Y-186171485D01*
X196934342Y-186028628D01*
X197005771Y-185885771D01*
X197148628Y-185814342D01*
X197505771Y-185814342D01*
X197648628Y-185742914D01*
X199005771Y-186385771D02*
X199005771Y-184885771D01*
X199005771Y-186314342D02*
X198862914Y-186385771D01*
X198577200Y-186385771D01*
X198434342Y-186314342D01*
X198362914Y-186242914D01*
X198291485Y-186100057D01*
X198291485Y-185671485D01*
X198362914Y-185528628D01*
X198434342Y-185457200D01*
X198577200Y-185385771D01*
X198862914Y-185385771D01*
X199005771Y-185457200D01*
X199362914Y-186528628D02*
X200505771Y-186528628D01*
X200862914Y-185385771D02*
X200862914Y-186885771D01*
X200862914Y-185457200D02*
X201005771Y-185385771D01*
X201291485Y-185385771D01*
X201434342Y-185457200D01*
X201505771Y-185528628D01*
X201577200Y-185671485D01*
X201577200Y-186100057D01*
X201505771Y-186242914D01*
X201434342Y-186314342D01*
X201291485Y-186385771D01*
X201005771Y-186385771D01*
X200862914Y-186314342D01*
X202862914Y-186314342D02*
X202720057Y-186385771D01*
X202434342Y-186385771D01*
X202291485Y-186314342D01*
X202220057Y-186242914D01*
X202148628Y-186100057D01*
X202148628Y-185671485D01*
X202220057Y-185528628D01*
X202291485Y-185457200D01*
X202434342Y-185385771D01*
X202720057Y-185385771D01*
X202862914Y-185457200D01*
X203505771Y-186385771D02*
X203505771Y-184885771D01*
X203505771Y-185457200D02*
X203648628Y-185385771D01*
X203934342Y-185385771D01*
X204077200Y-185457200D01*
X204148628Y-185528628D01*
X204220057Y-185671485D01*
X204220057Y-186100057D01*
X204148628Y-186242914D01*
X204077200Y-186314342D01*
X203934342Y-186385771D01*
X203648628Y-186385771D01*
X203505771Y-186314342D01*
D10*
D11*
X177002200Y-181507200D02*
X285002200Y-181507200D01*
D10*
D11*
X178362914Y-183614342D02*
X178577200Y-183685771D01*
X178934342Y-183685771D01*
X179077200Y-183614342D01*
X179148628Y-183542914D01*
X179220057Y-183400057D01*
X179220057Y-183257200D01*
X179148628Y-183114342D01*
X179077200Y-183042914D01*
X178934342Y-182971485D01*
X178648628Y-182900057D01*
X178505771Y-182828628D01*
X178434342Y-182757200D01*
X178362914Y-182614342D01*
X178362914Y-182471485D01*
X178434342Y-182328628D01*
X178505771Y-182257200D01*
X178648628Y-182185771D01*
X179005771Y-182185771D01*
X179220057Y-182257200D01*
X179862914Y-183685771D02*
X179862914Y-182185771D01*
X180505771Y-183685771D02*
X180505771Y-182900057D01*
X180434342Y-182757200D01*
X180291485Y-182685771D01*
X180077200Y-182685771D01*
X179934342Y-182757200D01*
X179862914Y-182828628D01*
X181791485Y-183614342D02*
X181648628Y-183685771D01*
X181362914Y-183685771D01*
X181220057Y-183614342D01*
X181148628Y-183471485D01*
X181148628Y-182900057D01*
X181220057Y-182757200D01*
X181362914Y-182685771D01*
X181648628Y-182685771D01*
X181791485Y-182757200D01*
X181862914Y-182900057D01*
X181862914Y-183042914D01*
X181148628Y-183185771D01*
X183077200Y-183614342D02*
X182934342Y-183685771D01*
X182648628Y-183685771D01*
X182505771Y-183614342D01*
X182434342Y-183471485D01*
X182434342Y-182900057D01*
X182505771Y-182757200D01*
X182648628Y-182685771D01*
X182934342Y-182685771D01*
X183077200Y-182757200D01*
X183148628Y-182900057D01*
X183148628Y-183042914D01*
X182434342Y-183185771D01*
X183577200Y-182685771D02*
X184148628Y-182685771D01*
X183791485Y-182185771D02*
X183791485Y-183471485D01*
X183862914Y-183614342D01*
X184005771Y-183685771D01*
X184148628Y-183685771D01*
X184648628Y-183542914D02*
X184720057Y-183614342D01*
X184648628Y-183685771D01*
X184577200Y-183614342D01*
X184648628Y-183542914D01*
X184648628Y-183685771D01*
X184648628Y-182757200D02*
X184720057Y-182828628D01*
X184648628Y-182900057D01*
X184577200Y-182828628D01*
X184648628Y-182757200D01*
X184648628Y-182900057D01*
D10*
D11*
X197002200Y-191507200D02*
X197002200Y-194507200D01*
D10*
D11*
X261002200Y-191507200D02*
X261002200Y-198007200D01*
D14*
X159075000Y-71750000D03*
X159075000Y-70450000D03*
X159075000Y-73050000D03*
X157775000Y-70450000D03*
X157775000Y-71750000D03*
X157775000Y-73050000D03*
X156475000Y-70450000D03*
X156475000Y-71750000D03*
X156475000Y-73050000D03*
X155175000Y-70450000D03*
X155175000Y-71750000D03*
X155175000Y-73050000D03*
X160375000Y-70450000D03*
X160375000Y-71750000D03*
X160375000Y-73050000D03*
X161675000Y-73050000D03*
X161675000Y-71750000D03*
X161675000Y-70450000D03*
X162975000Y-70450000D03*
X162975000Y-71750000D03*
X162975000Y-73050000D03*
D15*
X128677000Y-72250000D03*
D16*
X131217000Y-72250000D03*
D15*
X136250000Y-171500000D03*
D16*
X133710000Y-171500000D03*
D17*
X153000000Y-60290000D03*
D18*
X153000000Y-62830000D03*
X150460000Y-60290000D03*
X150460000Y-62830000D03*
D19*
X151537000Y-163552000D03*
X128169000Y-164204001D03*
X149124000Y-79478000D03*
X127788000Y-104116000D03*
X147854000Y-67413000D03*
X167539000Y-68556000D03*
X143917000Y-72366000D03*
X159411000Y-54713000D03*
X163348000Y-48109000D03*
X163348000Y-98528000D03*
X140234000Y-106910000D03*
X167793000Y-74906000D03*
X158395000Y-112244000D03*
D20*
X154250000Y-80250000D03*
D19*
X145758148Y-100108148D03*
X168250000Y-78500000D03*
X168250000Y-78500000D03*
X167250000Y-88000000D03*
D20*
X128000000Y-108250000D03*
X132750000Y-122250000D03*
X156250000Y-84750000D03*
X124750000Y-121750000D03*
X160250000Y-84750000D03*
D19*
X148362000Y-135739000D03*
X148743000Y-84812000D03*
X155982000Y-54586000D03*
D21*
X128169000Y-164204001D02*
X150884999Y-164204001D01*
X150884999Y-164204001D02*
X151537000Y-163552000D01*
X134265000Y-118594000D02*
X126634999Y-110963999D01*
X126634999Y-110963999D02*
X126288001Y-110963999D01*
X134265000Y-125452000D02*
X134265000Y-118594000D01*
X132868000Y-126849000D02*
X134265000Y-125452000D01*
X120074981Y-125193816D02*
X121730165Y-126849000D01*
X121730165Y-126849000D02*
X132868000Y-126849000D01*
X149124000Y-79478000D02*
X151068008Y-77533992D01*
X151068008Y-77533992D02*
X151068008Y-66204266D01*
X151068008Y-66204266D02*
X149251731Y-64387989D01*
X149251731Y-64387989D02*
X146456268Y-64387990D01*
X126288001Y-110963999D02*
X126288001Y-105615999D01*
X146456268Y-64387990D02*
X120074980Y-90769278D01*
X120074980Y-90769278D02*
X120074981Y-125193816D01*
X126288001Y-105615999D02*
X127788000Y-104116000D01*
X167539000Y-68556000D02*
X167539000Y-70677320D01*
X167539000Y-70677320D02*
X151579319Y-86637001D01*
X151579319Y-86637001D02*
X147866999Y-86637001D01*
X147866999Y-86637001D02*
X146917999Y-85688001D01*
X146917999Y-85688001D02*
X146917999Y-68349001D01*
X146917999Y-68349001D02*
X147854000Y-67413000D01*
X159411000Y-54713000D02*
X169364001Y-64666001D01*
X169364001Y-64666001D02*
X169364001Y-69488729D01*
X169364001Y-69488729D02*
X151765719Y-87087011D01*
X151765719Y-87087011D02*
X147680598Y-87087010D01*
X147680598Y-87087010D02*
X143917000Y-83323412D01*
X143917000Y-83323412D02*
X143917000Y-72366000D01*
X163348000Y-98528000D02*
X146536999Y-115339001D01*
X146536999Y-115339001D02*
X146536999Y-136615001D01*
X146536999Y-136615001D02*
X147485999Y-137564001D01*
X147485999Y-137564001D02*
X149238001Y-137564001D01*
X149238001Y-137564001D02*
X171850027Y-114951975D01*
X171850027Y-114951975D02*
X171850027Y-56611027D01*
X171850027Y-56611027D02*
X163348000Y-48109000D01*
X121274990Y-99553245D02*
X121274990Y-124696755D01*
X167793000Y-74906000D02*
X165168998Y-74906000D01*
X121274990Y-124696755D02*
X122303245Y-125725010D01*
X127699999Y-108875001D02*
X138268999Y-108875001D01*
X138268999Y-108875001D02*
X140234000Y-106910000D01*
X165168998Y-74906000D02*
X145800008Y-94274990D01*
X145800008Y-94274990D02*
X126553245Y-94274990D01*
X126553245Y-94274990D02*
X121274990Y-99553245D01*
X122303245Y-125725010D02*
X131946755Y-125725010D01*
X125225010Y-99196754D02*
X127446754Y-96975010D01*
X131946755Y-125725010D02*
X133375001Y-124296764D01*
X125225010Y-113800008D02*
X125225010Y-99196754D01*
X133375001Y-124296764D02*
X133375001Y-121949999D01*
X133375001Y-121949999D02*
X125225010Y-113800008D01*
X127446754Y-96975010D02*
X138349988Y-96975010D01*
X127374999Y-108550001D02*
X127699999Y-108875001D01*
X138349988Y-96975010D02*
X127374999Y-107949999D01*
X127374999Y-107949999D02*
X127374999Y-108550001D01*
X168250000Y-78500000D02*
X169749999Y-79999999D01*
X169749999Y-88201003D02*
X157842854Y-100108148D01*
X169749999Y-79999999D02*
X169749999Y-88201003D01*
X157842854Y-100108148D02*
X145758148Y-100108148D01*
X156895000Y-98250000D02*
X167145000Y-88000000D01*
X167145000Y-88000000D02*
X167250000Y-88000000D01*
X156000000Y-98250000D02*
X156895000Y-98250000D01*
D12*
X156000000Y-98250000D02*
X145000000Y-98250000D01*
X145000000Y-98250000D02*
X135000000Y-108250000D01*
X135000000Y-108250000D02*
X128000000Y-108250000D01*
X156250000Y-84750000D02*
X156250000Y-92500000D01*
X156250000Y-92500000D02*
X154000000Y-94750000D01*
X154000000Y-94750000D02*
X126750000Y-94750000D01*
X121750000Y-99750000D02*
X121750000Y-124500000D01*
X126750000Y-94750000D02*
X121750000Y-99750000D01*
X121750000Y-124500000D02*
X122500000Y-125250000D01*
X122500000Y-125250000D02*
X131750000Y-125250000D01*
X131750000Y-125250000D02*
X132750000Y-124250000D01*
X132750000Y-124250000D02*
X132750000Y-122250000D01*
X127250000Y-96500000D02*
X124750000Y-99000000D01*
X124750000Y-99000000D02*
X124750000Y-121750000D01*
X154250000Y-96500000D02*
X127250000Y-96500000D01*
X160250000Y-90500000D02*
X154250000Y-96500000D01*
X160250000Y-84750000D02*
X160250000Y-90500000D01*
D21*
X154584269Y-53211009D02*
X154607009Y-53211009D01*
X154607009Y-53211009D02*
X155982000Y-54586000D01*
X148362000Y-135739000D02*
X171400018Y-112700982D01*
X160681731Y-51560989D02*
X154584269Y-51560989D01*
X171400018Y-112700982D02*
X171400018Y-62279276D01*
X154584269Y-53211009D02*
X154584269Y-78970731D01*
X171400018Y-62279276D02*
X160681731Y-51560989D01*
X154584269Y-51560989D02*
X154100989Y-52044269D01*
X154100989Y-52044269D02*
X154100989Y-52727729D01*
X154100989Y-52727729D02*
X154584269Y-53211009D01*
X154584269Y-78970731D02*
X150242999Y-83312001D01*
X150242999Y-83312001D02*
X148743000Y-84812000D01*
M02*
