<?xml version="1.0" standalone="no"?>
 <!DOCTYPE svg PUBLIC "-//W3C//DTD SVG 1.1//EN" 
 "http://www.w3.org/Graphics/SVG/1.1/DTD/svg11.dtd"> 
<svg xmlns="http://www.w3.org/2000/svg" version="1.1" 
    width="29.7002cm" height="21.0007cm" viewBox="0 0 116930 82680 ">
<title>SVG Picture created as alimentatore-F.Cu.svg date 2017/03/15 15:08:05 </title>
  <desc>Picture generated by PCBNEW </desc>
<g style="fill:#000000; fill-opacity:1;stroke:#000000; stroke-opacity:1;
stroke-linecap:round; stroke-linejoin:round; "
 transform="translate(0 0) scale(1 1)">
</g>
<g style="fill:#000000; fill-opacity:0.0; 
stroke:#000000; stroke-width:-0.000393701; stroke-opacity:1; 
stroke-linecap:round; stroke-linejoin:round;">
</g>
<g style="fill:#000000; fill-opacity:0.0; 
stroke:#000000; stroke-width:669.291; stroke-opacity:1; 
stroke-linecap:round; stroke-linejoin:round;">
<path d="M94795 45303
L94795 45303
" />
</g>
<g style="fill:#000000; fill-opacity:0.0; 
stroke:#000000; stroke-width:0; stroke-opacity:1; 
stroke-linecap:round; stroke-linejoin:round;">
</g>
<g style="fill:#000000; fill-opacity:1.0; 
stroke:#000000; stroke-width:0; stroke-opacity:1; 
stroke-linecap:round; stroke-linejoin:round;">
<polyline style="fill-rule:evenodd;"
points="94460,45968
94460,46637
95130,46637
95130,45968
94460,45968
" /> 
<polyline style="fill-rule:evenodd;"
points="82000,43055
82000,44039
82787,44039
82787,43055
82000,43055
" /> 
<polyline style="fill-rule:evenodd;"
points="83574,43055
83574,44039
84362,44039
84362,43055
83574,43055
" /> 
</g>
<g style="fill:#000000; fill-opacity:1.0; 
stroke:#000000; stroke-width:669.291; stroke-opacity:1; 
stroke-linecap:round; stroke-linejoin:round;">
</g>
<g style="fill:#000000; fill-opacity:0.0; 
stroke:#000000; stroke-width:669.291; stroke-opacity:1; 
stroke-linecap:round; stroke-linejoin:round;">
<path d="M91448 46287
L91448 46287
" />
<path d="M91448 47287
L91448 47287
" />
</g>
<g style="fill:#000000; fill-opacity:0.0; 
stroke:#000000; stroke-width:0; stroke-opacity:1; 
stroke-linecap:round; stroke-linejoin:round;">
</g>
<g style="fill:#000000; fill-opacity:1.0; 
stroke:#000000; stroke-width:0; stroke-opacity:1; 
stroke-linecap:round; stroke-linejoin:round;">
<polyline style="fill-rule:evenodd;"
points="91114,47952
91114,48622
91783,48622
91783,47952
91114,47952
" /> 
<circle cx="93505.9" cy="39128" r="472.441" /> 
</g>
<g style="fill:#000000; fill-opacity:1.0; 
stroke:#000000; stroke-width:39.3701; stroke-opacity:1; 
stroke-linecap:round; stroke-linejoin:round;">
</g>
<g style="fill:#000000; fill-opacity:1.0; 
stroke:#000000; stroke-width:0; stroke-opacity:1; 
stroke-linecap:round; stroke-linejoin:round;">
<polyline style="fill-rule:evenodd;"
points="91863,40102
92531,40770
93199,40102
92531,39434
91863,40102
" /> 
<polyline style="fill-rule:evenodd;"
points="82216,51342
82216,52287
83161,52287
83161,51342
82216,51342
" /> 
<circle cx="84067" cy="51815" r="472.441" /> 
</g>
<g style="fill:#000000; fill-opacity:1.0; 
stroke:#000000; stroke-width:39.3701; stroke-opacity:1; 
stroke-linecap:round; stroke-linejoin:round;">
</g>
<g style="fill:#000000; fill-opacity:1.0; 
stroke:#000000; stroke-width:0; stroke-opacity:1; 
stroke-linecap:round; stroke-linejoin:round;">
<circle cx="69696.9" cy="51815" r="472.441" /> 
</g>
<g style="fill:#000000; fill-opacity:1.0; 
stroke:#000000; stroke-width:39.3701; stroke-opacity:1; 
stroke-linecap:round; stroke-linejoin:round;">
</g>
<g style="fill:#000000; fill-opacity:1.0; 
stroke:#000000; stroke-width:0; stroke-opacity:1; 
stroke-linecap:round; stroke-linejoin:round;">
<circle cx="71074.9" cy="51815" r="472.441" /> 
</g>
<g style="fill:#000000; fill-opacity:1.0; 
stroke:#000000; stroke-width:39.3701; stroke-opacity:1; 
stroke-linecap:round; stroke-linejoin:round;">
</g>
<g style="fill:#000000; fill-opacity:1.0; 
stroke:#000000; stroke-width:0; stroke-opacity:1; 
stroke-linecap:round; stroke-linejoin:round;">
<polyline style="fill-rule:evenodd;"
points="67846,51342
67846,52287
68791,52287
68791,51342
67846,51342
" /> 
<polyline style="fill-rule:evenodd;"
points="76803,51342
76803,52287
77748,52287
77748,51342
76803,51342
" /> 
<circle cx="80031.6" cy="51815" r="472.441" /> 
</g>
<g style="fill:#000000; fill-opacity:1.0; 
stroke:#000000; stroke-width:39.3701; stroke-opacity:1; 
stroke-linecap:round; stroke-linejoin:round;">
</g>
<g style="fill:#000000; fill-opacity:1.0; 
stroke:#000000; stroke-width:0; stroke-opacity:1; 
stroke-linecap:round; stroke-linejoin:round;">
<circle cx="78653.6" cy="51815" r="472.441" /> 
</g>
<g style="fill:#000000; fill-opacity:1.0; 
stroke:#000000; stroke-width:39.3701; stroke-opacity:1; 
stroke-linecap:round; stroke-linejoin:round;">
</g>
<g style="fill:#000000; fill-opacity:1.0; 
stroke:#000000; stroke-width:0; stroke-opacity:1; 
stroke-linecap:round; stroke-linejoin:round;">
<circle cx="83870.2" cy="34984.3" r="295.276" /> 
</g>
<g style="fill:#000000; fill-opacity:1.0; 
stroke:#000000; stroke-width:39.3701; stroke-opacity:1; 
stroke-linecap:round; stroke-linejoin:round;">
</g>
<g style="fill:#000000; fill-opacity:1.0; 
stroke:#000000; stroke-width:0; stroke-opacity:1; 
stroke-linecap:round; stroke-linejoin:round;">
<circle cx="77472.5" cy="35476.4" r="295.276" /> 
</g>
<g style="fill:#000000; fill-opacity:1.0; 
stroke:#000000; stroke-width:39.3701; stroke-opacity:1; 
stroke-linecap:round; stroke-linejoin:round;">
</g>
<g style="fill:#000000; fill-opacity:1.0; 
stroke:#000000; stroke-width:0; stroke-opacity:1; 
stroke-linecap:round; stroke-linejoin:round;">
<polyline style="fill-rule:evenodd;"
points="69795,31166
69127,31834
69795,32502
70463,31834
69795,31166
" /> 
<circle cx="71187.3" cy="33226.6" r="472.441" /> 
</g>
<g style="fill:#000000; fill-opacity:1.0; 
stroke:#000000; stroke-width:39.3701; stroke-opacity:1; 
stroke-linecap:round; stroke-linejoin:round;">
</g>
<g style="fill:#000000; fill-opacity:1.0; 
stroke:#000000; stroke-width:0; stroke-opacity:1; 
stroke-linecap:round; stroke-linejoin:round;">
<circle cx="92137.9" cy="33226.6" r="472.441" /> 
</g>
<g style="fill:#000000; fill-opacity:1.0; 
stroke:#000000; stroke-width:39.3701; stroke-opacity:1; 
stroke-linecap:round; stroke-linejoin:round;">
</g>
<g style="fill:#000000; fill-opacity:1.0; 
stroke:#000000; stroke-width:0; stroke-opacity:1; 
stroke-linecap:round; stroke-linejoin:round;">
<polyline style="fill-rule:evenodd;"
points="94197,31834
93529,31166
92861,31834
93529,32502
94197,31834
" /> 
<polyline style="fill-rule:evenodd;"
points="69618,47405
69618,46775
68988,46775
68988,47405
69618,47405
" /> 
<circle cx="68319" cy="47090.6" r="314.961" /> 
</g>
<g style="fill:#000000; fill-opacity:1.0; 
stroke:#000000; stroke-width:39.3701; stroke-opacity:1; 
stroke-linecap:round; stroke-linejoin:round;">
</g>
<g style="fill:#000000; fill-opacity:1.0; 
stroke:#000000; stroke-width:0; stroke-opacity:1; 
stroke-linecap:round; stroke-linejoin:round;">
<circle cx="69303.2" cy="42661.4" r="314.961" /> 
</g>
<g style="fill:#000000; fill-opacity:1.0; 
stroke:#000000; stroke-width:39.3701; stroke-opacity:1; 
stroke-linecap:round; stroke-linejoin:round;">
</g>
<g style="fill:#000000; fill-opacity:1.0; 
stroke:#000000; stroke-width:0; stroke-opacity:1; 
stroke-linecap:round; stroke-linejoin:round;">
<polyline style="fill-rule:evenodd;"
points="70602,42976
70602,42346
69972,42346
69972,42976
70602,42976
" /> 
<circle cx="78161.5" cy="45515.7" r="314.961" /> 
</g>
<g style="fill:#000000; fill-opacity:1.0; 
stroke:#000000; stroke-width:39.3701; stroke-opacity:1; 
stroke-linecap:round; stroke-linejoin:round;">
</g>
<g style="fill:#000000; fill-opacity:1.0; 
stroke:#000000; stroke-width:0; stroke-opacity:1; 
stroke-linecap:round; stroke-linejoin:round;">
<circle cx="77177.2" cy="45515.7" r="314.961" /> 
</g>
<g style="fill:#000000; fill-opacity:1.0; 
stroke:#000000; stroke-width:39.3701; stroke-opacity:1; 
stroke-linecap:round; stroke-linejoin:round;">
</g>
<g style="fill:#000000; fill-opacity:1.0; 
stroke:#000000; stroke-width:0; stroke-opacity:1; 
stroke-linecap:round; stroke-linejoin:round;">
<circle cx="92137.9" cy="52897.6" r="314.961" /> 
</g>
<g style="fill:#000000; fill-opacity:1.0; 
stroke:#000000; stroke-width:39.3701; stroke-opacity:1; 
stroke-linecap:round; stroke-linejoin:round;">
</g>
<g style="fill:#000000; fill-opacity:1.0; 
stroke:#000000; stroke-width:0; stroke-opacity:1; 
stroke-linecap:round; stroke-linejoin:round;">
<circle cx="91153.6" cy="52897.6" r="314.961" /> 
</g>
<g style="fill:#000000; fill-opacity:1.0; 
stroke:#000000; stroke-width:39.3701; stroke-opacity:1; 
stroke-linecap:round; stroke-linejoin:round;">
</g>
<g style="fill:#000000; fill-opacity:1.0; 
stroke:#000000; stroke-width:866.142; stroke-opacity:1; 
stroke-linecap:round; stroke-linejoin:round;">
</g>
<g style="fill:#000000; fill-opacity:0.0; 
stroke:#000000; stroke-width:866.142; stroke-opacity:1; 
stroke-linecap:round; stroke-linejoin:round;">
<path d="M80031 41397
L80031 41397
" />
</g>
<g style="fill:#000000; fill-opacity:0.0; 
stroke:#000000; stroke-width:0; stroke-opacity:1; 
stroke-linecap:round; stroke-linejoin:round;">
</g>
<g style="fill:#000000; fill-opacity:1.0; 
stroke:#000000; stroke-width:0; stroke-opacity:1; 
stroke-linecap:round; stroke-linejoin:round;">
<polyline style="fill-rule:evenodd;"
points="80464,39964
79598,39964
79598,40830
80464,40830
80464,39964
" /> 
<polyline style="fill-rule:evenodd;"
points="76055,37110
76055,37976
76921,37976
76921,37110
76055,37110
" /> 
</g>
<g style="fill:#000000; fill-opacity:1.0; 
stroke:#000000; stroke-width:866.142; stroke-opacity:1; 
stroke-linecap:round; stroke-linejoin:round;">
</g>
<g style="fill:#000000; fill-opacity:0.0; 
stroke:#000000; stroke-width:866.142; stroke-opacity:1; 
stroke-linecap:round; stroke-linejoin:round;">
<path d="M77488 37543
L77488 37543
" />
<path d="M90185 43547
L90185 43547
" />
</g>
<g style="fill:#000000; fill-opacity:0.0; 
stroke:#000000; stroke-width:0; stroke-opacity:1; 
stroke-linecap:round; stroke-linejoin:round;">
</g>
<g style="fill:#000000; fill-opacity:1.0; 
stroke:#000000; stroke-width:0; stroke-opacity:1; 
stroke-linecap:round; stroke-linejoin:round;">
<polyline style="fill-rule:evenodd;"
points="88752,43114
88752,43980
89618,43980
89618,43114
88752,43114
" /> 
<polyline style="fill-rule:evenodd;"
points="88830,46342
88830,45476
87964,45476
87964,46342
88830,46342
" /> 
</g>
<g style="fill:#000000; fill-opacity:1.0; 
stroke:#000000; stroke-width:866.142; stroke-opacity:1; 
stroke-linecap:round; stroke-linejoin:round;">
</g>
<g style="fill:#000000; fill-opacity:0.0; 
stroke:#000000; stroke-width:866.142; stroke-opacity:1; 
stroke-linecap:round; stroke-linejoin:round;">
<path d="M87397 45909
L87397 45909
" />
<path d="M70287 39216
L70287 39216
" />
</g>
<g style="fill:#000000; fill-opacity:0.0; 
stroke:#000000; stroke-width:0; stroke-opacity:1; 
stroke-linecap:round; stroke-linejoin:round;">
</g>
<g style="fill:#000000; fill-opacity:1.0; 
stroke:#000000; stroke-width:0; stroke-opacity:1; 
stroke-linecap:round; stroke-linejoin:round;">
<polyline style="fill-rule:evenodd;"
points="68854,38783
68854,39649
69720,39649
69720,38783
68854,38783
" /> 
</g>
<g style="fill:#000000; fill-opacity:1.0; 
stroke:#000000; stroke-width:629.921; stroke-opacity:1; 
stroke-linecap:round; stroke-linejoin:round;">
</g>
<g style="fill:#000000; fill-opacity:0.0; 
stroke:#000000; stroke-width:629.921; stroke-opacity:1; 
stroke-linecap:round; stroke-linejoin:round;">
<path d="M80830 45566
L80515 45566
" />
<path d="M83830 48566
L83515 48566
" />
<path d="M80830 46566
L80515 46566
" />
<path d="M83830 47566
L83515 47566
" />
<path d="M80830 47566
L80515 47566
" />
<path d="M83830 46566
L83515 46566
" />
<path d="M80830 48566
L80515 48566
" />
</g>
<g style="fill:#000000; fill-opacity:0.0; 
stroke:#000000; stroke-width:0; stroke-opacity:1; 
stroke-linecap:round; stroke-linejoin:round;">
</g>
<g style="fill:#000000; fill-opacity:1.0; 
stroke:#000000; stroke-width:0; stroke-opacity:1; 
stroke-linecap:round; stroke-linejoin:round;">
<polyline style="fill-rule:evenodd;"
points="84145,45881
84145,45251
83200,45251
83200,45881
84145,45881
" /> 
<circle cx="87413.5" cy="52929.1" r="283.465" /> 
</g>
<g style="fill:#000000; fill-opacity:1.0; 
stroke:#000000; stroke-width:39.3701; stroke-opacity:1; 
stroke-linecap:round; stroke-linejoin:round;">
</g>
<g style="fill:#000000; fill-opacity:1.0; 
stroke:#000000; stroke-width:0; stroke-opacity:1; 
stroke-linecap:round; stroke-linejoin:round;">
<circle cx="87413.5" cy="51929.1" r="283.465" /> 
</g>
<g style="fill:#000000; fill-opacity:1.0; 
stroke:#000000; stroke-width:39.3701; stroke-opacity:1; 
stroke-linecap:round; stroke-linejoin:round;">
</g>
<g style="fill:#000000; fill-opacity:1.0; 
stroke:#000000; stroke-width:0; stroke-opacity:1; 
stroke-linecap:round; stroke-linejoin:round;">
<circle cx="87413.5" cy="50929.1" r="283.465" /> 
</g>
<g style="fill:#000000; fill-opacity:1.0; 
stroke:#000000; stroke-width:39.3701; stroke-opacity:1; 
stroke-linecap:round; stroke-linejoin:round;">
</g>
<g style="fill:#000000; fill-opacity:1.0; 
stroke:#000000; stroke-width:0; stroke-opacity:1; 
stroke-linecap:round; stroke-linejoin:round;">
<polyline style="fill-rule:evenodd;"
points="78555,30259
78555,29275
77767,29275
77767,30259
78555,30259
" /> 
<polyline style="fill-rule:evenodd;"
points="76980,30259
76980,29275
76192,29275
76192,30259
76980,30259
" /> 
<polyline style="fill-rule:evenodd;"
points="77767,31244
77767,32228
78555,32228
78555,31244
77767,31244
" /> 
<polyline style="fill-rule:evenodd;"
points="76192,31244
76192,32228
76980,32228
76980,31244
76192,31244
" /> 
<polyline style="fill-rule:evenodd;"
points="89381,48960
89381,47976
88594,47976
88594,48960
89381,48960
" /> 
<polyline style="fill-rule:evenodd;"
points="87807,48960
87807,47976
87019,47976
87019,48960
87807,48960
" /> 
<polyline style="fill-rule:evenodd;"
points="90956,51421
90956,50437
90169,50437
90169,51421
90956,51421
" /> 
<polyline style="fill-rule:evenodd;"
points="92531,51421
92531,50437
91744,50437
91744,51421
92531,51421
" /> 
<polyline style="fill-rule:evenodd;"
points="88692,30948
87708,30948
87708,31736
88692,31736
88692,30948
" /> 
<polyline style="fill-rule:evenodd;"
points="88692,29374
87708,29374
87708,30161
88692,30161
88692,29374
" /> 
<polyline style="fill-rule:evenodd;"
points="85346,36952
86330,36952
86330,36165
85346,36165
85346,36952
" /> 
<polyline style="fill-rule:evenodd;"
points="85346,35377
86330,35377
86330,34590
85346,34590
85346,35377
" /> 
<polyline style="fill-rule:evenodd;"
points="81212,33704
81212,34688
82000,34688
82000,33704
81212,33704
" /> 
<polyline style="fill-rule:evenodd;"
points="79637,33704
79637,34688
80425,34688
80425,33704
79637,33704
" /> 
<polyline style="fill-rule:evenodd;"
points="79539,37937
80523,37937
80523,37149
79539,37149
79539,37937
" /> 
<polyline style="fill-rule:evenodd;"
points="79539,36362
80523,36362
80523,35574
79539,35574
79539,36362
" /> 
<polyline style="fill-rule:evenodd;"
points="77570,48074
77570,47090
76783,47090
76783,48074
77570,48074
" /> 
<polyline style="fill-rule:evenodd;"
points="79145,48074
79145,47090
78358,47090
78358,48074
79145,48074
" /> 
<polyline style="fill-rule:evenodd;"
points="86232,44039
86232,43055
85444,43055
85444,44039
86232,44039
" /> 
<polyline style="fill-rule:evenodd;"
points="87807,44039
87807,43055
87019,43055
87019,44039
87807,44039
" /> 
</g>
<g style="fill:#000000; fill-opacity:1.0; 
stroke:#000000; stroke-width:708.661; stroke-opacity:1; 
stroke-linecap:round; stroke-linejoin:round;">
</g>
<g style="fill:#000000; fill-opacity:0.0; 
stroke:#000000; stroke-width:708.661; stroke-opacity:1; 
stroke-linecap:round; stroke-linejoin:round;">
<path d="M81885 29767
L81885 29767
" />
<path d="M82885 29767
L82885 29767
" />
</g>
<g style="fill:#000000; fill-opacity:0.0; 
stroke:#000000; stroke-width:0; stroke-opacity:1; 
stroke-linecap:round; stroke-linejoin:round;">
</g>
<g style="fill:#000000; fill-opacity:1.0; 
stroke:#000000; stroke-width:0; stroke-opacity:1; 
stroke-linecap:round; stroke-linejoin:round;">
<polyline style="fill-rule:evenodd;"
points="84240,30122
84240,29413
83531,29413
83531,30122
84240,30122
" /> 
</g>
<g style="fill:#000000; fill-opacity:1.0; 
stroke:#000000; stroke-width:787.402; stroke-opacity:1; 
stroke-linecap:round; stroke-linejoin:round;">
</g>
<g style="fill:#000000; fill-opacity:0.0; 
stroke:#000000; stroke-width:787.402; stroke-opacity:1; 
stroke-linecap:round; stroke-linejoin:round;">
<path d="M83870 38362
L83870 38755
" />
</g>
<g style="fill:#000000; fill-opacity:0.0; 
stroke:#000000; stroke-width:0; stroke-opacity:1; 
stroke-linecap:round; stroke-linejoin:round;">
</g>
<g style="fill:#000000; fill-opacity:1.0; 
stroke:#000000; stroke-width:0; stroke-opacity:1; 
stroke-linecap:round; stroke-linejoin:round;">
<polyline style="fill-rule:evenodd;"
points="84263,37149
84263,35968
83476,35968
83476,37149
84263,37149
" /> 
</g>
<g style="fill:#000000; fill-opacity:1.0; 
stroke:#000000; stroke-width:787.402; stroke-opacity:1; 
stroke-linecap:round; stroke-linejoin:round;">
</g>
<g style="fill:#000000; fill-opacity:0.0; 
stroke:#000000; stroke-width:787.402; stroke-opacity:1; 
stroke-linecap:round; stroke-linejoin:round;">
<path d="M83067 37559
L82673 37559
" />
</g>
<g style="fill:#000000; fill-opacity:0.0; 
stroke:#000000; stroke-width:590.551; stroke-opacity:1; 
stroke-linecap:round; stroke-linejoin:round;">
<path d="M71074 39216
L71074 42661
" />
<path d="M71074 42661
L71074 51814
" />
<path d="M70287 42661
L71074 42661
" />
<path d="M76586 31736
L72677 31736
" />
<path d="M72677 31736
L71187 33226
" />
<path d="M71074 39216
L71074 33339
" />
<path d="M71074 33339
L71187 33226
" />
<path d="M70287 39216
L71074 39216
" />
<path d="M88200 31342
L90267 31342
" />
<path d="M90267 31342
L92137 33212
" />
<path d="M92137 33212
L92137 39708
" />
<path d="M92137 39708
L92531 40102
" />
</g>
<g style="fill:#000000; fill-opacity:0.0; 
stroke:#000000; stroke-width:275.591; stroke-opacity:1; 
stroke-linecap:round; stroke-linejoin:round;">
<path d="M87413 52929
L91122 52929
" />
<path d="M91122 52929
L91153 52897
" />
</g>
<g style="fill:#000000; fill-opacity:0.0; 
stroke:#000000; stroke-width:255.906; stroke-opacity:1; 
stroke-linecap:round; stroke-linejoin:round;">
<path d="M87413 51929
L87413 52929
" />
</g>
<g style="fill:#000000; fill-opacity:0.0; 
stroke:#000000; stroke-width:314.961; stroke-opacity:1; 
stroke-linecap:round; stroke-linejoin:round;">
<path d="M82393 43547
L81901 43547
" />
<path d="M81901 43547
L81212 44236
" />
<path d="M78161 45515
L78161 45417
" />
<path d="M78161 45417
L79342 44236
" />
<path d="M79342 44236
L81212 44236
" />
<path d="M82657 46566
L83673 46566
" />
<path d="M81212 44236
L82000 45023
" />
<path d="M82000 45023
L82000 45909
" />
<path d="M82000 45909
L82657 46566
" />
</g>
<g style="fill:#000000; fill-opacity:0.0; 
stroke:#000000; stroke-width:236.22; stroke-opacity:1; 
stroke-linecap:round; stroke-linejoin:round;">
<path d="M84098 46566
L83673 46566
" />
</g>
<g style="fill:#000000; fill-opacity:0.0; 
stroke:#000000; stroke-width:314.961; stroke-opacity:1; 
stroke-linecap:round; stroke-linejoin:round;">
<path d="M77177 45515
L77177 47582
" />
</g>
<g style="fill:#000000; fill-opacity:0.0; 
stroke:#000000; stroke-width:275.591; stroke-opacity:1; 
stroke-linecap:round; stroke-linejoin:round;">
<path d="M92137 52897
L92137 50929
" />
</g>
<g style="fill:#000000; fill-opacity:0.0; 
stroke:#000000; stroke-width:255.906; stroke-opacity:1; 
stroke-linecap:round; stroke-linejoin:round;">
<path d="M68318 51814
L68318 52700
" />
<path d="M68318 52700
L69007 53389
" />
<path d="M69007 53389
L78358 53389
" />
<path d="M78358 53389
L78653 53094
" />
</g>
<g style="fill:#000000; fill-opacity:0.0; 
stroke:#000000; stroke-width:590.551; stroke-opacity:1; 
stroke-linecap:round; stroke-linejoin:round;">
<path d="M68318 47090
L68318 39216
" />
<path d="M68318 39216
L68318 33311
" />
<path d="M69287 39216
L68318 39216
" />
<path d="M68318 33311
L69795 31834
" />
<path d="M68318 51814
L68318 47090
" />
</g>
<g style="fill:#000000; fill-opacity:0.0; 
stroke:#000000; stroke-width:314.961; stroke-opacity:1; 
stroke-linecap:round; stroke-linejoin:round;">
<path d="M78653 53094
L78948 53389
" />
<path d="M82295 53389
L82689 52996
" />
<path d="M78948 53389
L82295 53389
" />
</g>
<g style="fill:#000000; fill-opacity:0.0; 
stroke:#000000; stroke-width:255.906; stroke-opacity:1; 
stroke-linecap:round; stroke-linejoin:round;">
<path d="M90185 43547
L93039 43547
" />
</g>
<g style="fill:#000000; fill-opacity:0.0; 
stroke:#000000; stroke-width:590.551; stroke-opacity:1; 
stroke-linecap:round; stroke-linejoin:round;">
<path d="M76586 29767
L71862 29767
" />
<path d="M71862 29767
L69795 31834
" />
</g>
<g style="fill:#000000; fill-opacity:0.0; 
stroke:#000000; stroke-width:255.906; stroke-opacity:1; 
stroke-linecap:round; stroke-linejoin:round;">
<path d="M89480 41874
L90185 42578
" />
<path d="M90185 42578
L90185 43547
" />
<path d="M84657 41874
L89480 41874
" />
<path d="M83968 42562
L84657 41874
" />
<path d="M83968 43547
L83968 42562
" />
<path d="M80031 41397
L81818 41397
" />
<path d="M81818 41397
L83968 43547
" />
</g>
<g style="fill:#000000; fill-opacity:0.0; 
stroke:#000000; stroke-width:314.961; stroke-opacity:1; 
stroke-linecap:round; stroke-linejoin:round;">
<path d="M89381 45909
L90185 45106
" />
<path d="M90185 45106
L90185 43547
" />
<path d="M88988 45909
L89381 45909
" />
<path d="M82689 52996
L82689 51814
" />
<path d="M78653 51814
L78653 53094
" />
</g>
<g style="fill:#000000; fill-opacity:0.0; 
stroke:#000000; stroke-width:275.591; stroke-opacity:1; 
stroke-linecap:round; stroke-linejoin:round;">
<path d="M88397 45909
L88988 45909
" />
</g>
<g style="fill:#000000; fill-opacity:0.0; 
stroke:#000000; stroke-width:255.906; stroke-opacity:1; 
stroke-linecap:round; stroke-linejoin:round;">
<path d="M93039 43547
L94795 45303
" />
</g>
<g style="fill:#000000; fill-opacity:0.0; 
stroke:#000000; stroke-width:590.551; stroke-opacity:1; 
stroke-linecap:round; stroke-linejoin:round;">
<path d="M69696 51814
L69696 47484
" />
<path d="M69696 47484
L69303 47090
" />
<path d="M69303 42661
L69303 47090
" />
</g>
<g style="fill:#000000; fill-opacity:0.0; 
stroke:#000000; stroke-width:275.591; stroke-opacity:1; 
stroke-linecap:round; stroke-linejoin:round;">
<path d="M84067 51814
L84067 52602
" />
<path d="M93417 49255
L92448 48287
" />
<path d="M85444 53980
L92925 53980
" />
<path d="M93417 53488
L93417 49255
" />
<path d="M92925 53980
L93417 53488
" />
<path d="M84067 52602
L85444 53980
" />
<path d="M92448 48287
L91448 48287
" />
</g>
<g style="fill:#000000; fill-opacity:0.0; 
stroke:#000000; stroke-width:314.961; stroke-opacity:1; 
stroke-linecap:round; stroke-linejoin:round;">
<path d="M78850 49846
L81606 49846
" />
<path d="M82196 49255
L82196 47090
" />
<path d="M81673 46566
L80673 46566
" />
<path d="M82196 47090
L81673 46566
" />
<path d="M81606 49846
L82196 49255
" />
</g>
<g style="fill:#000000; fill-opacity:0.0; 
stroke:#000000; stroke-width:255.906; stroke-opacity:1; 
stroke-linecap:round; stroke-linejoin:round;">
<path d="M80031 34196
L80031 35968
" />
</g>
<g style="fill:#000000; fill-opacity:0.0; 
stroke:#000000; stroke-width:216.535; stroke-opacity:1; 
stroke-linecap:round; stroke-linejoin:round;">
<path d="M80031 34196
L76685 34196
" />
<path d="M74716 36165
L74716 49255
" />
<path d="M76685 34196
L74716 36165
" />
</g>
<g style="fill:#000000; fill-opacity:0.0; 
stroke:#000000; stroke-width:314.961; stroke-opacity:1; 
stroke-linecap:round; stroke-linejoin:round;">
<path d="M77275 51421
L78850 49846
" />
</g>
<g style="fill:#000000; fill-opacity:0.0; 
stroke:#000000; stroke-width:216.535; stroke-opacity:1; 
stroke-linecap:round; stroke-linejoin:round;">
<path d="M74716 49255
L77275 51814
" />
</g>
<g style="fill:#000000; fill-opacity:0.0; 
stroke:#000000; stroke-width:314.961; stroke-opacity:1; 
stroke-linecap:round; stroke-linejoin:round;">
<path d="M77275 51814
L77275 51421
" />
<path d="M81901 50535
L80622 51814
" />
<path d="M80622 51814
L80031 51814
" />
<path d="M82689 50535
L81901 50535
" />
<path d="M83673 49551
L82689 50535
" />
<path d="M83673 48566
L83673 49551
" />
</g>
<g style="fill:#000000; fill-opacity:0.0; 
stroke:#000000; stroke-width:255.906; stroke-opacity:1; 
stroke-linecap:round; stroke-linejoin:round;">
<path d="M77472 35476
L77472 37527
" />
<path d="M77472 37527
L77488 37543
" />
</g>
<g style="fill:#000000; fill-opacity:0.0; 
stroke:#000000; stroke-width:216.535; stroke-opacity:1; 
stroke-linecap:round; stroke-linejoin:round;">
<path d="M80031 37543
L80031 40397
" />
</g>
<g style="fill:#000000; fill-opacity:0.0; 
stroke:#000000; stroke-width:314.961; stroke-opacity:1; 
stroke-linecap:round; stroke-linejoin:round;">
<path d="M77488 37543
L80031 37543
" />
<path d="M82870 37559
L80047 37559
" />
<path d="M80047 37559
L80031 37543
" />
<path d="M87413 43547
L87413 42956
" />
<path d="M87413 42956
L86921 42464
" />
<path d="M86921 42464
L85444 42464
" />
<path d="M85444 42464
L84854 43055
" />
<path d="M84854 43055
L84854 47090
" />
<path d="M84854 47090
L84378 47566
" />
<path d="M84378 47566
L83673 47566
" />
<path d="M89185 43547
L87413 43547
" />
</g>
<g style="fill:#000000; fill-opacity:0.0; 
stroke:#000000; stroke-width:255.906; stroke-opacity:1; 
stroke-linecap:round; stroke-linejoin:round;">
<path d="M87413 43547
L87413 43350
" />
</g>
<g style="fill:#000000; fill-opacity:0.0; 
stroke:#000000; stroke-width:236.22; stroke-opacity:1; 
stroke-linecap:round; stroke-linejoin:round;">
<path d="M87397 43531
L87413 43547
" />
</g>
<g style="fill:#000000; fill-opacity:0.0; 
stroke:#000000; stroke-width:314.961; stroke-opacity:1; 
stroke-linecap:round; stroke-linejoin:round;">
<path d="M86822 45909
L85838 44925
" />
<path d="M85838 44925
L85838 43547
" />
<path d="M87397 45909
L86822 45909
" />
</g>
<g style="fill:#000000; fill-opacity:0.0; 
stroke:#000000; stroke-width:255.906; stroke-opacity:1; 
stroke-linecap:round; stroke-linejoin:round;">
<path d="M90563 50929
L87413 50929
" />
<path d="M87413 48468
L87413 50929
" />
<path d="M87397 45909
L87397 48452
" />
<path d="M87397 48452
L87413 48468
" />
<path d="M94795 46303
L91464 46303
" />
<path d="M91464 46303
L91448 46287
" />
<path d="M89578 48468
L90759 47287
" />
<path d="M90759 47287
L91448 47287
" />
<path d="M88988 48468
L89578 48468
" />
</g>
<g style="fill:#000000; fill-opacity:0.0; 
stroke:#000000; stroke-width:216.535; stroke-opacity:1; 
stroke-linecap:round; stroke-linejoin:round;">
<path d="M75799 48173
L75799 38232
" />
<path d="M75799 38232
L76488 37543
" />
<path d="M76488 48862
L75799 48173
" />
<path d="M78259 48862
L76488 48862
" />
<path d="M78752 48370
L78259 48862
" />
<path d="M78752 47582
L78752 48370
" />
</g>
<g style="fill:#000000; fill-opacity:0.0; 
stroke:#000000; stroke-width:314.961; stroke-opacity:1; 
stroke-linecap:round; stroke-linejoin:round;">
<path d="M80673 47566
L78767 47566
" />
<path d="M78767 47566
L78752 47582
" />
</g>
<g style="fill:#000000; fill-opacity:0.0; 
stroke:#000000; stroke-width:590.551; stroke-opacity:1; 
stroke-linecap:round; stroke-linejoin:round;">
<path d="M88200 29767
L91476 29767
" />
<path d="M91476 29767
L93529 31820
" />
<path d="M93529 31820
L93529 39104
" />
<path d="M93529 39104
L93505 39128
" />
<path d="M83279 28389
L82885 28783
" />
<path d="M82885 28783
L82885 29767
" />
<path d="M86232 28389
L83279 28389
" />
<path d="M87610 29767
L86232 28389
" />
<path d="M88200 29767
L87610 29767
" />
</g>
<g style="fill:#000000; fill-opacity:0.0; 
stroke:#000000; stroke-width:255.906; stroke-opacity:1; 
stroke-linecap:round; stroke-linejoin:round;">
<path d="M78161 29767
L78161 31736
" />
</g>
<g style="fill:#000000; fill-opacity:0.0; 
stroke:#000000; stroke-width:590.551; stroke-opacity:1; 
stroke-linecap:round; stroke-linejoin:round;">
<path d="M81885 29767
L78161 29767
" />
</g>
<g style="fill:#000000; fill-opacity:0.0; 
stroke:#000000; stroke-width:314.961; stroke-opacity:1; 
stroke-linecap:round; stroke-linejoin:round;">
<path d="M83870 34984
L85838 34984
" />
<path d="M83870 34984
L83870 29783
" />
<path d="M83870 29783
L83885 29767
" />
<path d="M83082 36559
L81606 35082
" />
<path d="M81606 35082
L81606 34196
" />
<path d="M83870 36559
L83082 36559
" />
<path d="M85838 36559
L83870 36559
" />
</g>
<g style="fill:#000000; fill-opacity:1.0; 
stroke:#000000; stroke-width:100; stroke-opacity:1; 
stroke-linecap:round; stroke-linejoin:round;">
<polyline style="fill-rule:evenodd;"
points="66344,54773
96769,54773
96769,45968
95384,45968
95384,46637
95365,46735
95310,46818
95227,46873
95130,46892
94460,46892
94363,46873
94280,46818
94225,46735
94214,46681
91886,46681
91873,46700
91744,46787
91873,46873
92000,47063
92044,47287
92000,47511
91873,47700
91856,47712
91881,47717
91963,47772
92019,47855
92027,47899
92448,47899
92597,47929
92723,48013
93691,48981
93775,49107
93805,49255
93805,53488
93775,53636
93691,53762
93199,54254
93073,54338
92925,54368
85444,54368
85296,54338
85170,54254
83792,52876
83708,52750
83708,52749
83679,52602
83679,52436
83658,52427
83454,52224
83411,52120
83411,52337
83373,52429
83303,52499
83211,52537
82801,52537
82739,52474
82739,51864
82639,51864
82639,52474
82576,52537
82166,52537
82075,52499
82004,52429
81966,52337
81966,51927
82029,51864
82639,51864
82739,51864
82746,51864
82746,51764
82739,51764
82739,51155
82639,51155
82639,51764
82029,51764
81966,51702
81966,51292
82004,51200
82075,51130
82166,51092
82576,51092
82639,51155
82739,51155
82801,51092
83211,51092
83303,51130
83373,51200
83411,51292
83411,51509
83454,51406
83657,51202
83922,51092
84210,51092
84475,51202
84679,51405
84789,51670
84789,51958
84679,52223
84476,52427
84454,52436
84454,52441
85605,53592
92764,53592
93029,53327
93029,50437
92786,50437
92786,51421
92767,51518
92711,51601
92629,51656
92531,51676
92525,51676
92525,52486
92616,52577
92702,52784
92702,53009
92617,53217
92458,53376
92250,53462
92025,53462
91818,53376
91659,53218
91645,53185
91632,53217
91474,53376
91266,53462
91041,53462
90834,53376
90773,53316
87780,53316
87716,53381
87520,53462
87307,53462
87111,53381
86961,53231
86880,53035
86879,52823
86960,52627
87035,52552
87035,52305
86961,52231
86880,52035
86879,51823
86960,51627
87110,51477
87226,51429
87111,51381
86961,51231
86880,51035
86879,50823
86960,50627
87035,50552
87035,49215
87019,49215
86922,49196
86839,49140
86784,49058
86764,48960
86764,47976
86784,47878
86839,47796
86922,47740
87019,47721
87019,46471
86901,46392
86850,46316
86822,46316
86822,46316
86666,46285
86534,46197
85550,45213
85550,45213
85462,45081
85455,45044
85431,44925
85431,44925
85431,44291
85347,44274
85264,44219
85261,44215
85261,47090
85261,47090
85230,47246
85142,47378
84666,47855
84666,47855
84586,47908
84533,47943
84378,47974
84232,47974
84094,48066
84244,48167
84366,48350
84409,48566
84366,48783
84244,48966
84080,49075
84080,49551
84080,49551
84049,49707
83961,49839
82977,50823
82977,50823
82844,50911
82689,50942
82689,50942
82070,50942
80910,52103
80910,52103
80805,52173
80778,52191
80646,52217
80644,52223
80441,52427
80175,52537
79888,52537
79622,52427
79520,52325
79093,52325
79045,52438
78776,52541
78489,52532
78262,52438
78213,52325
78653,51885
79093,52325
79520,52325
79419,52224
79344,52044
79277,52206
79164,52254
78724,51814
79164,51374
79277,51423
79341,51592
79418,51406
79520,51304
79093,51304
78653,51744
78213,51304
78262,51191
78530,51088
78817,51096
79045,51191
79093,51304
79520,51304
79621,51202
79887,51092
80174,51092
80440,51202
80549,51311
81607,50253
81606,50253
79019,50253
77991,51282
78003,51342
78003,51487
78029,51423
78142,51374
78582,51814
78142,52254
78029,52206
78003,52136
78003,52287
77983,52384
77928,52467
77845,52522
77748,52542
76803,52542
76705,52522
76622,52467
76567,52384
76548,52287
76548,51594
74463,49509
74385,49393
74358,49255
74358,36165
74385,36028
74463,35912
76431,33943
76548,33865
76685,33838
79382,33838
79382,33704
79402,33607
79457,33524
79540,33469
79637,33449
80425,33449
80522,33469
80605,33524
80660,33607
80680,33704
80680,34688
80660,34786
80605,34869
80522,34924
80425,34943
80409,34943
80409,35319
80523,35319
80621,35339
80703,35394
80759,35477
80778,35574
80778,36362
80759,36459
80703,36542
80621,36597
80523,36617
79539,36617
79441,36597
79359,36542
79303,36459
79284,36362
79284,35574
79303,35477
79359,35394
79441,35339
79539,35319
79653,35319
79653,34943
79637,34943
79540,34924
79457,34869
79402,34786
79382,34688
79382,34555
76833,34555
75074,36313
75074,49107
77044,51076
78562,49558
78694,49469
78850,49438
78850,49438
81437,49438
81789,49087
81789,47259
81504,46974
81232,46974
81094,47066
81244,47167
81366,47350
81409,47566
81366,47783
81244,47966
81094,48066
81244,48167
81366,48350
81409,48566
81366,48783
81244,48966
81061,49088
80844,49131
80501,49131
80285,49088
80102,48966
79979,48783
79936,48566
79979,48350
80102,48167
80252,48066
80114,47974
79400,47974
79400,48074
79381,48172
79325,48255
79243,48310
79145,48329
79110,48329
79110,48370
79083,48507
79005,48623
78513,49115
78397,49193
78259,49220
76488,49220
76351,49193
76234,49115
75545,48426
75535,48410
75468,48310
75441,48173
75441,38232
75468,38095
75545,37978
75800,37724
75800,37110
75819,37012
75874,36929
75957,36874
76055,36855
76921,36855
77018,36874
77094,36925
77094,35869
77010,35785
76927,35585
76927,35368
77009,35167
77163,35014
77363,34931
77580,34931
77780,35013
77934,35167
78017,35367
78017,35584
77935,35784
77850,35869
77850,36970
77984,37060
78035,37135
79287,37135
79303,37052
79359,36969
79441,36914
79539,36894
80523,36894
80621,36914
80703,36969
80759,37052
80778,37149
80778,37151
82169,37151
82201,37103
82410,36964
82656,36915
82896,36915
82794,36847
81318,35370
81318,35370
81229,35238
81224,35209
81198,35082
81198,35082
81198,34941
81115,34924
81032,34869
80977,34786
80957,34688
80957,33704
80977,33607
81032,33524
81115,33469
81212,33449
82000,33449
82097,33469
82180,33524
82235,33607
82254,33704
82254,34688
82235,34786
82180,34869
82097,34924
82036,34936
83221,36121
83221,35968
83240,35870
83296,35788
83378,35733
83476,35713
84263,35713
84361,35733
84444,35788
84499,35870
84518,35968
84518,36151
85094,36151
85111,36067
85166,35985
85248,35929
85346,35910
86330,35910
86428,35929
86511,35985
86566,36067
86585,36165
86585,36952
86566,37050
86511,37132
86428,37188
86330,37207
85346,37207
85248,37188
85166,37132
85111,37050
85094,36966
84518,36966
84518,37149
84499,37247
84444,37329
84361,37385
84263,37404
83696,37404
83727,37559
83691,37737
83870,37702
84116,37751
84325,37890
84464,38099
84513,38345
84513,38772
84464,39018
84325,39227
84116,39367
83870,39416
83623,39367
83414,39227
83275,39018
83226,38772
83226,38345
83261,38167
83083,38202
82656,38202
82410,38153
82201,38014
82169,37966
80772,37966
80759,38034
80703,38117
80621,38172
80523,38191
80389,38191
80389,39709
80464,39709
80562,39729
80644,39784
80700,39867
80719,39964
80719,40830
80700,40928
80644,41010
80604,41038
80696,41241
80650,41347
80081,41347
80081,41339
79981,41339
79981,41347
79412,41347
79366,41241
79459,41038
79418,41010
79363,40928
79343,40830
79343,39964
79363,39867
79418,39784
79500,39729
79598,39709
79673,39709
79673,38191
79539,38191
79441,38172
79359,38117
79303,38034
79287,37950
78035,37950
77984,38026
77763,38174
77501,38226
77474,38226
77213,38174
77127,38117
77101,38156
77018,38211
76921,38231
76306,38231
76157,38380
76157,48024
76636,48503
78111,48503
78297,48317
78260,48310
78178,48255
78122,48172
78103,48074
78103,47090
78122,46993
78178,46910
78260,46855
78358,46835
79145,46835
79243,46855
79325,46910
79381,46993
79400,47090
79400,47159
80114,47159
80252,47066
80102,46966
79979,46783
79936,46566
79979,46350
80102,46167
80252,46066
80102,45966
79979,45783
79936,45566
79979,45350
80102,45167
80285,45044
80501,45001
80844,45001
81061,45044
81244,45167
81366,45350
81409,45566
81366,45783
81244,45966
81094,46066
81232,46159
81673,46159
81673,46159
81688,46162
81623,46065
81622,46062
81592,45909
81592,45909
81592,45192
81043,44643
79511,44643
78726,45428
78726,45627
78640,45835
78481,45994
78274,46080
78049,46080
77841,45994
77682,45836
77669,45803
77656,45835
77584,45907
77584,46838
77668,46855
77751,46910
77806,46993
77825,47090
77825,48074
77806,48172
77751,48255
77668,48310
77570,48329
76783,48329
76685,48310
76603,48255
76548,48172
76528,48074
76528,47090
76548,46993
76603,46910
76685,46855
76769,46838
76769,45907
76698,45836
76612,45628
76612,45403
76698,45196
76856,45037
77064,44950
77289,44950
77496,45036
77655,45195
77669,45227
77682,45196
77841,45037
78048,44950
78051,44950
79054,43948
79186,43859
79342,43828
79342,43828
81043,43828
81613,43259
81745,43171
81745,43055
81764,42957
81819,42874
81902,42819
82000,42800
82787,42800
82885,42819
82967,42874
83022,42957
83042,43055
83042,44039
83022,44136
82967,44219
82885,44274
82787,44294
82000,44294
81902,44274
81819,44219
81814,44211
81788,44236
82288,44735
82376,44867
82407,45023
82407,45023
82407,45740
82826,46159
83114,46159
83160,46128
83103,46117
83020,46062
82965,45979
82945,45881
82945,45251
82965,45154
83020,45071
83103,45016
83200,44997
84145,44997
84243,45016
84325,45071
84381,45154
84400,45251
84400,45881
84381,45979
84325,46062
84243,46117
84186,46128
84244,46167
84320,46280
84358,46306
84438,46426
84446,46467
84446,44274
84412,44289
84081,44289
84018,44226
84018,43597
83918,43597
83918,44226
83856,44289
83525,44289
83433,44251
83362,44180
83324,44089
83324,43659
83387,43597
83918,43597
84018,43597
84026,43597
84026,43497
84018,43497
84018,42867
83918,42867
83918,43497
83387,43497
83324,43434
83324,43005
83362,42913
83433,42843
83525,42805
83856,42805
83918,42867
84018,42867
84081,42805
84412,42805
84503,42843
84510,42850
84531,42819
84566,42766
84566,42766
85156,42176
85289,42088
85444,42057
85444,42057
86921,42057
86921,42057
87077,42088
87209,42176
87209,42176
87701,42668
87789,42800
87807,42800
87904,42819
87987,42874
88042,42957
88062,43055
88062,43139
88497,43139
88497,43114
88516,43016
88571,42933
88654,42878
88752,42859
89618,42859
89715,42878
89798,42933
89825,42974
90029,42882
90135,42928
90135,43497
90127,43497
90127,43597
90135,43597
90135,44165
90029,44212
89825,44119
89798,44160
89715,44215
89618,44235
88752,44235
88654,44215
88571,44160
88516,44077
88497,43980
88497,43954
88062,43954
88062,44039
88042,44136
87987,44219
87904,44274
87807,44294
87019,44294
86922,44274
86839,44219
86784,44136
86764,44039
86764,43055
86784,42957
86805,42925
86752,42872
86408,42872
86412,42874
86467,42957
86487,43055
86487,44039
86467,44136
86412,44219
86329,44274
86246,44291
86246,44756
86910,45420
87122,45278
87384,45226
87411,45226
87672,45278
87754,45333
87823,45264
87914,45226
88285,45226
88347,45288
88347,45859
88339,45859
88339,45959
88347,45959
88347,46530
88285,46592
87914,46592
87823,46554
87775,46507
87775,47721
87807,47721
87904,47740
87987,47796
88042,47878
88062,47976
88062,48960
88042,49058
87987,49140
87904,49196
87807,49215
87791,49215
87791,50551
89914,50551
89914,50437
89933,50339
89989,50256
90071,50201
90169,50182
90956,50182
91054,50201
91137,50256
91192,50339
91211,50437
91211,51421
91192,51518
91137,51601
91054,51656
90956,51676
90169,51676
90071,51656
89989,51601
89933,51518
89914,51421
89914,51307
87789,51307
87716,51381
87600,51429
87715,51476
87865,51626
87946,51822
87947,52034
87865,52230
87791,52305
87791,52541
90711,52541
90833,52418
91040,52332
91265,52332
91473,52418
91632,52577
91645,52609
91658,52578
91750,52486
91750,51676
91744,51676
91646,51656
91563,51601
91508,51518
91489,51421
91489,50437
91508,50339
91563,50256
91646,50201
91744,50182
92531,50182
92629,50201
92711,50256
92767,50339
92786,50437
93029,50437
93029,49416
92288,48675
92027,48675
92019,48719
91963,48802
91881,48857
91783,48876
91114,48876
91016,48857
90934,48802
90878,48719
90859,48622
90859,47952
90878,47855
90934,47772
91016,47717
91041,47712
91024,47700
91000,47665
90916,47665
89846,48735
89846,48735
89746,48802
89723,48817
89636,48834
89636,48960
89617,49058
89562,49140
89479,49196
89381,49215
88594,49215
88497,49196
88414,49140
88359,49058
88339,48960
88339,47976
88359,47878
88414,47796
88497,47740
88594,47721
89381,47721
89479,47740
89562,47796
89617,47878
89620,47892
90492,47020
90615,46938
90759,46909
90759,46909
91000,46909
91024,46873
91153,46787
91024,46700
90897,46511
90852,46287
90897,46063
90925,46021
89080,46021
89080,46392
89042,46484
88972,46554
88880,46592
88510,46592
88447,46530
88447,45959
89018,45959
89080,46021
90925,46021
91024,45873
91213,45747
91437,45702
91460,45702
91684,45747
91873,45873
91907,45925
94214,45925
94225,45870
94280,45788
94363,45733
94403,45724
94294,45605
94227,45443
94236,45426
89080,45426
89080,45796
89018,45859
88447,45859
88447,45288
88510,45226
88880,45226
88972,45264
89042,45334
89080,45426
94236,45426
94275,45353
94745,45353
94745,45361
94845,45361
94845,45353
95315,45353
95362,45443
95296,45605
95186,45724
95227,45733
95310,45788
95365,45870
95384,45968
96769,45968
96769,45162
95362,45162
95315,45253
94845,45253
94845,44783
94745,44783
94745,45253
94275,45253
94227,45162
94294,45001
94448,44832
94654,44735
94745,44783
94845,44783
94935,44735
95142,44832
95296,45001
95362,45162
96769,45162
96769,43703
90850,43703
90765,43907
90583,44101
90341,44212
90235,44165
90235,43597
90803,43597
90850,43703
96769,43703
96769,43391
90850,43391
90803,43497
90235,43497
90235,42928
90341,42882
90583,42992
90765,43187
90850,43391
96769,43391
96769,41553
80696,41553
80586,41796
80391,41978
80187,42062
80081,42016
80081,41447
79981,41447
79981,42016
79875,42062
79671,41978
79476,41796
79366,41553
79412,41447
79981,41447
80081,41447
80650,41447
80696,41553
96769,41553
96769,31834
94452,31834
94433,31932
94378,32014
94075,32317
94075,38675
94118,38718
94228,38983
94228,39271
94118,39536
93915,39740
93650,39850
93362,39850
93270,39812
93379,39922
93435,40004
93454,40102
93435,40199
93379,40282
92711,40950
92629,41005
92531,41025
92434,41005
92351,40950
91683,40282
91627,40199
91608,40102
91627,40004
91660,39956
91634,39917
91592,39708
91592,33703
91525,33636
91415,33370
91415,33261
90041,31887
88892,31887
88873,31916
88790,31971
88692,31991
87708,31991
87611,31971
87528,31916
87473,31833
87453,31736
87453,30948
87473,30851
87528,30768
87611,30713
87708,30693
88692,30693
88790,30713
88873,30768
88892,30797
90267,30797
90476,30838
90653,30956
92200,32504
92280,32504
92546,32613
92749,32816
92860,33082
92860,33369
92750,33635
92683,33702
92683,39234
92711,39253
92821,39363
92783,39272
92783,38984
92893,38719
92984,38627
92984,32317
92681,32014
92626,31932
92606,31834
92626,31737
92645,31707
91251,30312
88892,30312
88873,30341
88790,30396
88692,30416
87708,30416
87611,30396
87528,30341
87493,30289
87401,30271
87224,30153
86006,28935
83505,28935
83431,29009
83431,29179
83434,29177
83531,29158
84240,29158
84337,29177
84420,29233
84475,29315
84495,29413
84495,30122
84475,30219
84420,30302
84337,30357
84277,30369
84277,34576
85094,34576
85111,34493
85166,34410
85248,34355
85346,34335
86330,34335
86428,34355
86511,34410
86566,34493
86585,34590
86585,35377
86566,35475
86511,35558
86428,35613
86330,35632
85346,35632
85248,35613
85166,35558
85111,35475
85094,35391
84233,35391
84179,35446
83979,35529
83762,35529
83561,35446
83408,35293
83324,35093
83324,34876
83407,34675
83462,34620
83462,30363
83434,30357
83351,30302
83296,30219
83295,30215
83129,30326
82897,30372
82874,30372
82642,30326
82446,30195
82385,30103
82325,30195
82129,30326
81897,30372
81874,30372
81642,30326
81623,30312
78799,30312
78790,30357
78735,30440
78652,30495
78555,30514
78539,30514
78539,30989
78555,30989
78652,31008
78735,31063
78790,31146
78810,31244
78810,32228
78790,32325
78735,32408
78652,32463
78555,32483
77767,32483
77670,32463
77587,32408
77532,32325
77512,32228
77512,31244
77235,31244
77235,32228
77215,32325
77160,32408
77077,32463
76980,32483
76192,32483
76095,32463
76012,32408
75957,32325
75948,32281
72903,32281
71909,33275
71909,33369
71800,33635
71620,33815
71620,51338
71686,51405
71797,51670
71797,51958
71687,52223
71484,52427
71219,52537
70931,52537
70666,52427
70462,52224
70385,52039
70309,52223
70106,52427
69841,52537
69553,52537
69288,52427
69084,52224
69041,52120
69041,52337
69003,52429
68933,52499
68841,52537
68431,52537
68368,52474
68368,51864
68268,51864
68268,52474
68206,52537
67796,52537
67704,52499
67634,52429
67596,52337
67596,51927
67659,51864
68268,51864
68368,51864
68376,51864
68376,51764
68368,51764
68368,51155
68268,51155
68268,51764
67659,51764
67596,51702
67596,51292
67634,51200
67704,51130
67796,51092
68206,51092
68268,51155
68368,51155
68431,51092
68841,51092
68933,51130
69003,51200
69041,51292
69041,51509
69084,51406
69151,51338
69151,47710
69101,47660
68988,47660
68890,47641
68808,47585
68752,47503
68749,47487
68645,47487
68615,47584
68404,47660
68179,47649
68022,47584
67992,47487
68318,47161
68645,47487
68749,47487
68734,47410
68715,47416
68389,47090
68248,47090
67922,47416
67825,47387
67749,47175
67760,46951
67825,46793
67922,46764
68248,47090
68389,47090
68715,46764
68734,46770
68749,46693
68645,46693
68318,47019
67992,46693
68022,46596
68233,46520
68458,46531
68615,46596
68645,46693
68749,46693
68752,46678
68757,46670
68757,42821
68738,42774
68738,42549
68823,42341
68982,42182
69190,42096
69415,42096
69622,42182
69729,42288
69737,42248
69792,42166
69874,42110
69972,42091
70529,42091
70529,39854
70300,39899
70274,39899
70012,39847
69930,39792
69862,39861
69770,39899
69399,39899
69337,39837
69337,39266
69237,39266
69237,39837
69174,39899
68804,39899
68712,39861
68642,39791
68604,39699
68604,39329
68666,39266
69237,39266
69337,39266
69345,39266
69345,39166
69337,39166
69337,38595
69237,38595
69237,39166
68666,39166
68604,39104
68604,38733
68642,38641
68712,38571
68804,38533
69174,38533
69237,38595
69337,38595
69399,38533
69770,38533
69862,38571
69930,38640
70012,38585
70274,38533
70300,38533
70529,38578
70529,33526
70464,33370
70464,33083
70574,32817
70777,32614
71042,32504
71138,32504
71306,32336
70226,32336
70226,32425
69936,32714
69845,32752
69745,32752
69653,32714
69364,32425
69364,32336
69795,31905
70226,32336
71306,32336
71758,31884
70713,31884
70675,31976
70385,32265
70297,32265
69866,31834
69724,31834
69293,32265
69204,32265
68915,31976
68877,31884
68877,31784
68915,31693
69204,31403
69293,31403
69724,31834
69866,31834
70297,31403
70385,31403
70675,31693
70713,31784
70713,31884
71758,31884
72292,31350
72404,31275
72451,31244
70226,31244
70226,31332
69795,31763
69364,31332
69364,31244
69653,30954
69745,30916
69845,30916
69936,30954
70226,31244
72451,31244
72468,31232
72677,31190
75948,31190
75957,31146
76012,31063
76095,31008
76192,30989
76980,30989
77077,31008
77160,31063
77215,31146
77235,31244
77512,31244
77532,31146
77587,31063
77670,31008
77767,30989
77783,30989
77783,30514
77767,30514
77670,30495
77587,30440
77532,30357
77512,30259
77512,29880
77230,29880
77230,30309
77192,30401
77122,30471
77030,30509
76699,30509
76636,30447
76636,29817
76536,29817
76536,30447
76474,30509
76143,30509
76051,30471
75981,30401
75942,30309
75942,29880
76005,29817
76536,29817
76636,29817
77167,29817
77230,29880
77512,29880
77512,29275
77522,29225
77230,29225
77230,29655
77167,29717
76636,29717
76636,29088
76536,29088
76536,29717
76005,29717
75942,29655
75942,29225
75981,29133
76051,29063
76143,29025
76474,29025
76536,29088
76636,29088
76699,29025
77030,29025
77122,29063
77192,29133
77230,29225
77522,29225
77532,29178
77587,29095
77670,29040
77767,29020
78555,29020
78652,29040
78735,29095
78790,29178
78799,29222
81623,29222
81642,29209
81874,29163
81897,29163
82129,29209
82325,29340
82340,29363
82340,28783
82377,28598
82382,28574
82500,28397
82894,28004
83070,27885
83279,27844
86232,27844
86441,27885
86617,28004
87732,29119
88692,29119
88790,29138
88873,29193
88892,29222
91476,29222
91685,29263
91862,29382
93419,30939
93432,30931
93529,30911
93627,30931
93710,30986
94378,31654
94433,31737
94452,31834
96769,31834
96769,27793
66344,27793
66344,54773
" /> 
</g>
<g style="fill:#FFFFFF; fill-opacity:1.0; 
stroke:#FFFFFF; stroke-width:100; stroke-opacity:1; 
stroke-linecap:round; stroke-linejoin:round;">
</g>
<g style="fill:#FFFFFF; fill-opacity:1.0; 
stroke:#FFFFFF; stroke-width:0; stroke-opacity:1; 
stroke-linecap:round; stroke-linejoin:round;">
<circle cx="94795.4" cy="45303.1" r="68.8976" /> 
</g>
<g style="fill:#FFFFFF; fill-opacity:1.0; 
stroke:#FFFFFF; stroke-width:39.3701; stroke-opacity:1; 
stroke-linecap:round; stroke-linejoin:round;">
</g>
<g style="fill:#FFFFFF; fill-opacity:1.0; 
stroke:#FFFFFF; stroke-width:0; stroke-opacity:1; 
stroke-linecap:round; stroke-linejoin:round;">
<circle cx="94795.4" cy="46303.1" r="68.8976" /> 
</g>
<g style="fill:#FFFFFF; fill-opacity:1.0; 
stroke:#FFFFFF; stroke-width:39.3701; stroke-opacity:1; 
stroke-linecap:round; stroke-linejoin:round;">
</g>
<g style="fill:#FFFFFF; fill-opacity:1.0; 
stroke:#FFFFFF; stroke-width:0; stroke-opacity:1; 
stroke-linecap:round; stroke-linejoin:round;">
<circle cx="91448.9" cy="46287.4" r="68.8976" /> 
</g>
<g style="fill:#FFFFFF; fill-opacity:1.0; 
stroke:#FFFFFF; stroke-width:39.3701; stroke-opacity:1; 
stroke-linecap:round; stroke-linejoin:round;">
</g>
<g style="fill:#FFFFFF; fill-opacity:1.0; 
stroke:#FFFFFF; stroke-width:0; stroke-opacity:1; 
stroke-linecap:round; stroke-linejoin:round;">
<circle cx="91448.9" cy="47287.4" r="68.8976" /> 
</g>
<g style="fill:#FFFFFF; fill-opacity:1.0; 
stroke:#FFFFFF; stroke-width:39.3701; stroke-opacity:1; 
stroke-linecap:round; stroke-linejoin:round;">
</g>
<g style="fill:#FFFFFF; fill-opacity:1.0; 
stroke:#FFFFFF; stroke-width:0; stroke-opacity:1; 
stroke-linecap:round; stroke-linejoin:round;">
<circle cx="91448.9" cy="48287.4" r="68.8976" /> 
</g>
<g style="fill:#FFFFFF; fill-opacity:1.0; 
stroke:#FFFFFF; stroke-width:39.3701; stroke-opacity:1; 
stroke-linecap:round; stroke-linejoin:round;">
</g>
<g style="fill:#FFFFFF; fill-opacity:1.0; 
stroke:#FFFFFF; stroke-width:0; stroke-opacity:1; 
stroke-linecap:round; stroke-linejoin:round;">
<circle cx="93505.9" cy="39128" r="68.8976" /> 
</g>
<g style="fill:#FFFFFF; fill-opacity:1.0; 
stroke:#FFFFFF; stroke-width:39.3701; stroke-opacity:1; 
stroke-linecap:round; stroke-linejoin:round;">
</g>
<g style="fill:#FFFFFF; fill-opacity:1.0; 
stroke:#FFFFFF; stroke-width:0; stroke-opacity:1; 
stroke-linecap:round; stroke-linejoin:round;">
<circle cx="92531.6" cy="40102.4" r="68.8976" /> 
</g>
<g style="fill:#FFFFFF; fill-opacity:1.0; 
stroke:#FFFFFF; stroke-width:39.3701; stroke-opacity:1; 
stroke-linecap:round; stroke-linejoin:round;">
</g>
<g style="fill:#FFFFFF; fill-opacity:1.0; 
stroke:#FFFFFF; stroke-width:0; stroke-opacity:1; 
stroke-linecap:round; stroke-linejoin:round;">
<circle cx="82689.1" cy="51815" r="68.8976" /> 
</g>
<g style="fill:#FFFFFF; fill-opacity:1.0; 
stroke:#FFFFFF; stroke-width:39.3701; stroke-opacity:1; 
stroke-linecap:round; stroke-linejoin:round;">
</g>
<g style="fill:#FFFFFF; fill-opacity:1.0; 
stroke:#FFFFFF; stroke-width:0; stroke-opacity:1; 
stroke-linecap:round; stroke-linejoin:round;">
<circle cx="84067" cy="51815" r="68.8976" /> 
</g>
<g style="fill:#FFFFFF; fill-opacity:1.0; 
stroke:#FFFFFF; stroke-width:39.3701; stroke-opacity:1; 
stroke-linecap:round; stroke-linejoin:round;">
</g>
<g style="fill:#FFFFFF; fill-opacity:1.0; 
stroke:#FFFFFF; stroke-width:0; stroke-opacity:1; 
stroke-linecap:round; stroke-linejoin:round;">
<circle cx="69696.9" cy="51815" r="68.8976" /> 
</g>
<g style="fill:#FFFFFF; fill-opacity:1.0; 
stroke:#FFFFFF; stroke-width:39.3701; stroke-opacity:1; 
stroke-linecap:round; stroke-linejoin:round;">
</g>
<g style="fill:#FFFFFF; fill-opacity:1.0; 
stroke:#FFFFFF; stroke-width:0; stroke-opacity:1; 
stroke-linecap:round; stroke-linejoin:round;">
<circle cx="71074.9" cy="51815" r="68.8976" /> 
</g>
<g style="fill:#FFFFFF; fill-opacity:1.0; 
stroke:#FFFFFF; stroke-width:39.3701; stroke-opacity:1; 
stroke-linecap:round; stroke-linejoin:round;">
</g>
<g style="fill:#FFFFFF; fill-opacity:1.0; 
stroke:#FFFFFF; stroke-width:0; stroke-opacity:1; 
stroke-linecap:round; stroke-linejoin:round;">
<circle cx="68319" cy="51815" r="68.8976" /> 
</g>
<g style="fill:#FFFFFF; fill-opacity:1.0; 
stroke:#FFFFFF; stroke-width:39.3701; stroke-opacity:1; 
stroke-linecap:round; stroke-linejoin:round;">
</g>
<g style="fill:#FFFFFF; fill-opacity:1.0; 
stroke:#FFFFFF; stroke-width:0; stroke-opacity:1; 
stroke-linecap:round; stroke-linejoin:round;">
<circle cx="77275.7" cy="51815" r="68.8976" /> 
</g>
<g style="fill:#FFFFFF; fill-opacity:1.0; 
stroke:#FFFFFF; stroke-width:39.3701; stroke-opacity:1; 
stroke-linecap:round; stroke-linejoin:round;">
</g>
<g style="fill:#FFFFFF; fill-opacity:1.0; 
stroke:#FFFFFF; stroke-width:0; stroke-opacity:1; 
stroke-linecap:round; stroke-linejoin:round;">
<circle cx="80031.6" cy="51815" r="68.8976" /> 
</g>
<g style="fill:#FFFFFF; fill-opacity:1.0; 
stroke:#FFFFFF; stroke-width:39.3701; stroke-opacity:1; 
stroke-linecap:round; stroke-linejoin:round;">
</g>
<g style="fill:#FFFFFF; fill-opacity:1.0; 
stroke:#FFFFFF; stroke-width:0; stroke-opacity:1; 
stroke-linecap:round; stroke-linejoin:round;">
<circle cx="78653.6" cy="51815" r="68.8976" /> 
</g>
<g style="fill:#FFFFFF; fill-opacity:1.0; 
stroke:#FFFFFF; stroke-width:39.3701; stroke-opacity:1; 
stroke-linecap:round; stroke-linejoin:round;">
</g>
<g style="fill:#FFFFFF; fill-opacity:1.0; 
stroke:#FFFFFF; stroke-width:0; stroke-opacity:1; 
stroke-linecap:round; stroke-linejoin:round;">
<circle cx="69795.4" cy="31834.6" r="68.8976" /> 
</g>
<g style="fill:#FFFFFF; fill-opacity:1.0; 
stroke:#FFFFFF; stroke-width:39.3701; stroke-opacity:1; 
stroke-linecap:round; stroke-linejoin:round;">
</g>
<g style="fill:#FFFFFF; fill-opacity:1.0; 
stroke:#FFFFFF; stroke-width:0; stroke-opacity:1; 
stroke-linecap:round; stroke-linejoin:round;">
<circle cx="71187.3" cy="33226.6" r="68.8976" /> 
</g>
<g style="fill:#FFFFFF; fill-opacity:1.0; 
stroke:#FFFFFF; stroke-width:39.3701; stroke-opacity:1; 
stroke-linecap:round; stroke-linejoin:round;">
</g>
<g style="fill:#FFFFFF; fill-opacity:1.0; 
stroke:#FFFFFF; stroke-width:0; stroke-opacity:1; 
stroke-linecap:round; stroke-linejoin:round;">
<circle cx="92137.9" cy="33226.6" r="68.8976" /> 
</g>
<g style="fill:#FFFFFF; fill-opacity:1.0; 
stroke:#FFFFFF; stroke-width:39.3701; stroke-opacity:1; 
stroke-linecap:round; stroke-linejoin:round;">
</g>
<g style="fill:#FFFFFF; fill-opacity:1.0; 
stroke:#FFFFFF; stroke-width:0; stroke-opacity:1; 
stroke-linecap:round; stroke-linejoin:round;">
<circle cx="93529.8" cy="31834.6" r="68.8976" /> 
</g>
<g style="fill:#FFFFFF; fill-opacity:1.0; 
stroke:#FFFFFF; stroke-width:39.3701; stroke-opacity:1; 
stroke-linecap:round; stroke-linejoin:round;">
</g>
<g style="fill:#FFFFFF; fill-opacity:1.0; 
stroke:#FFFFFF; stroke-width:0; stroke-opacity:1; 
stroke-linecap:round; stroke-linejoin:round;">
<circle cx="69303.2" cy="47090.6" r="68.8976" /> 
</g>
<g style="fill:#FFFFFF; fill-opacity:1.0; 
stroke:#FFFFFF; stroke-width:39.3701; stroke-opacity:1; 
stroke-linecap:round; stroke-linejoin:round;">
</g>
<g style="fill:#FFFFFF; fill-opacity:1.0; 
stroke:#FFFFFF; stroke-width:0; stroke-opacity:1; 
stroke-linecap:round; stroke-linejoin:round;">
<circle cx="68319" cy="47090.6" r="68.8976" /> 
</g>
<g style="fill:#FFFFFF; fill-opacity:1.0; 
stroke:#FFFFFF; stroke-width:39.3701; stroke-opacity:1; 
stroke-linecap:round; stroke-linejoin:round;">
</g>
<g style="fill:#FFFFFF; fill-opacity:1.0; 
stroke:#FFFFFF; stroke-width:0; stroke-opacity:1; 
stroke-linecap:round; stroke-linejoin:round;">
<circle cx="69303.2" cy="42661.4" r="68.8976" /> 
</g>
<g style="fill:#FFFFFF; fill-opacity:1.0; 
stroke:#FFFFFF; stroke-width:39.3701; stroke-opacity:1; 
stroke-linecap:round; stroke-linejoin:round;">
</g>
<g style="fill:#FFFFFF; fill-opacity:1.0; 
stroke:#FFFFFF; stroke-width:0; stroke-opacity:1; 
stroke-linecap:round; stroke-linejoin:round;">
<circle cx="70287.5" cy="42661.4" r="68.8976" /> 
</g>
<g style="fill:#FFFFFF; fill-opacity:1.0; 
stroke:#FFFFFF; stroke-width:39.3701; stroke-opacity:1; 
stroke-linecap:round; stroke-linejoin:round;">
</g>
<g style="fill:#FFFFFF; fill-opacity:1.0; 
stroke:#FFFFFF; stroke-width:0; stroke-opacity:1; 
stroke-linecap:round; stroke-linejoin:round;">
<circle cx="78161.5" cy="45515.7" r="68.8976" /> 
</g>
<g style="fill:#FFFFFF; fill-opacity:1.0; 
stroke:#FFFFFF; stroke-width:39.3701; stroke-opacity:1; 
stroke-linecap:round; stroke-linejoin:round;">
</g>
<g style="fill:#FFFFFF; fill-opacity:1.0; 
stroke:#FFFFFF; stroke-width:0; stroke-opacity:1; 
stroke-linecap:round; stroke-linejoin:round;">
<circle cx="77177.2" cy="45515.7" r="68.8976" /> 
</g>
<g style="fill:#FFFFFF; fill-opacity:1.0; 
stroke:#FFFFFF; stroke-width:39.3701; stroke-opacity:1; 
stroke-linecap:round; stroke-linejoin:round;">
</g>
<g style="fill:#FFFFFF; fill-opacity:1.0; 
stroke:#FFFFFF; stroke-width:0; stroke-opacity:1; 
stroke-linecap:round; stroke-linejoin:round;">
<circle cx="92137.9" cy="52897.6" r="68.8976" /> 
</g>
<g style="fill:#FFFFFF; fill-opacity:1.0; 
stroke:#FFFFFF; stroke-width:39.3701; stroke-opacity:1; 
stroke-linecap:round; stroke-linejoin:round;">
</g>
<g style="fill:#FFFFFF; fill-opacity:1.0; 
stroke:#FFFFFF; stroke-width:0; stroke-opacity:1; 
stroke-linecap:round; stroke-linejoin:round;">
<circle cx="91153.6" cy="52897.6" r="68.8976" /> 
</g>
<g style="fill:#FFFFFF; fill-opacity:1.0; 
stroke:#FFFFFF; stroke-width:39.3701; stroke-opacity:1; 
stroke-linecap:round; stroke-linejoin:round;">
</g>
<g style="fill:#FFFFFF; fill-opacity:1.0; 
stroke:#FFFFFF; stroke-width:0; stroke-opacity:1; 
stroke-linecap:round; stroke-linejoin:round;">
<circle cx="80031.6" cy="41397.6" r="68.8976" /> 
</g>
<g style="fill:#FFFFFF; fill-opacity:1.0; 
stroke:#FFFFFF; stroke-width:39.3701; stroke-opacity:1; 
stroke-linecap:round; stroke-linejoin:round;">
</g>
<g style="fill:#FFFFFF; fill-opacity:1.0; 
stroke:#FFFFFF; stroke-width:0; stroke-opacity:1; 
stroke-linecap:round; stroke-linejoin:round;">
<circle cx="80031.6" cy="40397.6" r="68.8976" /> 
</g>
<g style="fill:#FFFFFF; fill-opacity:1.0; 
stroke:#FFFFFF; stroke-width:39.3701; stroke-opacity:1; 
stroke-linecap:round; stroke-linejoin:round;">
</g>
<g style="fill:#FFFFFF; fill-opacity:1.0; 
stroke:#FFFFFF; stroke-width:0; stroke-opacity:1; 
stroke-linecap:round; stroke-linejoin:round;">
<circle cx="76488.3" cy="37543.3" r="68.8976" /> 
</g>
<g style="fill:#FFFFFF; fill-opacity:1.0; 
stroke:#FFFFFF; stroke-width:39.3701; stroke-opacity:1; 
stroke-linecap:round; stroke-linejoin:round;">
</g>
<g style="fill:#FFFFFF; fill-opacity:1.0; 
stroke:#FFFFFF; stroke-width:0; stroke-opacity:1; 
stroke-linecap:round; stroke-linejoin:round;">
<circle cx="77488.3" cy="37543.3" r="68.8976" /> 
</g>
<g style="fill:#FFFFFF; fill-opacity:1.0; 
stroke:#FFFFFF; stroke-width:39.3701; stroke-opacity:1; 
stroke-linecap:round; stroke-linejoin:round;">
</g>
<g style="fill:#FFFFFF; fill-opacity:1.0; 
stroke:#FFFFFF; stroke-width:0; stroke-opacity:1; 
stroke-linecap:round; stroke-linejoin:round;">
<circle cx="90185.1" cy="43547.2" r="68.8976" /> 
</g>
<g style="fill:#FFFFFF; fill-opacity:1.0; 
stroke:#FFFFFF; stroke-width:39.3701; stroke-opacity:1; 
stroke-linecap:round; stroke-linejoin:round;">
</g>
<g style="fill:#FFFFFF; fill-opacity:1.0; 
stroke:#FFFFFF; stroke-width:0; stroke-opacity:1; 
stroke-linecap:round; stroke-linejoin:round;">
<circle cx="89185.1" cy="43547.2" r="68.8976" /> 
</g>
<g style="fill:#FFFFFF; fill-opacity:1.0; 
stroke:#FFFFFF; stroke-width:39.3701; stroke-opacity:1; 
stroke-linecap:round; stroke-linejoin:round;">
</g>
<g style="fill:#FFFFFF; fill-opacity:1.0; 
stroke:#FFFFFF; stroke-width:0; stroke-opacity:1; 
stroke-linecap:round; stroke-linejoin:round;">
<circle cx="88397.7" cy="45909.4" r="68.8976" /> 
</g>
<g style="fill:#FFFFFF; fill-opacity:1.0; 
stroke:#FFFFFF; stroke-width:39.3701; stroke-opacity:1; 
stroke-linecap:round; stroke-linejoin:round;">
</g>
<g style="fill:#FFFFFF; fill-opacity:1.0; 
stroke:#FFFFFF; stroke-width:0; stroke-opacity:1; 
stroke-linecap:round; stroke-linejoin:round;">
<circle cx="87397.7" cy="45909.4" r="68.8976" /> 
</g>
<g style="fill:#FFFFFF; fill-opacity:1.0; 
stroke:#FFFFFF; stroke-width:39.3701; stroke-opacity:1; 
stroke-linecap:round; stroke-linejoin:round;">
</g>
<g style="fill:#FFFFFF; fill-opacity:1.0; 
stroke:#FFFFFF; stroke-width:0; stroke-opacity:1; 
stroke-linecap:round; stroke-linejoin:round;">
<circle cx="70287.5" cy="39216.5" r="68.8976" /> 
</g>
<g style="fill:#FFFFFF; fill-opacity:1.0; 
stroke:#FFFFFF; stroke-width:39.3701; stroke-opacity:1; 
stroke-linecap:round; stroke-linejoin:round;">
</g>
<g style="fill:#FFFFFF; fill-opacity:1.0; 
stroke:#FFFFFF; stroke-width:0; stroke-opacity:1; 
stroke-linecap:round; stroke-linejoin:round;">
<circle cx="69287.5" cy="39216.5" r="68.8976" /> 
</g>
<g style="fill:#FFFFFF; fill-opacity:1.0; 
stroke:#FFFFFF; stroke-width:39.3701; stroke-opacity:1; 
stroke-linecap:round; stroke-linejoin:round;">
</g>
<g style="fill:#FFFFFF; fill-opacity:1.0; 
stroke:#FFFFFF; stroke-width:0; stroke-opacity:1; 
stroke-linecap:round; stroke-linejoin:round;">
<circle cx="80673.3" cy="45566.9" r="68.8976" /> 
</g>
<g style="fill:#FFFFFF; fill-opacity:1.0; 
stroke:#FFFFFF; stroke-width:39.3701; stroke-opacity:1; 
stroke-linecap:round; stroke-linejoin:round;">
</g>
<g style="fill:#FFFFFF; fill-opacity:1.0; 
stroke:#FFFFFF; stroke-width:0; stroke-opacity:1; 
stroke-linecap:round; stroke-linejoin:round;">
<circle cx="83673.3" cy="48566.9" r="68.8976" /> 
</g>
<g style="fill:#FFFFFF; fill-opacity:1.0; 
stroke:#FFFFFF; stroke-width:39.3701; stroke-opacity:1; 
stroke-linecap:round; stroke-linejoin:round;">
</g>
<g style="fill:#FFFFFF; fill-opacity:1.0; 
stroke:#FFFFFF; stroke-width:0; stroke-opacity:1; 
stroke-linecap:round; stroke-linejoin:round;">
<circle cx="80673.3" cy="46566.9" r="68.8976" /> 
</g>
<g style="fill:#FFFFFF; fill-opacity:1.0; 
stroke:#FFFFFF; stroke-width:39.3701; stroke-opacity:1; 
stroke-linecap:round; stroke-linejoin:round;">
</g>
<g style="fill:#FFFFFF; fill-opacity:1.0; 
stroke:#FFFFFF; stroke-width:0; stroke-opacity:1; 
stroke-linecap:round; stroke-linejoin:round;">
<circle cx="83673.3" cy="47566.9" r="68.8976" /> 
</g>
<g style="fill:#FFFFFF; fill-opacity:1.0; 
stroke:#FFFFFF; stroke-width:39.3701; stroke-opacity:1; 
stroke-linecap:round; stroke-linejoin:round;">
</g>
<g style="fill:#FFFFFF; fill-opacity:1.0; 
stroke:#FFFFFF; stroke-width:0; stroke-opacity:1; 
stroke-linecap:round; stroke-linejoin:round;">
<circle cx="80673.3" cy="47566.9" r="68.8976" /> 
</g>
<g style="fill:#FFFFFF; fill-opacity:1.0; 
stroke:#FFFFFF; stroke-width:39.3701; stroke-opacity:1; 
stroke-linecap:round; stroke-linejoin:round;">
</g>
<g style="fill:#FFFFFF; fill-opacity:1.0; 
stroke:#FFFFFF; stroke-width:0; stroke-opacity:1; 
stroke-linecap:round; stroke-linejoin:round;">
<circle cx="83673.3" cy="46566.9" r="68.8976" /> 
</g>
<g style="fill:#FFFFFF; fill-opacity:1.0; 
stroke:#FFFFFF; stroke-width:39.3701; stroke-opacity:1; 
stroke-linecap:round; stroke-linejoin:round;">
</g>
<g style="fill:#FFFFFF; fill-opacity:1.0; 
stroke:#FFFFFF; stroke-width:0; stroke-opacity:1; 
stroke-linecap:round; stroke-linejoin:round;">
<circle cx="80673.3" cy="48566.9" r="68.8976" /> 
</g>
<g style="fill:#FFFFFF; fill-opacity:1.0; 
stroke:#FFFFFF; stroke-width:39.3701; stroke-opacity:1; 
stroke-linecap:round; stroke-linejoin:round;">
</g>
<g style="fill:#FFFFFF; fill-opacity:1.0; 
stroke:#FFFFFF; stroke-width:0; stroke-opacity:1; 
stroke-linecap:round; stroke-linejoin:round;">
<circle cx="83673.3" cy="45566.9" r="68.8976" /> 
</g>
<g style="fill:#FFFFFF; fill-opacity:1.0; 
stroke:#FFFFFF; stroke-width:39.3701; stroke-opacity:1; 
stroke-linecap:round; stroke-linejoin:round;">
</g>
<g style="fill:#FFFFFF; fill-opacity:1.0; 
stroke:#FFFFFF; stroke-width:0; stroke-opacity:1; 
stroke-linecap:round; stroke-linejoin:round;">
<circle cx="87413.5" cy="52929.1" r="68.8976" /> 
</g>
<g style="fill:#FFFFFF; fill-opacity:1.0; 
stroke:#FFFFFF; stroke-width:39.3701; stroke-opacity:1; 
stroke-linecap:round; stroke-linejoin:round;">
</g>
<g style="fill:#FFFFFF; fill-opacity:1.0; 
stroke:#FFFFFF; stroke-width:0; stroke-opacity:1; 
stroke-linecap:round; stroke-linejoin:round;">
<circle cx="87413.5" cy="51929.1" r="68.8976" /> 
</g>
<g style="fill:#FFFFFF; fill-opacity:1.0; 
stroke:#FFFFFF; stroke-width:39.3701; stroke-opacity:1; 
stroke-linecap:round; stroke-linejoin:round;">
</g>
<g style="fill:#FFFFFF; fill-opacity:1.0; 
stroke:#FFFFFF; stroke-width:0; stroke-opacity:1; 
stroke-linecap:round; stroke-linejoin:round;">
<circle cx="87413.5" cy="50929.1" r="68.8976" /> 
</g>
<g style="fill:#FFFFFF; fill-opacity:1.0; 
stroke:#FFFFFF; stroke-width:39.3701; stroke-opacity:1; 
stroke-linecap:round; stroke-linejoin:round;">
</g>
<g style="fill:#FFFFFF; fill-opacity:1.0; 
stroke:#FFFFFF; stroke-width:0; stroke-opacity:1; 
stroke-linecap:round; stroke-linejoin:round;">
<circle cx="81885.9" cy="29767.7" r="68.8976" /> 
</g>
<g style="fill:#FFFFFF; fill-opacity:1.0; 
stroke:#FFFFFF; stroke-width:39.3701; stroke-opacity:1; 
stroke-linecap:round; stroke-linejoin:round;">
</g>
<g style="fill:#FFFFFF; fill-opacity:1.0; 
stroke:#FFFFFF; stroke-width:0; stroke-opacity:1; 
stroke-linecap:round; stroke-linejoin:round;">
<circle cx="82885.9" cy="29767.7" r="68.8976" /> 
</g>
<g style="fill:#FFFFFF; fill-opacity:1.0; 
stroke:#FFFFFF; stroke-width:39.3701; stroke-opacity:1; 
stroke-linecap:round; stroke-linejoin:round;">
</g>
<g style="fill:#FFFFFF; fill-opacity:1.0; 
stroke:#FFFFFF; stroke-width:0; stroke-opacity:1; 
stroke-linecap:round; stroke-linejoin:round;">
<circle cx="83885.9" cy="29767.7" r="68.8976" /> 
</g>
<g style="fill:#FFFFFF; fill-opacity:1.0; 
stroke:#FFFFFF; stroke-width:39.3701; stroke-opacity:1; 
stroke-linecap:round; stroke-linejoin:round;">
</g>
<g style="fill:#FFFFFF; fill-opacity:1.0; 
stroke:#FFFFFF; stroke-width:0; stroke-opacity:1; 
stroke-linecap:round; stroke-linejoin:round;">
<circle cx="83870.2" cy="38559.1" r="68.8976" /> 
</g>
<g style="fill:#FFFFFF; fill-opacity:1.0; 
stroke:#FFFFFF; stroke-width:39.3701; stroke-opacity:1; 
stroke-linecap:round; stroke-linejoin:round;">
</g>
<g style="fill:#FFFFFF; fill-opacity:1.0; 
stroke:#FFFFFF; stroke-width:0; stroke-opacity:1; 
stroke-linecap:round; stroke-linejoin:round;">
<circle cx="83870.2" cy="36559.1" r="68.8976" /> 
</g>
<g style="fill:#FFFFFF; fill-opacity:1.0; 
stroke:#FFFFFF; stroke-width:39.3701; stroke-opacity:1; 
stroke-linecap:round; stroke-linejoin:round;">
</g>
<g style="fill:#FFFFFF; fill-opacity:1.0; 
stroke:#FFFFFF; stroke-width:0; stroke-opacity:1; 
stroke-linecap:round; stroke-linejoin:round;">
<circle cx="82870.2" cy="37559.1" r="68.8976" /> 
</g>
<g style="fill:#FFFFFF; fill-opacity:1.0; 
stroke:#FFFFFF; stroke-width:39.3701; stroke-opacity:1; 
stroke-linecap:round; stroke-linejoin:round;">
</g>
<g style="fill:#000000; fill-opacity:1.0; 
stroke:#000000; stroke-width:39.3701; stroke-opacity:1; 
stroke-linecap:round; stroke-linejoin:round;">
</g> 
</svg>
