G04 #@! TF.GenerationSoftware,KiCad,Pcbnew,no-vcs-found-be10de8~57~ubuntu16.10.1*
G04 #@! TF.CreationDate,2017-03-16T12:18:36+01:00*
G04 #@! TF.ProjectId,alimentatore,616C696D656E7461746F72652E6B6963,rev?*
G04 #@! TF.FileFunction,Copper,L2,Bot,Signal*
G04 #@! TF.FilePolarity,Positive*
%FSLAX46Y46*%
G04 Gerber Fmt 4.6, Leading zero omitted, Abs format (unit mm)*
G04 Created by KiCad (PCBNEW no-vcs-found-be10de8~57~ubuntu16.10.1) date Thu Mar 16 12:18:36 2017*
%MOMM*%
%LPD*%
G01*
G04 APERTURE LIST*
%ADD10C,0.100000*%
%ADD11C,0.200000*%
%ADD12O,1.700000X1.700000*%
%ADD13R,1.700000X1.700000*%
%ADD14C,2.400000*%
%ADD15R,2.400000X2.400000*%
%ADD16R,1.600000X1.600000*%
%ADD17C,1.600000*%
%ADD18O,2.200000X2.200000*%
%ADD19R,2.200000X2.200000*%
%ADD20O,2.400000X1.600000*%
%ADD21R,2.400000X1.600000*%
%ADD22C,1.440000*%
%ADD23O,1.800000X1.800000*%
%ADD24R,1.800000X1.800000*%
%ADD25O,2.000000X3.000000*%
%ADD26R,2.000000X3.000000*%
%ADD27O,3.000000X2.000000*%
%ADD28C,1.500000*%
%ADD29C,0.550000*%
%ADD30C,0.650000*%
G04 APERTURE END LIST*
D10*
D11*
X73000000Y63250000D02*
X-5750000Y63250000D01*
X73000000Y-6750000D02*
X73000000Y63250000D01*
X-5750000Y-6750000D02*
X73000000Y-6750000D01*
X-5750000Y63250000D02*
X-5750000Y-6750000D01*
D12*
X0Y18040000D03*
D13*
X0Y15500000D03*
D12*
X8500000Y15540000D03*
X8500000Y13000000D03*
D13*
X8500000Y10460000D03*
D14*
X3275126Y33724874D03*
X5750000Y31250000D03*
D10*
G36*
X7447056Y31250000D02*
X5750000Y29552944D01*
X4052944Y31250000D01*
X5750000Y32947056D01*
X7447056Y31250000D01*
X7447056Y31250000D01*
G37*
D15*
X30750000Y1500000D03*
D14*
X27250000Y1500000D03*
X63750000Y1500000D03*
X60250000Y1500000D03*
D15*
X67250000Y1500000D03*
X44500000Y1500000D03*
D14*
X37500000Y1500000D03*
X41000000Y1500000D03*
X63500000Y52250000D03*
D10*
G36*
X63500000Y53947056D02*
X65197056Y52250000D01*
X63500000Y50552944D01*
X61802944Y52250000D01*
X63500000Y53947056D01*
X63500000Y53947056D01*
G37*
D14*
X59964466Y48714466D03*
X6750000Y48714466D03*
X3214466Y52250000D03*
D10*
G36*
X1517410Y52250000D02*
X3214466Y53947056D01*
X4911522Y52250000D01*
X3214466Y50552944D01*
X1517410Y52250000D01*
X1517410Y52250000D01*
G37*
D16*
X64750000Y13500000D03*
D17*
X67250000Y13500000D03*
X64750000Y24750000D03*
D16*
X62250000Y24750000D03*
D17*
X42250000Y17500000D03*
X44750000Y17500000D03*
X6750000Y-1250000D03*
X9250000Y-1250000D03*
D18*
X37500000Y27960000D03*
D19*
X37500000Y30500000D03*
X46500000Y37750000D03*
D18*
X43960000Y37750000D03*
X11710000Y22500000D03*
D19*
X14250000Y22500000D03*
X16250000Y16500000D03*
D18*
X18790000Y16500000D03*
X62250000Y33500000D03*
D19*
X64790000Y33500000D03*
D20*
X35870000Y17370000D03*
X28250000Y9750000D03*
X35870000Y14830000D03*
X28250000Y12290000D03*
X35870000Y12290000D03*
X28250000Y14830000D03*
X35870000Y9750000D03*
D21*
X28250000Y17370000D03*
D22*
X18750000Y-1330000D03*
X18750000Y1210000D03*
X18750000Y3750000D03*
D23*
X32790000Y57500000D03*
X30250000Y57500000D03*
D24*
X27710000Y57500000D03*
D25*
X27750000Y35170000D03*
D26*
X27750000Y40250000D03*
D27*
X30290000Y37710000D03*
D28*
X6750000Y48750000D02*
X59928932Y48750000D01*
X59928932Y48750000D02*
X59964466Y48714466D01*
D29*
X5750000Y31250000D02*
X5750000Y22750000D01*
X5750000Y22750000D02*
X14000000Y14500000D01*
X14000000Y14500000D02*
X14000000Y3500000D01*
X14000000Y3500000D02*
X9250000Y-1250000D01*
D30*
X30750000Y1500000D02*
X30750000Y2000000D01*
X30750000Y2000000D02*
X16250000Y16500000D01*
D29*
X27750000Y35170000D02*
X27750000Y32250000D01*
X27750000Y32250000D02*
X23500000Y28000000D01*
X23500000Y28000000D02*
X23500000Y12000000D01*
X23500000Y12000000D02*
X25750000Y9750000D01*
X25750000Y9750000D02*
X28250000Y9750000D01*
M02*
