G04 #@! TF.GenerationSoftware,KiCad,Pcbnew,no-vcs-found-be10de8~57~ubuntu16.10.1*
G04 #@! TF.CreationDate,2017-03-16T12:18:36+01:00*
G04 #@! TF.ProjectId,alimentatore,616C696D656E7461746F72652E6B6963,rev?*
G04 #@! TF.FileFunction,Copper,L1,Top,Signal*
G04 #@! TF.FilePolarity,Positive*
%FSLAX46Y46*%
G04 Gerber Fmt 4.6, Leading zero omitted, Abs format (unit mm)*
G04 Created by KiCad (PCBNEW no-vcs-found-be10de8~57~ubuntu16.10.1) date Thu Mar 16 12:18:36 2017*
%MOMM*%
%LPD*%
G01*
G04 APERTURE LIST*
%ADD10C,0.100000*%
%ADD11C,0.200000*%
%ADD12O,1.700000X1.700000*%
%ADD13R,1.700000X1.700000*%
%ADD14R,2.000000X2.500000*%
%ADD15C,2.400000*%
%ADD16R,2.400000X2.400000*%
%ADD17C,1.500000*%
%ADD18R,1.600000X1.600000*%
%ADD19C,1.600000*%
%ADD20O,2.200000X2.200000*%
%ADD21R,2.200000X2.200000*%
%ADD22O,2.400000X1.600000*%
%ADD23R,2.400000X1.600000*%
%ADD24C,1.440000*%
%ADD25R,2.500000X2.000000*%
%ADD26O,1.800000X1.800000*%
%ADD27R,1.800000X1.800000*%
%ADD28O,2.000000X3.000000*%
%ADD29R,2.000000X3.000000*%
%ADD30O,3.000000X2.000000*%
%ADD31C,1.500000*%
%ADD32C,0.700000*%
%ADD33C,0.650000*%
%ADD34C,0.800000*%
%ADD35C,0.600000*%
%ADD36C,0.550000*%
%ADD37C,0.254000*%
G04 APERTURE END LIST*
D10*
D11*
X73000000Y63250000D02*
X-5750000Y63250000D01*
X73000000Y-6750000D02*
X73000000Y63250000D01*
X-5750000Y-6750000D02*
X73000000Y-6750000D01*
X-5750000Y63250000D02*
X-5750000Y-6750000D01*
D12*
X0Y18040000D03*
D13*
X0Y15500000D03*
D14*
X31500000Y22500000D03*
X27500000Y22500000D03*
D12*
X8500000Y15540000D03*
X8500000Y13000000D03*
D13*
X8500000Y10460000D03*
D15*
X3275126Y33724874D03*
X5750000Y31250000D03*
D10*
G36*
X7447056Y31250000D02*
X5750000Y29552944D01*
X4052944Y31250000D01*
X5750000Y32947056D01*
X7447056Y31250000D01*
X7447056Y31250000D01*
G37*
D16*
X30750000Y1500000D03*
D15*
X27250000Y1500000D03*
X63750000Y1500000D03*
X60250000Y1500000D03*
D16*
X67250000Y1500000D03*
X44500000Y1500000D03*
D15*
X37500000Y1500000D03*
X41000000Y1500000D03*
D17*
X27750000Y44250000D03*
X44000000Y43000000D03*
D15*
X63500000Y52250000D03*
D10*
G36*
X63500000Y53947056D02*
X65197056Y52250000D01*
X63500000Y50552944D01*
X61802944Y52250000D01*
X63500000Y53947056D01*
X63500000Y53947056D01*
G37*
D15*
X59964466Y48714466D03*
X6750000Y48714466D03*
X3214466Y52250000D03*
D10*
G36*
X1517410Y52250000D02*
X3214466Y53947056D01*
X4911522Y52250000D01*
X3214466Y50552944D01*
X1517410Y52250000D01*
X1517410Y52250000D01*
G37*
D18*
X64750000Y13500000D03*
D19*
X67250000Y13500000D03*
X64750000Y24750000D03*
D18*
X62250000Y24750000D03*
D19*
X42250000Y17500000D03*
X44750000Y17500000D03*
X6750000Y-1250000D03*
X9250000Y-1250000D03*
D20*
X37500000Y27960000D03*
D21*
X37500000Y30500000D03*
X46500000Y37750000D03*
D20*
X43960000Y37750000D03*
X11710000Y22500000D03*
D21*
X14250000Y22500000D03*
X16250000Y16500000D03*
D20*
X18790000Y16500000D03*
X62250000Y33500000D03*
D21*
X64790000Y33500000D03*
D22*
X35870000Y17370000D03*
X28250000Y9750000D03*
X35870000Y14830000D03*
X28250000Y12290000D03*
X35870000Y12290000D03*
X28250000Y14830000D03*
X35870000Y9750000D03*
D23*
X28250000Y17370000D03*
D24*
X18750000Y-1330000D03*
X18750000Y1210000D03*
X18750000Y3750000D03*
D14*
X42250000Y57500000D03*
X46250000Y57500000D03*
X42250000Y52500000D03*
X46250000Y52500000D03*
X14750000Y10000000D03*
X18750000Y10000000D03*
X10750000Y3750000D03*
X6750000Y3750000D03*
D25*
X16750000Y53500000D03*
X16750000Y57500000D03*
X22750000Y40250000D03*
X22750000Y44250000D03*
D14*
X33500000Y46250000D03*
X37500000Y46250000D03*
D25*
X37500000Y37750000D03*
X37500000Y41750000D03*
D14*
X44750000Y12250000D03*
X40750000Y12250000D03*
X22750000Y22500000D03*
X18750000Y22500000D03*
D26*
X32790000Y57500000D03*
X30250000Y57500000D03*
D27*
X27710000Y57500000D03*
D28*
X27750000Y35170000D03*
D29*
X27750000Y40250000D03*
D30*
X30290000Y37710000D03*
D31*
X60250000Y33500000D02*
X60250000Y24750000D01*
X60250000Y24750000D02*
X60250000Y1500000D01*
X62250000Y24750000D02*
X60250000Y24750000D01*
X46250000Y52500000D02*
X56178932Y52500000D01*
X56178932Y52500000D02*
X59964466Y48714466D01*
X60250000Y33500000D02*
X60250000Y48428932D01*
X60250000Y48428932D02*
X59964466Y48714466D01*
X62250000Y33500000D02*
X60250000Y33500000D01*
X16750000Y53500000D02*
X11500000Y53500000D01*
X11500000Y53500000D02*
X6750000Y48750000D01*
X6750000Y48750000D02*
X6750000Y32250000D01*
X6750000Y32250000D02*
X5750000Y31250000D01*
D32*
X18750000Y-1330000D02*
X9330000Y-1330000D01*
X9330000Y-1330000D02*
X9250000Y-1250000D01*
D33*
X18750000Y1210000D02*
X18750000Y-1330000D01*
D34*
X31500000Y22500000D02*
X32750000Y22500000D01*
X32750000Y22500000D02*
X34500000Y20750000D01*
X42250000Y17500000D02*
X42250000Y17750000D01*
X42250000Y17750000D02*
X39250000Y20750000D01*
X39250000Y20750000D02*
X34500000Y20750000D01*
X30830000Y14830000D02*
X28250000Y14830000D01*
X34500000Y20750000D02*
X32500000Y18750000D01*
X32500000Y18750000D02*
X32500000Y16500000D01*
X32500000Y16500000D02*
X30830000Y14830000D01*
D35*
X27170000Y14830000D02*
X28250000Y14830000D01*
D34*
X44750000Y17500000D02*
X44750000Y12250000D01*
D32*
X6750000Y-1250000D02*
X6750000Y3750000D01*
D33*
X67250000Y1500000D02*
X67250000Y-750000D01*
X67250000Y-750000D02*
X65500000Y-2500000D01*
X65500000Y-2500000D02*
X41750000Y-2500000D01*
X41750000Y-2500000D02*
X41000000Y-1750000D01*
D31*
X67250000Y13500000D02*
X67250000Y33500000D01*
X67250000Y33500000D02*
X67250000Y48500000D01*
X64790000Y33500000D02*
X67250000Y33500000D01*
X67250000Y48500000D02*
X63500000Y52250000D01*
X67250000Y1500000D02*
X67250000Y13500000D01*
D34*
X41000000Y-1750000D02*
X40250000Y-2500000D01*
X31750000Y-2500000D02*
X30750000Y-1500000D01*
X40250000Y-2500000D02*
X31750000Y-2500000D01*
D33*
X11710000Y22500000D02*
X4460000Y22500000D01*
D31*
X46250000Y57500000D02*
X58250000Y57500000D01*
X58250000Y57500000D02*
X63500000Y52250000D01*
D33*
X13500000Y26750000D02*
X11710000Y24960000D01*
X11710000Y24960000D02*
X11710000Y22500000D01*
X25750000Y26750000D02*
X13500000Y26750000D01*
X27500000Y25000000D02*
X25750000Y26750000D01*
X27500000Y22500000D02*
X27500000Y25000000D01*
X37500000Y27960000D02*
X32960000Y27960000D01*
X32960000Y27960000D02*
X27500000Y22500000D01*
D34*
X13750000Y16500000D02*
X11710000Y18540000D01*
X11710000Y18540000D02*
X11710000Y22500000D01*
X14750000Y16500000D02*
X13750000Y16500000D01*
X30750000Y-1500000D02*
X30750000Y1500000D01*
X41000000Y1500000D02*
X41000000Y-1750000D01*
D32*
X16250000Y16500000D02*
X14750000Y16500000D01*
D33*
X4460000Y22500000D02*
X0Y18040000D01*
D31*
X63750000Y1500000D02*
X63750000Y12500000D01*
X63750000Y12500000D02*
X64750000Y13500000D01*
X64750000Y24750000D02*
X64750000Y13500000D01*
D32*
X27250000Y1500000D02*
X27250000Y-500000D01*
X3500000Y8000000D02*
X5960000Y10460000D01*
X23750000Y-4000000D02*
X4750000Y-4000000D01*
X3500000Y-2750000D02*
X3500000Y8000000D01*
X4750000Y-4000000D02*
X3500000Y-2750000D01*
X27250000Y-500000D02*
X23750000Y-4000000D01*
X5960000Y10460000D02*
X8500000Y10460000D01*
D34*
X40500000Y6500000D02*
X33500000Y6500000D01*
X32000000Y8000000D02*
X32000000Y13500000D01*
X33330000Y14830000D02*
X35870000Y14830000D01*
X32000000Y13500000D02*
X33330000Y14830000D01*
X33500000Y6500000D02*
X32000000Y8000000D01*
D33*
X37500000Y46250000D02*
X37500000Y41750000D01*
D36*
X37500000Y46250000D02*
X46000000Y46250000D01*
X51000000Y41250000D02*
X51000000Y8000000D01*
X46000000Y46250000D02*
X51000000Y41250000D01*
D34*
X44500000Y2500000D02*
X40500000Y6500000D01*
D36*
X51000000Y8000000D02*
X44500000Y1500000D01*
D34*
X44500000Y1500000D02*
X44500000Y2500000D01*
X32750000Y4750000D02*
X36000000Y1500000D01*
X36000000Y1500000D02*
X37500000Y1500000D01*
X30750000Y4750000D02*
X32750000Y4750000D01*
X28250000Y7250000D02*
X30750000Y4750000D01*
X28250000Y9750000D02*
X28250000Y7250000D01*
D33*
X44000000Y43000000D02*
X44000000Y37790000D01*
X44000000Y37790000D02*
X43960000Y37750000D01*
D36*
X37500000Y37750000D02*
X37500000Y30500000D01*
D34*
X43960000Y37750000D02*
X37500000Y37750000D01*
X30290000Y37710000D02*
X37460000Y37710000D01*
X37460000Y37710000D02*
X37500000Y37750000D01*
X18750000Y22500000D02*
X18750000Y24000000D01*
X18750000Y24000000D02*
X20000000Y25250000D01*
X20000000Y25250000D02*
X23750000Y25250000D01*
X23750000Y25250000D02*
X25250000Y23750000D01*
X25250000Y23750000D02*
X25250000Y13500000D01*
X25250000Y13500000D02*
X26460000Y12290000D01*
X26460000Y12290000D02*
X28250000Y12290000D01*
X14250000Y22500000D02*
X18750000Y22500000D01*
D33*
X18750000Y22500000D02*
X18750000Y23000000D01*
D35*
X18790000Y22540000D02*
X18750000Y22500000D01*
D34*
X20250000Y16500000D02*
X22750000Y19000000D01*
X22750000Y19000000D02*
X22750000Y22500000D01*
X18790000Y16500000D02*
X20250000Y16500000D01*
D33*
X10750000Y3750000D02*
X18750000Y3750000D01*
X18750000Y10000000D02*
X18750000Y3750000D01*
X18790000Y16500000D02*
X18790000Y10040000D01*
X18790000Y10040000D02*
X18750000Y10000000D01*
X0Y15500000D02*
X8460000Y15500000D01*
X8460000Y15500000D02*
X8500000Y15540000D01*
X13250000Y10000000D02*
X10250000Y13000000D01*
X10250000Y13000000D02*
X8500000Y13000000D01*
X14750000Y10000000D02*
X13250000Y10000000D01*
D36*
X48250000Y10750000D02*
X48250000Y36000000D01*
X48250000Y36000000D02*
X46500000Y37750000D01*
X46500000Y9000000D02*
X48250000Y10750000D01*
X42000000Y9000000D02*
X46500000Y9000000D01*
X40750000Y10250000D02*
X42000000Y9000000D01*
X40750000Y12250000D02*
X40750000Y10250000D01*
D34*
X35870000Y12290000D02*
X40710000Y12290000D01*
X40710000Y12290000D02*
X40750000Y12250000D01*
D31*
X16750000Y57500000D02*
X8428932Y57500000D01*
X8428932Y57500000D02*
X3214466Y52285534D01*
X3214466Y52285534D02*
X3214466Y33785534D01*
X3214466Y33785534D02*
X3275126Y33724874D01*
X29250000Y61000000D02*
X30250000Y60000000D01*
X30250000Y60000000D02*
X30250000Y57500000D01*
X21750000Y61000000D02*
X29250000Y61000000D01*
X18250000Y57500000D02*
X21750000Y61000000D01*
X16750000Y57500000D02*
X18250000Y57500000D01*
D33*
X42250000Y57500000D02*
X42250000Y52500000D01*
D31*
X32790000Y57500000D02*
X42250000Y57500000D01*
D34*
X27750000Y44250000D02*
X22750000Y44250000D01*
X27750000Y44250000D02*
X27750000Y57460000D01*
X27750000Y57460000D02*
X27710000Y57500000D01*
X29750000Y40250000D02*
X33500000Y44000000D01*
X33500000Y44000000D02*
X33500000Y46250000D01*
X27750000Y40250000D02*
X29750000Y40250000D01*
X22750000Y40250000D02*
X27750000Y40250000D01*
D37*
G36*
X21184777Y62364570D02*
X20705603Y62044397D01*
X20705601Y62044394D01*
X17902448Y59241242D01*
X15500000Y59241242D01*
X15216339Y59184818D01*
X14975863Y59024137D01*
X14944367Y58977000D01*
X8428937Y58977000D01*
X8428932Y58977001D01*
X7863709Y58864570D01*
X7384535Y58544397D01*
X7384533Y58544394D01*
X3476345Y54636207D01*
X3214466Y54688298D01*
X2930805Y54631874D01*
X2690329Y54471193D01*
X993273Y52774137D01*
X832592Y52533661D01*
X776168Y52250000D01*
X832592Y51966339D01*
X993273Y51725863D01*
X1737466Y50981670D01*
X1737466Y34912709D01*
X1642448Y34817857D01*
X1348461Y34109860D01*
X1347792Y33343252D01*
X1640542Y32634742D01*
X2182143Y32092196D01*
X2890140Y31798209D01*
X3552301Y31797631D01*
X3528807Y31774137D01*
X3368126Y31533661D01*
X3311702Y31250000D01*
X3368126Y30966339D01*
X3528807Y30725863D01*
X5225863Y29028807D01*
X5466339Y28868126D01*
X5750000Y28811702D01*
X6033661Y28868126D01*
X6274137Y29028807D01*
X7971193Y30725863D01*
X8131874Y30966339D01*
X8188298Y31250000D01*
X8131874Y31533661D01*
X8072736Y31622168D01*
X8114570Y31684777D01*
X8227001Y32250000D01*
X8227000Y32250005D01*
X8227000Y47466076D01*
X8382678Y47621483D01*
X8676665Y48329480D01*
X8676891Y48588097D01*
X12111793Y52023000D01*
X14944367Y52023000D01*
X14975863Y51975863D01*
X15216339Y51815182D01*
X15500000Y51758758D01*
X18000000Y51758758D01*
X18283661Y51815182D01*
X18524137Y51975863D01*
X18684818Y52216339D01*
X18741242Y52500000D01*
X18741242Y54500000D01*
X18684818Y54783661D01*
X18524137Y55024137D01*
X18283661Y55184818D01*
X18000000Y55241242D01*
X15500000Y55241242D01*
X15216339Y55184818D01*
X14975863Y55024137D01*
X14944367Y54977000D01*
X11500000Y54977000D01*
X10934777Y54864570D01*
X10455603Y54544397D01*
X10455601Y54544394D01*
X6552845Y50641639D01*
X6368378Y50641800D01*
X5659868Y50349050D01*
X5117322Y49807449D01*
X4823335Y49099452D01*
X4822666Y48332844D01*
X5115416Y47624334D01*
X5273000Y47466475D01*
X5273000Y33502689D01*
X5225863Y33471193D01*
X5201885Y33447215D01*
X5202460Y34106496D01*
X4909710Y34815006D01*
X4691466Y35033631D01*
X4691466Y50981670D01*
X5435659Y51725863D01*
X5596340Y51966339D01*
X5652764Y52250000D01*
X5596340Y52533661D01*
X5578334Y52560609D01*
X9040725Y56023000D01*
X14944367Y56023000D01*
X14975863Y55975863D01*
X15216339Y55815182D01*
X15500000Y55758758D01*
X18000000Y55758758D01*
X18283661Y55815182D01*
X18524137Y55975863D01*
X18602481Y56093113D01*
X18815224Y56135430D01*
X19294397Y56455603D01*
X22361793Y59523000D01*
X28638206Y59523000D01*
X28773000Y59388207D01*
X28773000Y59108819D01*
X28610000Y59141242D01*
X26810000Y59141242D01*
X26526339Y59084818D01*
X26285863Y58924137D01*
X26125182Y58683661D01*
X26068758Y58400000D01*
X26068758Y56600000D01*
X26125182Y56316339D01*
X26285863Y56075863D01*
X26526339Y55915182D01*
X26623000Y55895955D01*
X26623000Y45377000D01*
X24715980Y45377000D01*
X24684818Y45533661D01*
X24524137Y45774137D01*
X24283661Y45934818D01*
X24000000Y45991242D01*
X21500000Y45991242D01*
X21216339Y45934818D01*
X20975863Y45774137D01*
X20815182Y45533661D01*
X20758758Y45250000D01*
X20758758Y43250000D01*
X20815182Y42966339D01*
X20975863Y42725863D01*
X21216339Y42565182D01*
X21500000Y42508758D01*
X24000000Y42508758D01*
X24283661Y42565182D01*
X24524137Y42725863D01*
X24684818Y42966339D01*
X24715980Y43123000D01*
X26788062Y43123000D01*
X26912254Y42998591D01*
X27454918Y42773257D01*
X28042505Y42772744D01*
X28585560Y42997130D01*
X29001409Y43412254D01*
X29226743Y43954918D01*
X29227256Y44542505D01*
X29002870Y45085560D01*
X28877000Y45211650D01*
X28877000Y55911868D01*
X28893661Y55915182D01*
X29134137Y56075863D01*
X29240040Y56234358D01*
X29595499Y55996848D01*
X30218125Y55873000D01*
X30281875Y55873000D01*
X30904501Y55996848D01*
X31432338Y56349537D01*
X31520000Y56480733D01*
X31607662Y56349537D01*
X32135499Y55996848D01*
X32758125Y55873000D01*
X32821875Y55873000D01*
X33444501Y55996848D01*
X33483640Y56023000D01*
X40553911Y56023000D01*
X40565182Y55966339D01*
X40725863Y55725863D01*
X40966339Y55565182D01*
X41198000Y55519102D01*
X41198000Y54480898D01*
X40966339Y54434818D01*
X40725863Y54274137D01*
X40565182Y54033661D01*
X40508758Y53750000D01*
X40508758Y51250000D01*
X40565182Y50966339D01*
X40725863Y50725863D01*
X40966339Y50565182D01*
X41250000Y50508758D01*
X43250000Y50508758D01*
X43533661Y50565182D01*
X43774137Y50725863D01*
X43934818Y50966339D01*
X43991242Y51250000D01*
X43991242Y53750000D01*
X44508758Y53750000D01*
X44508758Y51250000D01*
X44565182Y50966339D01*
X44725863Y50725863D01*
X44966339Y50565182D01*
X45250000Y50508758D01*
X47250000Y50508758D01*
X47533661Y50565182D01*
X47774137Y50725863D01*
X47934818Y50966339D01*
X47946089Y51023000D01*
X55567138Y51023000D01*
X58037324Y48552815D01*
X58037132Y48332844D01*
X58329882Y47624334D01*
X58773000Y47180443D01*
X58773000Y2748390D01*
X58617322Y2592983D01*
X58323335Y1884986D01*
X58322666Y1118378D01*
X58615416Y409868D01*
X59157017Y-132678D01*
X59865014Y-426665D01*
X60631622Y-427334D01*
X61340132Y-134584D01*
X61882678Y407017D01*
X61999925Y689378D01*
X62115416Y409868D01*
X62657017Y-132678D01*
X63365014Y-426665D01*
X64131622Y-427334D01*
X64840132Y-134584D01*
X65382678Y407017D01*
X65415000Y484857D01*
X65415000Y173690D01*
X65511673Y-59699D01*
X65690302Y-238327D01*
X65923691Y-335000D01*
X66964250Y-335000D01*
X67123000Y-176250D01*
X67123000Y1373000D01*
X67377000Y1373000D01*
X67377000Y-176250D01*
X67535750Y-335000D01*
X68576309Y-335000D01*
X68809698Y-238327D01*
X68988327Y-59699D01*
X69085000Y173690D01*
X69085000Y1214250D01*
X68926250Y1373000D01*
X67377000Y1373000D01*
X67123000Y1373000D01*
X67103000Y1373000D01*
X67103000Y1627000D01*
X67123000Y1627000D01*
X67123000Y3176250D01*
X67377000Y3176250D01*
X67377000Y1627000D01*
X68926250Y1627000D01*
X69085000Y1785750D01*
X69085000Y2826310D01*
X68988327Y3059699D01*
X68809698Y3238327D01*
X68576309Y3335000D01*
X67535750Y3335000D01*
X67377000Y3176250D01*
X67123000Y3176250D01*
X66964250Y3335000D01*
X65923691Y3335000D01*
X65690302Y3238327D01*
X65511673Y3059699D01*
X65415000Y2826310D01*
X65415000Y2516520D01*
X65384584Y2590132D01*
X65227000Y2747991D01*
X65227000Y11888206D01*
X65297551Y11958758D01*
X65550000Y11958758D01*
X65833661Y12015182D01*
X66074137Y12175863D01*
X66234818Y12416339D01*
X66240327Y12444037D01*
X66306986Y12377378D01*
X66421861Y12492253D01*
X66495995Y12246136D01*
X67033223Y12053035D01*
X67603454Y12080222D01*
X68004005Y12246136D01*
X68078139Y12492255D01*
X67250000Y13320395D01*
X67235858Y13306252D01*
X67056252Y13485858D01*
X67070395Y13500000D01*
X67429605Y13500000D01*
X68257745Y12671861D01*
X68503864Y12745995D01*
X68696965Y13283223D01*
X68669778Y13853454D01*
X68503864Y14254005D01*
X68257745Y14328139D01*
X67429605Y13500000D01*
X67070395Y13500000D01*
X67056252Y13514142D01*
X67235858Y13693748D01*
X67250000Y13679605D01*
X68078139Y14507745D01*
X68004005Y14753864D01*
X67466777Y14946965D01*
X66896546Y14919778D01*
X66495995Y14753864D01*
X66421861Y14507747D01*
X66306986Y14622622D01*
X66240327Y14555963D01*
X66234818Y14583661D01*
X66227000Y14595361D01*
X66227000Y24325153D01*
X66276735Y24444928D01*
X66277265Y25052407D01*
X66045283Y25613846D01*
X65616106Y26043773D01*
X65055072Y26276735D01*
X64447593Y26277265D01*
X63886154Y26045283D01*
X63710548Y25869983D01*
X63574137Y26074137D01*
X63333661Y26234818D01*
X63050000Y26291242D01*
X61727000Y26291242D01*
X61727000Y31769911D01*
X62214207Y31673000D01*
X62285793Y31673000D01*
X62984956Y31812072D01*
X63221709Y31970265D01*
X63330302Y31861673D01*
X63563691Y31765000D01*
X64504250Y31765000D01*
X64663000Y31923750D01*
X64663000Y33373000D01*
X64917000Y33373000D01*
X64917000Y31923750D01*
X65075750Y31765000D01*
X66016309Y31765000D01*
X66249698Y31861673D01*
X66428327Y32040301D01*
X66525000Y32273690D01*
X66525000Y33214250D01*
X66366250Y33373000D01*
X64917000Y33373000D01*
X64663000Y33373000D01*
X64643000Y33373000D01*
X64643000Y33627000D01*
X64663000Y33627000D01*
X64663000Y35076250D01*
X64917000Y35076250D01*
X64917000Y33627000D01*
X66366250Y33627000D01*
X66525000Y33785750D01*
X66525000Y34726310D01*
X66428327Y34959699D01*
X66249698Y35138327D01*
X66016309Y35235000D01*
X65075750Y35235000D01*
X64917000Y35076250D01*
X64663000Y35076250D01*
X64504250Y35235000D01*
X63563691Y35235000D01*
X63330302Y35138327D01*
X63221709Y35029735D01*
X62984956Y35187928D01*
X62285793Y35327000D01*
X62214207Y35327000D01*
X61727000Y35230089D01*
X61727000Y47934210D01*
X61891131Y48329480D01*
X61891800Y49096088D01*
X61599050Y49804598D01*
X61057449Y50347144D01*
X60349452Y50641131D01*
X60126400Y50641326D01*
X59792816Y50974910D01*
X62404515Y50974910D01*
X62404515Y50750403D01*
X63140302Y50014616D01*
X63373691Y49917943D01*
X63626310Y49917944D01*
X63859699Y50014617D01*
X64595485Y50750403D01*
X64595485Y50974910D01*
X63500000Y52070395D01*
X62404515Y50974910D01*
X59792816Y50974910D01*
X58644035Y52123691D01*
X61167943Y52123691D01*
X61264616Y51890302D01*
X62000403Y51154515D01*
X62224910Y51154515D01*
X63320395Y52250000D01*
X63679605Y52250000D01*
X64775090Y51154515D01*
X64999597Y51154515D01*
X65735383Y51890301D01*
X65832056Y52123690D01*
X65832057Y52376309D01*
X65735384Y52609698D01*
X64999597Y53345485D01*
X64775090Y53345485D01*
X63679605Y52250000D01*
X63320395Y52250000D01*
X62224910Y53345485D01*
X62000403Y53345485D01*
X61264617Y52609699D01*
X61167944Y52376310D01*
X61167943Y52123691D01*
X58644035Y52123691D01*
X57223329Y53544397D01*
X56916226Y53749597D01*
X62404515Y53749597D01*
X62404515Y53525090D01*
X63500000Y52429605D01*
X64595485Y53525090D01*
X64595485Y53749597D01*
X63859698Y54485384D01*
X63626309Y54582057D01*
X63373690Y54582056D01*
X63140301Y54485383D01*
X62404515Y53749597D01*
X56916226Y53749597D01*
X56744156Y53864570D01*
X56178932Y53977000D01*
X47946089Y53977000D01*
X47934818Y54033661D01*
X47774137Y54274137D01*
X47533661Y54434818D01*
X47250000Y54491242D01*
X45250000Y54491242D01*
X44966339Y54434818D01*
X44725863Y54274137D01*
X44565182Y54033661D01*
X44508758Y53750000D01*
X43991242Y53750000D01*
X43934818Y54033661D01*
X43774137Y54274137D01*
X43533661Y54434818D01*
X43302000Y54480898D01*
X43302000Y55519102D01*
X43533661Y55565182D01*
X43774137Y55725863D01*
X43934818Y55966339D01*
X43991242Y56250000D01*
X43991242Y57214250D01*
X44615000Y57214250D01*
X44615000Y56123690D01*
X44711673Y55890301D01*
X44890302Y55711673D01*
X45123691Y55615000D01*
X45964250Y55615000D01*
X46123000Y55773750D01*
X46123000Y57373000D01*
X46377000Y57373000D01*
X46377000Y55773750D01*
X46535750Y55615000D01*
X47376309Y55615000D01*
X47609698Y55711673D01*
X47788327Y55890301D01*
X47885000Y56123690D01*
X47885000Y57214250D01*
X47726250Y57373000D01*
X46377000Y57373000D01*
X46123000Y57373000D01*
X44773750Y57373000D01*
X44615000Y57214250D01*
X43991242Y57214250D01*
X43991242Y58750000D01*
X43966118Y58876310D01*
X44615000Y58876310D01*
X44615000Y57785750D01*
X44773750Y57627000D01*
X46123000Y57627000D01*
X46123000Y59226250D01*
X46377000Y59226250D01*
X46377000Y57627000D01*
X47726250Y57627000D01*
X47885000Y57785750D01*
X47885000Y58876310D01*
X47788327Y59109699D01*
X47609698Y59288327D01*
X47376309Y59385000D01*
X46535750Y59385000D01*
X46377000Y59226250D01*
X46123000Y59226250D01*
X45964250Y59385000D01*
X45123691Y59385000D01*
X44890302Y59288327D01*
X44711673Y59109699D01*
X44615000Y58876310D01*
X43966118Y58876310D01*
X43934818Y59033661D01*
X43774137Y59274137D01*
X43533661Y59434818D01*
X43250000Y59491242D01*
X41250000Y59491242D01*
X40966339Y59434818D01*
X40725863Y59274137D01*
X40565182Y59033661D01*
X40553911Y58977000D01*
X33483640Y58977000D01*
X33444501Y59003152D01*
X32821875Y59127000D01*
X32758125Y59127000D01*
X32135499Y59003152D01*
X31727000Y58730202D01*
X31727000Y59999995D01*
X31727001Y60000000D01*
X31614570Y60565223D01*
X31294397Y61044397D01*
X31294394Y61044399D01*
X30294397Y62044397D01*
X29815224Y62364570D01*
X29521476Y62423000D01*
X72173000Y62423000D01*
X72173000Y-5923000D01*
X-4923000Y-5923000D01*
X-4923000Y16350000D01*
X-1591242Y16350000D01*
X-1591242Y14650000D01*
X-1534818Y14366339D01*
X-1374137Y14125863D01*
X-1133661Y13965182D01*
X-850000Y13908758D01*
X850000Y13908758D01*
X1133661Y13965182D01*
X1374137Y14125863D01*
X1534818Y14366339D01*
X1551061Y14448000D01*
X7338558Y14448000D01*
X7353998Y14424893D01*
X7585811Y14270000D01*
X7353998Y14115107D01*
X7012147Y13603492D01*
X6892105Y13000000D01*
X7012147Y12396508D01*
X7307028Y11955188D01*
X7125863Y11834137D01*
X6965182Y11593661D01*
X6953911Y11537000D01*
X5960000Y11537000D01*
X5547850Y11455018D01*
X5198446Y11221554D01*
X2738446Y8761554D01*
X2504982Y8412150D01*
X2423000Y8000000D01*
X2423000Y-2750000D01*
X2504982Y-3162150D01*
X2738446Y-3511554D01*
X3988446Y-4761554D01*
X4337850Y-4995018D01*
X4750000Y-5077000D01*
X23750000Y-5077000D01*
X24162150Y-4995018D01*
X24511554Y-4761554D01*
X28011554Y-1261554D01*
X28245018Y-912150D01*
X28327000Y-500000D01*
X28327000Y-140010D01*
X28340132Y-134584D01*
X28882678Y407017D01*
X28915000Y484857D01*
X28915000Y173690D01*
X29011673Y-59699D01*
X29190302Y-238327D01*
X29423691Y-335000D01*
X30464250Y-335000D01*
X30623000Y-176250D01*
X30623000Y1373000D01*
X30877000Y1373000D01*
X30877000Y-176250D01*
X31035750Y-335000D01*
X32076309Y-335000D01*
X32309698Y-238327D01*
X32488327Y-59699D01*
X32585000Y173690D01*
X32585000Y1214250D01*
X32426250Y1373000D01*
X30877000Y1373000D01*
X30623000Y1373000D01*
X30603000Y1373000D01*
X30603000Y1627000D01*
X30623000Y1627000D01*
X30623000Y3176250D01*
X30877000Y3176250D01*
X30877000Y1627000D01*
X32426250Y1627000D01*
X32585000Y1785750D01*
X32585000Y2826310D01*
X32488327Y3059699D01*
X32309698Y3238327D01*
X32076309Y3335000D01*
X31035750Y3335000D01*
X30877000Y3176250D01*
X30623000Y3176250D01*
X30464250Y3335000D01*
X29423691Y3335000D01*
X29190302Y3238327D01*
X29011673Y3059699D01*
X28915000Y2826310D01*
X28915000Y2516520D01*
X28884584Y2590132D01*
X28342983Y3132678D01*
X27634986Y3426665D01*
X26868378Y3427334D01*
X26159868Y3134584D01*
X25617322Y2592983D01*
X25323335Y1884986D01*
X25322666Y1118378D01*
X25615416Y409868D01*
X26125643Y-101249D01*
X23303892Y-2923000D01*
X5196108Y-2923000D01*
X4577000Y-2303892D01*
X4577000Y5000000D01*
X5008758Y5000000D01*
X5008758Y2500000D01*
X5065182Y2216339D01*
X5225863Y1975863D01*
X5466339Y1815182D01*
X5673000Y1774074D01*
X5673000Y-167499D01*
X5456227Y-383894D01*
X5223265Y-944928D01*
X5222735Y-1552407D01*
X5454717Y-2113846D01*
X5883894Y-2543773D01*
X6444928Y-2776735D01*
X7052407Y-2777265D01*
X7613846Y-2545283D01*
X8000297Y-2159506D01*
X8383894Y-2543773D01*
X8944928Y-2776735D01*
X9552407Y-2777265D01*
X10113846Y-2545283D01*
X10252371Y-2407000D01*
X17780539Y-2407000D01*
X17929270Y-2555991D01*
X18460911Y-2776748D01*
X19036563Y-2777250D01*
X19568589Y-2557422D01*
X19975991Y-2150730D01*
X20196748Y-1619089D01*
X20197250Y-1043437D01*
X19977422Y-511411D01*
X19802000Y-335683D01*
X19802000Y215582D01*
X19975991Y389270D01*
X20196748Y920911D01*
X20197250Y1496563D01*
X19977422Y2028589D01*
X19570730Y2435991D01*
X19465142Y2479835D01*
X19568589Y2522578D01*
X19975991Y2929270D01*
X20196748Y3460911D01*
X20197250Y4036563D01*
X19977422Y4568589D01*
X19802000Y4744317D01*
X19802000Y8019102D01*
X20033661Y8065182D01*
X20274137Y8225863D01*
X20434818Y8466339D01*
X20491242Y8750000D01*
X20491242Y11250000D01*
X20434818Y11533661D01*
X20274137Y11774137D01*
X20033661Y11934818D01*
X19842000Y11972942D01*
X19842000Y15023914D01*
X20117677Y15208116D01*
X20227849Y15373000D01*
X20250000Y15373000D01*
X20681284Y15458788D01*
X21046909Y15703091D01*
X23546909Y18203091D01*
X23791212Y18568716D01*
X23877000Y19000000D01*
X23877000Y20534020D01*
X24033661Y20565182D01*
X24123000Y20624876D01*
X24123000Y13500000D01*
X24208788Y13068716D01*
X24453091Y12703091D01*
X25663090Y11493091D01*
X26028715Y11248788D01*
X26100270Y11234555D01*
X26460000Y11163000D01*
X26803208Y11163000D01*
X27017222Y11020000D01*
X26732496Y10829752D01*
X26401484Y10334358D01*
X26285248Y9750000D01*
X26401484Y9165642D01*
X26732496Y8670248D01*
X27123000Y8409321D01*
X27123000Y7250000D01*
X27208788Y6818716D01*
X27453091Y6453091D01*
X29953091Y3953091D01*
X30318716Y3708788D01*
X30750000Y3623000D01*
X32283182Y3623000D01*
X35203091Y703091D01*
X35568716Y458788D01*
X35877993Y397269D01*
X36407017Y-132678D01*
X37115014Y-426665D01*
X37881622Y-427334D01*
X38590132Y-134584D01*
X38928129Y202825D01*
X39882430Y202825D01*
X40005565Y-84788D01*
X40687734Y-344707D01*
X41417443Y-323786D01*
X41994435Y-84788D01*
X42117570Y202825D01*
X41000000Y1320395D01*
X39882430Y202825D01*
X38928129Y202825D01*
X39132678Y407017D01*
X39294555Y796858D01*
X39415212Y505565D01*
X39702825Y382430D01*
X40820395Y1500000D01*
X39702825Y2617570D01*
X39415212Y2494435D01*
X39299552Y2190879D01*
X39134584Y2590132D01*
X38927902Y2797175D01*
X39882430Y2797175D01*
X41000000Y1679605D01*
X42117570Y2797175D01*
X41994435Y3084788D01*
X41312266Y3344707D01*
X40582557Y3323786D01*
X40005565Y3084788D01*
X39882430Y2797175D01*
X38927902Y2797175D01*
X38592983Y3132678D01*
X37884986Y3426665D01*
X37118378Y3427334D01*
X36409868Y3134584D01*
X36184355Y2909463D01*
X33720818Y5373000D01*
X40033182Y5373000D01*
X42583217Y2822964D01*
X42558758Y2700000D01*
X42558758Y2505579D01*
X42297175Y2617570D01*
X41179605Y1500000D01*
X42297175Y382430D01*
X42558758Y494421D01*
X42558758Y300000D01*
X42615182Y16339D01*
X42775863Y-224137D01*
X43016339Y-384818D01*
X43300000Y-441242D01*
X45700000Y-441242D01*
X45983661Y-384818D01*
X46224137Y-224137D01*
X46384818Y16339D01*
X46441242Y300000D01*
X46441242Y2024200D01*
X51708521Y7291479D01*
X51925727Y7616551D01*
X52002000Y8000000D01*
X52002000Y41250000D01*
X51925727Y41633449D01*
X51708521Y41958521D01*
X46708521Y46958521D01*
X46576239Y47046909D01*
X46383449Y47175727D01*
X46000000Y47252000D01*
X39241242Y47252000D01*
X39241242Y47500000D01*
X39184818Y47783661D01*
X39024137Y48024137D01*
X38783661Y48184818D01*
X38500000Y48241242D01*
X36500000Y48241242D01*
X36216339Y48184818D01*
X35975863Y48024137D01*
X35815182Y47783661D01*
X35758758Y47500000D01*
X35758758Y45000000D01*
X35815182Y44716339D01*
X35975863Y44475863D01*
X36216339Y44315182D01*
X36448000Y44269102D01*
X36448000Y43491242D01*
X36250000Y43491242D01*
X35966339Y43434818D01*
X35725863Y43274137D01*
X35565182Y43033661D01*
X35508758Y42750000D01*
X35508758Y40750000D01*
X35565182Y40466339D01*
X35725863Y40225863D01*
X35966339Y40065182D01*
X36250000Y40008758D01*
X38750000Y40008758D01*
X39033661Y40065182D01*
X39274137Y40225863D01*
X39434818Y40466339D01*
X39491242Y40750000D01*
X39491242Y42750000D01*
X39434818Y43033661D01*
X39274137Y43274137D01*
X39033661Y43434818D01*
X38750000Y43491242D01*
X38552000Y43491242D01*
X38552000Y44269102D01*
X38783661Y44315182D01*
X39024137Y44475863D01*
X39184818Y44716339D01*
X39241242Y45000000D01*
X39241242Y45248000D01*
X45584958Y45248000D01*
X49998000Y40834958D01*
X49998000Y8415042D01*
X45088388Y3505430D01*
X41296909Y7296909D01*
X40931284Y7541212D01*
X40500000Y7627000D01*
X33966819Y7627000D01*
X33127000Y8466818D01*
X33127000Y13033182D01*
X33796818Y13703000D01*
X34423208Y13703000D01*
X34637222Y13560000D01*
X34352496Y13369752D01*
X34021484Y12874358D01*
X33905248Y12290000D01*
X34021484Y11705642D01*
X34352496Y11210248D01*
X34637222Y11020000D01*
X34352496Y10829752D01*
X34021484Y10334358D01*
X33905248Y9750000D01*
X34021484Y9165642D01*
X34352496Y8670248D01*
X34847890Y8339236D01*
X35432248Y8223000D01*
X36307752Y8223000D01*
X36892110Y8339236D01*
X37387504Y8670248D01*
X37718516Y9165642D01*
X37834752Y9750000D01*
X37718516Y10334358D01*
X37387504Y10829752D01*
X37102778Y11020000D01*
X37316792Y11163000D01*
X39008758Y11163000D01*
X39008758Y11000000D01*
X39065182Y10716339D01*
X39225863Y10475863D01*
X39466339Y10315182D01*
X39748000Y10259156D01*
X39748000Y10250000D01*
X39824273Y9866551D01*
X40041479Y9541479D01*
X41291479Y8291479D01*
X41616551Y8074273D01*
X42000000Y7998000D01*
X46500000Y7998000D01*
X46883449Y8074273D01*
X47208521Y8291479D01*
X48958521Y10041479D01*
X48962778Y10047850D01*
X49175727Y10366551D01*
X49252000Y10750000D01*
X49252000Y36000000D01*
X49175727Y36383449D01*
X48958521Y36708521D01*
X48341242Y37325800D01*
X48341242Y38850000D01*
X48284818Y39133661D01*
X48124137Y39374137D01*
X47883661Y39534818D01*
X47600000Y39591242D01*
X45400000Y39591242D01*
X45116339Y39534818D01*
X45052000Y39491828D01*
X45052000Y41963193D01*
X45251409Y42162254D01*
X45476743Y42704918D01*
X45477256Y43292505D01*
X45252870Y43835560D01*
X44837746Y44251409D01*
X44295082Y44476743D01*
X43707495Y44477256D01*
X43164440Y44252870D01*
X42748591Y43837746D01*
X42523257Y43295082D01*
X42522744Y42707495D01*
X42747130Y42164440D01*
X42948000Y41963219D01*
X42948000Y39252813D01*
X42632323Y39041884D01*
X42522151Y38877000D01*
X39465980Y38877000D01*
X39434818Y39033661D01*
X39274137Y39274137D01*
X39033661Y39434818D01*
X38750000Y39491242D01*
X36250000Y39491242D01*
X35966339Y39434818D01*
X35725863Y39274137D01*
X35565182Y39033661D01*
X35526063Y38837000D01*
X32117727Y38837000D01*
X32054803Y38931173D01*
X31494524Y39305540D01*
X30833630Y39437000D01*
X30522827Y39437000D01*
X30546909Y39453091D01*
X34296909Y43203091D01*
X34541212Y43568716D01*
X34627000Y44000000D01*
X34627000Y44284020D01*
X34783661Y44315182D01*
X35024137Y44475863D01*
X35184818Y44716339D01*
X35241242Y45000000D01*
X35241242Y47500000D01*
X35184818Y47783661D01*
X35024137Y48024137D01*
X34783661Y48184818D01*
X34500000Y48241242D01*
X32500000Y48241242D01*
X32216339Y48184818D01*
X31975863Y48024137D01*
X31815182Y47783661D01*
X31758758Y47500000D01*
X31758758Y45000000D01*
X31815182Y44716339D01*
X31975863Y44475863D01*
X32216339Y44315182D01*
X32220530Y44314348D01*
X29491242Y41585060D01*
X29491242Y41750000D01*
X29434818Y42033661D01*
X29274137Y42274137D01*
X29033661Y42434818D01*
X28750000Y42491242D01*
X26750000Y42491242D01*
X26466339Y42434818D01*
X26225863Y42274137D01*
X26065182Y42033661D01*
X26008758Y41750000D01*
X26008758Y41377000D01*
X24715980Y41377000D01*
X24684818Y41533661D01*
X24524137Y41774137D01*
X24283661Y41934818D01*
X24000000Y41991242D01*
X21500000Y41991242D01*
X21216339Y41934818D01*
X20975863Y41774137D01*
X20815182Y41533661D01*
X20758758Y41250000D01*
X20758758Y39250000D01*
X20815182Y38966339D01*
X20975863Y38725863D01*
X21216339Y38565182D01*
X21500000Y38508758D01*
X24000000Y38508758D01*
X24283661Y38565182D01*
X24524137Y38725863D01*
X24684818Y38966339D01*
X24715980Y39123000D01*
X26008758Y39123000D01*
X26008758Y38750000D01*
X26065182Y38466339D01*
X26225863Y38225863D01*
X26466339Y38065182D01*
X26750000Y38008758D01*
X28078797Y38008758D01*
X28019370Y37710000D01*
X28086255Y37373745D01*
X27750000Y37440630D01*
X27089106Y37309170D01*
X26528827Y36934803D01*
X26154460Y36374524D01*
X26023000Y35713630D01*
X26023000Y34626370D01*
X26154460Y33965476D01*
X26528827Y33405197D01*
X27089106Y33030830D01*
X27750000Y32899370D01*
X28410894Y33030830D01*
X28971173Y33405197D01*
X29345540Y33965476D01*
X29477000Y34626370D01*
X29477000Y35713630D01*
X29410115Y36049885D01*
X29746370Y35983000D01*
X30833630Y35983000D01*
X31494524Y36114460D01*
X32054803Y36488827D01*
X32117727Y36583000D01*
X35541977Y36583000D01*
X35565182Y36466339D01*
X35725863Y36225863D01*
X35966339Y36065182D01*
X36250000Y36008758D01*
X36498000Y36008758D01*
X36498000Y32341242D01*
X36400000Y32341242D01*
X36116339Y32284818D01*
X35875863Y32124137D01*
X35715182Y31883661D01*
X35658758Y31600000D01*
X35658758Y29400000D01*
X35715182Y29116339D01*
X35875863Y28875863D01*
X36007206Y28788103D01*
X35810817Y28356123D01*
X35928396Y28087000D01*
X37373000Y28087000D01*
X37373000Y28107000D01*
X37627000Y28107000D01*
X37627000Y28087000D01*
X39071604Y28087000D01*
X39189183Y28356123D01*
X38992794Y28788103D01*
X39124137Y28875863D01*
X39284818Y29116339D01*
X39341242Y29400000D01*
X39341242Y31600000D01*
X39284818Y31883661D01*
X39124137Y32124137D01*
X38883661Y32284818D01*
X38600000Y32341242D01*
X38502000Y32341242D01*
X38502000Y36008758D01*
X38750000Y36008758D01*
X39033661Y36065182D01*
X39274137Y36225863D01*
X39434818Y36466339D01*
X39465980Y36623000D01*
X42522151Y36623000D01*
X42632323Y36458116D01*
X43225044Y36062072D01*
X43924207Y35923000D01*
X43995793Y35923000D01*
X44694956Y36062072D01*
X44849492Y36165330D01*
X44875863Y36125863D01*
X45116339Y35965182D01*
X45400000Y35908758D01*
X46924200Y35908758D01*
X47248000Y35584958D01*
X47248000Y11165042D01*
X46084958Y10002000D01*
X42415042Y10002000D01*
X42074543Y10342499D01*
X42274137Y10475863D01*
X42434818Y10716339D01*
X42491242Y11000000D01*
X42491242Y13500000D01*
X42434818Y13783661D01*
X42274137Y14024137D01*
X42033661Y14184818D01*
X41750000Y14241242D01*
X39750000Y14241242D01*
X39466339Y14184818D01*
X39225863Y14024137D01*
X39065182Y13783661D01*
X39008758Y13500000D01*
X39008758Y13417000D01*
X37316792Y13417000D01*
X37102778Y13560000D01*
X37387504Y13750248D01*
X37718516Y14245642D01*
X37834752Y14830000D01*
X37718516Y15414358D01*
X37387504Y15909752D01*
X37102778Y16100000D01*
X37387504Y16290248D01*
X37718516Y16785642D01*
X37834752Y17370000D01*
X37718516Y17954358D01*
X37387504Y18449752D01*
X36892110Y18780764D01*
X36307752Y18897000D01*
X35432248Y18897000D01*
X34847890Y18780764D01*
X34352496Y18449752D01*
X34021484Y17954358D01*
X33905248Y17370000D01*
X34021484Y16785642D01*
X34352496Y16290248D01*
X34637222Y16100000D01*
X34423208Y15957000D01*
X33466566Y15957000D01*
X33541212Y16068716D01*
X33627000Y16500000D01*
X33627000Y18283182D01*
X34966818Y19623000D01*
X38783182Y19623000D01*
X40723159Y17683023D01*
X40722735Y17197593D01*
X40954717Y16636154D01*
X41383894Y16206227D01*
X41944928Y15973265D01*
X42552407Y15972735D01*
X43113846Y16204717D01*
X43500297Y16590494D01*
X43623000Y16467577D01*
X43623000Y14215980D01*
X43466339Y14184818D01*
X43225863Y14024137D01*
X43065182Y13783661D01*
X43008758Y13500000D01*
X43008758Y11000000D01*
X43065182Y10716339D01*
X43225863Y10475863D01*
X43466339Y10315182D01*
X43750000Y10258758D01*
X45750000Y10258758D01*
X46033661Y10315182D01*
X46274137Y10475863D01*
X46434818Y10716339D01*
X46491242Y11000000D01*
X46491242Y13500000D01*
X46434818Y13783661D01*
X46274137Y14024137D01*
X46033661Y14184818D01*
X45877000Y14215980D01*
X45877000Y16467412D01*
X46043773Y16633894D01*
X46276735Y17194928D01*
X46277265Y17802407D01*
X46045283Y18363846D01*
X45616106Y18793773D01*
X45055072Y19026735D01*
X44447593Y19027265D01*
X43886154Y18795283D01*
X43499703Y18409506D01*
X43116106Y18793773D01*
X42575613Y19018205D01*
X40046909Y21546909D01*
X39681284Y21791212D01*
X39250000Y21877000D01*
X34966819Y21877000D01*
X33546909Y23296909D01*
X33241242Y23501149D01*
X33241242Y23750000D01*
X33184818Y24033661D01*
X33024137Y24274137D01*
X32783661Y24434818D01*
X32500000Y24491242D01*
X30500000Y24491242D01*
X30216339Y24434818D01*
X29975863Y24274137D01*
X29815182Y24033661D01*
X29758758Y23750000D01*
X29758758Y21250000D01*
X29815182Y20966339D01*
X29975863Y20725863D01*
X30216339Y20565182D01*
X30500000Y20508758D01*
X32500000Y20508758D01*
X32705895Y20549713D01*
X31703091Y19546909D01*
X31458788Y19181284D01*
X31373000Y18750000D01*
X31373000Y16966819D01*
X30363182Y15957000D01*
X29841144Y15957000D01*
X29974137Y16045863D01*
X30134818Y16286339D01*
X30191242Y16570000D01*
X30191242Y18170000D01*
X30134818Y18453661D01*
X29974137Y18694137D01*
X29733661Y18854818D01*
X29450000Y18911242D01*
X27050000Y18911242D01*
X26766339Y18854818D01*
X26525863Y18694137D01*
X26377000Y18471348D01*
X26377000Y20615000D01*
X27214250Y20615000D01*
X27373000Y20773750D01*
X27373000Y22373000D01*
X27627000Y22373000D01*
X27627000Y20773750D01*
X27785750Y20615000D01*
X28626309Y20615000D01*
X28859698Y20711673D01*
X29038327Y20890301D01*
X29135000Y21123690D01*
X29135000Y22214250D01*
X28976250Y22373000D01*
X27627000Y22373000D01*
X27373000Y22373000D01*
X27353000Y22373000D01*
X27353000Y22627000D01*
X27373000Y22627000D01*
X27373000Y24226250D01*
X27627000Y24226250D01*
X27627000Y22627000D01*
X28976250Y22627000D01*
X29135000Y22785750D01*
X29135000Y23876310D01*
X29038327Y24109699D01*
X28859698Y24288327D01*
X28626309Y24385000D01*
X27785750Y24385000D01*
X27627000Y24226250D01*
X27373000Y24226250D01*
X27214250Y24385000D01*
X26373691Y24385000D01*
X26202480Y24314082D01*
X26046909Y24546910D01*
X24546909Y26046909D01*
X24181284Y26291212D01*
X23750000Y26377000D01*
X20000000Y26377000D01*
X19568716Y26291212D01*
X19203091Y26046909D01*
X17953091Y24796909D01*
X17748675Y24490978D01*
X17466339Y24434818D01*
X17225863Y24274137D01*
X17065182Y24033661D01*
X17008758Y23750000D01*
X17008758Y23627000D01*
X16085871Y23627000D01*
X16034818Y23883661D01*
X15874137Y24124137D01*
X15633661Y24284818D01*
X15350000Y24341242D01*
X13150000Y24341242D01*
X12866339Y24284818D01*
X12625863Y24124137D01*
X12538103Y23992794D01*
X12106123Y24189183D01*
X11837000Y24071604D01*
X11837000Y22627000D01*
X11857000Y22627000D01*
X11857000Y22373000D01*
X11837000Y22373000D01*
X11837000Y20928396D01*
X12106123Y20810817D01*
X12538103Y21007206D01*
X12625863Y20875863D01*
X12866339Y20715182D01*
X13150000Y20658758D01*
X15350000Y20658758D01*
X15633661Y20715182D01*
X15874137Y20875863D01*
X16034818Y21116339D01*
X16085871Y21373000D01*
X17008758Y21373000D01*
X17008758Y21250000D01*
X17065182Y20966339D01*
X17225863Y20725863D01*
X17466339Y20565182D01*
X17750000Y20508758D01*
X19750000Y20508758D01*
X20033661Y20565182D01*
X20274137Y20725863D01*
X20434818Y20966339D01*
X20491242Y21250000D01*
X20491242Y23750000D01*
X20434818Y24033661D01*
X20411851Y24068033D01*
X20466818Y24123000D01*
X21124876Y24123000D01*
X21065182Y24033661D01*
X21008758Y23750000D01*
X21008758Y21250000D01*
X21065182Y20966339D01*
X21225863Y20725863D01*
X21466339Y20565182D01*
X21623000Y20534020D01*
X21623000Y19466818D01*
X20016003Y17859821D01*
X19524956Y18187928D01*
X18825793Y18327000D01*
X18754207Y18327000D01*
X18055044Y18187928D01*
X17818291Y18029735D01*
X17709698Y18138327D01*
X17476309Y18235000D01*
X16535750Y18235000D01*
X16377000Y18076250D01*
X16377000Y16627000D01*
X16397000Y16627000D01*
X16397000Y16373000D01*
X16377000Y16373000D01*
X16377000Y14923750D01*
X16535750Y14765000D01*
X17476309Y14765000D01*
X17709698Y14861673D01*
X17738000Y14889975D01*
X17738000Y11988855D01*
X17466339Y11934818D01*
X17225863Y11774137D01*
X17065182Y11533661D01*
X17008758Y11250000D01*
X17008758Y8750000D01*
X17065182Y8466339D01*
X17225863Y8225863D01*
X17466339Y8065182D01*
X17698000Y8019102D01*
X17698000Y4802000D01*
X12491242Y4802000D01*
X12491242Y5000000D01*
X12434818Y5283661D01*
X12274137Y5524137D01*
X12033661Y5684818D01*
X11750000Y5741242D01*
X9750000Y5741242D01*
X9466339Y5684818D01*
X9225863Y5524137D01*
X9065182Y5283661D01*
X9008758Y5000000D01*
X9008758Y2500000D01*
X9065182Y2216339D01*
X9225863Y1975863D01*
X9466339Y1815182D01*
X9750000Y1758758D01*
X11750000Y1758758D01*
X12033661Y1815182D01*
X12274137Y1975863D01*
X12434818Y2216339D01*
X12491242Y2500000D01*
X12491242Y2698000D01*
X17755582Y2698000D01*
X17929270Y2524009D01*
X18034858Y2480165D01*
X17931411Y2437422D01*
X17524009Y2030730D01*
X17303252Y1499089D01*
X17302750Y923437D01*
X17522578Y391411D01*
X17698000Y215683D01*
X17698000Y-253000D01*
X10412361Y-253000D01*
X10116106Y43773D01*
X9555072Y276735D01*
X8947593Y277265D01*
X8386154Y45283D01*
X7999703Y-340494D01*
X7827000Y-167490D01*
X7827000Y1774074D01*
X8033661Y1815182D01*
X8274137Y1975863D01*
X8434818Y2216339D01*
X8491242Y2500000D01*
X8491242Y5000000D01*
X8434818Y5283661D01*
X8274137Y5524137D01*
X8033661Y5684818D01*
X7750000Y5741242D01*
X5750000Y5741242D01*
X5466339Y5684818D01*
X5225863Y5524137D01*
X5065182Y5283661D01*
X5008758Y5000000D01*
X4577000Y5000000D01*
X4577000Y7553892D01*
X6406108Y9383000D01*
X6953911Y9383000D01*
X6965182Y9326339D01*
X7125863Y9085863D01*
X7366339Y8925182D01*
X7650000Y8868758D01*
X9350000Y8868758D01*
X9633661Y8925182D01*
X9874137Y9085863D01*
X10034818Y9326339D01*
X10091242Y9610000D01*
X10091242Y11310000D01*
X10034818Y11593661D01*
X9874137Y11834137D01*
X9703729Y11948000D01*
X9814248Y11948000D01*
X12506124Y9256123D01*
X12847417Y9028079D01*
X13008758Y8995986D01*
X13008758Y8750000D01*
X13065182Y8466339D01*
X13225863Y8225863D01*
X13466339Y8065182D01*
X13750000Y8008758D01*
X15750000Y8008758D01*
X16033661Y8065182D01*
X16274137Y8225863D01*
X16434818Y8466339D01*
X16491242Y8750000D01*
X16491242Y11250000D01*
X16434818Y11533661D01*
X16274137Y11774137D01*
X16033661Y11934818D01*
X15750000Y11991242D01*
X13750000Y11991242D01*
X13466339Y11934818D01*
X13225863Y11774137D01*
X13120821Y11616931D01*
X10993876Y13743876D01*
X10652583Y13971921D01*
X10250000Y14052000D01*
X9688169Y14052000D01*
X9646002Y14115107D01*
X9414189Y14270000D01*
X9646002Y14424893D01*
X9987853Y14936508D01*
X10107895Y15540000D01*
X9987853Y16143492D01*
X9940574Y16214250D01*
X14515000Y16214250D01*
X14515000Y15273690D01*
X14611673Y15040301D01*
X14790302Y14861673D01*
X15023691Y14765000D01*
X15964250Y14765000D01*
X16123000Y14923750D01*
X16123000Y16373000D01*
X14673750Y16373000D01*
X14515000Y16214250D01*
X9940574Y16214250D01*
X9646002Y16655107D01*
X9134387Y16996958D01*
X8530895Y17117000D01*
X8469105Y17117000D01*
X7865613Y16996958D01*
X7353998Y16655107D01*
X7285104Y16552000D01*
X1551061Y16552000D01*
X1534818Y16633661D01*
X1374137Y16874137D01*
X1133661Y17034818D01*
X1066658Y17048146D01*
X1271645Y17273076D01*
X1441476Y17683110D01*
X1418678Y17726310D01*
X14515000Y17726310D01*
X14515000Y16785750D01*
X14673750Y16627000D01*
X16123000Y16627000D01*
X16123000Y18076250D01*
X15964250Y18235000D01*
X15023691Y18235000D01*
X14790302Y18138327D01*
X14611673Y17959699D01*
X14515000Y17726310D01*
X1418678Y17726310D01*
X1320155Y17913000D01*
X127000Y17913000D01*
X127000Y17893000D01*
X-127000Y17893000D01*
X-127000Y17913000D01*
X-1320155Y17913000D01*
X-1441476Y17683110D01*
X-1271645Y17273076D01*
X-1066658Y17048146D01*
X-1133661Y17034818D01*
X-1374137Y16874137D01*
X-1534818Y16633661D01*
X-1591242Y16350000D01*
X-4923000Y16350000D01*
X-4923000Y18396890D01*
X-1441476Y18396890D01*
X-1320155Y18167000D01*
X-127000Y18167000D01*
X-127000Y19360819D01*
X127000Y19360819D01*
X127000Y18167000D01*
X1320155Y18167000D01*
X1441476Y18396890D01*
X1271645Y18806924D01*
X881358Y19235183D01*
X356892Y19481486D01*
X127000Y19360819D01*
X-127000Y19360819D01*
X-356892Y19481486D01*
X-881358Y19235183D01*
X-1271645Y18806924D01*
X-1441476Y18396890D01*
X-4923000Y18396890D01*
X-4923000Y22103878D01*
X10020825Y22103878D01*
X10235466Y21585668D01*
X10697608Y21090988D01*
X11313877Y20810817D01*
X11583000Y20928396D01*
X11583000Y22373000D01*
X10138875Y22373000D01*
X10020825Y22103878D01*
X-4923000Y22103878D01*
X-4923000Y22896122D01*
X10020825Y22896122D01*
X10138875Y22627000D01*
X11583000Y22627000D01*
X11583000Y24071604D01*
X11313877Y24189183D01*
X10697608Y23909012D01*
X10235466Y23414332D01*
X10020825Y22896122D01*
X-4923000Y22896122D01*
X-4923000Y27563877D01*
X35810817Y27563877D01*
X36090988Y26947608D01*
X36585668Y26485466D01*
X37103878Y26270825D01*
X37373000Y26388875D01*
X37373000Y27833000D01*
X37627000Y27833000D01*
X37627000Y26388875D01*
X37896122Y26270825D01*
X38414332Y26485466D01*
X38909012Y26947608D01*
X39189183Y27563877D01*
X39071604Y27833000D01*
X37627000Y27833000D01*
X37373000Y27833000D01*
X35928396Y27833000D01*
X35810817Y27563877D01*
X-4923000Y27563877D01*
X-4923000Y62423000D01*
X21478524Y62423000D01*
X21184777Y62364570D01*
X21184777Y62364570D01*
G37*
X21184777Y62364570D02*
X20705603Y62044397D01*
X20705601Y62044394D01*
X17902448Y59241242D01*
X15500000Y59241242D01*
X15216339Y59184818D01*
X14975863Y59024137D01*
X14944367Y58977000D01*
X8428937Y58977000D01*
X8428932Y58977001D01*
X7863709Y58864570D01*
X7384535Y58544397D01*
X7384533Y58544394D01*
X3476345Y54636207D01*
X3214466Y54688298D01*
X2930805Y54631874D01*
X2690329Y54471193D01*
X993273Y52774137D01*
X832592Y52533661D01*
X776168Y52250000D01*
X832592Y51966339D01*
X993273Y51725863D01*
X1737466Y50981670D01*
X1737466Y34912709D01*
X1642448Y34817857D01*
X1348461Y34109860D01*
X1347792Y33343252D01*
X1640542Y32634742D01*
X2182143Y32092196D01*
X2890140Y31798209D01*
X3552301Y31797631D01*
X3528807Y31774137D01*
X3368126Y31533661D01*
X3311702Y31250000D01*
X3368126Y30966339D01*
X3528807Y30725863D01*
X5225863Y29028807D01*
X5466339Y28868126D01*
X5750000Y28811702D01*
X6033661Y28868126D01*
X6274137Y29028807D01*
X7971193Y30725863D01*
X8131874Y30966339D01*
X8188298Y31250000D01*
X8131874Y31533661D01*
X8072736Y31622168D01*
X8114570Y31684777D01*
X8227001Y32250000D01*
X8227000Y32250005D01*
X8227000Y47466076D01*
X8382678Y47621483D01*
X8676665Y48329480D01*
X8676891Y48588097D01*
X12111793Y52023000D01*
X14944367Y52023000D01*
X14975863Y51975863D01*
X15216339Y51815182D01*
X15500000Y51758758D01*
X18000000Y51758758D01*
X18283661Y51815182D01*
X18524137Y51975863D01*
X18684818Y52216339D01*
X18741242Y52500000D01*
X18741242Y54500000D01*
X18684818Y54783661D01*
X18524137Y55024137D01*
X18283661Y55184818D01*
X18000000Y55241242D01*
X15500000Y55241242D01*
X15216339Y55184818D01*
X14975863Y55024137D01*
X14944367Y54977000D01*
X11500000Y54977000D01*
X10934777Y54864570D01*
X10455603Y54544397D01*
X10455601Y54544394D01*
X6552845Y50641639D01*
X6368378Y50641800D01*
X5659868Y50349050D01*
X5117322Y49807449D01*
X4823335Y49099452D01*
X4822666Y48332844D01*
X5115416Y47624334D01*
X5273000Y47466475D01*
X5273000Y33502689D01*
X5225863Y33471193D01*
X5201885Y33447215D01*
X5202460Y34106496D01*
X4909710Y34815006D01*
X4691466Y35033631D01*
X4691466Y50981670D01*
X5435659Y51725863D01*
X5596340Y51966339D01*
X5652764Y52250000D01*
X5596340Y52533661D01*
X5578334Y52560609D01*
X9040725Y56023000D01*
X14944367Y56023000D01*
X14975863Y55975863D01*
X15216339Y55815182D01*
X15500000Y55758758D01*
X18000000Y55758758D01*
X18283661Y55815182D01*
X18524137Y55975863D01*
X18602481Y56093113D01*
X18815224Y56135430D01*
X19294397Y56455603D01*
X22361793Y59523000D01*
X28638206Y59523000D01*
X28773000Y59388207D01*
X28773000Y59108819D01*
X28610000Y59141242D01*
X26810000Y59141242D01*
X26526339Y59084818D01*
X26285863Y58924137D01*
X26125182Y58683661D01*
X26068758Y58400000D01*
X26068758Y56600000D01*
X26125182Y56316339D01*
X26285863Y56075863D01*
X26526339Y55915182D01*
X26623000Y55895955D01*
X26623000Y45377000D01*
X24715980Y45377000D01*
X24684818Y45533661D01*
X24524137Y45774137D01*
X24283661Y45934818D01*
X24000000Y45991242D01*
X21500000Y45991242D01*
X21216339Y45934818D01*
X20975863Y45774137D01*
X20815182Y45533661D01*
X20758758Y45250000D01*
X20758758Y43250000D01*
X20815182Y42966339D01*
X20975863Y42725863D01*
X21216339Y42565182D01*
X21500000Y42508758D01*
X24000000Y42508758D01*
X24283661Y42565182D01*
X24524137Y42725863D01*
X24684818Y42966339D01*
X24715980Y43123000D01*
X26788062Y43123000D01*
X26912254Y42998591D01*
X27454918Y42773257D01*
X28042505Y42772744D01*
X28585560Y42997130D01*
X29001409Y43412254D01*
X29226743Y43954918D01*
X29227256Y44542505D01*
X29002870Y45085560D01*
X28877000Y45211650D01*
X28877000Y55911868D01*
X28893661Y55915182D01*
X29134137Y56075863D01*
X29240040Y56234358D01*
X29595499Y55996848D01*
X30218125Y55873000D01*
X30281875Y55873000D01*
X30904501Y55996848D01*
X31432338Y56349537D01*
X31520000Y56480733D01*
X31607662Y56349537D01*
X32135499Y55996848D01*
X32758125Y55873000D01*
X32821875Y55873000D01*
X33444501Y55996848D01*
X33483640Y56023000D01*
X40553911Y56023000D01*
X40565182Y55966339D01*
X40725863Y55725863D01*
X40966339Y55565182D01*
X41198000Y55519102D01*
X41198000Y54480898D01*
X40966339Y54434818D01*
X40725863Y54274137D01*
X40565182Y54033661D01*
X40508758Y53750000D01*
X40508758Y51250000D01*
X40565182Y50966339D01*
X40725863Y50725863D01*
X40966339Y50565182D01*
X41250000Y50508758D01*
X43250000Y50508758D01*
X43533661Y50565182D01*
X43774137Y50725863D01*
X43934818Y50966339D01*
X43991242Y51250000D01*
X43991242Y53750000D01*
X44508758Y53750000D01*
X44508758Y51250000D01*
X44565182Y50966339D01*
X44725863Y50725863D01*
X44966339Y50565182D01*
X45250000Y50508758D01*
X47250000Y50508758D01*
X47533661Y50565182D01*
X47774137Y50725863D01*
X47934818Y50966339D01*
X47946089Y51023000D01*
X55567138Y51023000D01*
X58037324Y48552815D01*
X58037132Y48332844D01*
X58329882Y47624334D01*
X58773000Y47180443D01*
X58773000Y2748390D01*
X58617322Y2592983D01*
X58323335Y1884986D01*
X58322666Y1118378D01*
X58615416Y409868D01*
X59157017Y-132678D01*
X59865014Y-426665D01*
X60631622Y-427334D01*
X61340132Y-134584D01*
X61882678Y407017D01*
X61999925Y689378D01*
X62115416Y409868D01*
X62657017Y-132678D01*
X63365014Y-426665D01*
X64131622Y-427334D01*
X64840132Y-134584D01*
X65382678Y407017D01*
X65415000Y484857D01*
X65415000Y173690D01*
X65511673Y-59699D01*
X65690302Y-238327D01*
X65923691Y-335000D01*
X66964250Y-335000D01*
X67123000Y-176250D01*
X67123000Y1373000D01*
X67377000Y1373000D01*
X67377000Y-176250D01*
X67535750Y-335000D01*
X68576309Y-335000D01*
X68809698Y-238327D01*
X68988327Y-59699D01*
X69085000Y173690D01*
X69085000Y1214250D01*
X68926250Y1373000D01*
X67377000Y1373000D01*
X67123000Y1373000D01*
X67103000Y1373000D01*
X67103000Y1627000D01*
X67123000Y1627000D01*
X67123000Y3176250D01*
X67377000Y3176250D01*
X67377000Y1627000D01*
X68926250Y1627000D01*
X69085000Y1785750D01*
X69085000Y2826310D01*
X68988327Y3059699D01*
X68809698Y3238327D01*
X68576309Y3335000D01*
X67535750Y3335000D01*
X67377000Y3176250D01*
X67123000Y3176250D01*
X66964250Y3335000D01*
X65923691Y3335000D01*
X65690302Y3238327D01*
X65511673Y3059699D01*
X65415000Y2826310D01*
X65415000Y2516520D01*
X65384584Y2590132D01*
X65227000Y2747991D01*
X65227000Y11888206D01*
X65297551Y11958758D01*
X65550000Y11958758D01*
X65833661Y12015182D01*
X66074137Y12175863D01*
X66234818Y12416339D01*
X66240327Y12444037D01*
X66306986Y12377378D01*
X66421861Y12492253D01*
X66495995Y12246136D01*
X67033223Y12053035D01*
X67603454Y12080222D01*
X68004005Y12246136D01*
X68078139Y12492255D01*
X67250000Y13320395D01*
X67235858Y13306252D01*
X67056252Y13485858D01*
X67070395Y13500000D01*
X67429605Y13500000D01*
X68257745Y12671861D01*
X68503864Y12745995D01*
X68696965Y13283223D01*
X68669778Y13853454D01*
X68503864Y14254005D01*
X68257745Y14328139D01*
X67429605Y13500000D01*
X67070395Y13500000D01*
X67056252Y13514142D01*
X67235858Y13693748D01*
X67250000Y13679605D01*
X68078139Y14507745D01*
X68004005Y14753864D01*
X67466777Y14946965D01*
X66896546Y14919778D01*
X66495995Y14753864D01*
X66421861Y14507747D01*
X66306986Y14622622D01*
X66240327Y14555963D01*
X66234818Y14583661D01*
X66227000Y14595361D01*
X66227000Y24325153D01*
X66276735Y24444928D01*
X66277265Y25052407D01*
X66045283Y25613846D01*
X65616106Y26043773D01*
X65055072Y26276735D01*
X64447593Y26277265D01*
X63886154Y26045283D01*
X63710548Y25869983D01*
X63574137Y26074137D01*
X63333661Y26234818D01*
X63050000Y26291242D01*
X61727000Y26291242D01*
X61727000Y31769911D01*
X62214207Y31673000D01*
X62285793Y31673000D01*
X62984956Y31812072D01*
X63221709Y31970265D01*
X63330302Y31861673D01*
X63563691Y31765000D01*
X64504250Y31765000D01*
X64663000Y31923750D01*
X64663000Y33373000D01*
X64917000Y33373000D01*
X64917000Y31923750D01*
X65075750Y31765000D01*
X66016309Y31765000D01*
X66249698Y31861673D01*
X66428327Y32040301D01*
X66525000Y32273690D01*
X66525000Y33214250D01*
X66366250Y33373000D01*
X64917000Y33373000D01*
X64663000Y33373000D01*
X64643000Y33373000D01*
X64643000Y33627000D01*
X64663000Y33627000D01*
X64663000Y35076250D01*
X64917000Y35076250D01*
X64917000Y33627000D01*
X66366250Y33627000D01*
X66525000Y33785750D01*
X66525000Y34726310D01*
X66428327Y34959699D01*
X66249698Y35138327D01*
X66016309Y35235000D01*
X65075750Y35235000D01*
X64917000Y35076250D01*
X64663000Y35076250D01*
X64504250Y35235000D01*
X63563691Y35235000D01*
X63330302Y35138327D01*
X63221709Y35029735D01*
X62984956Y35187928D01*
X62285793Y35327000D01*
X62214207Y35327000D01*
X61727000Y35230089D01*
X61727000Y47934210D01*
X61891131Y48329480D01*
X61891800Y49096088D01*
X61599050Y49804598D01*
X61057449Y50347144D01*
X60349452Y50641131D01*
X60126400Y50641326D01*
X59792816Y50974910D01*
X62404515Y50974910D01*
X62404515Y50750403D01*
X63140302Y50014616D01*
X63373691Y49917943D01*
X63626310Y49917944D01*
X63859699Y50014617D01*
X64595485Y50750403D01*
X64595485Y50974910D01*
X63500000Y52070395D01*
X62404515Y50974910D01*
X59792816Y50974910D01*
X58644035Y52123691D01*
X61167943Y52123691D01*
X61264616Y51890302D01*
X62000403Y51154515D01*
X62224910Y51154515D01*
X63320395Y52250000D01*
X63679605Y52250000D01*
X64775090Y51154515D01*
X64999597Y51154515D01*
X65735383Y51890301D01*
X65832056Y52123690D01*
X65832057Y52376309D01*
X65735384Y52609698D01*
X64999597Y53345485D01*
X64775090Y53345485D01*
X63679605Y52250000D01*
X63320395Y52250000D01*
X62224910Y53345485D01*
X62000403Y53345485D01*
X61264617Y52609699D01*
X61167944Y52376310D01*
X61167943Y52123691D01*
X58644035Y52123691D01*
X57223329Y53544397D01*
X56916226Y53749597D01*
X62404515Y53749597D01*
X62404515Y53525090D01*
X63500000Y52429605D01*
X64595485Y53525090D01*
X64595485Y53749597D01*
X63859698Y54485384D01*
X63626309Y54582057D01*
X63373690Y54582056D01*
X63140301Y54485383D01*
X62404515Y53749597D01*
X56916226Y53749597D01*
X56744156Y53864570D01*
X56178932Y53977000D01*
X47946089Y53977000D01*
X47934818Y54033661D01*
X47774137Y54274137D01*
X47533661Y54434818D01*
X47250000Y54491242D01*
X45250000Y54491242D01*
X44966339Y54434818D01*
X44725863Y54274137D01*
X44565182Y54033661D01*
X44508758Y53750000D01*
X43991242Y53750000D01*
X43934818Y54033661D01*
X43774137Y54274137D01*
X43533661Y54434818D01*
X43302000Y54480898D01*
X43302000Y55519102D01*
X43533661Y55565182D01*
X43774137Y55725863D01*
X43934818Y55966339D01*
X43991242Y56250000D01*
X43991242Y57214250D01*
X44615000Y57214250D01*
X44615000Y56123690D01*
X44711673Y55890301D01*
X44890302Y55711673D01*
X45123691Y55615000D01*
X45964250Y55615000D01*
X46123000Y55773750D01*
X46123000Y57373000D01*
X46377000Y57373000D01*
X46377000Y55773750D01*
X46535750Y55615000D01*
X47376309Y55615000D01*
X47609698Y55711673D01*
X47788327Y55890301D01*
X47885000Y56123690D01*
X47885000Y57214250D01*
X47726250Y57373000D01*
X46377000Y57373000D01*
X46123000Y57373000D01*
X44773750Y57373000D01*
X44615000Y57214250D01*
X43991242Y57214250D01*
X43991242Y58750000D01*
X43966118Y58876310D01*
X44615000Y58876310D01*
X44615000Y57785750D01*
X44773750Y57627000D01*
X46123000Y57627000D01*
X46123000Y59226250D01*
X46377000Y59226250D01*
X46377000Y57627000D01*
X47726250Y57627000D01*
X47885000Y57785750D01*
X47885000Y58876310D01*
X47788327Y59109699D01*
X47609698Y59288327D01*
X47376309Y59385000D01*
X46535750Y59385000D01*
X46377000Y59226250D01*
X46123000Y59226250D01*
X45964250Y59385000D01*
X45123691Y59385000D01*
X44890302Y59288327D01*
X44711673Y59109699D01*
X44615000Y58876310D01*
X43966118Y58876310D01*
X43934818Y59033661D01*
X43774137Y59274137D01*
X43533661Y59434818D01*
X43250000Y59491242D01*
X41250000Y59491242D01*
X40966339Y59434818D01*
X40725863Y59274137D01*
X40565182Y59033661D01*
X40553911Y58977000D01*
X33483640Y58977000D01*
X33444501Y59003152D01*
X32821875Y59127000D01*
X32758125Y59127000D01*
X32135499Y59003152D01*
X31727000Y58730202D01*
X31727000Y59999995D01*
X31727001Y60000000D01*
X31614570Y60565223D01*
X31294397Y61044397D01*
X31294394Y61044399D01*
X30294397Y62044397D01*
X29815224Y62364570D01*
X29521476Y62423000D01*
X72173000Y62423000D01*
X72173000Y-5923000D01*
X-4923000Y-5923000D01*
X-4923000Y16350000D01*
X-1591242Y16350000D01*
X-1591242Y14650000D01*
X-1534818Y14366339D01*
X-1374137Y14125863D01*
X-1133661Y13965182D01*
X-850000Y13908758D01*
X850000Y13908758D01*
X1133661Y13965182D01*
X1374137Y14125863D01*
X1534818Y14366339D01*
X1551061Y14448000D01*
X7338558Y14448000D01*
X7353998Y14424893D01*
X7585811Y14270000D01*
X7353998Y14115107D01*
X7012147Y13603492D01*
X6892105Y13000000D01*
X7012147Y12396508D01*
X7307028Y11955188D01*
X7125863Y11834137D01*
X6965182Y11593661D01*
X6953911Y11537000D01*
X5960000Y11537000D01*
X5547850Y11455018D01*
X5198446Y11221554D01*
X2738446Y8761554D01*
X2504982Y8412150D01*
X2423000Y8000000D01*
X2423000Y-2750000D01*
X2504982Y-3162150D01*
X2738446Y-3511554D01*
X3988446Y-4761554D01*
X4337850Y-4995018D01*
X4750000Y-5077000D01*
X23750000Y-5077000D01*
X24162150Y-4995018D01*
X24511554Y-4761554D01*
X28011554Y-1261554D01*
X28245018Y-912150D01*
X28327000Y-500000D01*
X28327000Y-140010D01*
X28340132Y-134584D01*
X28882678Y407017D01*
X28915000Y484857D01*
X28915000Y173690D01*
X29011673Y-59699D01*
X29190302Y-238327D01*
X29423691Y-335000D01*
X30464250Y-335000D01*
X30623000Y-176250D01*
X30623000Y1373000D01*
X30877000Y1373000D01*
X30877000Y-176250D01*
X31035750Y-335000D01*
X32076309Y-335000D01*
X32309698Y-238327D01*
X32488327Y-59699D01*
X32585000Y173690D01*
X32585000Y1214250D01*
X32426250Y1373000D01*
X30877000Y1373000D01*
X30623000Y1373000D01*
X30603000Y1373000D01*
X30603000Y1627000D01*
X30623000Y1627000D01*
X30623000Y3176250D01*
X30877000Y3176250D01*
X30877000Y1627000D01*
X32426250Y1627000D01*
X32585000Y1785750D01*
X32585000Y2826310D01*
X32488327Y3059699D01*
X32309698Y3238327D01*
X32076309Y3335000D01*
X31035750Y3335000D01*
X30877000Y3176250D01*
X30623000Y3176250D01*
X30464250Y3335000D01*
X29423691Y3335000D01*
X29190302Y3238327D01*
X29011673Y3059699D01*
X28915000Y2826310D01*
X28915000Y2516520D01*
X28884584Y2590132D01*
X28342983Y3132678D01*
X27634986Y3426665D01*
X26868378Y3427334D01*
X26159868Y3134584D01*
X25617322Y2592983D01*
X25323335Y1884986D01*
X25322666Y1118378D01*
X25615416Y409868D01*
X26125643Y-101249D01*
X23303892Y-2923000D01*
X5196108Y-2923000D01*
X4577000Y-2303892D01*
X4577000Y5000000D01*
X5008758Y5000000D01*
X5008758Y2500000D01*
X5065182Y2216339D01*
X5225863Y1975863D01*
X5466339Y1815182D01*
X5673000Y1774074D01*
X5673000Y-167499D01*
X5456227Y-383894D01*
X5223265Y-944928D01*
X5222735Y-1552407D01*
X5454717Y-2113846D01*
X5883894Y-2543773D01*
X6444928Y-2776735D01*
X7052407Y-2777265D01*
X7613846Y-2545283D01*
X8000297Y-2159506D01*
X8383894Y-2543773D01*
X8944928Y-2776735D01*
X9552407Y-2777265D01*
X10113846Y-2545283D01*
X10252371Y-2407000D01*
X17780539Y-2407000D01*
X17929270Y-2555991D01*
X18460911Y-2776748D01*
X19036563Y-2777250D01*
X19568589Y-2557422D01*
X19975991Y-2150730D01*
X20196748Y-1619089D01*
X20197250Y-1043437D01*
X19977422Y-511411D01*
X19802000Y-335683D01*
X19802000Y215582D01*
X19975991Y389270D01*
X20196748Y920911D01*
X20197250Y1496563D01*
X19977422Y2028589D01*
X19570730Y2435991D01*
X19465142Y2479835D01*
X19568589Y2522578D01*
X19975991Y2929270D01*
X20196748Y3460911D01*
X20197250Y4036563D01*
X19977422Y4568589D01*
X19802000Y4744317D01*
X19802000Y8019102D01*
X20033661Y8065182D01*
X20274137Y8225863D01*
X20434818Y8466339D01*
X20491242Y8750000D01*
X20491242Y11250000D01*
X20434818Y11533661D01*
X20274137Y11774137D01*
X20033661Y11934818D01*
X19842000Y11972942D01*
X19842000Y15023914D01*
X20117677Y15208116D01*
X20227849Y15373000D01*
X20250000Y15373000D01*
X20681284Y15458788D01*
X21046909Y15703091D01*
X23546909Y18203091D01*
X23791212Y18568716D01*
X23877000Y19000000D01*
X23877000Y20534020D01*
X24033661Y20565182D01*
X24123000Y20624876D01*
X24123000Y13500000D01*
X24208788Y13068716D01*
X24453091Y12703091D01*
X25663090Y11493091D01*
X26028715Y11248788D01*
X26100270Y11234555D01*
X26460000Y11163000D01*
X26803208Y11163000D01*
X27017222Y11020000D01*
X26732496Y10829752D01*
X26401484Y10334358D01*
X26285248Y9750000D01*
X26401484Y9165642D01*
X26732496Y8670248D01*
X27123000Y8409321D01*
X27123000Y7250000D01*
X27208788Y6818716D01*
X27453091Y6453091D01*
X29953091Y3953091D01*
X30318716Y3708788D01*
X30750000Y3623000D01*
X32283182Y3623000D01*
X35203091Y703091D01*
X35568716Y458788D01*
X35877993Y397269D01*
X36407017Y-132678D01*
X37115014Y-426665D01*
X37881622Y-427334D01*
X38590132Y-134584D01*
X38928129Y202825D01*
X39882430Y202825D01*
X40005565Y-84788D01*
X40687734Y-344707D01*
X41417443Y-323786D01*
X41994435Y-84788D01*
X42117570Y202825D01*
X41000000Y1320395D01*
X39882430Y202825D01*
X38928129Y202825D01*
X39132678Y407017D01*
X39294555Y796858D01*
X39415212Y505565D01*
X39702825Y382430D01*
X40820395Y1500000D01*
X39702825Y2617570D01*
X39415212Y2494435D01*
X39299552Y2190879D01*
X39134584Y2590132D01*
X38927902Y2797175D01*
X39882430Y2797175D01*
X41000000Y1679605D01*
X42117570Y2797175D01*
X41994435Y3084788D01*
X41312266Y3344707D01*
X40582557Y3323786D01*
X40005565Y3084788D01*
X39882430Y2797175D01*
X38927902Y2797175D01*
X38592983Y3132678D01*
X37884986Y3426665D01*
X37118378Y3427334D01*
X36409868Y3134584D01*
X36184355Y2909463D01*
X33720818Y5373000D01*
X40033182Y5373000D01*
X42583217Y2822964D01*
X42558758Y2700000D01*
X42558758Y2505579D01*
X42297175Y2617570D01*
X41179605Y1500000D01*
X42297175Y382430D01*
X42558758Y494421D01*
X42558758Y300000D01*
X42615182Y16339D01*
X42775863Y-224137D01*
X43016339Y-384818D01*
X43300000Y-441242D01*
X45700000Y-441242D01*
X45983661Y-384818D01*
X46224137Y-224137D01*
X46384818Y16339D01*
X46441242Y300000D01*
X46441242Y2024200D01*
X51708521Y7291479D01*
X51925727Y7616551D01*
X52002000Y8000000D01*
X52002000Y41250000D01*
X51925727Y41633449D01*
X51708521Y41958521D01*
X46708521Y46958521D01*
X46576239Y47046909D01*
X46383449Y47175727D01*
X46000000Y47252000D01*
X39241242Y47252000D01*
X39241242Y47500000D01*
X39184818Y47783661D01*
X39024137Y48024137D01*
X38783661Y48184818D01*
X38500000Y48241242D01*
X36500000Y48241242D01*
X36216339Y48184818D01*
X35975863Y48024137D01*
X35815182Y47783661D01*
X35758758Y47500000D01*
X35758758Y45000000D01*
X35815182Y44716339D01*
X35975863Y44475863D01*
X36216339Y44315182D01*
X36448000Y44269102D01*
X36448000Y43491242D01*
X36250000Y43491242D01*
X35966339Y43434818D01*
X35725863Y43274137D01*
X35565182Y43033661D01*
X35508758Y42750000D01*
X35508758Y40750000D01*
X35565182Y40466339D01*
X35725863Y40225863D01*
X35966339Y40065182D01*
X36250000Y40008758D01*
X38750000Y40008758D01*
X39033661Y40065182D01*
X39274137Y40225863D01*
X39434818Y40466339D01*
X39491242Y40750000D01*
X39491242Y42750000D01*
X39434818Y43033661D01*
X39274137Y43274137D01*
X39033661Y43434818D01*
X38750000Y43491242D01*
X38552000Y43491242D01*
X38552000Y44269102D01*
X38783661Y44315182D01*
X39024137Y44475863D01*
X39184818Y44716339D01*
X39241242Y45000000D01*
X39241242Y45248000D01*
X45584958Y45248000D01*
X49998000Y40834958D01*
X49998000Y8415042D01*
X45088388Y3505430D01*
X41296909Y7296909D01*
X40931284Y7541212D01*
X40500000Y7627000D01*
X33966819Y7627000D01*
X33127000Y8466818D01*
X33127000Y13033182D01*
X33796818Y13703000D01*
X34423208Y13703000D01*
X34637222Y13560000D01*
X34352496Y13369752D01*
X34021484Y12874358D01*
X33905248Y12290000D01*
X34021484Y11705642D01*
X34352496Y11210248D01*
X34637222Y11020000D01*
X34352496Y10829752D01*
X34021484Y10334358D01*
X33905248Y9750000D01*
X34021484Y9165642D01*
X34352496Y8670248D01*
X34847890Y8339236D01*
X35432248Y8223000D01*
X36307752Y8223000D01*
X36892110Y8339236D01*
X37387504Y8670248D01*
X37718516Y9165642D01*
X37834752Y9750000D01*
X37718516Y10334358D01*
X37387504Y10829752D01*
X37102778Y11020000D01*
X37316792Y11163000D01*
X39008758Y11163000D01*
X39008758Y11000000D01*
X39065182Y10716339D01*
X39225863Y10475863D01*
X39466339Y10315182D01*
X39748000Y10259156D01*
X39748000Y10250000D01*
X39824273Y9866551D01*
X40041479Y9541479D01*
X41291479Y8291479D01*
X41616551Y8074273D01*
X42000000Y7998000D01*
X46500000Y7998000D01*
X46883449Y8074273D01*
X47208521Y8291479D01*
X48958521Y10041479D01*
X48962778Y10047850D01*
X49175727Y10366551D01*
X49252000Y10750000D01*
X49252000Y36000000D01*
X49175727Y36383449D01*
X48958521Y36708521D01*
X48341242Y37325800D01*
X48341242Y38850000D01*
X48284818Y39133661D01*
X48124137Y39374137D01*
X47883661Y39534818D01*
X47600000Y39591242D01*
X45400000Y39591242D01*
X45116339Y39534818D01*
X45052000Y39491828D01*
X45052000Y41963193D01*
X45251409Y42162254D01*
X45476743Y42704918D01*
X45477256Y43292505D01*
X45252870Y43835560D01*
X44837746Y44251409D01*
X44295082Y44476743D01*
X43707495Y44477256D01*
X43164440Y44252870D01*
X42748591Y43837746D01*
X42523257Y43295082D01*
X42522744Y42707495D01*
X42747130Y42164440D01*
X42948000Y41963219D01*
X42948000Y39252813D01*
X42632323Y39041884D01*
X42522151Y38877000D01*
X39465980Y38877000D01*
X39434818Y39033661D01*
X39274137Y39274137D01*
X39033661Y39434818D01*
X38750000Y39491242D01*
X36250000Y39491242D01*
X35966339Y39434818D01*
X35725863Y39274137D01*
X35565182Y39033661D01*
X35526063Y38837000D01*
X32117727Y38837000D01*
X32054803Y38931173D01*
X31494524Y39305540D01*
X30833630Y39437000D01*
X30522827Y39437000D01*
X30546909Y39453091D01*
X34296909Y43203091D01*
X34541212Y43568716D01*
X34627000Y44000000D01*
X34627000Y44284020D01*
X34783661Y44315182D01*
X35024137Y44475863D01*
X35184818Y44716339D01*
X35241242Y45000000D01*
X35241242Y47500000D01*
X35184818Y47783661D01*
X35024137Y48024137D01*
X34783661Y48184818D01*
X34500000Y48241242D01*
X32500000Y48241242D01*
X32216339Y48184818D01*
X31975863Y48024137D01*
X31815182Y47783661D01*
X31758758Y47500000D01*
X31758758Y45000000D01*
X31815182Y44716339D01*
X31975863Y44475863D01*
X32216339Y44315182D01*
X32220530Y44314348D01*
X29491242Y41585060D01*
X29491242Y41750000D01*
X29434818Y42033661D01*
X29274137Y42274137D01*
X29033661Y42434818D01*
X28750000Y42491242D01*
X26750000Y42491242D01*
X26466339Y42434818D01*
X26225863Y42274137D01*
X26065182Y42033661D01*
X26008758Y41750000D01*
X26008758Y41377000D01*
X24715980Y41377000D01*
X24684818Y41533661D01*
X24524137Y41774137D01*
X24283661Y41934818D01*
X24000000Y41991242D01*
X21500000Y41991242D01*
X21216339Y41934818D01*
X20975863Y41774137D01*
X20815182Y41533661D01*
X20758758Y41250000D01*
X20758758Y39250000D01*
X20815182Y38966339D01*
X20975863Y38725863D01*
X21216339Y38565182D01*
X21500000Y38508758D01*
X24000000Y38508758D01*
X24283661Y38565182D01*
X24524137Y38725863D01*
X24684818Y38966339D01*
X24715980Y39123000D01*
X26008758Y39123000D01*
X26008758Y38750000D01*
X26065182Y38466339D01*
X26225863Y38225863D01*
X26466339Y38065182D01*
X26750000Y38008758D01*
X28078797Y38008758D01*
X28019370Y37710000D01*
X28086255Y37373745D01*
X27750000Y37440630D01*
X27089106Y37309170D01*
X26528827Y36934803D01*
X26154460Y36374524D01*
X26023000Y35713630D01*
X26023000Y34626370D01*
X26154460Y33965476D01*
X26528827Y33405197D01*
X27089106Y33030830D01*
X27750000Y32899370D01*
X28410894Y33030830D01*
X28971173Y33405197D01*
X29345540Y33965476D01*
X29477000Y34626370D01*
X29477000Y35713630D01*
X29410115Y36049885D01*
X29746370Y35983000D01*
X30833630Y35983000D01*
X31494524Y36114460D01*
X32054803Y36488827D01*
X32117727Y36583000D01*
X35541977Y36583000D01*
X35565182Y36466339D01*
X35725863Y36225863D01*
X35966339Y36065182D01*
X36250000Y36008758D01*
X36498000Y36008758D01*
X36498000Y32341242D01*
X36400000Y32341242D01*
X36116339Y32284818D01*
X35875863Y32124137D01*
X35715182Y31883661D01*
X35658758Y31600000D01*
X35658758Y29400000D01*
X35715182Y29116339D01*
X35875863Y28875863D01*
X36007206Y28788103D01*
X35810817Y28356123D01*
X35928396Y28087000D01*
X37373000Y28087000D01*
X37373000Y28107000D01*
X37627000Y28107000D01*
X37627000Y28087000D01*
X39071604Y28087000D01*
X39189183Y28356123D01*
X38992794Y28788103D01*
X39124137Y28875863D01*
X39284818Y29116339D01*
X39341242Y29400000D01*
X39341242Y31600000D01*
X39284818Y31883661D01*
X39124137Y32124137D01*
X38883661Y32284818D01*
X38600000Y32341242D01*
X38502000Y32341242D01*
X38502000Y36008758D01*
X38750000Y36008758D01*
X39033661Y36065182D01*
X39274137Y36225863D01*
X39434818Y36466339D01*
X39465980Y36623000D01*
X42522151Y36623000D01*
X42632323Y36458116D01*
X43225044Y36062072D01*
X43924207Y35923000D01*
X43995793Y35923000D01*
X44694956Y36062072D01*
X44849492Y36165330D01*
X44875863Y36125863D01*
X45116339Y35965182D01*
X45400000Y35908758D01*
X46924200Y35908758D01*
X47248000Y35584958D01*
X47248000Y11165042D01*
X46084958Y10002000D01*
X42415042Y10002000D01*
X42074543Y10342499D01*
X42274137Y10475863D01*
X42434818Y10716339D01*
X42491242Y11000000D01*
X42491242Y13500000D01*
X42434818Y13783661D01*
X42274137Y14024137D01*
X42033661Y14184818D01*
X41750000Y14241242D01*
X39750000Y14241242D01*
X39466339Y14184818D01*
X39225863Y14024137D01*
X39065182Y13783661D01*
X39008758Y13500000D01*
X39008758Y13417000D01*
X37316792Y13417000D01*
X37102778Y13560000D01*
X37387504Y13750248D01*
X37718516Y14245642D01*
X37834752Y14830000D01*
X37718516Y15414358D01*
X37387504Y15909752D01*
X37102778Y16100000D01*
X37387504Y16290248D01*
X37718516Y16785642D01*
X37834752Y17370000D01*
X37718516Y17954358D01*
X37387504Y18449752D01*
X36892110Y18780764D01*
X36307752Y18897000D01*
X35432248Y18897000D01*
X34847890Y18780764D01*
X34352496Y18449752D01*
X34021484Y17954358D01*
X33905248Y17370000D01*
X34021484Y16785642D01*
X34352496Y16290248D01*
X34637222Y16100000D01*
X34423208Y15957000D01*
X33466566Y15957000D01*
X33541212Y16068716D01*
X33627000Y16500000D01*
X33627000Y18283182D01*
X34966818Y19623000D01*
X38783182Y19623000D01*
X40723159Y17683023D01*
X40722735Y17197593D01*
X40954717Y16636154D01*
X41383894Y16206227D01*
X41944928Y15973265D01*
X42552407Y15972735D01*
X43113846Y16204717D01*
X43500297Y16590494D01*
X43623000Y16467577D01*
X43623000Y14215980D01*
X43466339Y14184818D01*
X43225863Y14024137D01*
X43065182Y13783661D01*
X43008758Y13500000D01*
X43008758Y11000000D01*
X43065182Y10716339D01*
X43225863Y10475863D01*
X43466339Y10315182D01*
X43750000Y10258758D01*
X45750000Y10258758D01*
X46033661Y10315182D01*
X46274137Y10475863D01*
X46434818Y10716339D01*
X46491242Y11000000D01*
X46491242Y13500000D01*
X46434818Y13783661D01*
X46274137Y14024137D01*
X46033661Y14184818D01*
X45877000Y14215980D01*
X45877000Y16467412D01*
X46043773Y16633894D01*
X46276735Y17194928D01*
X46277265Y17802407D01*
X46045283Y18363846D01*
X45616106Y18793773D01*
X45055072Y19026735D01*
X44447593Y19027265D01*
X43886154Y18795283D01*
X43499703Y18409506D01*
X43116106Y18793773D01*
X42575613Y19018205D01*
X40046909Y21546909D01*
X39681284Y21791212D01*
X39250000Y21877000D01*
X34966819Y21877000D01*
X33546909Y23296909D01*
X33241242Y23501149D01*
X33241242Y23750000D01*
X33184818Y24033661D01*
X33024137Y24274137D01*
X32783661Y24434818D01*
X32500000Y24491242D01*
X30500000Y24491242D01*
X30216339Y24434818D01*
X29975863Y24274137D01*
X29815182Y24033661D01*
X29758758Y23750000D01*
X29758758Y21250000D01*
X29815182Y20966339D01*
X29975863Y20725863D01*
X30216339Y20565182D01*
X30500000Y20508758D01*
X32500000Y20508758D01*
X32705895Y20549713D01*
X31703091Y19546909D01*
X31458788Y19181284D01*
X31373000Y18750000D01*
X31373000Y16966819D01*
X30363182Y15957000D01*
X29841144Y15957000D01*
X29974137Y16045863D01*
X30134818Y16286339D01*
X30191242Y16570000D01*
X30191242Y18170000D01*
X30134818Y18453661D01*
X29974137Y18694137D01*
X29733661Y18854818D01*
X29450000Y18911242D01*
X27050000Y18911242D01*
X26766339Y18854818D01*
X26525863Y18694137D01*
X26377000Y18471348D01*
X26377000Y20615000D01*
X27214250Y20615000D01*
X27373000Y20773750D01*
X27373000Y22373000D01*
X27627000Y22373000D01*
X27627000Y20773750D01*
X27785750Y20615000D01*
X28626309Y20615000D01*
X28859698Y20711673D01*
X29038327Y20890301D01*
X29135000Y21123690D01*
X29135000Y22214250D01*
X28976250Y22373000D01*
X27627000Y22373000D01*
X27373000Y22373000D01*
X27353000Y22373000D01*
X27353000Y22627000D01*
X27373000Y22627000D01*
X27373000Y24226250D01*
X27627000Y24226250D01*
X27627000Y22627000D01*
X28976250Y22627000D01*
X29135000Y22785750D01*
X29135000Y23876310D01*
X29038327Y24109699D01*
X28859698Y24288327D01*
X28626309Y24385000D01*
X27785750Y24385000D01*
X27627000Y24226250D01*
X27373000Y24226250D01*
X27214250Y24385000D01*
X26373691Y24385000D01*
X26202480Y24314082D01*
X26046909Y24546910D01*
X24546909Y26046909D01*
X24181284Y26291212D01*
X23750000Y26377000D01*
X20000000Y26377000D01*
X19568716Y26291212D01*
X19203091Y26046909D01*
X17953091Y24796909D01*
X17748675Y24490978D01*
X17466339Y24434818D01*
X17225863Y24274137D01*
X17065182Y24033661D01*
X17008758Y23750000D01*
X17008758Y23627000D01*
X16085871Y23627000D01*
X16034818Y23883661D01*
X15874137Y24124137D01*
X15633661Y24284818D01*
X15350000Y24341242D01*
X13150000Y24341242D01*
X12866339Y24284818D01*
X12625863Y24124137D01*
X12538103Y23992794D01*
X12106123Y24189183D01*
X11837000Y24071604D01*
X11837000Y22627000D01*
X11857000Y22627000D01*
X11857000Y22373000D01*
X11837000Y22373000D01*
X11837000Y20928396D01*
X12106123Y20810817D01*
X12538103Y21007206D01*
X12625863Y20875863D01*
X12866339Y20715182D01*
X13150000Y20658758D01*
X15350000Y20658758D01*
X15633661Y20715182D01*
X15874137Y20875863D01*
X16034818Y21116339D01*
X16085871Y21373000D01*
X17008758Y21373000D01*
X17008758Y21250000D01*
X17065182Y20966339D01*
X17225863Y20725863D01*
X17466339Y20565182D01*
X17750000Y20508758D01*
X19750000Y20508758D01*
X20033661Y20565182D01*
X20274137Y20725863D01*
X20434818Y20966339D01*
X20491242Y21250000D01*
X20491242Y23750000D01*
X20434818Y24033661D01*
X20411851Y24068033D01*
X20466818Y24123000D01*
X21124876Y24123000D01*
X21065182Y24033661D01*
X21008758Y23750000D01*
X21008758Y21250000D01*
X21065182Y20966339D01*
X21225863Y20725863D01*
X21466339Y20565182D01*
X21623000Y20534020D01*
X21623000Y19466818D01*
X20016003Y17859821D01*
X19524956Y18187928D01*
X18825793Y18327000D01*
X18754207Y18327000D01*
X18055044Y18187928D01*
X17818291Y18029735D01*
X17709698Y18138327D01*
X17476309Y18235000D01*
X16535750Y18235000D01*
X16377000Y18076250D01*
X16377000Y16627000D01*
X16397000Y16627000D01*
X16397000Y16373000D01*
X16377000Y16373000D01*
X16377000Y14923750D01*
X16535750Y14765000D01*
X17476309Y14765000D01*
X17709698Y14861673D01*
X17738000Y14889975D01*
X17738000Y11988855D01*
X17466339Y11934818D01*
X17225863Y11774137D01*
X17065182Y11533661D01*
X17008758Y11250000D01*
X17008758Y8750000D01*
X17065182Y8466339D01*
X17225863Y8225863D01*
X17466339Y8065182D01*
X17698000Y8019102D01*
X17698000Y4802000D01*
X12491242Y4802000D01*
X12491242Y5000000D01*
X12434818Y5283661D01*
X12274137Y5524137D01*
X12033661Y5684818D01*
X11750000Y5741242D01*
X9750000Y5741242D01*
X9466339Y5684818D01*
X9225863Y5524137D01*
X9065182Y5283661D01*
X9008758Y5000000D01*
X9008758Y2500000D01*
X9065182Y2216339D01*
X9225863Y1975863D01*
X9466339Y1815182D01*
X9750000Y1758758D01*
X11750000Y1758758D01*
X12033661Y1815182D01*
X12274137Y1975863D01*
X12434818Y2216339D01*
X12491242Y2500000D01*
X12491242Y2698000D01*
X17755582Y2698000D01*
X17929270Y2524009D01*
X18034858Y2480165D01*
X17931411Y2437422D01*
X17524009Y2030730D01*
X17303252Y1499089D01*
X17302750Y923437D01*
X17522578Y391411D01*
X17698000Y215683D01*
X17698000Y-253000D01*
X10412361Y-253000D01*
X10116106Y43773D01*
X9555072Y276735D01*
X8947593Y277265D01*
X8386154Y45283D01*
X7999703Y-340494D01*
X7827000Y-167490D01*
X7827000Y1774074D01*
X8033661Y1815182D01*
X8274137Y1975863D01*
X8434818Y2216339D01*
X8491242Y2500000D01*
X8491242Y5000000D01*
X8434818Y5283661D01*
X8274137Y5524137D01*
X8033661Y5684818D01*
X7750000Y5741242D01*
X5750000Y5741242D01*
X5466339Y5684818D01*
X5225863Y5524137D01*
X5065182Y5283661D01*
X5008758Y5000000D01*
X4577000Y5000000D01*
X4577000Y7553892D01*
X6406108Y9383000D01*
X6953911Y9383000D01*
X6965182Y9326339D01*
X7125863Y9085863D01*
X7366339Y8925182D01*
X7650000Y8868758D01*
X9350000Y8868758D01*
X9633661Y8925182D01*
X9874137Y9085863D01*
X10034818Y9326339D01*
X10091242Y9610000D01*
X10091242Y11310000D01*
X10034818Y11593661D01*
X9874137Y11834137D01*
X9703729Y11948000D01*
X9814248Y11948000D01*
X12506124Y9256123D01*
X12847417Y9028079D01*
X13008758Y8995986D01*
X13008758Y8750000D01*
X13065182Y8466339D01*
X13225863Y8225863D01*
X13466339Y8065182D01*
X13750000Y8008758D01*
X15750000Y8008758D01*
X16033661Y8065182D01*
X16274137Y8225863D01*
X16434818Y8466339D01*
X16491242Y8750000D01*
X16491242Y11250000D01*
X16434818Y11533661D01*
X16274137Y11774137D01*
X16033661Y11934818D01*
X15750000Y11991242D01*
X13750000Y11991242D01*
X13466339Y11934818D01*
X13225863Y11774137D01*
X13120821Y11616931D01*
X10993876Y13743876D01*
X10652583Y13971921D01*
X10250000Y14052000D01*
X9688169Y14052000D01*
X9646002Y14115107D01*
X9414189Y14270000D01*
X9646002Y14424893D01*
X9987853Y14936508D01*
X10107895Y15540000D01*
X9987853Y16143492D01*
X9940574Y16214250D01*
X14515000Y16214250D01*
X14515000Y15273690D01*
X14611673Y15040301D01*
X14790302Y14861673D01*
X15023691Y14765000D01*
X15964250Y14765000D01*
X16123000Y14923750D01*
X16123000Y16373000D01*
X14673750Y16373000D01*
X14515000Y16214250D01*
X9940574Y16214250D01*
X9646002Y16655107D01*
X9134387Y16996958D01*
X8530895Y17117000D01*
X8469105Y17117000D01*
X7865613Y16996958D01*
X7353998Y16655107D01*
X7285104Y16552000D01*
X1551061Y16552000D01*
X1534818Y16633661D01*
X1374137Y16874137D01*
X1133661Y17034818D01*
X1066658Y17048146D01*
X1271645Y17273076D01*
X1441476Y17683110D01*
X1418678Y17726310D01*
X14515000Y17726310D01*
X14515000Y16785750D01*
X14673750Y16627000D01*
X16123000Y16627000D01*
X16123000Y18076250D01*
X15964250Y18235000D01*
X15023691Y18235000D01*
X14790302Y18138327D01*
X14611673Y17959699D01*
X14515000Y17726310D01*
X1418678Y17726310D01*
X1320155Y17913000D01*
X127000Y17913000D01*
X127000Y17893000D01*
X-127000Y17893000D01*
X-127000Y17913000D01*
X-1320155Y17913000D01*
X-1441476Y17683110D01*
X-1271645Y17273076D01*
X-1066658Y17048146D01*
X-1133661Y17034818D01*
X-1374137Y16874137D01*
X-1534818Y16633661D01*
X-1591242Y16350000D01*
X-4923000Y16350000D01*
X-4923000Y18396890D01*
X-1441476Y18396890D01*
X-1320155Y18167000D01*
X-127000Y18167000D01*
X-127000Y19360819D01*
X127000Y19360819D01*
X127000Y18167000D01*
X1320155Y18167000D01*
X1441476Y18396890D01*
X1271645Y18806924D01*
X881358Y19235183D01*
X356892Y19481486D01*
X127000Y19360819D01*
X-127000Y19360819D01*
X-356892Y19481486D01*
X-881358Y19235183D01*
X-1271645Y18806924D01*
X-1441476Y18396890D01*
X-4923000Y18396890D01*
X-4923000Y22103878D01*
X10020825Y22103878D01*
X10235466Y21585668D01*
X10697608Y21090988D01*
X11313877Y20810817D01*
X11583000Y20928396D01*
X11583000Y22373000D01*
X10138875Y22373000D01*
X10020825Y22103878D01*
X-4923000Y22103878D01*
X-4923000Y22896122D01*
X10020825Y22896122D01*
X10138875Y22627000D01*
X11583000Y22627000D01*
X11583000Y24071604D01*
X11313877Y24189183D01*
X10697608Y23909012D01*
X10235466Y23414332D01*
X10020825Y22896122D01*
X-4923000Y22896122D01*
X-4923000Y27563877D01*
X35810817Y27563877D01*
X36090988Y26947608D01*
X36585668Y26485466D01*
X37103878Y26270825D01*
X37373000Y26388875D01*
X37373000Y27833000D01*
X37627000Y27833000D01*
X37627000Y26388875D01*
X37896122Y26270825D01*
X38414332Y26485466D01*
X38909012Y26947608D01*
X39189183Y27563877D01*
X39071604Y27833000D01*
X37627000Y27833000D01*
X37373000Y27833000D01*
X35928396Y27833000D01*
X35810817Y27563877D01*
X-4923000Y27563877D01*
X-4923000Y62423000D01*
X21478524Y62423000D01*
X21184777Y62364570D01*
M02*
