G04 #@! TF.GenerationSoftware,KiCad,Pcbnew,no-vcs-found-be10de8~57~ubuntu16.10.1*
G04 #@! TF.CreationDate,2017-03-16T12:18:36+01:00*
G04 #@! TF.ProjectId,alimentatore,616C696D656E7461746F72652E6B6963,rev?*
G04 #@! TF.FileFunction,Legend,Bot*
G04 #@! TF.FilePolarity,Positive*
%FSLAX46Y46*%
G04 Gerber Fmt 4.6, Leading zero omitted, Abs format (unit mm)*
G04 Created by KiCad (PCBNEW no-vcs-found-be10de8~57~ubuntu16.10.1) date Thu Mar 16 12:18:36 2017*
%MOMM*%
%LPD*%
G01*
G04 APERTURE LIST*
%ADD10C,0.100000*%
%ADD11C,0.200000*%
%ADD12C,0.150000*%
%ADD13C,0.120000*%
G04 APERTURE END LIST*
D10*
D11*
X73000000Y63250000D02*
X-5750000Y63250000D01*
X73000000Y-6750000D02*
X73000000Y63250000D01*
X-5750000Y-6750000D02*
X73000000Y-6750000D01*
X-5750000Y63250000D02*
X-5750000Y-6750000D01*
D12*
X1613425Y29588299D02*
X1330583Y29305456D01*
X4866117Y27891243D02*
X-83631Y32840990D01*
X4088299Y27113425D02*
X-861448Y32063173D01*
X9179468Y32204594D02*
X3805456Y26830583D01*
X-1144291Y31780330D02*
X4229720Y37154342D01*
X4229720Y37154342D02*
X9179468Y32204594D01*
X25500000Y4600000D02*
X32500000Y4600000D01*
X25500000Y-3000000D02*
X25500000Y4600000D01*
X32500000Y4600000D02*
X32500000Y-3000000D01*
X32500000Y-2600000D02*
X25500000Y-2600000D01*
X32500000Y-1500000D02*
X25500000Y-1500000D01*
X29000000Y-2600000D02*
X29000000Y-3000000D01*
X65550000Y-2600000D02*
X65550000Y-3000000D01*
X61950000Y-2600000D02*
X61950000Y-3000000D01*
X69050000Y-1500000D02*
X58450000Y-1500000D01*
X69050000Y-2600000D02*
X58450000Y-2600000D01*
X69050000Y4600000D02*
X69050000Y-3000000D01*
X58450000Y-3000000D02*
X58450000Y4600000D01*
X58450000Y4600000D02*
X69050000Y4600000D01*
X35700000Y4600000D02*
X46300000Y4600000D01*
X35700000Y-3000000D02*
X35700000Y4600000D01*
X46300000Y4600000D02*
X46300000Y-3000000D01*
X46300000Y-2600000D02*
X35700000Y-2600000D01*
X46300000Y-1500000D02*
X35700000Y-1500000D01*
X39200000Y-2600000D02*
X39200000Y-3000000D01*
X42800000Y-2600000D02*
X42800000Y-3000000D01*
D13*
X68822233Y50482233D02*
G75*
G03X68822233Y50482233I-7090000J0D01*
G01*
X56747130Y55467336D02*
X66717336Y45497130D01*
X56718846Y55439052D02*
X66689052Y45468846D01*
X56690562Y55410767D02*
X66660767Y45440562D01*
X56662985Y55381776D02*
X66631776Y45412985D01*
X56634700Y55353492D02*
X66603492Y45384700D01*
X56607123Y55324500D02*
X66574500Y45357123D01*
X56580253Y55294802D02*
X66544802Y45330253D01*
X56552676Y55265810D02*
X66515810Y45302676D01*
X56525806Y55236112D02*
X66486112Y45275806D01*
X56498936Y55206413D02*
X66456413Y45248936D01*
X56472066Y55176715D02*
X66426715Y45222066D01*
X56445196Y55147016D02*
X66397016Y45195196D01*
X56419033Y55116611D02*
X66366611Y45169033D01*
X56392870Y55086205D02*
X66336205Y45142870D01*
X56366707Y55055800D02*
X66305800Y45116707D01*
X56340544Y55025394D02*
X66275394Y45090544D01*
X56314381Y54994989D02*
X66244989Y45064381D01*
X56288925Y54963876D02*
X66213876Y45038925D01*
X56262762Y54932056D02*
X66182056Y45012762D01*
X56237306Y54900943D02*
X66150943Y44987306D01*
X56212558Y54869124D02*
X66119124Y44962558D01*
X56187102Y54838011D02*
X66088011Y44937102D01*
X56162353Y54806191D02*
X66056191Y44912353D01*
X56137604Y54774371D02*
X66024371Y44887604D01*
X56113563Y54741844D02*
X65991844Y44863563D01*
X56088814Y54710024D02*
X65960024Y44838814D01*
X56064772Y54677498D02*
X65927498Y44814772D01*
X56040731Y54644971D02*
X65894971Y44790731D01*
X56017396Y54611737D02*
X59963759Y50665374D01*
X61915374Y48713759D02*
X65861737Y44767396D01*
X55993354Y54579210D02*
X59935475Y50637089D01*
X61887089Y48685475D02*
X65829210Y44743354D01*
X55970020Y54545976D02*
X59907190Y50608805D01*
X61858805Y48657190D02*
X65795976Y44720020D01*
X55946685Y54512742D02*
X59878906Y50580521D01*
X61830521Y48628906D02*
X65762742Y44696685D01*
X55923351Y54479508D02*
X59850622Y50552237D01*
X61802237Y48600622D02*
X65729508Y44673351D01*
X55900016Y54446274D02*
X59822338Y50523952D01*
X61773952Y48572338D02*
X65696274Y44650016D01*
X55877389Y54412333D02*
X59794053Y50495668D01*
X61745668Y48544053D02*
X65662333Y44627389D01*
X55854761Y54378391D02*
X59765769Y50467384D01*
X61717384Y48515769D02*
X65628391Y44604761D01*
X55832134Y54344450D02*
X59737485Y50439100D01*
X61689100Y48487485D02*
X65594450Y44582134D01*
X55810214Y54309802D02*
X59709201Y50410815D01*
X61660815Y48459201D02*
X65559802Y44560214D01*
X55787586Y54275861D02*
X59680916Y50382531D01*
X61632531Y48430916D02*
X65525861Y44537586D01*
X55765666Y54241213D02*
X59652632Y50354247D01*
X61604247Y48402632D02*
X65491213Y44515666D01*
X55743746Y54206564D02*
X59624348Y50325962D01*
X61575962Y48374348D02*
X65456564Y44493746D01*
X55722533Y54171209D02*
X59596063Y50297678D01*
X61547678Y48346063D02*
X65421209Y44472533D01*
X55700612Y54136561D02*
X59567779Y50269394D01*
X61519394Y48317779D02*
X65386561Y44450612D01*
X55679399Y54101206D02*
X59539495Y50241110D01*
X61491110Y48289495D02*
X65351206Y44429399D01*
X55658186Y54065850D02*
X59511211Y50212825D01*
X61462825Y48261211D02*
X65315850Y44408186D01*
X55637680Y54029788D02*
X59482926Y50184541D01*
X61434541Y48232926D02*
X65279788Y44387680D01*
X55616466Y53994432D02*
X59454642Y50156257D01*
X61406257Y48204642D02*
X65244432Y44366466D01*
X55595960Y53958370D02*
X59426358Y50127973D01*
X61377973Y48176358D02*
X65208370Y44345960D01*
X55575454Y53922308D02*
X59398074Y50099688D01*
X61349688Y48148074D02*
X65172308Y44325454D01*
X55555655Y53885538D02*
X59369789Y50071404D01*
X61321404Y48119789D02*
X65135538Y44305655D01*
X55535149Y53849476D02*
X59341505Y50043120D01*
X61293120Y48091505D02*
X65099476Y44285149D01*
X55515350Y53812706D02*
X59313221Y50014835D01*
X61264835Y48063221D02*
X65062706Y44265350D01*
X55495551Y53775936D02*
X59284936Y49986551D01*
X61236551Y48034936D02*
X65025936Y44245551D01*
X55476459Y53738460D02*
X59256652Y49958267D01*
X61208267Y48006652D02*
X64988460Y44226459D01*
X55457367Y53700983D02*
X59228368Y49929983D01*
X61179983Y47978368D02*
X64950983Y44207367D01*
X55437568Y53664214D02*
X59200084Y49901698D01*
X61151698Y47950084D02*
X64914214Y44187568D01*
X55419184Y53626030D02*
X59171799Y49873414D01*
X61123414Y47921799D02*
X64876030Y44169184D01*
X55400092Y53588553D02*
X59143515Y49845130D01*
X61095130Y47893515D02*
X64838553Y44150092D01*
X55381707Y53550369D02*
X59115231Y49816846D01*
X61066846Y47865231D02*
X64800369Y44131707D01*
X55363322Y53512186D02*
X59086947Y49788561D01*
X61038561Y47836947D02*
X64762186Y44113322D01*
X55344937Y53474002D02*
X59058662Y49760277D01*
X61010277Y47808662D02*
X64724002Y44094937D01*
X55327260Y53435111D02*
X59030378Y49731993D01*
X60981993Y47780378D02*
X64685111Y44077260D01*
X55308875Y53396927D02*
X59002094Y49703708D01*
X60953708Y47752094D02*
X64646927Y44058875D01*
X55291197Y53358036D02*
X58973809Y49675424D01*
X60925424Y47723809D02*
X64608036Y44041197D01*
X55274227Y53318438D02*
X58945525Y49647140D01*
X60897140Y47695525D02*
X64568438Y44024227D01*
X55256549Y53279547D02*
X58917241Y49618856D01*
X60868856Y47667241D02*
X64529547Y44006549D01*
X55239579Y53239949D02*
X58888957Y49590571D01*
X60840571Y47638957D02*
X64489949Y43989579D01*
X55223315Y53199644D02*
X58860672Y49562287D01*
X60812287Y47610672D02*
X64449644Y43973315D01*
X55206345Y53160046D02*
X58832388Y49534003D01*
X60784003Y47582388D02*
X64410046Y43956345D01*
X55190081Y53119741D02*
X58804104Y49505719D01*
X60755719Y47554104D02*
X64369741Y43940081D01*
X55173818Y53079436D02*
X58775820Y49477434D01*
X60727434Y47525820D02*
X64329436Y43923818D01*
X55157554Y53039131D02*
X58747535Y49449150D01*
X60699150Y47497535D02*
X64289131Y43907554D01*
X55141998Y52998119D02*
X58719251Y49420866D01*
X60670866Y47469251D02*
X64248119Y43891998D01*
X55126441Y52957107D02*
X58690967Y49392581D01*
X60642581Y47440967D02*
X64207107Y43876441D01*
X55110885Y52916095D02*
X58662683Y49364297D01*
X60614297Y47412683D02*
X64166095Y43860885D01*
X55095329Y52875082D02*
X58634398Y49336013D01*
X60586013Y47384398D02*
X64125082Y43845329D01*
X55080480Y52833363D02*
X58606114Y49307729D01*
X60557729Y47356114D02*
X64083363Y43830480D01*
X55065630Y52791644D02*
X58577830Y49279444D01*
X60529444Y47327830D02*
X64041644Y43815630D01*
X55051488Y52749217D02*
X58549545Y49251160D01*
X60501160Y47299545D02*
X63999217Y43801488D01*
X55037346Y52706791D02*
X58521261Y49222876D01*
X60472876Y47271261D02*
X63956791Y43787346D01*
X55023204Y52664365D02*
X58492977Y49194592D01*
X60444592Y47242977D02*
X63914365Y43773204D01*
X55009062Y52621938D02*
X58464693Y49166307D01*
X60416307Y47214693D02*
X63871938Y43759062D01*
X54995627Y52578805D02*
X58436408Y49138023D01*
X60388023Y47186408D02*
X63828805Y43745627D01*
X54982192Y52535671D02*
X58408124Y49109739D01*
X60359739Y47158124D02*
X63785671Y43732192D01*
X54968757Y52492538D02*
X58379840Y49081455D01*
X60331455Y47129840D02*
X63742538Y43718757D01*
X54956029Y52448697D02*
X58351556Y49053170D01*
X60303170Y47101556D02*
X63698697Y43706029D01*
X54943301Y52404856D02*
X58323271Y49024886D01*
X60274886Y47073271D02*
X63654856Y43693301D01*
X54930573Y52361016D02*
X58294987Y48996602D01*
X60246602Y47044987D02*
X63611016Y43680573D01*
X54918552Y52316468D02*
X58266703Y48968317D01*
X60218317Y47016703D02*
X63566468Y43668552D01*
X54906531Y52271920D02*
X58238418Y48940033D01*
X60190033Y46988418D02*
X63521920Y43656531D01*
X54894510Y52227373D02*
X58210134Y48911749D01*
X60161749Y46960134D02*
X63477373Y43644510D01*
X54883197Y52182118D02*
X58181850Y48883465D01*
X60133465Y46931850D02*
X63432118Y43633197D01*
X54871883Y52136863D02*
X58153566Y48855180D01*
X60105180Y46903566D02*
X63386863Y43621883D01*
X54861276Y52090901D02*
X58125281Y48826896D01*
X60076896Y46875281D02*
X63340901Y43611276D01*
X54850670Y52044939D02*
X58096997Y48798612D01*
X60048612Y46846997D02*
X63294939Y43600670D01*
X54840063Y51998977D02*
X58068713Y48770328D01*
X60020328Y46818713D02*
X63248977Y43590063D01*
X54829457Y51953015D02*
X58040429Y48742043D01*
X59992043Y46790429D02*
X63203015Y43579457D01*
X54819557Y51906346D02*
X63156346Y43569557D01*
X54810365Y51858970D02*
X63108970Y43560365D01*
X54800465Y51812301D02*
X63062301Y43550465D01*
X54791980Y51764218D02*
X63014218Y43541980D01*
X54782788Y51716841D02*
X62966841Y43532788D01*
X54774302Y51668758D02*
X62918758Y43524302D01*
X54765817Y51620675D02*
X62870675Y43515817D01*
X54758039Y51571885D02*
X62821885Y43508039D01*
X54750261Y51523094D02*
X62773094Y43500261D01*
X54743190Y51473597D02*
X62723597Y43493190D01*
X54736119Y51424099D02*
X62674099Y43486119D01*
X54729755Y51373895D02*
X62623895Y43479755D01*
X54723391Y51323690D02*
X62573690Y43473391D01*
X54717027Y51273486D02*
X62523486Y43467027D01*
X54711370Y51222574D02*
X62472574Y43461370D01*
X54705713Y51171662D02*
X62421662Y43455713D01*
X54700763Y51120043D02*
X62370043Y43450763D01*
X54695813Y51068425D02*
X62318425Y43445813D01*
X54691571Y51016099D02*
X62266099Y43441571D01*
X54688035Y50963066D02*
X62213066Y43438035D01*
X54684500Y50910033D02*
X62160033Y43434500D01*
X54680964Y50857000D02*
X62107000Y43430964D01*
X54678136Y50803260D02*
X62053260Y43428136D01*
X54675307Y50749519D02*
X61999519Y43425307D01*
X54673893Y50694365D02*
X61944365Y43423893D01*
X54671772Y50639918D02*
X61889918Y43421772D01*
X54670358Y50584764D02*
X61834764Y43420358D01*
X54669651Y50528902D02*
X61778902Y43419651D01*
X54669651Y50472334D02*
X61722334Y43419651D01*
X54669651Y50415765D02*
X61665765Y43419651D01*
X54670358Y50358489D02*
X61608489Y43420358D01*
X54671065Y50301214D02*
X61551214Y43421065D01*
X54672479Y50243231D02*
X61493231Y43422479D01*
X54674600Y50184541D02*
X61434541Y43424600D01*
X54676722Y50125851D02*
X61375851Y43426722D01*
X54680257Y50065747D02*
X61315747Y43430257D01*
X54683793Y50005643D02*
X61255643Y43433793D01*
X54688035Y49944832D02*
X61194832Y43438035D01*
X54692278Y49884021D02*
X61134021Y43442278D01*
X54697935Y49821795D02*
X61071795Y43447935D01*
X54703592Y49759570D02*
X61009570Y43453592D01*
X54709956Y49696637D02*
X60946637Y43459956D01*
X54717027Y49632998D02*
X60882998Y43467027D01*
X54724805Y49568651D02*
X60818651Y43474805D01*
X54733290Y49503597D02*
X60753597Y43483290D01*
X54742483Y49437836D02*
X60687836Y43492483D01*
X54752382Y49371368D02*
X60621368Y43502382D01*
X54762989Y49304193D02*
X60554193Y43512989D01*
X54775009Y49235604D02*
X60485604Y43525009D01*
X54787030Y49167014D02*
X60417014Y43537030D01*
X54800465Y49097011D02*
X60347011Y43550465D01*
X54814607Y49026300D02*
X60276300Y43564607D01*
X54829457Y48954882D02*
X60204882Y43579457D01*
X54845720Y48882050D02*
X60132050Y43595720D01*
X54862691Y48808511D02*
X60058511Y43612691D01*
X54881075Y48733558D02*
X59983558Y43631075D01*
X54900874Y48657190D02*
X59907190Y43650874D01*
X54921381Y48580116D02*
X59830116Y43671381D01*
X54943301Y48501627D02*
X59751627Y43693301D01*
X54966635Y48421724D02*
X59671724Y43716635D01*
X54992091Y48339700D02*
X59589700Y43742091D01*
X55018254Y48256968D02*
X59506968Y43768254D01*
X55046538Y48172115D02*
X59422115Y43796538D01*
X55076944Y48085141D02*
X59335141Y43826944D01*
X55108764Y47996753D02*
X59246753Y43858764D01*
X55142705Y47906243D02*
X59156243Y43892705D01*
X55179475Y47812905D02*
X59062905Y43929475D01*
X55219072Y47716738D02*
X58966738Y43969072D01*
X55261499Y47617743D02*
X58867743Y44011499D01*
X55306754Y47515920D02*
X58765920Y44056754D01*
X55355544Y47410561D02*
X58660561Y44105544D01*
X55409284Y47300253D02*
X58550253Y44159284D01*
X55467974Y47184994D02*
X58434994Y44217974D01*
X55531614Y47064786D02*
X58314786Y44281614D01*
X55603031Y46936800D02*
X58186800Y44353031D01*
X55683642Y46799621D02*
X58049621Y44433642D01*
X55774858Y46651836D02*
X57901836Y44524858D01*
X55882339Y46487787D02*
X57737787Y44632339D01*
X56013153Y46300404D02*
X57550404Y44763153D01*
X56187102Y46069887D02*
X57319887Y44937102D01*
X56486915Y45713505D02*
X56963505Y45236915D01*
X65762742Y54512742D02*
X64489949Y53239949D01*
X64489949Y54512742D02*
X65762742Y53239949D01*
X951724Y53239949D02*
X2224517Y54512742D01*
X951724Y54512742D02*
X2224517Y53239949D01*
X9750961Y45236915D02*
X10227551Y45713505D01*
X9394579Y44937102D02*
X10527364Y46069887D01*
X9164062Y44763153D02*
X10701313Y46300404D01*
X8976679Y44632339D02*
X10832127Y46487787D01*
X8812630Y44524858D02*
X10939608Y46651836D01*
X8664845Y44433642D02*
X11030824Y46799621D01*
X8527666Y44353031D02*
X11111435Y46936800D01*
X8399680Y44281614D02*
X11182852Y47064786D01*
X8279472Y44217974D02*
X11246492Y47184994D01*
X8164213Y44159284D02*
X11305182Y47300253D01*
X8053905Y44105544D02*
X11358922Y47410561D01*
X7948546Y44056754D02*
X11407712Y47515920D01*
X7846723Y44011499D02*
X11452967Y47617743D01*
X7747728Y43969072D02*
X11495394Y47716738D01*
X7651561Y43929475D02*
X11534991Y47812905D01*
X7558223Y43892705D02*
X11571761Y47906243D01*
X7467713Y43858764D02*
X11605702Y47996753D01*
X7379325Y43826944D02*
X11637522Y48085141D01*
X7292351Y43796538D02*
X11667928Y48172115D01*
X7207498Y43768254D02*
X11696212Y48256968D01*
X7124766Y43742091D02*
X11722375Y48339700D01*
X7042742Y43716635D02*
X11747831Y48421724D01*
X6962839Y43693301D02*
X11771165Y48501627D01*
X6884350Y43671381D02*
X11793085Y48580116D01*
X6807276Y43650874D02*
X11813592Y48657190D01*
X6730908Y43631075D02*
X11833391Y48733558D01*
X6655955Y43612691D02*
X11851775Y48808511D01*
X6582416Y43595720D02*
X11868746Y48882050D01*
X6509584Y43579457D02*
X11885009Y48954882D01*
X6438166Y43564607D02*
X11899859Y49026300D01*
X6367455Y43550465D02*
X11914001Y49097011D01*
X6297452Y43537030D02*
X11927436Y49167014D01*
X6228862Y43525009D02*
X11939457Y49235604D01*
X6160273Y43512989D02*
X11951477Y49304193D01*
X6093098Y43502382D02*
X11962084Y49371368D01*
X6026630Y43492483D02*
X11971983Y49437836D01*
X5960869Y43483290D02*
X11981176Y49503597D01*
X5895815Y43474805D02*
X11989661Y49568651D01*
X5831468Y43467027D02*
X11997439Y49632998D01*
X5767829Y43459956D02*
X12004510Y49696637D01*
X5704896Y43453592D02*
X12010874Y49759570D01*
X5642671Y43447935D02*
X12016531Y49821795D01*
X5580445Y43442278D02*
X12022188Y49884021D01*
X5519634Y43438035D02*
X12026431Y49944832D01*
X5458823Y43433793D02*
X12030673Y50005643D01*
X5398719Y43430257D02*
X12034209Y50065747D01*
X5338615Y43426722D02*
X12037744Y50125851D01*
X5279925Y43424600D02*
X12039866Y50184541D01*
X5221235Y43422479D02*
X12041987Y50243231D01*
X5163252Y43421065D02*
X12043401Y50301214D01*
X5105977Y43420358D02*
X12044108Y50358489D01*
X5048701Y43419651D02*
X12044815Y50415765D01*
X4992132Y43419651D02*
X12044815Y50472334D01*
X4935564Y43419651D02*
X12044815Y50528902D01*
X4879702Y43420358D02*
X12044108Y50584764D01*
X4824548Y43421772D02*
X12042694Y50639918D01*
X4770101Y43423893D02*
X12040573Y50694365D01*
X4714947Y43425307D02*
X12039159Y50749519D01*
X4661206Y43428136D02*
X12036330Y50803260D01*
X4607466Y43430964D02*
X12033502Y50857000D01*
X4554433Y43434500D02*
X12029966Y50910033D01*
X4501400Y43438035D02*
X12026431Y50963066D01*
X4448367Y43441571D02*
X12022895Y51016099D01*
X4396041Y43445813D02*
X12018653Y51068425D01*
X4344423Y43450763D02*
X12013703Y51120043D01*
X4292804Y43455713D02*
X12008753Y51171662D01*
X4241892Y43461370D02*
X12003096Y51222574D01*
X4190980Y43467027D02*
X11997439Y51273486D01*
X4140776Y43473391D02*
X11991075Y51323690D01*
X4090571Y43479755D02*
X11984711Y51373895D01*
X4040367Y43486119D02*
X11978347Y51424099D01*
X3990869Y43493190D02*
X11971276Y51473597D01*
X3941372Y43500261D02*
X11964205Y51523094D01*
X3892581Y43508039D02*
X11956427Y51571885D01*
X3843791Y43515817D02*
X11948649Y51620675D01*
X3795708Y43524302D02*
X11940164Y51668758D01*
X3747625Y43532788D02*
X11931678Y51716841D01*
X3700248Y43541980D02*
X11922486Y51764218D01*
X3652165Y43550465D02*
X11914001Y51812301D01*
X3605496Y43560365D02*
X11904101Y51858970D01*
X3558120Y43569557D02*
X11894909Y51906346D01*
X8674037Y48742043D02*
X11885009Y51953015D01*
X3511451Y43579457D02*
X6722423Y46790429D01*
X8645753Y48770328D02*
X11874403Y51998977D01*
X3465489Y43590063D02*
X6694138Y46818713D01*
X8617469Y48798612D02*
X11863796Y52044939D01*
X3419527Y43600670D02*
X6665854Y46846997D01*
X8589185Y48826896D02*
X11853190Y52090901D01*
X3373565Y43611276D02*
X6637570Y46875281D01*
X8560900Y48855180D02*
X11842583Y52136863D01*
X3327603Y43621883D02*
X6609286Y46903566D01*
X8532616Y48883465D02*
X11831269Y52182118D01*
X3282348Y43633197D02*
X6581001Y46931850D01*
X8504332Y48911749D02*
X11819956Y52227373D01*
X3237093Y43644510D02*
X6552717Y46960134D01*
X8476048Y48940033D02*
X11807935Y52271920D01*
X3192546Y43656531D02*
X6524433Y46988418D01*
X8447763Y48968317D02*
X11795914Y52316468D01*
X3147998Y43668552D02*
X6496149Y47016703D01*
X8419479Y48996602D02*
X11783893Y52361016D01*
X3103450Y43680573D02*
X6467864Y47044987D01*
X8391195Y49024886D02*
X11771165Y52404856D01*
X3059610Y43693301D02*
X6439580Y47073271D01*
X8362910Y49053170D02*
X11758437Y52448697D01*
X3015769Y43706029D02*
X6411296Y47101556D01*
X8334626Y49081455D02*
X11745709Y52492538D01*
X2971928Y43718757D02*
X6383011Y47129840D01*
X8306342Y49109739D02*
X11732274Y52535671D01*
X2928795Y43732192D02*
X6354727Y47158124D01*
X8278058Y49138023D02*
X11718839Y52578805D01*
X2885661Y43745627D02*
X6326443Y47186408D01*
X8249773Y49166307D02*
X11705404Y52621938D01*
X2842528Y43759062D02*
X6298159Y47214693D01*
X8221489Y49194592D02*
X11691262Y52664365D01*
X2800101Y43773204D02*
X6269874Y47242977D01*
X8193205Y49222876D02*
X11677120Y52706791D01*
X2757675Y43787346D02*
X6241590Y47271261D01*
X8164921Y49251160D02*
X11662978Y52749217D01*
X2715249Y43801488D02*
X6213306Y47299545D01*
X8136636Y49279444D02*
X11648836Y52791644D01*
X2672822Y43815630D02*
X6185022Y47327830D01*
X8108352Y49307729D02*
X11633986Y52833363D01*
X2631103Y43830480D02*
X6156737Y47356114D01*
X8080068Y49336013D02*
X11619137Y52875082D01*
X2589384Y43845329D02*
X6128453Y47384398D01*
X8051783Y49364297D02*
X11603581Y52916095D01*
X2548371Y43860885D02*
X6100169Y47412683D01*
X8023499Y49392581D02*
X11588025Y52957107D01*
X2507359Y43876441D02*
X6071885Y47440967D01*
X7995215Y49420866D02*
X11572468Y52998119D01*
X2466347Y43891998D02*
X6043600Y47469251D01*
X7966931Y49449150D02*
X11556912Y53039131D01*
X2425335Y43907554D02*
X6015316Y47497535D01*
X7938646Y49477434D02*
X11540648Y53079436D01*
X2385030Y43923818D02*
X5987032Y47525820D01*
X7910362Y49505719D02*
X11524385Y53119741D01*
X2344725Y43940081D02*
X5958747Y47554104D01*
X7882078Y49534003D02*
X11508121Y53160046D01*
X2304420Y43956345D02*
X5930463Y47582388D01*
X7853794Y49562287D02*
X11491151Y53199644D01*
X2264822Y43973315D02*
X5902179Y47610672D01*
X7825509Y49590571D02*
X11474887Y53239949D01*
X2224517Y43989579D02*
X5873895Y47638957D01*
X7797225Y49618856D02*
X11457917Y53279547D01*
X2184919Y44006549D02*
X5845610Y47667241D01*
X7768941Y49647140D02*
X11440239Y53318438D01*
X2146028Y44024227D02*
X5817326Y47695525D01*
X7740657Y49675424D02*
X11423269Y53358036D01*
X2106430Y44041197D02*
X5789042Y47723809D01*
X7712372Y49703708D02*
X11405591Y53396927D01*
X2067539Y44058875D02*
X5760758Y47752094D01*
X7684088Y49731993D02*
X11387206Y53435111D01*
X2029355Y44077260D02*
X5732473Y47780378D01*
X7655804Y49760277D02*
X11369529Y53474002D01*
X1990464Y44094937D02*
X5704189Y47808662D01*
X7627519Y49788561D02*
X11351144Y53512186D01*
X1952280Y44113322D02*
X5675905Y47836947D01*
X7599235Y49816846D02*
X11332759Y53550369D01*
X1914097Y44131707D02*
X5647620Y47865231D01*
X7570951Y49845130D02*
X11314374Y53588553D01*
X1875913Y44150092D02*
X5619336Y47893515D01*
X7542667Y49873414D02*
X11295282Y53626030D01*
X1838436Y44169184D02*
X5591052Y47921799D01*
X7514382Y49901698D02*
X11276898Y53664214D01*
X1800252Y44187568D02*
X5562768Y47950084D01*
X7486098Y49929983D02*
X11257099Y53700983D01*
X1763483Y44207367D02*
X5534483Y47978368D01*
X7457814Y49958267D02*
X11238007Y53738460D01*
X1726006Y44226459D02*
X5506199Y48006652D01*
X7429530Y49986551D02*
X11218915Y53775936D01*
X1688530Y44245551D02*
X5477915Y48034936D01*
X7401245Y50014835D02*
X11199116Y53812706D01*
X1651760Y44265350D02*
X5449631Y48063221D01*
X7372961Y50043120D02*
X11179317Y53849476D01*
X1614990Y44285149D02*
X5421346Y48091505D01*
X7344677Y50071404D02*
X11158811Y53885538D01*
X1578928Y44305655D02*
X5393062Y48119789D01*
X7316392Y50099688D02*
X11139012Y53922308D01*
X1542158Y44325454D02*
X5364778Y48148074D01*
X7288108Y50127973D02*
X11118506Y53958370D01*
X1506096Y44345960D02*
X5336493Y48176358D01*
X7259824Y50156257D02*
X11098000Y53994432D01*
X1470034Y44366466D02*
X5308209Y48204642D01*
X7231540Y50184541D02*
X11076786Y54029788D01*
X1434678Y44387680D02*
X5279925Y48232926D01*
X7203255Y50212825D02*
X11056280Y54065850D01*
X1398616Y44408186D02*
X5251641Y48261211D01*
X7174971Y50241110D02*
X11035067Y54101206D01*
X1363260Y44429399D02*
X5223356Y48289495D01*
X7146687Y50269394D02*
X11013854Y54136561D01*
X1327905Y44450612D02*
X5195072Y48317779D01*
X7118403Y50297678D02*
X10991933Y54171209D01*
X1293257Y44472533D02*
X5166788Y48346063D01*
X7090118Y50325962D02*
X10970720Y54206564D01*
X1257902Y44493746D02*
X5138504Y48374348D01*
X7061834Y50354247D02*
X10948800Y54241213D01*
X1223253Y44515666D02*
X5110219Y48402632D01*
X7033550Y50382531D02*
X10926880Y54275861D01*
X1188605Y44537586D02*
X5081935Y48430916D01*
X7005265Y50410815D02*
X10904252Y54309802D01*
X1154664Y44560214D02*
X5053651Y48459201D01*
X6976981Y50439100D02*
X10882332Y54344450D01*
X1120016Y44582134D02*
X5025366Y48487485D01*
X6948697Y50467384D02*
X10859705Y54378391D01*
X1086075Y44604761D02*
X4997082Y48515769D01*
X6920413Y50495668D02*
X10837077Y54412333D01*
X1052133Y44627389D02*
X4968798Y48544053D01*
X6892128Y50523952D02*
X10814450Y54446274D01*
X1018192Y44650016D02*
X4940514Y48572338D01*
X6863844Y50552237D02*
X10791115Y54479508D01*
X984958Y44673351D02*
X4912229Y48600622D01*
X6835560Y50580521D02*
X10767781Y54512742D01*
X951724Y44696685D02*
X4883945Y48628906D01*
X6807276Y50608805D02*
X10744446Y54545976D01*
X918490Y44720020D02*
X4855661Y48657190D01*
X6778991Y50637089D02*
X10721112Y54579210D01*
X885256Y44743354D02*
X4827377Y48685475D01*
X6750707Y50665374D02*
X10697070Y54611737D01*
X852729Y44767396D02*
X4799092Y48713759D01*
X819495Y44790731D02*
X10673735Y54644971D01*
X786968Y44814772D02*
X10649694Y54677498D01*
X754442Y44838814D02*
X10625652Y54710024D01*
X722622Y44863563D02*
X10600903Y54741844D01*
X690095Y44887604D02*
X10576862Y54774371D01*
X658275Y44912353D02*
X10552113Y54806191D01*
X626455Y44937102D02*
X10527364Y54838011D01*
X595342Y44962558D02*
X10501908Y54869124D01*
X563523Y44987306D02*
X10477160Y54900943D01*
X532410Y45012762D02*
X10451704Y54932056D01*
X500590Y45038925D02*
X10425541Y54963876D01*
X469477Y45064381D02*
X10400085Y54994989D01*
X439072Y45090544D02*
X10373922Y55025394D01*
X408666Y45116707D02*
X10347759Y55055800D01*
X378261Y45142870D02*
X10321596Y55086205D01*
X347855Y45169033D02*
X10295433Y55116611D01*
X317450Y45195196D02*
X10269270Y55147016D01*
X287751Y45222066D02*
X10242400Y55176715D01*
X258053Y45248936D02*
X10215530Y55206413D01*
X228354Y45275806D02*
X10188660Y55236112D01*
X198656Y45302676D02*
X10161790Y55265810D01*
X169664Y45330253D02*
X10134213Y55294802D01*
X139966Y45357123D02*
X10107343Y55324500D01*
X110974Y45384700D02*
X10079766Y55353492D01*
X82690Y45412985D02*
X10051481Y55381776D01*
X53699Y45440562D02*
X10023904Y55410767D01*
X25414Y45468846D02*
X9995620Y55439052D01*
X-2870Y45497130D02*
X9967336Y55467336D01*
X12072233Y50482233D02*
G75*
G03X12072233Y50482233I-7090000J0D01*
G01*
X69840000Y13500000D02*
G75*
G03X69840000Y13500000I-3840000J0D01*
G01*
X66000000Y9700000D02*
X66000000Y17300000D01*
X66040000Y9700000D02*
X66040000Y17300000D01*
X66080000Y9700000D02*
X66080000Y17300000D01*
X66120000Y9701000D02*
X66120000Y17299000D01*
X66160000Y9703000D02*
X66160000Y17297000D01*
X66200000Y9705000D02*
X66200000Y17295000D01*
X66240000Y9707000D02*
X66240000Y17293000D01*
X66280000Y9710000D02*
X66280000Y12520000D01*
X66280000Y14480000D02*
X66280000Y17290000D01*
X66320000Y9713000D02*
X66320000Y12520000D01*
X66320000Y14480000D02*
X66320000Y17287000D01*
X66360000Y9716000D02*
X66360000Y12520000D01*
X66360000Y14480000D02*
X66360000Y17284000D01*
X66400000Y9720000D02*
X66400000Y12520000D01*
X66400000Y14480000D02*
X66400000Y17280000D01*
X66440000Y9725000D02*
X66440000Y12520000D01*
X66440000Y14480000D02*
X66440000Y17275000D01*
X66480000Y9730000D02*
X66480000Y12520000D01*
X66480000Y14480000D02*
X66480000Y17270000D01*
X66520000Y9735000D02*
X66520000Y12520000D01*
X66520000Y14480000D02*
X66520000Y17265000D01*
X66560000Y9741000D02*
X66560000Y12520000D01*
X66560000Y14480000D02*
X66560000Y17259000D01*
X66600000Y9747000D02*
X66600000Y12520000D01*
X66600000Y14480000D02*
X66600000Y17253000D01*
X66640000Y9753000D02*
X66640000Y12520000D01*
X66640000Y14480000D02*
X66640000Y17247000D01*
X66680000Y9760000D02*
X66680000Y12520000D01*
X66680000Y14480000D02*
X66680000Y17240000D01*
X66721000Y9768000D02*
X66721000Y12520000D01*
X66721000Y14480000D02*
X66721000Y17232000D01*
X66761000Y9775000D02*
X66761000Y12520000D01*
X66761000Y14480000D02*
X66761000Y17225000D01*
X66801000Y9784000D02*
X66801000Y12520000D01*
X66801000Y14480000D02*
X66801000Y17216000D01*
X66841000Y9793000D02*
X66841000Y12520000D01*
X66841000Y14480000D02*
X66841000Y17207000D01*
X66881000Y9802000D02*
X66881000Y12520000D01*
X66881000Y14480000D02*
X66881000Y17198000D01*
X66921000Y9811000D02*
X66921000Y12520000D01*
X66921000Y14480000D02*
X66921000Y17189000D01*
X66961000Y9821000D02*
X66961000Y12520000D01*
X66961000Y14480000D02*
X66961000Y17179000D01*
X67001000Y9832000D02*
X67001000Y12520000D01*
X67001000Y14480000D02*
X67001000Y17168000D01*
X67041000Y9843000D02*
X67041000Y12520000D01*
X67041000Y14480000D02*
X67041000Y17157000D01*
X67081000Y9855000D02*
X67081000Y12520000D01*
X67081000Y14480000D02*
X67081000Y17145000D01*
X67121000Y9866000D02*
X67121000Y12520000D01*
X67121000Y14480000D02*
X67121000Y17134000D01*
X67161000Y9879000D02*
X67161000Y12520000D01*
X67161000Y14480000D02*
X67161000Y17121000D01*
X67201000Y9892000D02*
X67201000Y12520000D01*
X67201000Y14480000D02*
X67201000Y17108000D01*
X67241000Y9905000D02*
X67241000Y12520000D01*
X67241000Y14480000D02*
X67241000Y17095000D01*
X67281000Y9919000D02*
X67281000Y12520000D01*
X67281000Y14480000D02*
X67281000Y17081000D01*
X67321000Y9934000D02*
X67321000Y12520000D01*
X67321000Y14480000D02*
X67321000Y17066000D01*
X67361000Y9948000D02*
X67361000Y12520000D01*
X67361000Y14480000D02*
X67361000Y17052000D01*
X67401000Y9964000D02*
X67401000Y12520000D01*
X67401000Y14480000D02*
X67401000Y17036000D01*
X67441000Y9980000D02*
X67441000Y12520000D01*
X67441000Y14480000D02*
X67441000Y17020000D01*
X67481000Y9996000D02*
X67481000Y12520000D01*
X67481000Y14480000D02*
X67481000Y17004000D01*
X67521000Y10013000D02*
X67521000Y12520000D01*
X67521000Y14480000D02*
X67521000Y16987000D01*
X67561000Y10031000D02*
X67561000Y12520000D01*
X67561000Y14480000D02*
X67561000Y16969000D01*
X67601000Y10049000D02*
X67601000Y12520000D01*
X67601000Y14480000D02*
X67601000Y16951000D01*
X67641000Y10067000D02*
X67641000Y12520000D01*
X67641000Y14480000D02*
X67641000Y16933000D01*
X67681000Y10087000D02*
X67681000Y12520000D01*
X67681000Y14480000D02*
X67681000Y16913000D01*
X67721000Y10106000D02*
X67721000Y12520000D01*
X67721000Y14480000D02*
X67721000Y16894000D01*
X67761000Y10127000D02*
X67761000Y12520000D01*
X67761000Y14480000D02*
X67761000Y16873000D01*
X67801000Y10148000D02*
X67801000Y12520000D01*
X67801000Y14480000D02*
X67801000Y16852000D01*
X67841000Y10169000D02*
X67841000Y12520000D01*
X67841000Y14480000D02*
X67841000Y16831000D01*
X67881000Y10191000D02*
X67881000Y12520000D01*
X67881000Y14480000D02*
X67881000Y16809000D01*
X67921000Y10214000D02*
X67921000Y12520000D01*
X67921000Y14480000D02*
X67921000Y16786000D01*
X67961000Y10237000D02*
X67961000Y12520000D01*
X67961000Y14480000D02*
X67961000Y16763000D01*
X68001000Y10261000D02*
X68001000Y12520000D01*
X68001000Y14480000D02*
X68001000Y16739000D01*
X68041000Y10286000D02*
X68041000Y12520000D01*
X68041000Y14480000D02*
X68041000Y16714000D01*
X68081000Y10312000D02*
X68081000Y12520000D01*
X68081000Y14480000D02*
X68081000Y16688000D01*
X68121000Y10338000D02*
X68121000Y12520000D01*
X68121000Y14480000D02*
X68121000Y16662000D01*
X68161000Y10365000D02*
X68161000Y12520000D01*
X68161000Y14480000D02*
X68161000Y16635000D01*
X68201000Y10392000D02*
X68201000Y12520000D01*
X68201000Y14480000D02*
X68201000Y16608000D01*
X68241000Y10421000D02*
X68241000Y16579000D01*
X68281000Y10450000D02*
X68281000Y16550000D01*
X68321000Y10480000D02*
X68321000Y16520000D01*
X68361000Y10510000D02*
X68361000Y16490000D01*
X68401000Y10542000D02*
X68401000Y16458000D01*
X68441000Y10574000D02*
X68441000Y16426000D01*
X68481000Y10608000D02*
X68481000Y16392000D01*
X68521000Y10642000D02*
X68521000Y16358000D01*
X68561000Y10677000D02*
X68561000Y16323000D01*
X68601000Y10714000D02*
X68601000Y16286000D01*
X68641000Y10751000D02*
X68641000Y16249000D01*
X68681000Y10789000D02*
X68681000Y16211000D01*
X68721000Y10829000D02*
X68721000Y16171000D01*
X68761000Y10870000D02*
X68761000Y16130000D01*
X68801000Y10912000D02*
X68801000Y16088000D01*
X68841000Y10955000D02*
X68841000Y16045000D01*
X68881000Y11000000D02*
X68881000Y16000000D01*
X68921000Y11046000D02*
X68921000Y15954000D01*
X68961000Y11093000D02*
X68961000Y15907000D01*
X69001000Y11143000D02*
X69001000Y15857000D01*
X69041000Y11193000D02*
X69041000Y15807000D01*
X69081000Y11246000D02*
X69081000Y15754000D01*
X69121000Y11301000D02*
X69121000Y15699000D01*
X69161000Y11358000D02*
X69161000Y15642000D01*
X69201000Y11417000D02*
X69201000Y15583000D01*
X69241000Y11478000D02*
X69241000Y15522000D01*
X69281000Y11543000D02*
X69281000Y15457000D01*
X69321000Y11610000D02*
X69321000Y15390000D01*
X69361000Y11680000D02*
X69361000Y15320000D01*
X69401000Y11755000D02*
X69401000Y15245000D01*
X69441000Y11833000D02*
X69441000Y15167000D01*
X69481000Y11916000D02*
X69481000Y15084000D01*
X69521000Y12005000D02*
X69521000Y14995000D01*
X69561000Y12100000D02*
X69561000Y14900000D01*
X69601000Y12203000D02*
X69601000Y14797000D01*
X69641000Y12316000D02*
X69641000Y14684000D01*
X69681000Y12443000D02*
X69681000Y14557000D01*
X69721000Y12587000D02*
X69721000Y14413000D01*
X69761000Y12760000D02*
X69761000Y14240000D01*
X69801000Y12987000D02*
X69801000Y14013000D01*
X62550000Y13500000D02*
X63750000Y13500000D01*
X63150000Y12850000D02*
X63150000Y14150000D01*
X60650000Y24100000D02*
X60650000Y25400000D01*
X60050000Y24750000D02*
X61250000Y24750000D01*
X67301000Y24237000D02*
X67301000Y25263000D01*
X67261000Y24010000D02*
X67261000Y25490000D01*
X67221000Y23837000D02*
X67221000Y25663000D01*
X67181000Y23693000D02*
X67181000Y25807000D01*
X67141000Y23566000D02*
X67141000Y25934000D01*
X67101000Y23453000D02*
X67101000Y26047000D01*
X67061000Y23350000D02*
X67061000Y26150000D01*
X67021000Y23255000D02*
X67021000Y26245000D01*
X66981000Y23166000D02*
X66981000Y26334000D01*
X66941000Y23083000D02*
X66941000Y26417000D01*
X66901000Y23005000D02*
X66901000Y26495000D01*
X66861000Y22930000D02*
X66861000Y26570000D01*
X66821000Y22860000D02*
X66821000Y26640000D01*
X66781000Y22793000D02*
X66781000Y26707000D01*
X66741000Y22728000D02*
X66741000Y26772000D01*
X66701000Y22667000D02*
X66701000Y26833000D01*
X66661000Y22608000D02*
X66661000Y26892000D01*
X66621000Y22551000D02*
X66621000Y26949000D01*
X66581000Y22496000D02*
X66581000Y27004000D01*
X66541000Y22443000D02*
X66541000Y27057000D01*
X66501000Y22393000D02*
X66501000Y27107000D01*
X66461000Y22343000D02*
X66461000Y27157000D01*
X66421000Y22296000D02*
X66421000Y27204000D01*
X66381000Y22250000D02*
X66381000Y27250000D01*
X66341000Y22205000D02*
X66341000Y27295000D01*
X66301000Y22162000D02*
X66301000Y27338000D01*
X66261000Y22120000D02*
X66261000Y27380000D01*
X66221000Y22079000D02*
X66221000Y27421000D01*
X66181000Y22039000D02*
X66181000Y27461000D01*
X66141000Y22001000D02*
X66141000Y27499000D01*
X66101000Y21964000D02*
X66101000Y27536000D01*
X66061000Y21927000D02*
X66061000Y27573000D01*
X66021000Y21892000D02*
X66021000Y27608000D01*
X65981000Y21858000D02*
X65981000Y27642000D01*
X65941000Y21824000D02*
X65941000Y27676000D01*
X65901000Y21792000D02*
X65901000Y27708000D01*
X65861000Y21760000D02*
X65861000Y27740000D01*
X65821000Y21730000D02*
X65821000Y27770000D01*
X65781000Y21700000D02*
X65781000Y27800000D01*
X65741000Y21671000D02*
X65741000Y27829000D01*
X65701000Y25730000D02*
X65701000Y27858000D01*
X65701000Y21642000D02*
X65701000Y23770000D01*
X65661000Y25730000D02*
X65661000Y27885000D01*
X65661000Y21615000D02*
X65661000Y23770000D01*
X65621000Y25730000D02*
X65621000Y27912000D01*
X65621000Y21588000D02*
X65621000Y23770000D01*
X65581000Y25730000D02*
X65581000Y27938000D01*
X65581000Y21562000D02*
X65581000Y23770000D01*
X65541000Y25730000D02*
X65541000Y27964000D01*
X65541000Y21536000D02*
X65541000Y23770000D01*
X65501000Y25730000D02*
X65501000Y27989000D01*
X65501000Y21511000D02*
X65501000Y23770000D01*
X65461000Y25730000D02*
X65461000Y28013000D01*
X65461000Y21487000D02*
X65461000Y23770000D01*
X65421000Y25730000D02*
X65421000Y28036000D01*
X65421000Y21464000D02*
X65421000Y23770000D01*
X65381000Y25730000D02*
X65381000Y28059000D01*
X65381000Y21441000D02*
X65381000Y23770000D01*
X65341000Y25730000D02*
X65341000Y28081000D01*
X65341000Y21419000D02*
X65341000Y23770000D01*
X65301000Y25730000D02*
X65301000Y28102000D01*
X65301000Y21398000D02*
X65301000Y23770000D01*
X65261000Y25730000D02*
X65261000Y28123000D01*
X65261000Y21377000D02*
X65261000Y23770000D01*
X65221000Y25730000D02*
X65221000Y28144000D01*
X65221000Y21356000D02*
X65221000Y23770000D01*
X65181000Y25730000D02*
X65181000Y28163000D01*
X65181000Y21337000D02*
X65181000Y23770000D01*
X65141000Y25730000D02*
X65141000Y28183000D01*
X65141000Y21317000D02*
X65141000Y23770000D01*
X65101000Y25730000D02*
X65101000Y28201000D01*
X65101000Y21299000D02*
X65101000Y23770000D01*
X65061000Y25730000D02*
X65061000Y28219000D01*
X65061000Y21281000D02*
X65061000Y23770000D01*
X65021000Y25730000D02*
X65021000Y28237000D01*
X65021000Y21263000D02*
X65021000Y23770000D01*
X64981000Y25730000D02*
X64981000Y28254000D01*
X64981000Y21246000D02*
X64981000Y23770000D01*
X64941000Y25730000D02*
X64941000Y28270000D01*
X64941000Y21230000D02*
X64941000Y23770000D01*
X64901000Y25730000D02*
X64901000Y28286000D01*
X64901000Y21214000D02*
X64901000Y23770000D01*
X64861000Y25730000D02*
X64861000Y28302000D01*
X64861000Y21198000D02*
X64861000Y23770000D01*
X64821000Y25730000D02*
X64821000Y28316000D01*
X64821000Y21184000D02*
X64821000Y23770000D01*
X64781000Y25730000D02*
X64781000Y28331000D01*
X64781000Y21169000D02*
X64781000Y23770000D01*
X64741000Y25730000D02*
X64741000Y28345000D01*
X64741000Y21155000D02*
X64741000Y23770000D01*
X64701000Y25730000D02*
X64701000Y28358000D01*
X64701000Y21142000D02*
X64701000Y23770000D01*
X64661000Y25730000D02*
X64661000Y28371000D01*
X64661000Y21129000D02*
X64661000Y23770000D01*
X64621000Y25730000D02*
X64621000Y28384000D01*
X64621000Y21116000D02*
X64621000Y23770000D01*
X64581000Y25730000D02*
X64581000Y28395000D01*
X64581000Y21105000D02*
X64581000Y23770000D01*
X64541000Y25730000D02*
X64541000Y28407000D01*
X64541000Y21093000D02*
X64541000Y23770000D01*
X64501000Y25730000D02*
X64501000Y28418000D01*
X64501000Y21082000D02*
X64501000Y23770000D01*
X64461000Y25730000D02*
X64461000Y28429000D01*
X64461000Y21071000D02*
X64461000Y23770000D01*
X64421000Y25730000D02*
X64421000Y28439000D01*
X64421000Y21061000D02*
X64421000Y23770000D01*
X64381000Y25730000D02*
X64381000Y28448000D01*
X64381000Y21052000D02*
X64381000Y23770000D01*
X64341000Y25730000D02*
X64341000Y28457000D01*
X64341000Y21043000D02*
X64341000Y23770000D01*
X64301000Y25730000D02*
X64301000Y28466000D01*
X64301000Y21034000D02*
X64301000Y23770000D01*
X64261000Y25730000D02*
X64261000Y28475000D01*
X64261000Y21025000D02*
X64261000Y23770000D01*
X64221000Y25730000D02*
X64221000Y28482000D01*
X64221000Y21018000D02*
X64221000Y23770000D01*
X64180000Y25730000D02*
X64180000Y28490000D01*
X64180000Y21010000D02*
X64180000Y23770000D01*
X64140000Y25730000D02*
X64140000Y28497000D01*
X64140000Y21003000D02*
X64140000Y23770000D01*
X64100000Y25730000D02*
X64100000Y28503000D01*
X64100000Y20997000D02*
X64100000Y23770000D01*
X64060000Y25730000D02*
X64060000Y28509000D01*
X64060000Y20991000D02*
X64060000Y23770000D01*
X64020000Y25730000D02*
X64020000Y28515000D01*
X64020000Y20985000D02*
X64020000Y23770000D01*
X63980000Y25730000D02*
X63980000Y28520000D01*
X63980000Y20980000D02*
X63980000Y23770000D01*
X63940000Y25730000D02*
X63940000Y28525000D01*
X63940000Y20975000D02*
X63940000Y23770000D01*
X63900000Y25730000D02*
X63900000Y28530000D01*
X63900000Y20970000D02*
X63900000Y23770000D01*
X63860000Y25730000D02*
X63860000Y28534000D01*
X63860000Y20966000D02*
X63860000Y23770000D01*
X63820000Y25730000D02*
X63820000Y28537000D01*
X63820000Y20963000D02*
X63820000Y23770000D01*
X63780000Y25730000D02*
X63780000Y28540000D01*
X63780000Y20960000D02*
X63780000Y23770000D01*
X63740000Y20957000D02*
X63740000Y28543000D01*
X63700000Y20955000D02*
X63700000Y28545000D01*
X63660000Y20953000D02*
X63660000Y28547000D01*
X63620000Y20951000D02*
X63620000Y28549000D01*
X63580000Y20950000D02*
X63580000Y28550000D01*
X63540000Y20950000D02*
X63540000Y28550000D01*
X63500000Y20950000D02*
X63500000Y28550000D01*
X67340000Y24750000D02*
G75*
G03X67340000Y24750000I-3840000J0D01*
G01*
M02*
