M48
;DRILL file {KiCad no-vcs-found-be10de8~57~ubuntu16.10.1} date Thu Mar 16 12:18:55 2017
;FORMAT={-:-/ absolute / metric / decimal}
FMAT,2
METRIC,TZ
T1C0.800
T2C1.000
T3C1.100
T4C1.200
%
G90
G05
M71
T1
X62.972Y-134.36
X65.472Y-134.36
X74.972Y-129.36
X74.972Y-131.9
X74.972Y-134.44
X84.472Y-115.74
X84.472Y-118.28
X84.472Y-120.82
X84.472Y-123.36
X92.092Y-115.74
X92.092Y-118.28
X92.092Y-120.82
X92.092Y-123.36
X98.472Y-115.61
X100.972Y-115.61
X118.472Y-108.36
X120.972Y-108.36
X120.972Y-119.61
X123.472Y-119.61
T2
X56.222Y-115.07
X56.222Y-117.61
X64.722Y-117.57
X64.722Y-120.11
X64.722Y-122.65
X83.932Y-75.61
X83.972Y-92.86
X83.972Y-97.94
X86.472Y-75.61
X86.512Y-95.4
X89.012Y-75.61
T3
X67.932Y-110.61
X70.472Y-110.61
X72.472Y-116.61
X75.012Y-116.61
X93.722Y-102.61
X93.722Y-105.15
X100.182Y-95.36
X102.722Y-95.36
X118.472Y-99.61
X121.012Y-99.61
T4
X59.436Y-80.86
X59.497Y-99.385
X61.972Y-101.86
X62.972Y-84.396
X83.472Y-131.61
X86.972Y-131.61
X93.722Y-131.61
X97.222Y-131.61
X100.722Y-131.61
X116.186Y-84.396
X116.472Y-131.61
X119.722Y-80.86
X119.972Y-131.61
X123.472Y-131.61
T0
M30
